<?xml version="1.0" standalone="no"?>
<!DOCTYPE svg PUBLIC "-//W3C//DTD SVG 20010904//EN"
 "http://www.w3.org/TR/2001/REC-SVG-20010904/DTD/svg10.dtd">
<svg version="1.0" xmlns="http://www.w3.org/2000/svg"
 width="996.000000pt" height="814.000000pt" viewBox="0 0 996.000000 814.000000"
 preserveAspectRatio="xMidYMid meet">

<g transform="translate(0.000000,814.000000) scale(0.100000,-0.100000)"
fill="#000000" stroke="none">
<path d="M3493 7233 c-17 -6 -16 -32 3 -84 9 -24 21 -65 28 -90 l13 -47 -61
-6 c-100 -11 -223 -53 -266 -92 -20 -19 -42 -34 -47 -34 -6 0 -13 31 -15 69
-7 90 -34 126 -161 209 -89 59 -96 62 -156 62 -58 0 -65 -3 -92 -31 -20 -22
-29 -41 -29 -65 0 -19 -2 -34 -5 -34 -3 0 -41 11 -83 25 -42 14 -102 29 -132
35 -85 16 -494 13 -608 -5 -156 -24 -271 -55 -302 -81 -22 -19 -40 -24 -86
-24 -67 0 -135 -18 -193 -52 -39 -22 -40 -22 -78 -4 -57 28 -306 75 -396 76
-121 0 -210 -48 -236 -130 -31 -96 -11 -193 75 -360 48 -94 84 -128 259 -241
79 -52 145 -96 145 -99 0 -4 -28 -13 -62 -22 -214 -54 -326 -126 -364 -234
-11 -32 -24 -67 -28 -77 -5 -10 -6 -46 -2 -79 6 -62 29 -111 74 -160 34 -37
23 -64 -41 -92 -62 -27 -132 -99 -122 -124 17 -42 15 -49 -20 -76 -50 -38
-118 -106 -138 -137 -21 -31 -16 -36 59 -66 99 -40 245 -168 265 -233 20 -66
60 -111 129 -146 112 -57 198 -64 374 -31 5 1 13 -23 17 -53 4 -30 21 -84 38
-120 16 -36 26 -68 22 -73 -4 -4 -45 -12 -91 -18 -98 -12 -120 -22 -120 -53 0
-27 25 -105 51 -161 10 -22 21 -55 25 -72 6 -30 5 -31 -47 -46 -30 -8 -103
-27 -164 -42 -130 -31 -155 -40 -217 -78 -52 -31 -57 -46 -34 -99 8 -18 24
-58 37 -88 32 -75 89 -139 157 -173 58 -30 195 -83 245 -95 l29 -7 -20 -25
c-10 -14 -22 -38 -26 -53 -4 -16 -18 -40 -33 -53 -21 -19 -23 -27 -14 -38 9
-11 9 -20 2 -35 -9 -16 -7 -23 15 -40 14 -11 41 -23 60 -27 40 -7 42 -16 10
-41 -27 -20 -136 -158 -136 -172 0 -16 30 -21 128 -21 144 -1 166 -8 230 -80
30 -33 67 -67 83 -76 95 -48 349 -95 349 -64 0 6 10 10 21 10 24 0 119 49 119
61 0 4 9 11 20 14 57 18 155 159 166 238 6 41 10 47 30 47 13 0 27 -6 31 -14
8 -13 154 -86 173 -86 12 0 144 -49 233 -86 l58 -24 10 27 c14 36 -3 73 -113
251 -88 142 -103 164 -135 204 -18 22 -33 41 -33 43 0 1 24 18 53 37 65 44
121 69 272 123 66 23 146 54 177 69 31 14 63 26 71 26 8 0 71 43 141 95 69 52
130 95 135 95 5 0 4 -16 -2 -35 -7 -24 -7 -39 0 -46 15 -15 58 8 72 37 15 33
27 30 35 -7 3 -17 15 -44 27 -60 l21 -29 -66 -73 c-35 -39 -85 -91 -109 -113
-24 -23 -57 -59 -73 -80 -16 -22 -52 -65 -80 -96 -40 -44 -54 -67 -59 -100 -3
-24 -13 -80 -22 -126 -18 -95 -16 -108 28 -275 11 -41 62 -105 93 -116 17 -7
11 -14 -45 -52 -35 -24 -100 -58 -143 -75 l-79 -32 -195 -1 c-207 -1 -221 -2
-347 -31 -44 -10 -107 -21 -140 -24 -52 -5 -58 -4 -42 8 44 34 19 47 -181 93
-146 33 -165 35 -272 30 -79 -4 -132 -12 -168 -26 -58 -21 -64 -20 -132 19
-25 14 -70 36 -100 49 -54 22 -317 149 -415 199 -27 14 -81 46 -120 72 -38 25
-86 53 -105 60 -19 8 -58 29 -87 47 -28 18 -76 43 -106 57 -30 13 -58 29 -61
35 -10 16 -46 14 -46 -3 0 -8 28 -29 63 -46 34 -18 91 -49 127 -70 36 -20 82
-45 103 -55 31 -14 36 -21 31 -39 -4 -11 -8 -23 -10 -25 -3 -3 -56 22 -119 54
-62 33 -117 56 -121 53 -13 -13 5 -35 43 -53 68 -31 197 -97 247 -125 l48 -27
-38 3 c-43 3 -166 51 -292 114 -97 47 -142 60 -142 38 0 -8 25 -24 58 -37 31
-13 73 -33 92 -44 19 -10 74 -34 121 -52 102 -39 168 -72 268 -132 84 -51 283
-147 350 -169 78 -25 205 -98 218 -124 6 -14 13 -56 14 -94 3 -88 17 -127 56
-160 18 -15 51 -64 73 -108 22 -44 54 -99 70 -121 17 -23 30 -46 30 -53 0 -24
61 -148 96 -196 28 -38 38 -63 45 -116 27 -204 32 -546 11 -729 -12 -102 -12
-118 3 -163 14 -43 24 -55 67 -79 28 -16 58 -26 69 -24 26 7 49 61 64 155 7
42 22 89 33 105 40 57 82 127 82 134 0 4 30 43 66 86 85 99 149 230 158 323 4
36 2 118 -3 182 -14 164 -30 193 -157 284 -54 38 -118 81 -143 96 -131 76
-284 134 -330 125 -28 -6 -28 -6 -21 35 4 22 5 59 2 81 -5 40 -5 40 24 33 29
-6 91 -37 367 -179 81 -42 168 -83 194 -92 96 -33 209 -79 235 -97 14 -10 29
-18 33 -18 3 0 30 -11 59 -24 29 -14 71 -29 92 -35 52 -14 87 -47 103 -96 8
-22 27 -59 42 -83 16 -24 35 -55 43 -70 34 -66 115 -126 201 -149 104 -29 126
-33 183 -33 114 0 119 19 27 113 -71 74 -71 80 12 93 21 3 50 12 64 20 25 12
29 11 66 -24 48 -45 107 -149 123 -218 6 -28 14 -112 16 -185 3 -74 7 -150 9
-169 2 -19 4 -47 4 -62 1 -20 5 -26 16 -22 12 5 14 34 10 195 -6 217 -14 272
-53 352 -16 31 -25 57 -21 57 4 0 29 -17 56 -38 26 -21 71 -52 98 -69 63 -40
95 -75 127 -138 40 -78 58 -151 58 -232 0 -58 3 -73 15 -73 12 0 15 16 15 88
0 89 -13 141 -63 242 -22 44 -90 120 -107 120 -5 0 -31 19 -58 42 -27 24 -57
48 -68 54 -15 9 -2 12 66 13 47 1 112 5 145 10 33 5 63 7 67 5 4 -3 12 4 17
14 9 17 0 24 -99 63 -108 44 -159 73 -146 86 3 3 32 -1 63 -11 32 -9 85 -24
118 -32 109 -27 300 -102 410 -161 149 -80 168 -87 263 -93 70 -4 96 -2 106 9
8 7 29 16 47 20 35 7 55 41 25 41 -8 0 -20 9 -26 20 -6 11 -19 20 -28 20 -21
0 -97 68 -134 120 -14 19 -36 59 -49 89 l-23 54 30 25 c121 102 157 146 186
227 14 39 36 95 48 125 49 119 53 130 47 136 -3 4 -27 -1 -53 -10 -57 -19 -91
-20 -183 -4 -52 9 -76 9 -95 0 l-24 -11 -4 72 c-3 57 1 86 19 136 13 35 23 67
23 72 0 18 -29 9 -35 -11 -3 -11 -14 -24 -24 -30 -11 -5 -20 -25 -24 -49 -7
-53 -75 -229 -101 -263 -21 -27 -128 -117 -261 -219 -64 -50 -90 -62 -215
-103 -79 -25 -150 -46 -159 -46 -9 0 -42 -11 -73 -24 -32 -13 -58 -23 -58 -22
0 2 19 16 43 33 38 28 159 72 214 79 12 1 47 16 76 33 30 17 62 31 71 31 9 0
16 4 16 9 0 4 34 34 75 66 144 110 275 281 295 383 6 31 22 100 37 152 14 52
27 104 28 115 1 11 3 24 4 29 0 5 13 -9 27 -30 14 -21 39 -52 54 -69 42 -45
50 -68 50 -139 0 -51 -5 -75 -25 -111 -28 -49 -26 -72 5 -55 28 15 60 95 60
150 0 26 -10 91 -21 146 -12 58 -21 132 -20 179 0 44 -2 88 -5 98 -8 25 -31
21 -38 -7 -6 -24 -73 -72 -84 -61 -12 12 -8 151 5 203 15 63 11 75 -22 62 -36
-14 -167 -109 -197 -144 -15 -17 -27 -29 -28 -26 0 3 -2 51 -4 106 -3 74 -9
114 -24 148 l-21 46 42 1 c81 1 127 8 163 25 39 19 54 42 35 53 -7 5 -10 18
-6 33 8 33 -50 139 -107 195 -47 45 -208 131 -298 158 -108 32 -170 76 -205
144 l-17 34 27 -7 c15 -4 45 -19 67 -34 68 -45 78 -49 103 -44 29 5 30 14 14
113 -7 38 -9 72 -6 75 3 4 19 -3 36 -15 75 -54 188 -80 208 -48 4 7 20 20 36
30 17 11 27 26 27 42 0 42 17 70 59 98 52 34 57 34 65 -5 11 -57 60 -142 105
-185 89 -83 226 -110 397 -78 52 10 98 14 102 10 4 -4 -6 -17 -22 -30 -16 -13
-26 -28 -21 -34 4 -7 2 -18 -4 -25 -56 -68 -110 -248 -111 -368 0 -115 21
-194 91 -345 35 -75 132 -162 222 -198 58 -23 257 -53 276 -41 20 13 139 -26
172 -55 18 -16 43 -29 56 -29 13 0 23 -3 23 -7 0 -12 -239 -157 -385 -234 -33
-17 -85 -49 -115 -71 -30 -21 -83 -59 -117 -83 -34 -25 -100 -63 -145 -85 -89
-43 -122 -75 -91 -87 10 -4 23 -12 28 -19 14 -17 156 -47 232 -48 34 0 63 -4
63 -8 0 -3 -10 -19 -23 -35 -39 -48 -97 -133 -97 -142 0 -5 7 -14 15 -21 20
-17 155 -4 155 16 0 16 -59 29 -89 19 -29 -9 -26 5 12 55 66 88 76 103 71 112
-3 4 7 8 21 8 22 0 26 -3 19 -17 -4 -10 -10 -65 -13 -123 -5 -80 -2 -119 11
-165 21 -77 28 -95 39 -95 5 0 9 -7 9 -15 0 -20 10 -19 76 10 31 14 61 25 66
25 5 0 25 -35 44 -78 53 -115 75 -154 98 -180 11 -13 26 -35 32 -50 7 -15 13
-21 13 -14 1 6 8 12 16 12 10 0 14 10 13 34 -1 19 8 58 20 87 11 30 29 90 40
134 11 44 29 105 39 135 35 96 69 266 83 410 7 77 55 276 70 295 4 5 12 28 16
50 4 22 39 103 79 180 39 77 79 161 89 188 10 26 35 71 57 99 21 29 39 58 39
64 0 6 7 17 15 24 19 16 19 6 1 -28 -39 -76 -54 -178 -61 -422 -5 -174 -21
-253 -70 -355 -41 -83 -39 -95 18 -95 15 0 27 -3 27 -7 1 -5 2 -75 4 -158 2
-162 3 -164 70 -264 20 -29 36 -57 36 -63 0 -5 13 -26 29 -46 29 -38 48 -71
74 -132 19 -42 82 -105 120 -119 55 -21 117 -13 174 21 29 18 53 39 53 47 0 8
8 24 18 35 10 12 23 39 29 61 28 100 31 118 28 128 -2 7 -6 53 -9 102 -3 50
-10 108 -16 130 -15 60 -13 66 14 59 24 -6 41 12 144 146 69 89 121 302 106
433 -7 61 -7 61 -99 151 -51 50 -95 101 -99 114 -4 12 -11 22 -16 22 -5 0 -14
9 -21 21 -17 32 4 45 32 20 13 -11 78 -47 145 -80 109 -54 220 -132 266 -186
9 -11 26 -52 38 -91 l21 -71 -20 -94 c-31 -149 -89 -275 -187 -409 -30 -41
-58 -84 -63 -95 -5 -11 -57 -74 -115 -140 -58 -65 -106 -123 -106 -127 0 -24
63 6 130 63 30 25 82 64 115 87 93 63 131 108 260 317 7 11 16 41 20 65 4 25
13 63 20 85 7 23 14 85 14 138 1 94 -1 101 -34 163 -19 35 -35 69 -35 75 0 51
-110 156 -227 219 -35 18 -63 37 -63 42 0 5 12 13 28 19 48 18 103 49 142 80
21 17 43 29 48 25 5 -3 14 -32 21 -63 6 -32 27 -92 47 -132 75 -156 114 -310
114 -461 0 -107 13 -150 43 -150 38 0 237 290 237 344 0 9 3 16 8 16 9 0 56
-31 112 -75 59 -46 101 -65 144 -65 20 0 53 -7 73 -15 119 -45 276 -36 323 19
16 20 2 20 -46 0 -31 -13 -59 -15 -132 -11 -51 3 -98 10 -105 15 -7 5 -43 14
-82 20 -57 8 -83 19 -140 56 -38 25 -73 53 -78 61 -4 8 -12 15 -16 15 -18 0
-156 153 -179 198 -13 26 -29 54 -35 62 -13 17 -16 21 -102 175 -65 117 -69
128 -85 268 -6 48 -22 118 -35 155 -28 78 -45 173 -45 253 0 51 34 175 60 221
6 10 10 27 10 37 0 33 19 34 38 2 16 -29 32 -38 44 -25 7 7 -39 94 -57 108
-15 13 -31 76 -18 76 4 0 31 -46 58 -102 28 -56 68 -125 90 -152 22 -28 47
-64 55 -79 7 -15 28 -45 44 -65 17 -20 39 -54 50 -74 10 -20 29 -47 42 -59 13
-12 24 -27 24 -32 0 -5 26 -50 57 -100 31 -51 85 -153 121 -227 123 -258 184
-380 209 -417 14 -21 36 -73 49 -117 26 -87 38 -106 54 -90 13 13 -33 165 -60
204 -10 14 -59 111 -110 215 -50 105 -95 198 -100 207 -5 9 -26 50 -46 90 -42
82 -153 270 -164 278 -4 3 -22 30 -41 61 -63 103 -117 184 -147 219 -27 31
-82 133 -82 151 0 17 47 18 70 0 14 -10 36 -23 49 -31 23 -12 23 -11 -5 29
-33 46 -48 55 -73 42 -13 -8 -23 -2 -47 27 -44 55 -56 73 -52 77 4 5 113 -67
143 -95 11 -10 43 -27 70 -39 28 -12 57 -32 64 -44 11 -18 11 -20 0 -9 -7 6
-19 12 -26 12 -25 0 -12 -32 35 -88 27 -31 56 -69 65 -85 20 -30 50 -38 40 -9
-3 9 -17 32 -30 50 -14 18 -23 35 -21 38 3 2 25 -9 49 -26 41 -27 69 -38 69
-25 0 13 -38 44 -77 64 -49 25 -53 30 -18 23 35 -6 31 3 -12 29 -56 35 -24 34
64 -1 191 -77 221 -90 275 -120 57 -31 217 -184 242 -231 7 -13 32 -53 54 -89
57 -90 100 -183 119 -260 9 -36 22 -74 28 -85 7 -11 15 -56 19 -100 3 -44 9
-109 12 -144 8 -90 -29 -288 -67 -363 -11 -21 -42 -62 -69 -90 -28 -28 -48
-54 -45 -56 10 -11 68 23 101 60 57 64 114 210 114 293 0 45 9 48 46 20 63
-48 170 -95 217 -95 99 0 142 43 187 184 21 64 22 75 11 187 -6 65 -18 149
-26 186 -8 37 -21 109 -30 158 -32 193 -42 230 -94 331 -28 56 -51 106 -51
112 0 5 27 12 60 15 35 4 80 17 108 32 49 26 135 91 140 106 2 4 -19 19 -47
33 -28 14 -92 66 -143 115 -172 165 -199 182 -313 197 l-49 6 24 19 c14 10 37
21 52 24 14 4 53 25 85 48 l58 42 130 5 c121 5 134 8 191 37 34 18 75 43 91
57 17 14 56 43 86 63 68 47 346 346 376 405 12 24 25 50 29 58 38 69 57 111
68 153 7 27 25 67 40 88 14 21 24 45 21 53 -14 35 -298 45 -442 14 -127 -26
-162 -46 -238 -134 -97 -112 -115 -135 -168 -223 -25 -42 -52 -76 -60 -76 -9
0 -14 16 -16 52 -5 83 44 196 120 276 12 13 55 62 96 110 41 48 80 91 87 95
25 14 75 85 66 94 -6 6 -46 -1 -98 -16 -49 -15 -114 -33 -144 -42 -30 -9 -99
-34 -153 -57 -88 -37 -100 -46 -127 -87 -19 -30 -30 -60 -30 -83 0 -20 -11
-72 -25 -116 -25 -79 -26 -84 -19 -308 7 -263 9 -253 -89 -337 -40 -34 -72
-52 -113 -62 -82 -22 -80 -25 -75 158 1 26 11 49 36 80 67 83 105 147 135 229
16 46 30 92 30 104 0 12 4 25 9 31 16 16 21 94 10 173 -11 84 -40 157 -71 182
-20 16 -20 16 15 85 38 76 81 182 93 229 4 17 15 42 25 56 10 14 19 43 21 65
4 48 4 48 -157 1 -234 -68 -346 -99 -349 -96 -2 2 -18 29 -35 60 -43 77 -180
195 -263 226 -61 23 -283 23 -358 1 -30 -9 -77 -20 -105 -23 -85 -11 -186 -45
-285 -94 -82 -41 -129 -56 -237 -77 -31 -6 -29 -19 8 -51 100 -88 206 -226
234 -304 36 -101 107 -164 218 -196 31 -9 57 -20 57 -25 0 -4 -26 -8 -57 -8
-31 0 -70 -4 -87 -9 -17 -5 -92 -19 -166 -31 -146 -23 -158 -29 -189 -94 -22
-45 -16 -114 9 -108 7 1 22 -3 34 -11 32 -21 60 -25 196 -32 135 -7 401 -63
430 -91 12 -12 10 -18 -15 -45 -37 -37 -124 -96 -165 -110 -25 -9 -53 -5 -163
26 -72 20 -190 52 -262 71 -247 67 -395 118 -395 138 0 27 158 186 206 207 83
35 112 121 114 331 1 136 0 147 -29 228 -35 98 -61 125 -161 173 -76 37 -127
38 -229 7 -106 -33 -151 -61 -213 -135 -45 -53 -58 -75 -58 -102 0 -36 9 -40
44 -18 35 23 217 85 250 85 63 0 181 -168 205 -292 5 -29 16 -86 24 -125 l14
-73 -39 -27 c-48 -32 -156 -148 -196 -207 -18 -29 -37 -80 -51 -143 -13 -54
-27 -109 -32 -123 -16 -49 -19 -100 -10 -211 10 -117 17 -133 57 -123 27 7 39
-20 18 -41 -16 -15 -31 -20 -97 -29 -32 -4 -43 -1 -62 20 -50 54 -125 304
-125 416 0 57 15 78 163 231 97 100 136 177 146 291 7 89 0 124 -44 221 -28
60 -114 155 -141 155 -22 0 -17 -10 30 -60 38 -41 106 -154 106 -177 0 -5 4
-21 9 -38 24 -90 -28 -266 -95 -319 l-35 -28 -102 33 c-56 17 -107 36 -113 40
-6 5 -71 31 -145 58 -176 64 -186 68 -193 79 -3 5 7 12 22 16 33 7 51 22 125
108 70 80 77 111 52 213 -22 85 -46 126 -114 186 -28 26 -51 54 -51 62 0 22
53 81 95 107 48 30 97 120 65 120 -12 0 -50 -37 -50 -48 0 -5 -29 -33 -64 -63
-35 -30 -72 -71 -82 -92 -16 -35 -21 -38 -48 -33 -16 4 -41 14 -55 23 -15 10
-32 18 -40 19 -7 2 -20 12 -28 23 -8 12 -23 21 -33 21 -44 0 -178 118 -200
176 -10 26 1 61 24 76 43 29 409 -18 498 -64 41 -22 73 -21 73 2 0 30 -224
125 -375 159 -92 21 -214 10 -290 -27 -82 -40 -104 -145 -54 -258 16 -36 26
-79 27 -113 l2 -56 -90 0 c-74 0 -98 -4 -132 -23 -24 -12 -43 -27 -43 -32 0
-16 -25 -12 -51 8 -26 21 -102 42 -146 42 -47 0 -183 -39 -213 -60 -15 -11
-33 -20 -39 -20 -12 0 -135 54 -161 70 -8 5 -31 19 -50 30 -46 26 -94 56 -166
104 -75 50 -183 88 -256 90 -47 1 -54 3 -45 15 7 8 22 48 34 90 12 42 35 114
52 161 17 47 33 99 35 115 2 17 10 66 16 111 10 61 10 98 2 155 -17 108 -56
220 -87 247 -32 27 -27 35 33 66 65 33 144 48 178 35 39 -14 152 -123 202
-193 l43 -61 -4 -81 c-3 -78 -5 -84 -42 -130 -65 -79 -266 -277 -318 -312 -26
-18 -47 -39 -47 -47 0 -45 83 17 246 180 77 79 150 146 162 149 14 5 44 -1 77
-13 31 -12 69 -21 86 -21 17 0 40 -5 52 -12 22 -12 108 -34 181 -46 68 -12 61
-28 -50 -113 -43 -32 -72 -67 -104 -120 -88 -147 -166 -237 -247 -286 -66 -39
-49 -62 20 -26 82 42 173 146 270 309 26 43 56 74 102 109 63 46 115 105 115
132 0 7 -21 15 -47 18 -27 4 -77 16 -113 26 -109 33 -163 48 -200 55 -19 3
-52 13 -72 21 -40 16 -39 7 -22 128 4 28 6 57 5 65 -6 41 -83 144 -170 228
l-96 93 -73 -4 c-62 -3 -87 -11 -158 -47 l-84 -43 -40 27 c-22 14 -63 48 -92
76 -51 49 -60 54 -85 43z m-609 -73 c7 -7 3 -15 -9 -24 -19 -13 -18 -15 11
-43 17 -15 34 -38 38 -51 8 -23 26 -30 26 -9 0 6 4 18 9 26 7 11 13 9 31 -9
20 -20 23 -20 39 -6 16 15 19 14 40 -8 19 -20 23 -39 29 -127 7 -99 -3 -357
-14 -389 -5 -13 -7 -12 -15 3 -6 9 -17 17 -24 17 -11 0 -15 -14 -15 -56 0 -47
3 -55 18 -52 9 2 18 13 20 26 2 12 7 22 12 22 12 0 3 -131 -10 -166 -10 -26
-57 -74 -72 -74 -5 0 -7 3 -5 8 32 54 67 146 58 155 -14 14 -40 -9 -58 -52
-10 -23 -18 -30 -25 -23 -7 7 -3 19 12 40 23 32 21 62 -4 62 -7 0 -16 -9 -19
-20 -12 -45 -24 -15 -26 66 -1 49 -10 112 -20 147 -41 136 -64 224 -70 268 -4
25 -17 58 -29 74 -12 15 -22 35 -22 43 0 8 -8 40 -17 70 l-17 54 28 25 c23 19
36 23 60 19 17 -4 35 -11 40 -16z m69 -44 c20 -16 22 -26 4 -26 -7 0 -18 9
-25 20 -14 23 -5 26 21 6z m665 -36 c12 -16 22 -33 22 -38 0 -5 9 -17 20 -27
17 -15 20 -31 20 -103 0 -52 7 -106 17 -138 15 -49 15 -58 0 -129 -10 -41 -17
-95 -17 -119 0 -51 -25 -130 -47 -148 -15 -12 -16 -9 -9 22 4 19 7 132 6 250
0 206 -2 220 -30 329 -17 63 -30 118 -30 122 0 19 27 7 48 -21z m-1053 -4 c22
-7 41 -18 42 -26 3 -17 -78 -108 -152 -170 -64 -55 -102 -104 -114 -145 -12
-45 16 -132 49 -148 13 -7 26 -18 28 -26 3 -10 -6 -8 -29 8 -60 40 -372 190
-429 207 -128 37 -308 152 -310 197 0 33 21 59 64 78 34 14 87 20 266 29 124
7 227 14 230 17 9 8 314 -10 355 -21z m-1622 -78 c73 -18 91 -27 98 -45 10
-26 19 -29 37 -11 9 9 26 7 74 -6 35 -10 68 -20 74 -21 8 -2 3 -27 -14 -77
-26 -77 -34 -200 -13 -221 17 -17 23 -3 27 58 3 54 23 139 46 198 6 15 21 30
34 33 16 4 23 12 21 27 -3 29 67 54 162 58 59 3 75 1 79 -11 2 -8 18 -29 34
-46 28 -30 28 -32 9 -37 -21 -5 -55 -75 -55 -112 1 -34 25 -108 46 -143 l20
-32 -24 -9 c-25 -10 -43 0 -90 52 -14 16 -31 26 -37 23 -17 -11 -14 -21 16
-56 l27 -32 -35 7 c-19 5 -44 9 -57 11 -12 1 -42 14 -67 28 -26 16 -46 22 -50
16 -10 -16 44 -59 89 -71 83 -22 82 -22 37 -54 -23 -16 -51 -42 -63 -58 -18
-26 -25 -28 -57 -22 -20 4 -57 17 -83 30 -30 15 -50 20 -54 14 -10 -17 31 -44
116 -74 19 -7 35 -18 34 -24 -1 -6 -2 -23 -2 -37 -2 -23 -5 -25 -34 -19 -18 4
-46 13 -62 21 -16 8 -35 14 -43 14 -23 0 -14 -29 15 -43 40 -20 119 -40 135
-34 8 3 24 -12 40 -37 14 -23 38 -52 52 -66 33 -31 32 -36 -7 -44 -35 -7 -142
-68 -168 -96 -8 -9 -37 -34 -65 -55 -27 -22 -70 -60 -95 -84 -25 -24 -54 -50
-66 -57 -30 -20 -105 -34 -220 -40 -82 -5 -107 -3 -132 10 -18 9 -32 19 -32
21 0 9 60 156 71 173 23 36 106 82 220 122 122 42 211 59 319 61 80 1 115 10
115 29 0 10 -17 17 -55 22 -74 11 -265 106 -412 206 -90 61 -194 178 -240 270
-27 55 -30 69 -25 121 6 67 29 114 64 130 33 15 40 14 46 -10 6 -21 6 -21 31
-2 13 10 27 26 29 36 7 23 31 22 140 -5z m1797 2 c0 -6 9 -24 21 -39 21 -28
47 -115 93 -301 22 -88 42 -230 33 -230 -3 0 -27 35 -55 78 -27 42 -70 95 -94
118 -23 23 -55 54 -69 70 -14 16 -51 49 -82 74 -31 25 -56 48 -57 52 0 8 90
79 140 111 15 10 33 31 40 47 12 29 30 41 30 20z m825 -87 c14 -46 17 -104 18
-283 2 -218 1 -229 -28 -339 -17 -67 -38 -125 -50 -139 -21 -24 -125 -75 -135
-65 -3 2 3 9 12 14 10 5 38 34 62 64 33 40 48 70 56 111 14 65 8 93 -15 74 -8
-7 -13 -15 -10 -19 2 -4 -3 -32 -12 -62 -13 -46 -28 -67 -104 -141 -48 -48
-107 -99 -131 -115 -24 -15 -49 -34 -56 -40 -7 -7 -16 -13 -20 -13 -9 1 142
145 165 159 16 9 16 12 3 21 -8 5 -19 10 -24 10 -4 0 -41 -32 -82 -72 -41 -39
-74 -65 -74 -56 0 36 35 116 64 144 17 18 38 45 46 60 8 16 24 43 36 59 33 45
56 167 51 266 -4 75 -8 90 -41 144 -20 33 -51 79 -68 102 l-32 43 24 25 c19
20 30 24 52 20 24 -6 28 -3 28 14 0 24 31 40 83 44 28 2 33 -2 43 -33 6 -19
19 -37 29 -39 16 -3 17 3 12 39 -5 36 -2 42 16 50 52 21 65 13 82 -47z m-1832
-85 c32 -21 70 -41 85 -44 33 -8 131 -66 132 -78 0 -4 -9 -6 -21 -3 -26 7 -81
-12 -73 -25 3 -5 34 -8 67 -7 72 2 163 -13 180 -30 8 -8 -22 -11 -119 -10
-107 1 -217 12 -179 18 6 1 -22 17 -62 36 -44 21 -74 42 -78 55 -7 21 -30 27
-40 10 -11 -18 51 -69 112 -93 l58 -22 -40 -5 c-84 -12 -126 19 -146 107 -11
49 -11 53 17 97 15 24 33 42 39 39 5 -4 36 -24 68 -45z m1516 -156 c38 -65 41
-76 41 -144 0 -79 -30 -209 -53 -236 -8 -10 -22 -31 -30 -48 -9 -16 -31 -48
-51 -70 -24 -27 -40 -59 -51 -104 -34 -132 -60 -166 -96 -122 -21 25 -38 82
-35 120 1 17 3 44 4 59 1 18 23 47 71 94 65 64 69 71 79 131 6 35 11 107 10
160 0 54 3 141 7 195 l7 97 28 -31 c15 -17 46 -63 69 -101z m-692 67 c105 -91
241 -239 219 -239 -3 0 -40 36 -83 80 -43 45 -106 104 -140 131 -59 48 -76 69
-54 69 6 0 31 -19 58 -41z m-52 -44 c22 -19 35 -35 29 -35 -14 0 -92 69 -79
70 6 0 28 -16 50 -35z m15 -76 c30 -20 82 -66 115 -101 157 -168 231 -253 246
-282 8 -17 25 -47 37 -66 21 -34 30 -80 15 -80 -5 0 -20 22 -34 48 -52 93
-149 211 -303 366 -86 87 -156 160 -156 163 0 5 12 -2 80 -48z m51 24 c13 -16
12 -17 -3 -4 -10 7 -18 15 -18 17 0 8 8 3 21 -13z m-311 -71 c57 -14 108 -42
125 -68 l15 -24 -67 24 c-101 36 -139 44 -238 51 -125 9 -435 -19 -555 -50
l-95 -24 29 23 c29 24 82 43 191 70 47 12 112 14 310 11 138 -2 266 -8 285
-13z m-1485 -72 c29 -33 32 -38 10 -20 -36 30 -54 52 -55 64 0 5 1 7 3 5 1 -2
20 -24 42 -49z m1760 -57 c122 -138 160 -191 74 -103 -41 41 -96 101 -124 133
-27 32 -52 61 -55 64 -3 3 2 4 10 1 8 -2 51 -45 95 -95z m329 -87 c51 -52 76
-99 76 -138 -1 -18 -6 -13 -25 23 -13 25 -70 96 -127 158 -57 62 -105 118
-107 125 -4 12 101 -85 183 -168z m-649 149 c78 -18 165 -55 184 -78 7 -10 19
-17 25 -17 7 0 23 -11 36 -25 32 -34 18 -32 -36 6 -24 16 -77 46 -118 65 -75
36 -127 44 -336 57 -30 2 -2 4 62 5 76 1 140 -3 183 -13z m350 -25 c3 -5 1
-10 -4 -10 -6 0 -11 5 -11 10 0 6 2 10 4 10 3 0 8 -4 11 -10z m-521 -11 c157
-10 174 -13 235 -42 88 -41 147 -79 284 -185 52 -41 136 -145 109 -135 -33 12
-108 57 -137 83 -42 37 -95 75 -141 101 -87 49 -191 97 -224 104 -19 4 -62 16
-95 27 -120 38 -461 26 -578 -21 -16 -6 -38 -11 -50 -11 -73 0 135 68 243 79
109 11 165 11 354 0z m-1171 -46 c23 -15 65 -41 92 -59 28 -17 83 -48 124 -68
72 -37 93 -61 29 -35 -34 13 -223 129 -274 167 -41 30 -22 27 29 -5z m1898
-176 c11 -21 10 -20 -17 3 -37 33 -41 37 -97 111 l-49 64 76 -78 c42 -43 81
-88 87 -100z m-691 140 c30 -10 78 -25 105 -34 81 -27 231 -113 292 -167 72
-65 315 -193 385 -202 88 -12 58 -19 -55 -14 -69 4 -127 12 -152 22 -22 9 -67
24 -100 33 -33 9 -85 28 -115 40 -30 13 -68 27 -85 31 -16 4 -56 20 -87 35
-78 39 -191 68 -312 79 -55 5 -122 15 -149 22 -37 9 -60 9 -105 0 -32 -7 -69
-12 -83 -12 -13 -1 -42 -9 -64 -20 -22 -11 -45 -19 -52 -20 -15 0 -96 91 -116
132 l-16 33 52 7 c28 3 74 13 102 22 84 26 172 34 340 32 121 -1 173 -6 215
-19z m3335 -46 c12 -5 -16 -9 -70 -10 -50 0 -106 -4 -125 -7 -47 -9 -34 3 16
15 48 11 152 12 179 2z m-1805 -58 c-11 -17 -11 -17 -6 0 3 10 7 28 7 40 2 22
2 22 6 0 2 -12 -1 -30 -7 -40z m1555 8 c-8 -17 -19 -33 -25 -36 -15 -9 -12
-76 5 -125 18 -51 13 -64 -9 -22 -19 37 -30 104 -22 135 7 28 43 77 57 77 5 0
3 -13 -6 -29z m-2360 -132 c11 -18 -7 -9 -46 22 -21 17 -39 35 -39 41 0 10 74
-45 85 -63z m-905 17 l85 -14 -101 -1 c-128 -1 -184 -12 -298 -57 -157 -62
-277 -126 -330 -177 -33 -31 -92 -68 -173 -109 -120 -60 -124 -61 -220 -66
-54 -2 -114 0 -133 6 -31 9 -25 10 50 11 47 1 101 5 120 11 19 5 51 12 71 14
60 8 100 31 165 93 144 138 285 234 364 248 19 4 51 16 70 27 64 38 151 42
330 14z m3295 -15 c8 -16 36 -52 62 -79 54 -57 90 -140 74 -170 -17 -32 -99
-101 -128 -108 -62 -15 -161 -74 -201 -119 -36 -41 -43 -45 -61 -35 -25 13
-25 12 -2 58 21 41 66 72 103 72 47 0 125 30 162 63 36 31 39 36 38 89 0 38
-8 69 -24 99 -12 24 -23 49 -24 54 0 6 -6 28 -12 50 -19 64 -13 75 13 26z
m2474 -56 c30 -8 77 -30 105 -49 75 -52 163 -138 148 -144 -7 -2 -24 8 -38 21
-38 38 -143 70 -213 65 -44 -3 -67 -11 -106 -38 l-50 -35 -262 0 c-228 0 -264
-2 -278 -16 -15 -15 -15 -18 7 -43 13 -14 54 -48 91 -74 91 -62 130 -125 154
-247 l18 -90 84 -35 83 -35 -41 -8 c-34 -7 -46 -5 -70 12 -16 11 -53 27 -83
35 -31 8 -73 23 -95 34 -42 22 -113 94 -113 115 0 32 -116 216 -172 273 l-60
62 55 16 c30 9 58 16 61 16 2 0 31 15 63 34 60 35 225 96 260 96 11 0 55 9 99
21 151 39 238 42 353 14z m-5574 -3 c17 -10 16 -11 -11 -6 -17 3 -64 1 -105
-5 -41 -6 -110 -13 -155 -15 -45 -3 -107 -12 -138 -21 -87 -25 -285 -123 -451
-222 -208 -124 -244 -141 -335 -159 -71 -13 -86 -13 -137 0 -53 14 -104 48
-91 62 4 3 17 0 29 -7 29 -15 224 -15 276 1 84 25 248 115 293 161 40 41 228
149 260 149 9 0 53 18 125 51 45 21 118 28 265 25 95 -1 163 -7 175 -14z m749
-29 c26 -18 52 -33 57 -33 5 0 9 -5 9 -11 0 -14 -87 36 -120 69 -29 28 -16 22
54 -25z m1089 -19 c18 -9 57 -33 87 -54 30 -20 62 -39 71 -42 8 -3 42 -23 75
-45 32 -21 79 -48 104 -60 25 -12 37 -22 27 -22 -27 -1 -170 70 -262 130 -44
29 -109 68 -145 87 -61 32 -69 34 -134 29 -40 -4 -65 -2 -60 3 24 24 171 8
237 -26z m-2103 -30 c-32 -15 -126 -86 -142 -108 -4 -6 -4 -14 -2 -18 7 -12
-2 -10 -44 8 -49 20 -146 12 -237 -21 l-20 -7 20 14 c11 8 52 27 90 42 39 15
84 36 100 46 45 27 154 54 230 57 l40 2 -35 -15z m2070 -30 c76 -44 65 -57
-17 -19 -31 15 -83 33 -115 39 -77 14 -74 30 5 24 48 -4 76 -14 127 -44z
m-1658 16 c36 -6 106 -24 155 -41 140 -49 183 -59 263 -60 41 0 100 -4 130 -8
l55 -7 -40 -21 c-22 -11 -66 -29 -97 -38 -49 -16 -65 -17 -111 -6 -30 6 -71
20 -91 30 -54 28 -112 33 -210 17 -83 -14 -96 -19 -180 -78 -63 -43 -99 -62
-121 -62 -40 1 -180 63 -245 110 -47 34 -50 38 -33 48 10 6 43 30 73 52 96 73
245 94 452 64z m2968 -81 c0 -56 -62 -104 -155 -119 -70 -11 -132 -51 -151
-96 -11 -25 -20 -34 -30 -30 -9 3 -18 6 -20 6 -2 0 -1 26 2 58 13 111 61 144
204 140 62 -1 94 2 102 10 8 8 13 37 12 75 l-1 62 18 -40 c10 -22 19 -52 19
-66z m-2675 55 c28 -8 57 -19 65 -25 28 -19 -70 2 -124 27 -54 25 -36 24 59
-2z m2864 0 c29 -15 31 -19 25 -52 -4 -21 -13 -44 -20 -53 -8 -8 -14 -20 -14
-25 0 -10 -82 -66 -113 -77 -28 -11 -129 -82 -176 -126 -47 -44 -54 -47 -89
-28 l-23 13 33 37 c38 41 85 69 178 104 104 39 177 122 164 188 -7 40 -7 40
35 19z m1123 -17 c83 -37 113 -68 144 -150 26 -67 28 -81 27 -212 -2 -170 -9
-193 -55 -191 l-33 2 -27 115 c-31 130 -74 218 -141 287 -71 73 -105 75 -262
18 -38 -14 -71 -26 -73 -26 -9 0 21 40 55 73 46 47 79 65 158 88 85 25 144 23
207 -4z m-2671 -20 c30 -13 74 -30 99 -37 46 -15 136 -63 180 -98 30 -23 118
-51 140 -45 8 3 0 -5 -18 -17 l-33 -22 -48 20 c-27 11 -78 37 -114 58 -36 22
-111 63 -166 93 -56 29 -101 58 -101 62 0 12 0 12 61 -14z m3936 -8 c34 -13
75 -38 100 -62 26 -25 47 -38 57 -34 8 3 18 3 20 -2 3 -4 -38 -34 -91 -67 -53
-32 -120 -83 -150 -112 -52 -52 -103 -135 -103 -169 0 -11 -19 -29 -50 -45
-68 -38 -133 -37 -220 2 -71 31 -68 27 -110 187 -18 69 -68 133 -148 187 -69
47 -73 50 -50 59 13 5 118 7 245 3 241 -6 248 -5 323 54 33 26 103 26 177 -1z
m-4113 -10 c15 -11 35 -37 45 -57 19 -37 118 -133 183 -177 20 -13 62 -36 94
-50 l58 -26 -68 -47 c-102 -71 -145 -91 -196 -91 -49 -1 -80 12 -61 23 6 4 18
24 26 44 14 33 14 60 -2 115 -5 18 -156 95 -281 143 -35 13 -68 26 -73 30 -25
15 144 94 242 113 4 0 18 -8 33 -20z m1827 1 c19 0 8 -30 -30 -77 -21 -27 -83
-81 -138 -120 -93 -67 -155 -125 -165 -154 -5 -15 -78 -4 -78 12 0 26 107 111
199 160 113 59 142 86 160 147 9 32 16 42 27 38 9 -3 20 -6 25 -6z m-2062 -4
c-11 -11 -111 -66 -119 -66 -24 0 -6 19 43 43 44 22 90 36 76 23z m5011 -4 c0
-10 -29 -21 -204 -83 -77 -26 -142 -52 -145 -57 -3 -6 -28 -20 -56 -33 -52
-25 -131 -96 -180 -164 -16 -22 -42 -53 -57 -69 -16 -16 -26 -31 -23 -34 3 -3
25 16 48 44 87 102 181 183 268 228 48 26 93 46 100 46 8 -1 -4 -10 -26 -22
-68 -36 -147 -102 -232 -196 -46 -49 -83 -94 -83 -99 0 -19 -70 -140 -94 -163
-15 -13 -26 -29 -26 -36 0 -16 -89 -104 -105 -104 -15 0 -27 38 -14 45 11 7
99 143 99 153 0 3 -14 -10 -31 -31 -17 -20 -37 -37 -45 -37 -17 0 -18 33 -3
61 5 11 11 31 12 43 3 35 118 157 224 237 90 69 143 118 72 69 -85 -60 -189
-141 -196 -153 -14 -22 -74 -67 -83 -62 -15 9 2 45 31 68 16 12 55 44 87 71
56 48 209 128 322 169 167 60 326 115 333 116 4 1 7 -3 7 -7z m-5349 -49 c-9
-16 -10 -15 -11 8 0 14 3 29 8 33 12 12 14 -22 3 -41z m-111 27 c0 -5 -4 -10
-10 -10 -5 0 -10 5 -10 10 0 6 5 10 10 10 6 0 10 -4 10 -10z m950 -73 c176
-91 210 -111 210 -120 0 -10 -93 2 -137 17 -29 10 -81 52 -193 156 -19 18 -28
28 -20 22 8 -5 71 -39 140 -75z m1614 57 c14 -37 -58 -128 -179 -224 -31 -25
-71 -57 -88 -71 -47 -39 -77 -53 -89 -41 -24 24 37 94 135 154 93 58 131 90
169 149 34 52 42 58 52 33z m-3871 -47 c31 -17 57 -35 57 -39 0 -5 -20 -8 -45
-8 -120 0 -333 -107 -375 -189 -27 -54 -66 -85 -156 -125 -87 -39 -253 -76
-338 -76 -97 0 -206 50 -206 94 0 6 29 26 65 45 64 32 66 33 128 22 140 -24
198 -7 350 105 228 168 266 190 344 204 66 11 108 4 176 -33z m1288 17 c17
-16 40 -27 58 -28 36 -1 35 1 16 -36 -19 -36 -30 -38 -46 -7 -7 12 -15 24 -18
27 -14 11 -52 70 -45 70 4 0 20 -12 35 -26z m233 8 c12 -10 62 -31 111 -47 94
-30 237 -85 271 -103 10 -6 45 -23 76 -37 45 -21 58 -31 63 -55 7 -34 -6 -64
-40 -86 -24 -15 -29 -14 -127 34 -57 27 -112 60 -123 72 -11 12 -36 30 -55 40
-19 10 -67 48 -107 84 -73 68 -95 78 -111 50 -7 -12 -11 -13 -17 -5 -5 9 -10
9 -21 0 -22 -18 -16 6 6 26 11 10 20 24 20 32 0 19 30 16 54 -5z m-179 -2 c3
-5 1 -10 -4 -10 -6 0 -11 5 -11 10 0 6 2 10 4 10 3 0 8 -4 11 -10z m1710 0 c4
-6 -6 -10 -22 -10 -119 -1 -257 -84 -464 -282 -100 -95 -144 -123 -250 -159
-80 -28 -101 -31 -162 -26 -62 5 -127 30 -113 44 3 3 28 0 57 -7 80 -20 144
-7 275 55 63 30 120 55 125 55 5 0 62 53 127 118 139 140 173 166 249 198 60
25 166 33 178 14z m912 -2 c6 -7 16 -36 23 -63 12 -46 11 -55 -8 -97 -42 -95
-190 -218 -262 -218 -43 0 -80 10 -80 20 0 5 46 31 103 58 162 80 228 165 208
270 -8 42 -2 53 16 30z m-2760 -48 c6 0 23 -14 37 -30 28 -34 28 -42 -6 -170
-27 -102 -66 -172 -146 -261 -37 -42 -89 -101 -116 -133 -44 -50 -133 -126
-150 -126 -3 0 -6 10 -6 21 0 35 37 84 98 130 82 62 192 177 214 226 10 22 21
63 25 90 3 26 13 59 22 73 9 13 15 27 15 30 -1 3 2 15 7 28 18 46 12 55 -28
47 -164 -31 -216 -31 -317 -1 -45 13 -102 30 -128 37 -27 7 -48 17 -48 21 0 4
2 8 4 8 2 0 27 5 56 10 45 9 61 7 111 -11 80 -30 165 -24 245 17 57 28 60 29
80 12 11 -10 25 -18 31 -18z m5469 5 c-26 -19 -49 -35 -53 -35 -8 0 -76 -50
-161 -119 -64 -51 -143 -124 -238 -221 -42 -44 -44 -44 -44 -19 0 42 144 218
218 267 20 14 46 33 57 43 19 16 240 118 258 119 5 0 -12 -16 -37 -35z m-3636
6 c0 -5 -24 -16 -53 -25 -64 -19 -131 -62 -189 -122 -23 -26 -56 -54 -71 -64
-16 -10 -72 -57 -126 -104 -94 -85 -201 -157 -201 -136 0 5 -4 10 -10 10 -5 0
-10 -9 -10 -19 0 -11 -4 -22 -9 -25 -5 -3 -62 -10 -127 -16 l-119 -10 -60 29
c-66 33 -115 74 -115 96 0 20 8 19 55 -10 98 -59 98 -59 185 -59 73 -1 97 4
172 33 94 36 154 80 345 255 96 87 162 127 268 162 49 16 65 17 65 5z m1035
-43 c54 -119 56 -193 7 -244 -15 -16 -34 -38 -42 -49 -8 -11 -44 -39 -79 -63
-64 -43 -64 -44 -100 -29 -20 8 -51 21 -68 27 l-33 12 58 38 c82 53 156 123
188 178 25 40 28 57 27 115 -1 38 3 67 8 67 6 0 21 -24 34 -52z m-159 15 c-6
-46 -22 -76 -62 -119 -40 -42 -121 -94 -147 -94 -8 0 -20 -6 -26 -14 -22 -26
-91 -57 -107 -48 -12 7 -7 16 28 44 24 19 63 48 88 64 62 41 74 50 149 126 36
37 69 67 73 67 4 1 6 -11 4 -26z m2819 -15 c-9 -54 -181 -390 -231 -453 -138
-172 -243 -275 -327 -321 -35 -19 -71 -28 -130 -33 -93 -9 -119 -20 -260 -115
-55 -36 -104 -66 -110 -66 -6 0 -19 -7 -29 -16 -14 -14 -24 -15 -50 -6 l-33
10 38 1 c56 2 201 103 312 218 114 118 166 179 191 223 10 19 34 56 52 83 18
26 30 53 26 59 -4 7 -3 8 4 4 7 -4 24 11 41 35 90 124 303 308 433 375 26 13
49 28 53 34 16 25 26 8 20 -32z m-7190 -14 c-70 -61 -198 -142 -254 -160 -45
-14 -63 -15 -120 -6 -118 21 -132 32 -40 32 35 1 90 7 121 14 56 14 239 100
288 137 43 32 47 20 5 -17z m1903 -24 c12 -18 22 -42 22 -54 0 -18 -5 -15 -39
19 -24 25 -36 46 -33 58 6 24 23 17 50 -23z m162 -73 c0 -5 19 -31 43 -57 42
-46 67 -103 67 -150 0 -12 12 -45 26 -74 28 -55 58 -148 69 -211 3 -22 15 -76
26 -120 11 -44 26 -114 34 -155 7 -41 16 -87 20 -102 4 -16 3 -28 -1 -28 -5 0
-16 35 -26 78 -9 42 -23 97 -32 122 -8 25 -25 83 -37 130 -34 136 -102 313
-154 400 -18 30 -47 89 -65 130 -19 41 -44 89 -57 107 -39 53 -26 50 32 -7 30
-30 55 -58 55 -63z m1422 103 c-27 -11 -146 -92 -150 -102 -2 -5 -8 -8 -13 -8
-9 0 -69 -54 -198 -179 -36 -35 -83 -74 -103 -88 -21 -13 -38 -28 -38 -33 0
-6 -7 -10 -15 -10 -8 0 -15 -3 -15 -8 0 -10 -77 -48 -125 -61 -114 -30 -243
-39 -304 -22 -27 7 -88 77 -78 88 4 3 31 -5 59 -20 72 -35 122 -41 230 -27 95
12 100 14 260 110 15 9 49 36 75 61 27 24 77 69 113 99 36 30 90 78 122 106
60 54 148 104 182 103 20 0 20 -1 -2 -9z m-342 -17 c0 -18 -44 -72 -102 -126
-91 -84 -325 -197 -411 -197 -36 0 -27 15 13 23 29 6 64 29 172 111 76 58 301
195 321 196 4 0 7 -3 7 -7z m-2597 -10 c-13 -2 -35 -2 -50 0 -16 2 -5 4 22 4
28 0 40 -2 28 -4z m2982 -25 c-12 -58 -175 -259 -245 -303 -20 -13 -63 -47
-96 -76 -133 -117 -215 -154 -414 -184 -95 -15 -196 -14 -252 1 -16 5 -65 91
-56 100 3 2 22 -3 44 -12 87 -37 274 -15 413 48 82 37 232 155 396 312 50 48
189 146 207 146 6 0 7 -14 3 -32z m-2559 -7 c-38 -42 -78 -173 -91 -301 -16
-143 -39 -279 -52 -306 -6 -11 -15 -46 -22 -79 -15 -72 -46 -168 -65 -198 -8
-12 -28 -65 -46 -117 -39 -114 -53 -142 -96 -196 -37 -45 -41 -54 -20 -54 14
0 85 71 103 103 9 17 15 17 103 -3 154 -34 308 -110 444 -218 38 -30 111 -77
164 -103 91 -47 94 -49 56 -48 -44 0 -123 10 -264 32 -157 25 -333 30 -424 12
-81 -16 -95 -12 -96 21 0 19 -96 158 -139 202 -67 69 -151 92 -151 41 0 -22
-14 -24 -58 -8 -17 6 -79 14 -139 17 l-107 7 -7 30 c-4 17 -14 47 -23 67 -9
21 -16 53 -16 73 0 30 9 44 69 101 71 67 132 165 146 234 4 19 33 73 64 120
32 47 60 90 62 96 6 18 139 156 139 145 0 -6 -4 -13 -10 -16 -5 -3 -26 -36
-46 -73 -20 -37 -45 -80 -57 -96 -11 -16 -49 -86 -85 -155 -131 -255 -197
-371 -222 -386 -5 -3 -10 -13 -10 -21 0 -45 104 84 163 202 98 198 265 492
304 534 14 15 -51 -175 -66 -195 -5 -5 -14 -28 -21 -50 -7 -22 -24 -56 -36
-75 -13 -19 -24 -41 -24 -48 0 -7 -18 -45 -39 -85 -55 -101 -66 -123 -101
-197 -18 -36 -46 -81 -64 -100 -57 -63 -68 -78 -58 -84 5 -3 33 18 61 47 40
40 70 88 127 204 42 83 82 157 90 164 8 6 14 16 14 21 0 9 42 110 90 213 10
22 32 78 50 125 18 47 45 104 61 128 16 24 29 47 29 51 0 5 32 37 70 71 39 34
70 59 70 56 0 -3 -19 -38 -42 -78 -56 -96 -113 -213 -148 -308 -7 -19 -19 -48
-26 -65 -7 -16 -24 -59 -37 -95 -96 -257 -116 -298 -219 -452 -32 -48 -54 -89
-49 -93 37 -22 193 257 288 515 39 107 46 123 137 310 120 245 135 269 219
338 53 43 83 57 53 23z m2636 -3 c-9 -9 -15 -9 -24 0 -9 9 -7 12 12 12 19 0
21 -3 12 -12z m-3047 -9 c26 -1 7 -6 -55 -15 -52 -8 -151 -28 -219 -44 -68
-17 -126 -28 -128 -26 -8 8 81 54 127 66 53 15 186 29 215 24 11 -2 38 -4 60
-5z m1316 -54 c18 -33 62 -114 97 -180 36 -65 81 -142 100 -170 20 -27 58 -97
85 -154 53 -110 55 -122 73 -351 8 -108 -6 -98 -36 25 -26 111 -65 234 -90
289 -10 22 -28 68 -38 102 -21 65 -93 208 -141 278 -16 25 -37 62 -47 83 -10
21 -26 50 -36 65 -13 18 -17 35 -12 53 3 14 8 25 9 23 2 -2 18 -30 36 -63z
m127 -22 c17 -55 -13 -22 -32 35 -16 47 -16 47 3 23 10 -14 23 -40 29 -58z
m-218 38 c0 -10 9 -29 19 -43 11 -14 36 -57 56 -96 19 -39 40 -74 45 -77 19
-12 70 -124 70 -152 -1 -46 -41 -108 -125 -196 -73 -74 -90 -86 -164 -115 -45
-17 -90 -32 -100 -32 -10 0 -47 -9 -81 -20 -45 -14 -90 -20 -159 -20 -53 0
-157 -9 -231 -21 -74 -11 -157 -22 -185 -24 -27 -2 -69 -7 -92 -10 l-43 -6 11
28 c16 40 56 184 75 273 29 139 32 144 92 184 30 20 60 36 67 36 20 0 50 -42
75 -105 13 -33 36 -83 52 -111 15 -28 28 -58 28 -67 0 -9 7 -17 16 -17 11 0
15 -6 11 -19 -3 -12 3 -27 14 -37 18 -16 23 -16 86 1 73 20 150 66 196 118
106 119 247 414 247 516 0 17 5 31 10 31 6 0 10 -8 10 -19z m1800 -11 c11 -11
28 -20 38 -20 10 0 26 -6 37 -14 11 -7 38 -19 60 -26 22 -7 63 -25 91 -41 28
-16 60 -29 70 -29 10 0 54 -18 99 -39 44 -22 132 -57 195 -79 63 -22 133 -47
155 -57 22 -9 101 -39 175 -65 131 -47 310 -118 320 -127 10 -10 -78 11 -140
32 -36 13 -110 33 -165 45 -167 38 -380 117 -455 170 -14 9 -36 21 -50 25 -25
8 -75 29 -165 70 -27 13 -95 39 -150 59 -105 36 -168 59 -173 63 -4 2 30 52
36 53 1 0 11 -9 22 -20z m-3015 -6 c-61 -13 -156 -43 -280 -91 -277 -106 -333
-124 -321 -104 4 5 20 13 37 16 17 4 55 29 85 56 30 27 57 49 60 49 3 0 58 14
123 30 64 17 144 34 177 39 59 8 157 12 119 5z m85 -35 c-50 -34 -158 -80
-245 -104 -55 -15 -116 -36 -136 -46 -43 -21 -229 -78 -279 -85 -19 -2 -63 -9
-98 -15 -35 -6 -65 -9 -68 -6 -3 2 11 8 31 11 55 11 379 124 418 146 61 36
299 105 372 109 17 1 18 -1 5 -10z m846 -55 c-10 -14 -37 -34 -61 -45 -60 -27
-134 -96 -175 -165 -48 -83 -81 -125 -91 -118 -32 19 32 136 117 212 61 54
214 155 223 147 2 -3 -4 -16 -13 -31z m6178 28 c3 -5 -12 -14 -32 -21 -20 -7
-57 -30 -82 -51 -25 -20 -59 -44 -76 -53 -33 -17 -91 -83 -118 -134 -24 -48
-37 -41 -35 20 4 108 42 141 249 218 85 32 87 32 94 21z m-6354 -62 c-25 -22
-65 -53 -90 -71 -39 -27 -37 -23 20 30 56 53 91 79 110 80 3 0 -15 -17 -40
-39z m2256 4 c33 -14 68 -30 79 -35 11 -4 90 -34 175 -65 248 -91 280 -103
370 -145 91 -43 184 -99 176 -106 -7 -7 -192 55 -246 82 -25 13 -78 33 -119
45 -40 12 -75 29 -78 36 -3 8 -19 14 -39 14 -18 0 -48 6 -66 14 -18 8 -68 29
-111 47 -42 18 -85 40 -95 49 -9 8 -33 27 -52 40 -37 26 -65 50 -57 50 3 0 31
-12 63 -26z m4094 16 c-20 -13 -33 -13 -25 0 3 6 14 10 23 10 15 0 15 -2 2
-10z m-6440 -30 c-32 -24 -42 -14 -11 11 13 11 27 17 30 14 3 -4 -5 -15 -19
-25z m1075 10 c8 -13 -5 -13 -25 0 -13 8 -13 10 2 10 9 0 20 -4 23 -10z m1165
-395 c7 -38 23 -110 36 -158 13 -48 24 -93 24 -100 0 -17 86 -137 121 -169 47
-43 65 -37 29 9 -11 14 -20 31 -20 38 0 6 -9 20 -20 30 -67 60 -116 203 -141
410 -11 99 -9 288 4 301 12 13 177 -130 240 -208 52 -64 133 -232 140 -290 8
-62 -7 -180 -34 -263 -21 -65 -20 -90 3 -67 16 16 28 15 28 -2 0 -25 -20 -29
-130 -27 -167 4 -328 -37 -473 -119 -30 -16 -56 -30 -58 -30 -9 0 -1 177 9
196 6 12 8 24 5 28 -17 16 -44 1 -103 -60 -68 -69 -178 -158 -258 -208 -159
-99 -151 -91 -178 -181 -8 -25 -15 -30 -46 -33 -51 -4 -101 22 -147 77 -50 60
-71 102 -71 143 0 18 -7 72 -17 121 -12 63 -14 98 -7 124 8 34 13 38 52 45 56
9 58 11 88 71 26 50 26 53 17 159 -7 76 -15 113 -26 126 -10 10 -17 21 -17 24
0 3 39 3 88 1 63 -4 117 1 197 16 104 20 207 50 222 64 3 4 13 7 22 7 9 0 54
32 101 70 47 38 117 94 155 124 39 30 86 71 105 91 l35 36 7 -163 c3 -90 12
-194 18 -233z m-1934 346 c-22 -41 -109 -133 -176 -186 -80 -62 -108 -93 -115
-126 -9 -40 -19 -43 -39 -8 -17 28 -17 29 6 40 13 5 36 34 51 63 31 58 173
215 197 217 8 1 22 1 31 0 8 -1 24 8 34 19 25 27 30 19 11 -19z m528 23 c3 -8
2 -12 -4 -9 -6 3 -10 10 -10 16 0 14 7 11 14 -7z m5585 -25 c-17 -22 -54 -65
-81 -94 -26 -29 -60 -78 -74 -109 -28 -62 -42 -75 -55 -55 -10 16 -7 56 10
116 18 67 153 181 214 183 16 0 14 -7 -14 -41z m-5619 -23 c0 -6 -7 -1 -15 10
-8 10 -14 26 -14 34 0 16 28 -28 29 -44z m-891 -1 c-11 -61 -28 -92 -40 -74
-20 32 5 119 35 119 10 0 12 -10 5 -45z m5991 21 c15 -41 32 -147 32 -210 0
-56 -30 -185 -64 -271 -16 -41 -56 -102 -99 -152 -42 -50 -62 -127 -58 -226 2
-54 0 -62 -16 -66 -22 -4 -123 17 -129 27 -2 4 2 25 10 47 42 118 53 321 24
451 l-11 46 48 55 c75 86 166 214 192 271 27 58 55 69 71 28z m-6650 6 c0 -5
-10 -14 -22 -20 -28 -13 -179 -150 -237 -214 -81 -89 -212 -327 -225 -409 l-6
-35 -105 -14 c-131 -16 -208 -6 -289 40 -59 34 -92 73 -117 144 -22 62 -152
179 -252 227 -26 13 -47 26 -47 30 0 8 81 87 122 118 32 26 41 26 75 4 25 -17
62 -29 157 -54 39 -10 101 -7 231 10 39 5 108 15 155 21 111 14 331 75 366
101 13 11 147 52 187 58 4 0 7 -3 7 -7z m1805 -9 c46 -9 83 -50 102 -112 38
-129 75 -225 100 -264 33 -50 34 -53 41 -140 9 -118 -27 -177 -108 -177 -33 0
-35 4 -50 110 -6 41 -19 109 -30 150 -10 41 -24 103 -30 137 -6 34 -19 88 -30
119 -17 54 -17 59 -2 71 14 10 15 13 2 14 -8 1 -18 1 -23 0 -10 -1 -29 45 -33
83 -3 23 -1 27 13 21 10 -3 32 -9 48 -12z m-173 -60 c66 -147 92 -217 85 -235
-5 -12 -57 91 -57 113 0 6 -13 41 -29 77 -34 79 -45 112 -36 112 3 0 20 -30
37 -67z m-2759 36 c-4 -16 -2 -20 8 -17 8 3 19 -1 24 -8 6 -7 42 -25 80 -40
65 -26 80 -28 210 -28 144 0 134 -8 -25 -22 -107 -9 -228 24 -287 79 -23 20
-31 57 -14 57 5 0 7 -10 4 -21z m1607 -51 c0 -5 -4 -8 -10 -8 -5 0 -10 10 -10
23 0 18 2 19 10 7 5 -8 10 -18 10 -22z m5412 -16 c-6 -15 -13 -64 -17 -110 -4
-45 -12 -93 -19 -106 -21 -41 -101 -146 -111 -146 -5 0 -32 9 -60 19 -87 34
-323 80 -441 85 -91 4 -120 10 -155 29 -51 26 -53 46 -11 95 24 28 38 33 117
46 50 9 140 20 200 26 295 27 373 43 465 92 39 20 48 12 32 -30z m1083 8 c-3
-5 -10 -10 -16 -10 -5 0 -9 5 -9 10 0 6 7 10 16 10 8 0 12 -4 9 -10z m713 -3
c-10 -7 -59 -34 -109 -62 -90 -49 -172 -125 -448 -414 -24 -25 -46 -41 -48
-35 -9 25 43 97 201 284 96 114 222 195 351 226 65 16 74 16 53 1z m-2738 -6
c0 -12 -20 -25 -27 -18 -7 7 6 27 18 27 5 0 9 -4 9 -9z m1995 -28 c-12 -29
-14 -174 -3 -233 16 -95 11 -151 -19 -182 -15 -16 -32 -28 -37 -28 -6 0 -19
-14 -28 -30 -25 -44 -38 -37 -38 19 0 39 4 51 22 63 18 12 20 18 11 29 -13 16
-28 123 -26 182 2 39 36 107 82 164 29 35 47 43 36 16z m895 -13 c0 -36 -118
-253 -166 -305 -234 -254 -361 -364 -485 -419 -61 -27 -147 -41 -168 -27 -10
6 11 21 77 54 50 25 108 58 128 73 44 34 256 272 293 330 36 55 76 100 195
217 100 98 126 114 126 77z m-6762 -37 c-32 -47 -98 -116 -105 -109 -3 3 7 22
23 43 76 100 138 149 82 66z m2256 16 c14 -11 26 -24 26 -28 0 -4 23 -45 50
-91 28 -46 55 -101 61 -122 11 -44 7 -177 -7 -199 -5 -8 -9 -39 -10 -69 -2
-59 -17 -110 -33 -110 -18 0 -20 16 -5 58 7 23 20 78 28 123 12 69 12 87 -1
135 -13 52 -109 250 -138 284 -36 44 -18 56 29 19z m1521 -19 c-3 -5 -16 -15
-28 -21 -21 -10 -21 -9 2 10 25 23 36 27 26 11z m-1391 -55 c26 -25 61 -75 79
-111 47 -98 51 -104 59 -104 14 0 8 24 -17 79 -14 30 -24 59 -21 65 5 14 134
-118 146 -149 5 -13 20 -25 38 -28 58 -12 61 -103 7 -164 l-25 -28 16 39 c11
29 12 37 2 34 -20 -7 -34 -68 -18 -78 11 -7 11 -11 1 -24 -8 -9 -18 -16 -24
-16 -11 0 -36 -30 -37 -44 0 -4 7 -5 16 -2 10 4 14 1 11 -6 -2 -7 -12 -12 -21
-12 -9 1 -16 -3 -17 -10 -1 -36 -135 -87 -153 -58 -4 6 -21 8 -41 5 -35 -6
-48 10 -26 33 27 28 70 229 71 325 0 25 -5 61 -11 80 -13 39 -76 170 -90 184
-12 12 -12 35 0 35 5 0 30 -20 55 -45z m-3680 -35 c-27 -34 -53 -70 -59 -81
-5 -10 -13 -19 -17 -19 -5 0 -8 -6 -8 -13 0 -17 -86 -160 -109 -181 -21 -19
46 112 109 212 39 63 120 156 128 147 2 -2 -18 -31 -44 -65z m3791 40 c3 -5
-1 -10 -9 -10 -9 0 -16 5 -16 10 0 6 4 10 9 10 6 0 13 -4 16 -10z m235 -87
c66 -22 118 -42 186 -75 11 -5 34 -21 50 -34 l29 -24 -30 6 c-16 3 -66 17
-111 30 -44 13 -86 24 -93 24 -40 0 -241 121 -241 144 0 3 30 -6 68 -20 37
-14 101 -37 142 -51z m2213 45 c-17 -18 -36 -49 -43 -68 -7 -21 -30 -49 -58
-70 -49 -37 -88 -74 -93 -87 -5 -10 -102 -73 -113 -73 -4 0 29 37 73 83 44 45
96 104 115 131 32 45 117 116 140 116 5 0 -4 -15 -21 -32z m-2003 -3 c41 -9
127 -33 190 -52 63 -19 119 -36 123 -37 5 -1 -9 -16 -31 -33 l-39 -32 -117 59
c-65 32 -140 68 -166 79 -27 12 -52 26 -56 33 -5 7 -2 9 7 6 8 -3 48 -13 89
-23z m-2457 -57 c9 -24 28 -74 43 -113 14 -38 32 -95 39 -125 7 -30 22 -89 33
-130 35 -126 40 -160 29 -167 -6 -3 -18 4 -26 18 -25 38 -83 88 -126 108 -124
58 -156 71 -175 71 -17 0 -21 4 -15 18 4 9 22 58 40 107 18 50 41 106 52 125
11 19 32 56 47 83 15 26 31 47 35 47 5 0 16 -19 24 -42z m5995 5 c-14 -16 -34
-41 -44 -58 -24 -39 -86 -116 -150 -185 -28 -30 -75 -81 -104 -113 -41 -44
-75 -68 -144 -102 -50 -24 -92 -42 -95 -40 -6 6 106 141 143 172 17 14 76 67
131 118 55 51 127 115 160 142 33 28 69 60 79 72 11 11 26 21 34 21 12 0 9 -7
-10 -27z m-3174 -2 c4 -5 -3 -7 -14 -4 -23 6 -26 13 -6 13 8 0 17 -4 20 -9z
m-204 -109 c-15 -5 -140 57 -140 69 0 5 34 -8 75 -28 42 -21 71 -39 65 -41z
m2142 -3 c11 -53 13 -197 4 -264 -11 -80 -45 -175 -63 -175 -7 0 -42 9 -76 19
-34 11 -109 34 -167 52 -58 17 -141 40 -185 50 -93 20 -135 35 -135 47 0 8 56
47 182 130 40 26 98 41 159 42 44 0 157 56 214 105 22 19 44 33 50 31 5 -1 13
-18 17 -37z m-2441 0 c41 -11 119 -31 174 -43 111 -25 107 -32 -25 -42 -73 -6
-78 -5 -147 30 -74 38 -119 76 -91 76 8 0 48 -9 89 -21z m879 -47 c33 -14 5
-15 -42 -1 -21 5 -38 14 -38 19 0 9 33 1 80 -18z m95 -66 c232 -54 386 -94
503 -132 57 -18 138 -41 180 -49 83 -17 128 -42 57 -32 -59 9 -179 34 -270 56
-44 11 -123 27 -175 36 -52 10 -129 28 -170 41 -41 13 -121 35 -177 49 -144
36 -158 42 -142 61 6 8 17 13 23 11 6 -2 83 -21 171 -41z m-955 7 c35 -29 79
-34 190 -19 61 9 64 8 51 -8 -8 -9 -46 -36 -84 -58 -38 -23 -100 -69 -137
-103 -59 -55 -74 -63 -129 -74 -35 -7 -65 -11 -67 -8 -2 2 21 50 51 107 31 58
58 122 62 147 7 50 19 54 63 16z m-4230 1 c0 -23 -93 -134 -113 -134 -4 0 -7
12 -5 28 2 19 9 28 24 30 11 2 34 21 50 42 26 36 44 50 44 34z m4570 -42 c0
-15 9 -47 20 -71 11 -24 20 -48 20 -55 0 -6 11 -33 25 -61 13 -27 25 -65 25
-82 0 -18 14 -61 30 -95 17 -34 30 -65 30 -70 0 -16 -24 -7 -84 31 -123 78
-210 109 -373 136 -23 3 -44 13 -47 20 -7 18 121 135 180 166 25 12 70 44 100
71 59 51 74 53 74 10z m2710 -12 c0 -6 -7 -22 -16 -35 -9 -13 -13 -29 -9 -34
7 -12 -53 -91 -69 -91 -12 0 -36 46 -36 68 0 7 14 18 30 23 17 6 30 16 30 22
0 16 41 57 57 57 7 0 13 -5 13 -10z m-2125 -73 c33 -12 53 -23 45 -24 -16 -3
-147 40 -158 52 -10 11 43 -2 113 -28z m130 13 c35 -13 43 -18 25 -18 -14 -1
-43 8 -65 18 -52 24 -25 24 40 0z m-355 -29 c0 -37 -10 -62 -21 -55 -10 6 -12
67 -2 77 14 15 23 6 23 -22z m112 -5 c55 -24 182 -60 348 -97 95 -22 181 -48
193 -59 4 -4 -21 -16 -57 -28 -211 -69 -384 -213 -441 -367 -10 -27 -31 -78
-47 -112 -15 -34 -28 -67 -28 -74 0 -22 -32 -99 -41 -99 -14 0 -79 -61 -79
-75 0 -6 -36 -54 -81 -106 -98 -115 -106 -127 -83 -136 12 -4 21 0 28 12 18
29 58 76 63 72 2 -2 -12 -28 -32 -58 -19 -29 -35 -58 -35 -64 0 -5 -11 -32
-25 -60 -13 -27 -25 -55 -25 -61 0 -27 -136 -214 -198 -274 -37 -36 -83 -84
-102 -106 -31 -35 -189 -154 -205 -154 -14 0 -73 70 -93 110 -26 54 -52 153
-52 196 0 67 -111 266 -222 396 -13 15 -48 42 -78 59 -75 42 -22 30 83 -18 91
-43 150 -100 167 -165 7 -23 16 -54 21 -68 17 -47 47 -175 54 -225 16 -116 71
-225 113 -225 9 0 52 19 94 43 61 34 96 63 173 147 53 58 103 119 112 135 9
17 36 56 60 88 24 33 49 71 56 85 6 15 22 44 35 66 33 54 13 73 -22 20 -15
-22 -51 -75 -81 -119 -30 -44 -64 -97 -75 -117 -11 -21 -28 -45 -38 -55 -10
-10 -47 -51 -82 -92 -35 -40 -82 -85 -105 -99 -56 -37 -115 -63 -126 -56 -25
15 -61 111 -69 185 -5 44 -12 84 -16 90 -3 6 -12 34 -19 62 -57 225 -92 274
-245 346 -79 37 -83 40 -49 40 19 1 82 -6 139 -14 57 -9 110 -13 118 -10 9 3
39 -18 81 -57 117 -111 159 -145 218 -179 32 -18 63 -39 68 -46 6 -7 26 -14
45 -15 34 -3 36 -1 70 67 34 69 35 72 35 200 l0 130 25 5 c14 3 52 23 85 46
33 23 80 50 105 61 52 24 180 128 180 147 0 17 -37 33 -112 47 -35 6 -101 22
-147 35 -46 13 -130 29 -187 35 -99 12 -135 22 -123 33 3 3 52 15 110 26 57
11 113 22 124 25 12 2 48 24 80 47 48 34 77 46 144 60 56 12 96 27 119 44 38
29 38 32 7 144 -17 63 -20 162 -5 191 13 23 7 24 72 -5z m-4282 -43 c152 -84
126 -78 331 -80 200 -1 224 -6 235 -49 6 -21 -1 -33 -34 -67 -31 -31 -44 -39
-53 -30 -9 9 -6 18 9 38 44 56 11 69 -141 60 -88 -5 -121 -4 -157 9 -25 8 -67
20 -95 26 -27 6 -65 21 -84 33 -45 27 -101 76 -101 88 0 16 24 9 90 -28z
m1054 -18 c50 -23 99 -51 108 -61 90 -100 111 -136 128 -222 6 -30 5 -60 -2
-83 -9 -32 -20 -40 -94 -77 -109 -54 -117 -54 -109 1 7 42 -8 107 -36 158 -18
34 -89 63 -154 63 -52 1 -72 -5 -151 -46 -94 -48 -105 -51 -164 -49 -64 2 -70
15 -25 61 22 23 65 57 95 75 30 19 100 79 154 135 115 117 102 115 250 45z
m3661 41 c28 -8 41 -14 30 -14 -21 0 -107 25 -90 27 6 0 33 -6 60 -13z m-4820
-36 c47 -62 115 -99 245 -132 111 -28 118 -29 207 -18 92 12 125 8 104 -13
-19 -19 -12 -62 13 -86 14 -13 22 -29 20 -36 -3 -7 5 -24 18 -39 19 -22 34
-28 88 -32 62 -6 69 -4 159 40 105 51 152 57 221 30 54 -22 73 -60 74 -147 1
-77 10 -70 -115 -92 -111 -20 -203 -20 -219 0 -7 8 -22 15 -34 15 -11 0 -50 8
-86 19 -69 19 -147 65 -252 148 -150 118 -355 213 -493 229 -30 4 -55 10 -55
13 0 18 57 141 65 141 6 -1 24 -19 40 -40z m4993 4 c37 -9 71 -21 77 -25 17
-16 -39 -9 -120 16 -93 28 -61 34 43 9z m-3500 -130 c-5 -159 -28 -119 -28 49
0 86 1 90 16 69 12 -18 15 -43 12 -118z m3717 82 c33 -8 95 -19 137 -26 43 -6
113 -24 155 -40 43 -15 103 -31 133 -35 42 -5 74 -19 135 -58 98 -62 110 -72
65 -54 -60 25 -300 95 -405 118 -55 12 -129 33 -164 46 -35 13 -85 28 -112 34
-27 6 -51 15 -55 20 -8 13 42 11 111 -5z m-2833 -88 c3 -47 -7 -95 -34 -171
-14 -36 -117 -138 -198 -195 -100 -70 -110 -81 -110 -121 0 -42 -7 -54 -39
-71 -67 -35 -229 57 -312 178 -24 35 -51 72 -59 81 -16 19 -40 58 -40 66 0 2
7 2 15 -1 8 -4 15 -10 15 -15 0 -12 35 -53 85 -101 64 -61 180 -85 214 -44 6
7 15 35 20 61 10 55 30 74 136 135 39 22 117 80 175 129 58 50 111 90 118 91
6 0 13 -10 14 -22z m1048 13 c0 -5 -17 -17 -37 -27 -34 -17 -68 -19 -348 -20
-203 0 -322 -5 -344 -12 -45 -15 -188 -89 -226 -117 -16 -13 -45 -30 -63 -39
-33 -17 -33 -17 -22 3 32 60 248 168 384 192 49 8 106 9 200 3 177 -12 308 -9
386 9 36 8 66 15 68 16 1 1 2 -3 2 -8z m1600 -5 c0 -2 -7 -6 -15 -10 -8 -3
-15 -1 -15 4 0 6 7 10 15 10 8 0 15 -2 15 -4z m-1350 -37 c9 -5 -21 -9 -79 -9
-84 0 -92 2 -80 16 11 13 25 15 79 9 36 -4 72 -11 80 -16z m1433 -19 c5 -43
-8 -110 -22 -110 -22 0 -27 54 -9 111 14 50 24 49 31 -1z m192 15 c44 -14 97
-37 117 -50 34 -23 153 -183 143 -193 -8 -8 -141 65 -206 113 -110 83 -179
155 -147 155 7 0 49 -11 93 -25z m-338 -23 c-15 -15 -27 -32 -27 -36 0 -4 -19
-33 -43 -64 -23 -31 -51 -70 -62 -87 -10 -16 -38 -50 -61 -75 -53 -56 -74 -84
-105 -137 -40 -68 -313 -341 -324 -323 -8 14 25 82 63 130 20 25 71 81 112
125 41 44 117 136 169 204 96 128 167 206 235 260 50 40 80 42 43 3z m-97 -8
c-8 -8 -39 -29 -69 -44 -73 -38 -220 -181 -301 -293 -38 -53 -72 -68 -46 -19
8 15 26 52 40 82 14 30 53 86 87 123 50 55 79 77 153 114 123 62 166 74 136
37z m-1454 -19 c-15 -19 -29 -45 -31 -57 -3 -12 -8 -24 -13 -27 -5 -3 -32 -41
-61 -83 -28 -43 -55 -78 -59 -78 -5 0 -22 -19 -39 -43 -30 -43 -96 -92 -268
-199 -70 -44 -110 -61 -164 -73 -88 -18 -119 -18 -70 0 20 7 54 24 75 38 22
13 71 41 109 62 39 21 104 70 145 110 41 39 102 94 135 122 34 28 89 90 124
137 57 76 109 125 135 126 4 0 -4 -16 -18 -35z m2561 10 c20 -29 90 -55 167
-62 65 -6 68 -7 36 -15 -20 -5 -75 -3 -130 3 -102 12 -147 32 -167 76 l-12 26
46 -6 c28 -3 52 -12 60 -22z m-2659 -9 c7 -8 -97 -137 -150 -186 -34 -30 -98
-89 -143 -130 -45 -41 -104 -88 -131 -103 -27 -15 -76 -44 -109 -63 -93 -55
-272 -87 -357 -64 -91 25 -108 44 -115 129 -9 104 -6 142 14 170 59 79 314
234 413 251 40 7 570 3 578 -4z m396 5 c3 -5 -11 -12 -32 -16 -20 -3 -65 -16
-99 -28 l-63 -22 -17 25 c-10 14 -17 27 -16 30 6 18 217 28 227 11z m1306 -12
c0 -73 -105 -216 -302 -411 -70 -70 -128 -132 -128 -139 0 -27 -160 -179 -189
-179 -24 0 -5 25 117 151 70 72 155 170 190 216 34 47 83 108 108 137 26 28
78 93 116 144 64 85 88 108 88 81z m577 -31 c72 -21 76 -23 120 -86 44 -61 47
-69 53 -152 8 -87 15 -107 80 -227 52 -96 68 -118 109 -143 22 -14 41 -31 41
-37 0 -19 -5 -16 -47 22 -62 58 -167 114 -309 165 -85 30 -110 47 -158 107
-25 32 -46 60 -46 63 0 3 55 5 122 5 141 0 181 8 176 33 -2 9 -13 18 -26 20
-13 2 -44 29 -72 63 -50 60 -130 173 -130 183 0 9 6 8 87 -16z m787 11 c-12
-19 -72 -39 -116 -38 l-43 1 35 9 c19 6 53 16 75 23 52 18 58 18 49 5z m-2546
-10 l37 -1 -35 -8 c-19 -4 -69 -17 -110 -28 -110 -30 -174 -38 -168 -21 8 24
188 74 226 63 8 -2 30 -5 50 -5z m-4176 -10 c33 -18 158 -178 158 -203 1 -25
62 -131 100 -174 23 -26 51 -57 61 -68 10 -12 19 -26 19 -30 0 -5 15 -19 34
-32 18 -13 61 -46 94 -75 33 -29 92 -68 131 -87 67 -33 86 -50 58 -50 -7 0
-49 -17 -93 -38 -75 -36 -85 -39 -184 -40 -98 -2 -109 0 -165 27 -33 16 -77
44 -97 63 -61 55 -171 200 -190 251 -22 57 -26 148 -9 202 15 46 40 226 34
238 -6 10 6 27 18 27 6 0 20 -5 31 -11z m1928 -15 c0 -2 -7 -4 -15 -4 -8 0
-15 4 -15 10 0 5 7 7 15 4 8 -4 15 -8 15 -10z m3184 -37 c-23 -23 -58 -67 -80
-97 -120 -169 -314 -383 -299 -330 17 60 45 109 91 159 27 29 56 63 64 75 28
40 195 209 225 227 44 27 44 14 -1 -34z m420 13 c21 -53 79 -127 127 -162 21
-15 39 -32 39 -37 0 -5 6 -16 13 -23 7 -7 28 -34 45 -60 25 -37 29 -48 17 -48
-26 0 -83 33 -190 109 -79 56 -101 78 -104 99 -17 134 17 212 53 122z m142
-25 c44 -30 123 -78 177 -106 53 -28 97 -55 97 -61 0 -16 -151 2 -195 25 -62
31 -115 77 -147 126 -28 45 -35 71 -19 71 5 0 44 -25 87 -55z m-5831 27 c58
-6 70 -10 73 -26 4 -17 -1 -18 -49 -12 -30 4 -80 14 -111 22 -43 11 -62 12
-75 4 -14 -9 -27 -7 -55 4 -21 9 -38 19 -38 23 0 5 92 0 255 -15z m-299 -18
c105 -36 120 -46 133 -101 9 -33 28 -62 69 -106 31 -33 48 -57 38 -53 -50 18
-201 46 -249 46 -52 0 -54 1 -65 33 -49 141 -62 181 -62 193 0 22 49 17 136
-12z m4294 -10 c0 -20 -7 -17 -20 6 -9 16 -8 18 5 14 8 -4 15 -12 15 -20z
m468 10 c-25 -13 -109 -28 -223 -39 -22 -2 -59 -7 -82 -10 -68 -10 -58 12 15
30 37 9 78 20 92 25 14 4 70 8 125 9 94 0 98 -1 73 -15z m1883 -9 c88 -31 140
-58 160 -81 34 -41 52 -130 45 -229 -8 -102 -33 -188 -58 -193 -24 -5 -72 41
-87 84 -7 22 -26 58 -42 81 -37 57 -60 126 -57 177 3 55 -11 124 -26 133 -7 5
-18 18 -25 31 -16 30 1 29 90 -3z m-6349 -43 c39 -5 63 -12 66 -21 3 -10 0
-12 -14 -7 -11 4 -56 14 -101 23 -46 8 -83 19 -83 23 0 5 16 4 36 -2 20 -5 63
-12 96 -16z m5536 -85 c-1 -51 -1 -137 1 -192 3 -92 0 -106 -29 -179 -17 -44
-43 -96 -58 -115 -15 -20 -45 -62 -67 -95 -46 -68 -114 -123 -205 -164 -36
-16 -90 -48 -120 -71 -30 -22 -58 -41 -62 -41 -4 0 -10 12 -14 28 -3 15 -19
69 -35 120 -50 160 -50 158 22 222 107 95 390 382 437 445 26 33 55 69 65 80
11 11 26 30 34 42 25 38 34 16 31 -80z m1302 93 c0 -5 -16 -10 -35 -10 -19 0
-35 5 -35 10 0 6 16 10 35 10 19 0 35 -4 35 -10z m-2931 -37 c5 -21 17 -73 26
-117 8 -43 22 -91 30 -107 8 -15 15 -36 15 -45 0 -10 4 -31 9 -48 49 -166 65
-213 78 -228 8 -9 13 -23 11 -29 -9 -28 -87 100 -127 209 -47 128 -91 291 -91
339 0 70 33 87 49 26z m579 23 c-10 -7 -74 -26 -142 -41 -102 -23 -130 -26
-151 -17 -14 6 -25 15 -25 20 0 11 213 45 310 50 23 1 23 0 8 -12z m2228 -23
c37 -12 63 -27 73 -43 19 -28 41 -88 41 -111 0 -35 48 -111 93 -148 26 -22 51
-41 55 -43 18 -8 85 -103 122 -174 23 -43 45 -83 50 -89 8 -11 20 -63 49 -215
80 -422 85 -477 45 -587 -15 -40 -28 -73 -31 -73 -9 0 -94 144 -141 240 -43
89 -54 121 -67 210 -8 58 -33 159 -55 225 -21 66 -49 158 -60 205 -20 78 -59
193 -79 230 -5 9 -12 31 -16 50 -4 19 -11 40 -15 45 -4 6 -15 33 -25 60 -11
28 -31 65 -47 83 -15 18 -37 52 -49 75 -12 23 -28 50 -37 60 -14 16 -13 17 11
17 14 0 52 -8 83 -17z m253 -12 c43 -9 91 -37 99 -59 2 -6 -22 -1 -55 12 -32
13 -86 27 -120 31 -35 4 -60 11 -57 16 6 11 74 11 133 0z m-6919 -26 c15 -9
12 -35 -4 -35 -12 0 -106 48 -106 54 0 5 100 -13 110 -19z m4136 -80 c-2 -7 6
-17 20 -24 13 -6 24 -14 25 -18 0 -5 2 -18 3 -31 2 -13 12 -30 24 -38 12 -8
22 -22 22 -31 0 -8 9 -32 19 -52 45 -83 69 -148 69 -187 1 -22 2 -44 3 -50 3
-16 -1 -38 -6 -33 -2 3 -11 40 -19 82 -16 82 -54 171 -98 228 -15 20 -38 59
-51 85 -12 27 -35 68 -50 92 -44 68 -42 81 3 33 22 -25 39 -50 36 -56z m-4203
29 c37 -19 67 -37 67 -39 0 -14 -14 -35 -24 -35 -16 0 -135 109 -121 110 6 0
41 -16 78 -36z m3857 -36 c6 -31 26 -105 46 -164 32 -101 39 -150 12 -88 -7
16 -28 53 -47 82 -35 54 -70 141 -71 177 0 27 30 69 41 58 5 -5 14 -34 19 -65z
m3163 31 c18 -7 61 -33 97 -57 l65 -44 -77 4 c-64 4 -84 10 -125 36 -61 39
-90 72 -73 82 13 8 64 -1 113 -21z m-4239 -13 c-3 -9 -10 -13 -16 -10 -5 3 -4
12 3 20 15 18 22 13 13 -10z m1259 -58 c30 -90 60 -182 85 -268 11 -36 36
-102 56 -147 19 -46 32 -83 28 -83 -12 1 -66 81 -96 145 -39 83 -53 125 -66
198 -6 34 -20 86 -31 115 -20 55 -25 112 -10 112 5 0 20 -33 34 -72z m-3033 3
c178 -18 440 -24 525 -11 164 24 185 27 185 24 0 -13 -62 -38 -160 -64 -104
-29 -125 -31 -217 -27 -56 3 -153 16 -215 30 -62 14 -149 31 -193 37 -44 7
-84 16 -90 22 -7 7 3 8 30 4 22 -3 83 -10 135 -15z m3102 -5 c10 -14 30 -46
44 -73 15 -26 33 -59 40 -73 8 -14 14 -34 14 -46 0 -30 20 -85 42 -113 25 -32
37 -82 44 -186 8 -107 -9 -114 -39 -14 -10 35 -32 92 -48 126 -16 34 -29 69
-29 77 0 8 -4 17 -9 21 -5 3 -17 37 -25 76 -9 38 -20 78 -25 87 -12 23 -38 92
-46 120 -9 30 15 29 37 -2z m2838 -8 c15 -13 36 -29 46 -36 17 -11 15 -12 -16
-7 -19 3 -44 15 -57 27 -43 40 -20 54 27 16z m-6220 2 c36 -6 94 -16 130 -24
36 -8 103 -20 150 -27 47 -6 101 -18 121 -25 52 -17 184 -37 247 -36 59 2 70
-12 16 -23 -43 -8 -282 11 -379 30 -38 7 -99 19 -135 26 -36 6 -73 16 -82 21
-15 7 -102 22 -265 44 -24 3 -43 9 -43 15 0 12 158 12 240 -1z m1065 -10 c-10
-11 -28 -20 -39 -20 -18 0 -17 3 9 19 39 26 53 26 30 1z m-1980 0 c15 -6 7 -9
-30 -9 -27 -1 -95 -8 -150 -16 -55 -8 -116 -17 -135 -20 -36 -6 105 40 150 48
43 8 144 6 165 -3z m2143 -2 c-1 -7 4 -24 12 -38 7 -14 15 -50 16 -80 2 -30 6
-84 9 -120 4 -36 7 -102 8 -146 l2 -81 -77 -79 c-87 -89 -125 -144 -156 -227
-25 -65 -29 -91 -37 -237 -6 -94 -4 -109 14 -145 26 -49 26 -51 1 -58 -36 -9
-96 40 -132 107 -27 53 -31 70 -31 136 1 93 24 176 61 216 15 17 35 47 45 68
21 44 43 71 154 181 98 99 115 133 118 243 2 71 0 82 -14 80 -9 -2 -25 -20
-36 -41 -11 -20 -24 -35 -30 -34 -6 2 -10 39 -10 83 1 71 2 79 20 79 13 0 21
-10 27 -31 7 -28 38 -50 51 -37 3 2 -4 36 -14 76 -22 83 -23 97 -9 97 6 0 10
-6 8 -12z m146 -40 c34 -123 29 -137 -23 -66 -29 39 -30 44 -15 55 11 8 14 20
10 37 -13 51 14 25 28 -26z m5161 12 c3 -5 1 -10 -4 -10 -6 0 -11 5 -11 10 0
6 2 10 4 10 3 0 8 -4 11 -10z m-7316 -30 c47 -5 89 -15 95 -21 8 -9 -1 -10
-39 -5 -27 4 -90 11 -139 17 -49 5 -92 11 -94 14 -9 8 87 6 177 -5z m801 -20
c41 -10 95 -22 120 -25 25 -4 77 -15 115 -25 69 -19 285 -37 378 -32 26 1 73
11 104 22 32 11 60 20 63 20 12 -1 -66 -39 -82 -40 -9 0 -29 -11 -45 -24 -16
-14 -43 -27 -59 -31 -16 -3 -45 -11 -64 -16 -31 -9 -50 -6 -142 25 -121 41
-161 44 -203 16 -16 -11 -37 -20 -45 -19 -8 0 -87 35 -175 79 l-160 78 60 -5
c33 -2 94 -13 135 -23z m6367 24 c-3 -3 -12 -4 -19 -1 -8 3 -5 6 6 6 11 1 17
-2 13 -5z m-7700 -10 c-3 -3 -12 -4 -19 -1 -8 3 -5 6 6 6 11 1 17 -2 13 -5z
m-77 -23 c-8 -5 -28 -11 -45 -15 l-30 -6 25 15 c14 8 34 14 45 14 16 0 17 -1
5 -8z m7300 -19 c0 -9 -12 -64 -26 -122 -14 -57 -24 -121 -22 -142 2 -23 -1
-37 -7 -35 -21 7 -16 103 11 214 15 62 31 110 36 107 4 -3 8 -13 8 -22z m460
15 c30 0 74 3 97 8 23 4 50 5 59 1 16 -6 15 -8 -5 -22 -28 -20 -115 -44 -159
-44 -38 0 -63 12 -107 48 l-30 25 45 -8 c25 -4 70 -8 100 -8z m-7288 -7 c40
-5 115 -14 165 -21 77 -10 94 -15 99 -31 3 -11 4 -21 2 -23 -2 -2 -40 7 -83
21 -80 24 -310 47 -428 41 -26 -1 -47 1 -47 5 0 16 195 21 292 8z m904 -76
l175 -86 50 26 c28 14 56 26 62 26 19 1 217 -64 217 -71 0 -16 -245 -89 -299
-89 -33 0 -173 76 -232 127 -27 23 -64 52 -82 65 -49 35 -92 88 -71 88 3 0 84
-39 180 -86z m1074 72 c0 -3 -4 -8 -10 -11 -5 -3 -10 -1 -10 4 0 6 5 11 10 11
6 0 10 -2 10 -4z m4195 -46 c3 -5 2 -10 -4 -10 -5 0 -13 5 -16 10 -3 6 -2 10
4 10 5 0 13 -4 16 -10z m1287 -6 c-28 -20 -119 -46 -140 -41 -14 3 -15 5 -2 9
8 3 42 14 75 25 75 26 96 28 67 7z m-7457 -4 c123 -10 237 -44 292 -86 19 -14
32 -28 30 -30 -2 -2 -28 6 -58 19 -30 13 -79 29 -109 35 -166 34 -257 55 -270
63 -19 11 -18 11 115 -1z m4479 -50 c31 -69 46 -137 28 -126 -7 4 -12 15 -12
25 0 10 -9 26 -19 35 -16 15 -41 84 -41 115 0 28 20 5 44 -49z m-4744 9 c216
-29 471 -107 595 -182 39 -23 102 -58 140 -77 l70 -35 -97 -3 c-71 -2 -122 3
-195 19 -188 42 -321 38 -379 -13 -41 -36 -71 -35 -179 7 -169 64 -219 103
-267 205 -16 36 -30 69 -31 75 -4 21 198 24 343 4z m3640 -13 c0 -2 -15 -6
-34 -8 -19 -2 -32 0 -30 4 5 8 64 12 64 4z m3510 -214 c0 -45 4 -101 10 -123
6 -23 9 -43 6 -46 -7 -8 -71 98 -73 122 -1 11 -6 39 -11 62 -10 44 0 131 19
180 11 27 12 26 31 -42 12 -45 19 -99 18 -153z m-6700 180 c63 -17 249 -127
236 -140 -3 -3 -33 14 -66 36 -33 23 -84 49 -113 58 -28 9 -79 27 -112 39 -73
29 -41 33 55 7z m1465 -31 c-33 -21 -71 -42 -85 -46 -14 -4 -35 -14 -48 -22
-13 -8 -28 -13 -34 -11 -11 4 196 114 217 116 6 1 -17 -16 -50 -37z m624 0
c15 -29 37 -48 88 -77 l67 -37 -54 -19 c-30 -11 -69 -23 -86 -27 -18 -5 -36
-11 -42 -15 -6 -4 -10 32 -10 104 0 61 4 110 9 110 5 0 18 -18 28 -39z m4766
-90 c14 -47 31 -104 37 -126 6 -22 25 -83 43 -135 18 -52 38 -133 44 -180 7
-47 19 -109 27 -138 20 -72 116 -255 169 -324 l44 -57 -22 -16 c-30 -21 -47
-19 -79 12 -37 35 -36 50 1 22 17 -12 34 -18 42 -14 8 5 10 4 5 -3 -4 -7 -3
-12 3 -12 16 0 26 23 12 28 -30 10 -80 65 -108 119 -41 77 -120 278 -133 339
-6 27 -22 83 -35 124 -13 42 -31 121 -40 175 -10 55 -22 111 -27 125 -15 39
-35 122 -36 155 -1 28 -1 29 13 11 8 -10 26 -57 40 -105z m-2025 101 c0 -15
-28 -47 -35 -40 -8 8 13 48 25 48 6 0 10 -4 10 -8z m-2920 -67 c0 -28 -41 -88
-93 -135 -66 -61 -115 -124 -202 -258 -59 -90 -68 -125 -69 -252 -1 -64 3 -84
28 -133 17 -32 46 -73 66 -91 l37 -33 -36 -14 c-20 -8 -40 -16 -45 -18 -5 -2
-6 1 -2 8 4 6 3 11 -3 11 -41 0 -118 212 -107 295 19 142 42 224 71 257 17 18
53 60 80 94 56 68 256 272 268 273 4 1 7 -1 7 -4z m2089 -32 c5 -10 48 -56 95
-103 91 -90 106 -116 31 -54 -26 22 -51 38 -56 37 -5 -2 -8 1 -6 5 1 4 -19 33
-45 63 -27 31 -48 59 -48 63 0 13 20 5 29 -11z m345 -25 c12 -104 16 -158 10
-172 -13 -33 -19 -13 -20 61 0 43 -4 95 -8 116 -6 25 -5 37 2 37 6 0 13 -19
16 -42z m-935 4 c13 -9 36 -24 50 -33 22 -13 26 -23 27 -67 1 -29 -2 -55 -7
-58 -5 -3 -9 0 -9 7 0 7 -34 46 -75 86 -41 41 -72 79 -69 85 8 12 52 2 83 -20z
m-1010 -52 l36 -19 -45 -1 c-25 0 -74 -7 -110 -15 -56 -12 -67 -12 -81 1 -8 8
-24 14 -35 14 -15 1 -13 4 9 16 68 37 161 38 226 4z m927 22 c17 -11 145 -165
151 -182 3 -8 15 -26 27 -39 12 -13 17 -22 11 -20 -10 5 -42 19 -100 44 -16 7
-43 16 -60 20 -16 3 -47 18 -69 33 -35 24 -38 29 -33 63 5 40 33 89 51 89 6 0
16 -4 22 -8z m3494 -100 c7 -34 10 -65 7 -68 -6 -7 -37 96 -44 146 -4 35 -4
35 10 10 8 -14 20 -53 27 -88z m-5850 55 c-120 -61 -179 -95 -228 -135 -69
-55 -200 -221 -298 -377 -65 -103 -160 -195 -203 -195 -18 0 -36 13 -60 41
-18 22 -32 41 -30 43 28 19 174 139 204 167 22 21 54 48 70 61 17 12 84 77
150 143 127 127 182 166 350 247 124 59 161 64 45 5z m2595 -17 c10 -11 27
-22 39 -26 56 -17 73 -40 79 -107 3 -36 2 -80 -3 -98 -20 -82 -21 -89 -6 -83
16 6 36 70 41 134 2 25 4 47 5 50 1 9 41 -55 72 -115 16 -33 37 -68 46 -78 14
-16 14 -20 -2 -47 -20 -35 -55 -137 -56 -162 0 -10 -3 -18 -7 -18 -12 1 -70
91 -78 120 -3 14 -13 42 -22 62 -13 30 -19 36 -30 27 -13 -11 -14 -10 -17 14
-1 6 -9 11 -19 9 -19 -3 -22 8 -8 23 6 6 -2 27 -21 55 -17 24 -31 56 -32 70 0
14 -6 30 -13 35 -13 11 -17 44 -15 113 2 47 18 55 47 22z m1935 -4 c0 -13 3
-31 6 -39 3 -9 -2 -16 -14 -19 -16 -5 -19 -16 -20 -83 -1 -81 -8 -118 -21
-111 -11 7 -3 113 17 198 17 76 32 102 32 54z m1276 -86 c15 -47 35 -111 45
-142 11 -32 19 -65 19 -74 0 -9 7 -30 15 -47 8 -18 25 -61 38 -97 62 -166 106
-280 118 -301 l12 -24 -22 20 c-53 47 -114 148 -137 229 -56 197 -76 261 -85
278 -10 18 -35 148 -45 233 -7 59 10 28 42 -75z m-2030 61 c-2 -40 -16 -52
-16 -14 0 25 6 43 15 43 2 0 2 -13 1 -29z m-4731 -2 l40 -13 -60 -8 c-33 -4
-96 -13 -141 -19 -44 -6 -106 -21 -137 -34 -31 -12 -57 -20 -57 -16 0 16 66
85 94 97 37 17 199 13 261 -7z m2157 -21 c14 -18 38 -58 53 -88 15 -30 41 -70
58 -87 75 -80 -44 -4 -131 82 -34 34 -50 58 -46 68 3 9 1 25 -6 36 -10 19 -8
21 18 21 22 0 36 -9 54 -32z m419 -27 c61 -61 77 -92 38 -71 -61 33 -111 39
-207 26 -51 -8 -53 -7 -107 36 -30 23 -54 46 -55 50 0 9 54 14 173 16 l99 2
59 -59z m2319 19 c0 -13 -1 -13 -10 0 -5 8 -10 22 -10 30 0 13 1 13 10 0 5 -8
10 -22 10 -30z m-54 -27 c8 -17 14 -38 14 -46 0 -9 4 -18 9 -22 17 -10 49
-129 56 -205 8 -100 13 -129 36 -235 18 -81 19 -101 9 -195 -8 -72 -20 -122
-37 -160 -14 -30 -30 -66 -36 -80 -22 -47 -149 -164 -217 -197 -79 -39 -280
-123 -280 -117 0 17 33 64 44 64 7 0 20 8 27 17 8 9 47 32 86 50 40 18 98 51
128 72 55 39 138 134 157 181 25 60 62 264 62 340 -1 50 -42 242 -74 340 -17
51 -21 105 -14 179 4 42 9 69 11 61 3 -8 11 -29 19 -47z m555 -9 c-21 -81 -12
-217 19 -307 23 -65 25 -77 11 -71 -40 16 -135 44 -153 44 -37 0 -258 118
-258 138 0 13 122 90 200 127 41 19 100 55 130 79 30 24 57 42 59 40 2 -2 -2
-24 -8 -50z m-4866 12 c-16 -14 -68 -43 -115 -66 -172 -84 -245 -122 -261
-136 -25 -22 -251 -131 -310 -149 -30 -9 -107 -34 -171 -55 -65 -21 -118 -37
-118 -36 0 17 40 72 78 107 l48 44 84 0 c74 1 94 5 154 33 38 18 89 48 112 67
24 20 60 43 81 51 21 9 70 31 108 49 39 18 117 48 175 68 161 54 177 56 135
23z m4115 -74 c-12 -37 -28 -81 -36 -99 -8 -17 -14 -36 -14 -41 0 -21 -74
-134 -97 -149 -13 -9 -36 -37 -50 -62 -15 -25 -39 -62 -54 -81 -15 -19 -37
-62 -49 -95 -12 -33 -25 -64 -30 -70 -19 -24 -128 -253 -133 -282 -4 -18 -17
-54 -29 -80 -12 -27 -23 -55 -24 -63 -5 -58 -17 -111 -26 -116 -7 -5 -9 2 -4
22 3 16 11 83 17 149 11 129 33 201 81 272 15 23 28 45 28 50 0 9 76 118 137
196 44 56 79 115 124 207 18 36 47 83 64 105 39 49 50 70 59 113 3 19 15 46
26 62 11 15 20 34 21 42 0 11 2 11 6 0 3 -8 -5 -44 -17 -80z m-2362 45 c19
-13 43 -44 57 -73 28 -59 74 -102 117 -111 15 -3 30 -9 33 -13 5 -8 -80 5
-111 17 -53 21 -137 122 -159 192 -6 21 -5 23 11 17 11 -4 34 -17 52 -29z
m984 3 c18 -11 42 -20 52 -20 65 0 246 -127 246 -172 0 -9 12 -29 28 -44 16
-16 20 -24 10 -21 -24 8 -123 25 -186 31 -92 10 -163 36 -192 71 -14 17 -26
135 -16 160 7 20 19 19 58 -5z m1647 -12 c10 -30 9 -31 -4 -14 -8 11 -15 26
-15 33 0 22 8 14 19 -19z m-5014 6 c-67 -12 -149 -37 -260 -79 -14 -5 -10 1
10 18 51 43 169 74 285 75 36 0 30 -3 -35 -14z m295 -9 c0 -14 -310 -117 -405
-133 -111 -20 -129 -22 -122 -15 14 14 245 83 442 133 82 21 85 21 85 15z
m401 -12 c-5 -10 -34 -42 -65 -71 -30 -29 -63 -63 -73 -75 -15 -18 -168 -158
-223 -204 -8 -7 -33 -27 -55 -46 -64 -54 -76 -58 -118 -39 -21 9 -37 21 -37
27 0 6 21 21 47 34 78 38 252 170 359 273 46 45 147 115 167 117 4 1 3 -7 -2
-16z m2005 -27 c48 -23 64 -40 64 -72 0 -26 -74 -14 -160 26 -74 34 -100 51
-95 60 4 6 36 10 73 10 49 0 80 -6 118 -24z m1739 14 c-3 -5 -10 -10 -16 -10
-5 0 -9 5 -9 10 0 6 7 10 16 10 8 0 12 -4 9 -10z m1211 -160 c9 -52 22 -120
31 -150 15 -56 103 -230 155 -308 16 -24 37 -61 48 -82 11 -21 46 -69 79 -107
48 -55 59 -73 54 -92 -5 -22 -72 -148 -111 -210 -22 -36 -92 -112 -94 -103 -1
4 -3 52 -3 107 -4 227 -16 347 -44 440 -16 50 -36 117 -46 150 -9 33 -36 101
-60 150 -24 50 -51 123 -60 162 -14 63 -15 82 -4 142 l13 70 14 -37 c7 -20 20
-80 28 -132z m-4731 140 c3 -11 15 -25 26 -30 10 -6 19 -15 19 -21 0 -5 19
-33 41 -62 48 -60 92 -128 139 -212 18 -33 38 -68 44 -77 12 -21 2 -35 -16
-21 -13 10 -70 33 -202 79 -89 31 -184 77 -220 107 l-28 23 17 62 c22 76 64
137 108 156 45 20 65 19 72 -4z m-1005 -15 c-46 -13 -86 -22 -89 -20 -8 9 109
43 149 43 14 0 -13 -10 -60 -23z m2380 -77 c72 -82 77 -120 25 -215 -46 -84
-60 -99 -50 -55 11 54 -20 40 -39 -17 -20 -61 -20 -72 -2 -96 12 -17 16 -17
31 -5 9 8 26 33 37 57 18 38 38 57 38 35 0 -4 19 -25 41 -47 23 -22 57 -55 75
-72 29 -29 64 -44 64 -27 0 17 -43 71 -70 89 -40 26 -84 98 -77 128 3 12 14
43 24 69 15 39 16 53 6 79 -12 30 -12 31 14 24 15 -3 43 -13 62 -22 20 -9 43
-16 51 -15 12 1 12 0 1 -5 -11 -4 -9 -9 7 -22 29 -22 46 -137 37 -246 l-7 -82
-60 -53 c-71 -62 -121 -158 -132 -250 -8 -65 -26 -162 -33 -172 -2 -4 -12 -4
-21 1 -9 5 -35 14 -57 21 -22 7 -64 28 -93 46 -42 27 -58 46 -82 96 -16 33
-37 69 -45 78 -13 15 -12 20 8 46 36 49 120 147 145 169 26 24 29 55 6 55 -9
0 -41 -7 -71 -16 -60 -18 -75 -13 -50 14 10 10 17 24 17 30 0 6 7 15 16 20 13
7 14 17 6 63 -6 30 -8 57 -5 61 8 14 25 8 19 -7 -3 -8 -2 -15 3 -15 5 0 12
-11 15 -25 9 -35 19 -31 39 15 21 48 21 56 3 63 -10 4 -11 16 -4 59 5 29 9 92
8 140 l-1 88 24 -11 c14 -6 48 -38 77 -71z m227 58 c72 -41 151 -66 211 -66
52 0 55 -1 40 -16 -31 -31 -86 -32 -173 -2 -58 20 -87 36 -107 60 -46 54 -37
61 29 24z m-2017 0 c0 -3 -32 -30 -71 -60 -62 -49 -122 -82 -269 -149 -76 -34
-274 -99 -345 -111 -61 -11 -30 8 45 28 36 10 88 26 116 36 57 21 291 135 312
153 17 13 194 106 205 107 4 0 7 -2 7 -4z m4351 -136 c45 -127 29 -337 -36
-463 -66 -129 -122 -225 -149 -255 -24 -27 -85 -66 -92 -60 -9 10 9 98 21 98
6 0 24 24 40 53 15 28 33 59 40 67 25 30 92 168 103 211 23 88 22 125 -4 226
-28 107 -28 161 1 229 l17 39 20 -45 c11 -25 28 -70 39 -100z m-5106 100 c-38
-17 -72 -30 -75 -29 -11 1 116 59 130 59 8 0 -16 -14 -55 -30z m2166 -63 c-11
-23 -23 -54 -26 -69 -4 -16 -11 -28 -15 -28 -8 0 -5 12 19 88 18 55 36 87 39
69 2 -10 -6 -36 -17 -60z m140 66 c1 -5 4 -19 6 -33 3 -14 7 -78 8 -143 2 -64
6 -133 9 -152 5 -24 3 -35 -5 -35 -17 0 -49 30 -49 47 0 7 -9 13 -19 13 -18 0
-19 -3 -10 -29 6 -17 17 -35 25 -42 19 -15 18 -54 -2 -73 -42 -43 -86 4 -66
71 6 21 11 67 11 103 -1 45 6 80 20 113 12 27 21 57 21 68 0 43 46 124 51 92z
m-1971 -23 c-67 -52 -234 -94 -305 -76 -34 9 -22 26 18 26 41 0 199 34 252 54
55 20 65 19 35 -4z m5009 -110 c12 -41 24 -102 27 -137 6 -53 4 -63 -9 -63
-20 0 -24 12 -42 140 -26 183 -16 206 24 60z m448 78 c-3 -8 -6 -5 -6 6 -1 11
2 17 5 13 3 -3 4 -12 1 -19z m-2042 -64 c44 -7 96 -16 115 -18 75 -10 101 -20
120 -44 11 -13 20 -29 20 -34 0 -5 16 -32 35 -61 19 -28 35 -57 35 -64 0 -12
-38 -29 -55 -24 -5 1 -32 3 -58 2 -55 0 -159 30 -231 66 -91 46 -176 148 -176
210 l0 32 57 -25 c32 -14 94 -32 138 -40z m-1559 -36 c-14 -37 -23 -117 -28
-254 -3 -56 -48 -16 -48 42 0 15 15 75 34 133 45 137 49 147 54 133 2 -7 -4
-31 -12 -54z m3627 -3 l6 -30 -14 30 c-16 34 -21 72 -6 45 5 -8 11 -28 14 -45z
m-4900 -11 c-8 -31 -12 -58 -9 -61 8 -8 -25 -77 -71 -145 -44 -66 -79 -96
-157 -130 -50 -23 -68 -23 -84 2 -10 17 -10 20 3 20 29 0 155 121 205 197 46
70 121 173 126 173 1 0 -4 -25 -13 -56z m3304 -94 c14 -69 34 -132 61 -182 1
-3 -16 -2 -40 4 -45 10 -138 88 -105 88 13 0 14 6 6 32 -9 32 10 101 43 162
12 21 12 21 15 1 2 -11 11 -58 20 -105z m1261 81 c42 -22 104 -45 136 -51 102
-21 195 -73 183 -104 -7 -16 -90 -76 -107 -76 -6 0 -37 -14 -69 -32 -69 -38
-87 -35 -160 28 -49 43 -53 50 -48 81 5 30 -6 132 -19 176 -7 23 -4 22 84 -22z
m-291 -91 c13 -62 16 -107 12 -165 -8 -98 -16 -151 -28 -173 -5 -9 -12 -34
-15 -55 -11 -71 -52 -130 -146 -209 -36 -31 -83 -61 -105 -68 -22 -7 -51 -21
-64 -31 -32 -26 -49 -24 -44 4 3 12 24 37 48 55 89 68 131 111 154 158 14 27
27 51 30 54 4 3 28 48 53 100 52 105 77 219 79 360 1 86 2 85 26 -30z m-4723
79 c-6 -11 -66 -39 -81 -39 -7 1 76 48 85 50 2 0 0 -5 -4 -11z m4523 -35 c19
-52 23 -137 11 -199 -12 -60 -74 -182 -129 -256 -38 -51 -39 -52 -39 -23 0 16
17 57 40 94 22 36 40 71 40 78 0 6 5 12 10 12 6 0 10 8 10 18 0 10 5 23 10 28
12 12 -5 145 -20 154 -10 6 4 91 20 121 16 28 31 20 47 -27z m-1288 -83 c84
-42 176 -64 315 -76 81 -7 90 -11 156 -70 28 -25 63 -48 78 -51 15 -3 51 -19
80 -35 53 -30 72 -30 72 -3 0 8 9 14 20 14 11 0 20 5 20 11 0 12 29 38 42 39
14 0 -38 -67 -71 -93 -34 -27 -68 -28 -99 -4 -7 6 -36 21 -65 35 -44 20 -74
25 -197 32 -168 8 -232 27 -319 94 -52 39 -110 115 -125 163 -6 19 -3 19 25
-8 18 -17 49 -39 68 -48z m-3401 47 c-7 -21 -138 -59 -188 -56 l-45 3 50 8
c28 5 77 19 110 32 70 28 78 29 73 13z m4384 -66 c-83 -98 -207 -298 -227
-366 -3 -10 -8 -17 -11 -14 -11 11 41 145 71 183 18 22 42 58 53 79 12 22 25
42 29 45 5 3 30 32 57 64 27 32 51 55 54 52 3 -3 -9 -22 -26 -43z m1200 -9
c56 -136 118 -332 107 -339 -5 -3 -9 0 -9 6 0 6 -16 46 -36 88 -20 42 -48 125
-63 184 -28 108 -28 131 1 61z m-988 -113 c-6 -61 -32 -127 -52 -135 -17 -6
-9 93 15 204 l17 73 13 -43 c8 -27 11 -65 7 -99z m-4519 93 c87 -48 185 -141
185 -176 0 -20 -209 21 -271 53 -27 14 -119 101 -119 112 0 4 17 12 38 18 20
5 44 14 52 20 25 16 44 12 115 -27z m-810 -63 c39 -21 99 -52 134 -69 103 -52
64 -45 -50 9 -57 28 -125 60 -151 73 -49 23 -66 44 -25 31 12 -3 54 -23 92
-44z m3493 -58 c3 -121 -20 -246 -84 -459 -13 -45 -80 -150 -89 -141 -5 5 11
72 41 173 18 64 28 128 34 220 4 72 12 144 18 160 15 46 68 155 75 155 1 0 3
-48 5 -108z m-159 -34 c-12 -24 -33 -61 -48 -83 -64 -101 -108 -189 -118 -237
-3 -16 -9 -30 -13 -33 -9 -6 -3 73 10 129 5 22 10 57 10 77 0 27 11 51 39 89
41 54 133 128 139 111 2 -5 -7 -29 -19 -53z m1361 41 c13 -7 13 -8 0 -8 -8 0
-26 6 -40 15 l-25 15 25 -7 c14 -3 32 -10 40 -15z m-4580 -65 c123 -61 252
-143 200 -129 -14 4 -32 13 -40 20 -17 14 -105 62 -200 110 -58 30 -121 71
-95 63 6 -2 66 -31 135 -64z m4636 28 c-4 -3 -14 2 -24 12 -16 18 -16 18 6 6
13 -6 21 -14 18 -18z m2934 -40 c0 -10 -4 -10 -20 0 -12 8 -20 23 -20 38 l0
25 20 -25 c11 -14 20 -31 20 -38z m-5080 30 c0 -8 -16 -15 -154 -68 -49 -19
-91 -32 -94 -30 -7 8 101 66 143 76 35 9 95 26 103 29 1 1 2 -3 2 -7z m1020
-36 c0 -24 3 -59 7 -77 l6 -34 -22 20 c-48 42 -63 106 -28 123 35 17 37 15 37
-32z m-270 -37 c-5 -19 -8 -46 -5 -59 11 -56 5 -139 -14 -200 -12 -36 -21 -75
-21 -87 0 -12 -4 -24 -8 -27 -5 -3 -14 -31 -22 -63 -7 -32 -21 -70 -31 -85
-11 -14 -19 -31 -19 -36 0 -25 -147 -128 -207 -147 -21 -6 -20 -2 12 47 20 29
44 71 55 93 25 51 87 222 106 294 9 29 26 78 40 108 24 56 115 206 120 200 2
-2 -1 -19 -6 -38z m2544 -39 c18 -19 46 -46 62 -60 53 -45 64 -72 64 -161 0
-74 -4 -91 -47 -193 -62 -149 -109 -220 -172 -265 l-29 -21 -16 68 c-18 71
-34 92 -138 183 -27 23 -48 46 -48 51 0 5 22 29 49 54 41 38 96 118 157 230 6
11 14 42 17 70 3 27 11 67 18 89 l11 39 20 -24 c11 -14 34 -41 52 -60z m-5409
-55 c33 -23 75 -50 93 -59 34 -18 37 -23 23 -45 -8 -12 -12 -12 -25 -2 -9 7
-14 17 -11 21 3 4 -17 17 -44 29 -48 20 -163 92 -188 117 -7 7 -28 22 -48 34
-19 12 -35 23 -35 25 0 10 183 -83 235 -120z m2145 86 c0 -4 -35 -31 -77 -59
-43 -28 -123 -93 -178 -144 -97 -92 -189 -153 -268 -178 -65 -21 -50 -5 43 44
72 38 110 68 198 154 82 81 128 117 188 149 83 45 94 49 94 34z m-177 -39
c-12 -9 -42 -32 -67 -51 -24 -19 -61 -56 -83 -83 -43 -56 -104 -104 -178 -140
-27 -14 -65 -33 -83 -42 -48 -26 -136 -31 -208 -12 -80 21 -451 74 -534 76
-43 2 -44 2 -15 11 78 24 228 10 370 -34 59 -18 94 -22 216 -22 144 1 147 1
212 33 65 32 107 74 140 138 22 43 76 82 161 115 82 32 100 35 69 11z m-1888
-33 c55 -31 75 -49 55 -49 -10 0 -120 70 -120 76 0 8 12 3 65 -27z m2559 -26
c-3 -21 -9 -56 -13 -78 -5 -22 -9 -58 -10 -80 -3 -57 -19 -113 -48 -162 -40
-69 -43 -59 -11 40 16 50 32 123 35 162 5 67 30 155 45 155 4 0 5 -17 2 -37z
m-2324 2 c-14 -8 -33 -14 -43 -15 -11 0 -32 -9 -49 -21 -16 -12 -32 -18 -35
-15 -9 9 0 15 64 42 64 26 103 32 63 9z m328 -10 c59 -14 121 -29 137 -33 l30
-8 -46 -21 c-26 -12 -78 -41 -115 -65 -87 -57 -121 -68 -203 -68 -93 0 -104 5
-137 63 -58 101 -66 28 -9 -77 19 -36 36 -78 37 -93 1 -16 9 -34 16 -42 28
-29 4 -221 -27 -221 -16 0 -52 72 -45 92 4 14 -3 33 -24 61 -41 59 -51 81 -68
143 -19 74 -18 87 11 149 29 60 56 82 118 94 23 4 60 17 82 29 53 28 112 27
243 -3z m3639 -17 c-46 -43 -129 -115 -165 -142 -15 -11 -53 -42 -83 -68 -30
-26 -76 -59 -104 -74 -80 -43 -165 -84 -174 -84 -5 0 -32 -12 -60 -26 -49 -24
-121 -43 -121 -31 0 3 42 29 93 57 50 28 114 68 141 88 65 49 90 65 156 102
97 54 163 95 255 157 49 34 91 60 93 58 2 -2 -12 -19 -31 -37z m-2215 -6 c-23
-31 -113 -111 -168 -148 -74 -50 -75 -42 -4 27 82 79 182 161 188 154 2 -2 -5
-17 -16 -33z m-353 -9 c-63 -104 -116 -139 -244 -163 -77 -13 -218 -2 -292 24
-22 8 -62 17 -89 20 -27 4 -65 12 -84 17 -20 6 -66 9 -103 7 -103 -5 -86 12
28 27 28 4 88 16 135 27 65 15 138 21 310 25 201 5 231 8 285 28 80 30 80 30
54 -12z m2601 -26 c-8 -36 -21 -56 -57 -89 -26 -24 -64 -59 -85 -78 -85 -81
-160 -142 -213 -172 -155 -88 -275 -121 -372 -104 -56 10 -62 22 -15 31 20 3
55 15 77 25 22 10 75 33 118 50 125 49 262 125 313 174 6 6 49 43 95 81 45 39
96 84 113 100 17 17 32 30 34 29 1 -1 -2 -22 -8 -47z m-2089 -4 c27 -82 77
-131 171 -169 53 -21 58 -29 27 -39 -31 -10 -236 -178 -265 -216 -13 -18 -37
-41 -54 -52 -28 -18 -32 -18 -100 -1 -67 16 -75 16 -153 -1 -45 -9 -122 -32
-172 -50 -49 -19 -114 -41 -143 -50 l-52 -17 -93 32 c-102 37 -260 110 -253
118 3 2 47 -6 98 -18 78 -19 111 -22 206 -18 l114 5 116 58 c65 32 136 71 159
86 23 16 46 29 52 29 20 0 245 234 281 291 19 31 38 55 42 53 3 -3 12 -21 19
-41z m3021 15 c-7 -7 -12 -8 -12 -2 0 14 12 26 19 19 2 -3 -1 -11 -7 -17z
m-882 -135 c-16 -164 -34 -230 -101 -362 -33 -64 -59 -119 -59 -123 0 -4 -18
-37 -40 -73 -22 -36 -40 -69 -40 -74 0 -26 -93 -101 -125 -101 -7 0 68 112 96
145 26 30 124 232 143 295 9 30 26 83 37 117 12 34 18 67 15 72 -4 6 7 37 24
70 16 33 30 68 30 78 0 20 22 84 28 79 2 -2 -2 -57 -8 -123z m-4190 98 c0 -6
-4 -13 -10 -16 -5 -3 -10 1 -10 9 0 9 5 16 10 16 6 0 10 -4 10 -9z m602 -26
c-32 -23 -92 -47 -92 -36 0 5 21 18 48 29 57 25 74 27 44 7z m1271 -16 c-26
-43 -160 -171 -213 -202 -157 -92 -450 -143 -595 -104 -28 8 -81 22 -120 31
-38 10 -89 27 -112 38 -23 11 -57 24 -75 29 -24 6 -12 8 47 6 70 -2 90 -8 160
-42 73 -36 88 -39 179 -43 109 -4 244 20 340 63 107 47 293 164 361 227 39 37
50 35 28 -3z m-1896 -11 c-3 -8 -6 -5 -6 6 -1 11 2 17 5 13 3 -3 4 -12 1 -19z
m4101 -94 c-45 -91 -124 -169 -223 -221 -126 -65 -190 -83 -297 -83 -64 0 -88
3 -78 10 8 5 26 10 40 10 28 1 118 29 177 56 80 36 191 110 268 178 44 39 86
76 93 81 7 6 21 17 30 26 9 9 19 15 20 13 2 -1 -11 -33 -30 -70z m857 -4 c-21
-22 -42 -40 -47 -40 -7 0 73 79 82 80 2 0 -14 -18 -35 -40z m-4535 10 c0 -5
-2 -10 -4 -10 -3 0 -8 5 -11 10 -3 6 -1 10 4 10 6 0 11 -4 11 -10z m450 -14
c47 -9 123 -20 169 -26 46 -6 108 -17 139 -25 31 -8 74 -16 97 -16 l40 -1 -40
-9 c-106 -21 -296 -2 -450 46 -37 12 -88 15 -201 14 -162 -2 -201 6 -143 28
45 17 274 10 389 -11z m4835 -204 c-8 -33 -15 -67 -15 -76 0 -19 -91 -175
-134 -231 -17 -22 -46 -53 -64 -69 -37 -32 -140 -106 -148 -106 -3 0 22 30 55
67 34 37 61 71 61 76 0 4 24 41 54 81 93 125 179 304 193 401 l8 50 3 -67 c2
-38 -4 -93 -13 -126z m-3359 116 c-9 -24 -21 -65 -26 -93 -6 -27 -29 -87 -50
-132 -38 -81 -40 -83 -74 -83 -36 0 -141 23 -188 42 -27 10 -38 28 -18 28 5 0
27 24 49 53 22 28 64 70 93 92 29 22 61 47 71 55 37 32 152 97 155 89 2 -5 -3
-28 -12 -51z m-790 43 c-11 -17 -95 -50 -192 -75 -107 -28 -219 -34 -267 -13
-24 10 -14 12 80 13 116 2 255 27 333 62 54 25 53 24 46 13z m-1228 -34 c24
-10 42 -21 39 -23 -5 -5 -105 31 -127 46 -23 16 36 1 88 -23z m411 29 c-2 -2
-38 -6 -79 -9 -46 -4 -67 -3 -55 3 19 8 143 14 134 6z m4143 -8 c-17 -21 -101
-63 -108 -55 -4 4 -5 8 -3 10 30 18 106 56 113 56 5 1 4 -5 -2 -11z m-1996
-112 c-9 -30 -16 -63 -16 -74 0 -11 -6 -27 -13 -34 -7 -7 -26 -30 -41 -51 -49
-65 -197 -135 -321 -154 -27 -4 -28 -3 -10 8 21 13 110 84 178 141 21 17 50
39 65 48 62 39 135 131 154 194 l12 41 4 -33 c2 -18 -4 -57 -12 -86z m-449 28
c-23 -57 -79 -166 -100 -192 -21 -27 -16 -2 14 69 32 76 98 193 105 186 2 -2
-7 -30 -19 -63z m2487 3 c15 -24 47 -55 70 -69 62 -37 90 -80 125 -193 54
-169 60 -366 16 -461 -27 -59 -120 -114 -190 -114 -39 0 -51 5 -90 41 -24 23
-56 66 -69 96 -14 29 -36 68 -48 85 -13 18 -36 55 -53 84 -16 29 -43 74 -60
101 -29 46 -29 50 -31 193 -1 80 3 153 8 163 5 9 19 17 31 17 12 0 33 8 47 17
17 12 25 13 28 5 2 -7 12 -12 22 -12 12 0 27 -19 45 -57 15 -32 38 -80 52
-106 27 -55 71 -216 78 -285 2 -26 7 -84 11 -130 5 -56 10 -80 17 -73 15 15
19 80 8 131 -6 25 -12 68 -15 95 -9 104 -37 204 -81 291 -25 49 -45 97 -45
106 0 9 -4 20 -10 23 -16 10 -12 32 8 39 13 4 92 49 98 55 1 1 13 -18 28 -42z
m-4390 -42 c43 -25 82 -45 87 -45 4 0 43 -15 86 -34 43 -19 112 -47 153 -62
41 -14 108 -42 148 -60 41 -19 77 -34 82 -34 5 0 26 -7 47 -17 99 -43 99 -43
77 -43 -37 0 -126 31 -244 86 -64 30 -121 54 -126 54 -32 0 -429 192 -459 222
-17 17 66 -21 149 -67z m3509 22 c-23 -23 -45 -55 -49 -72 -4 -16 -10 -32 -13
-35 -10 -8 -30 -42 -58 -100 -26 -53 -47 -81 -103 -139 -34 -35 -60 -77 -60
-96 0 -30 -43 -13 -53 20 -8 28 -4 35 56 95 82 84 167 207 167 244 0 8 29 35
64 60 35 25 66 53 70 62 4 9 9 14 13 10 4 -3 -12 -25 -34 -49z m705 31 c-5
-15 -104 -50 -127 -46 -9 2 13 16 49 30 76 31 83 32 78 16z m-3920 -28 c39
-16 80 -30 92 -30 11 0 37 -7 58 -16 46 -19 189 -44 259 -44 28 0 89 9 135 20
46 11 94 20 108 19 21 0 16 -4 -24 -26 -43 -22 -66 -26 -170 -30 -111 -5 -131
-3 -243 26 -119 30 -278 85 -297 102 -19 17 11 9 82 -21z m-91 -31 c98 -39
233 -108 233 -120 0 -13 -2 -12 -72 20 -35 16 -106 48 -158 72 -52 24 -99 47
-104 51 -21 17 27 7 101 -23z m2472 -8 c-62 -76 -155 -179 -183 -202 -36 -30
-163 -99 -183 -99 -28 0 -11 16 52 49 46 24 101 68 192 157 119 117 175 160
122 95z m-185 -58 c-54 -52 -80 -71 -82 -60 -5 24 66 111 101 124 63 24 59 12
-19 -64z m1021 -8 c-8 -30 -19 -55 -23 -55 -5 0 -16 -24 -27 -52 -10 -29 -26
-65 -37 -80 -10 -14 -18 -30 -18 -35 0 -6 -9 -18 -20 -28 -11 -10 -20 -25 -20
-34 0 -9 -8 -24 -17 -33 -10 -9 -27 -29 -38 -44 -11 -15 -33 -41 -48 -57 -28
-30 -28 -30 -48 -10 -20 20 -20 20 27 89 26 38 69 94 95 124 26 30 57 75 67
100 11 25 31 56 44 70 12 14 34 48 47 75 29 61 38 45 16 -30z m175 21 c-9 -26
-12 -42 -26 -140 -4 -27 -20 -73 -35 -102 -16 -30 -29 -63 -29 -74 0 -11 -4
-20 -10 -20 -5 0 -10 -7 -10 -15 0 -27 27 -4 44 37 29 76 26 33 -4 -58 -17
-49 -37 -122 -46 -162 -25 -119 -66 -197 -76 -144 -4 21 32 128 56 165 10 15
14 27 9 27 -13 0 -40 -35 -47 -61 -18 -66 -30 -99 -36 -99 -10 0 -90 165 -90
187 0 13 13 29 32 41 18 12 44 44 62 81 17 33 69 135 116 226 58 114 87 161
92 151 5 -8 4 -26 -2 -40z m-324 -32 c-9 -8 -16 -24 -16 -35 0 -10 -4 -19 -9
-19 -5 0 -11 -8 -15 -17 -13 -41 -91 -127 -123 -137 -21 -7 -23 -4 -23 36 0
24 6 63 13 87 13 41 17 45 73 65 33 12 71 30 84 39 28 20 40 6 16 -19z m-3495
-154 c35 -12 75 -31 89 -40 14 -10 55 -34 91 -54 37 -19 77 -50 90 -67 13 -17
36 -46 52 -64 42 -50 57 -97 57 -175 0 -84 -34 -195 -85 -274 -18 -28 -43 -76
-56 -106 -12 -30 -38 -77 -56 -105 -18 -27 -35 -70 -39 -95 -4 -25 -17 -61
-29 -80 -11 -19 -29 -57 -39 -85 -23 -63 -61 -102 -81 -85 -19 16 -19 86 0
256 17 153 13 374 -10 524 -3 19 -7 53 -10 75 -12 90 -18 112 -45 150 -27 38
-89 163 -124 249 -15 36 -15 41 0 57 15 17 19 16 74 -20 32 -21 86 -48 121
-61z m-26 84 c28 -9 59 -21 70 -27 11 -6 42 -22 70 -35 27 -14 80 -46 118 -71
38 -25 81 -54 95 -63 102 -68 131 -145 132 -353 0 -70 -7 -98 -42 -185 -34
-82 -81 -161 -120 -200 -13 -14 -41 -53 -61 -86 -41 -68 -74 -104 -64 -69 3
11 9 34 13 50 4 17 17 41 30 55 12 14 35 54 50 90 15 36 45 89 65 118 49 70
91 203 91 291 0 80 -22 137 -89 225 -56 74 -69 84 -164 133 -41 22 -83 44 -94
51 -11 6 -55 27 -97 46 -104 47 -105 63 -3 30z m1501 -5 c38 -11 87 -30 109
-41 l40 -20 -80 6 c-73 5 -238 31 -275 44 -18 6 63 30 106 31 18 1 63 -8 100
-20z m994 1 c0 -5 -5 -10 -11 -10 -5 0 -7 5 -4 10 3 6 8 10 11 10 2 0 4 -4 4
-10z m-1098 -71 c57 -12 162 -24 233 -28 l130 -6 -95 -19 c-114 -22 -186 -22
-300 -2 -47 9 -139 16 -205 16 -130 1 -133 6 -30 41 68 24 145 23 267 -2z
m443 -39 c-27 -12 -43 -12 -25 0 8 5 22 9 30 9 10 0 8 -3 -5 -9z m-447 -56
c108 -15 236 -10 297 11 13 4 8 -4 -16 -27 -19 -18 -45 -47 -57 -65 -39 -56
-116 -67 -196 -29 -28 14 -69 32 -91 41 -22 10 -49 25 -60 35 -11 10 -37 23
-57 30 -21 6 -38 13 -38 16 0 9 112 3 218 -12z m-321 0 c-3 -3 -12 -4 -19 -1
-8 3 -5 6 6 6 11 1 17 -2 13 -5z m1347 -24 c121 -34 158 -58 181 -115 30 -76
86 -154 135 -188 36 -25 16 -33 -31 -12 -44 20 -109 88 -109 115 0 9 -13 26
-29 38 -16 12 -42 39 -58 62 -52 73 -171 99 -358 76 -80 -10 -63 3 33 25 103
23 153 23 236 -1z m-1361 -26 c71 -37 120 -81 164 -149 24 -36 92 -101 163
-156 14 -10 -15 1 -65 26 -82 42 -182 112 -247 175 -15 14 -51 49 -82 78 -31
30 -56 56 -56 59 0 11 78 -10 123 -33z m1292 -25 c33 -6 72 -17 86 -25 24 -12
129 -139 129 -156 0 -8 -110 30 -126 43 -27 22 -156 61 -243 74 -95 13 -166
34 -145 41 10 4 190 30 225 33 8 0 42 -4 74 -10z m-490 -18 c-3 -6 -18 -11
-33 -11 -29 0 -20 15 13 22 24 5 29 3 20 -11z m-114 -63 c18 -6 53 -26 77 -45
24 -18 48 -33 52 -33 5 0 35 -9 66 -21 42 -16 53 -24 44 -33 -15 -15 -212 -15
-231 0 -8 6 -39 21 -69 32 -68 25 -160 72 -160 82 0 4 11 10 25 12 19 4 25 1
25 -13 0 -26 18 -33 38 -16 21 18 73 46 88 47 6 0 26 -5 45 -12z m581 -49 c34
-11 73 -29 86 -40 14 -10 35 -19 47 -19 29 0 127 -43 144 -64 7 -9 10 -16 6
-16 -22 0 -134 34 -168 51 -21 11 -68 29 -105 41 -66 20 -142 54 -142 63 0 12
76 3 132 -16z m-1184 -53 c99 -76 116 -86 164 -103 26 -10 58 -26 70 -36 23
-18 23 -19 -32 -13 -119 11 -174 42 -237 131 -63 90 -59 92 35 21z m1262 -46
c8 -5 11 -10 5 -10 -5 0 -17 5 -25 10 -8 5 -10 10 -5 10 6 0 17 -5 25 -10z
m182 -75 c35 -8 83 -22 108 -30 l45 -15 -60 4 c-35 2 -83 14 -115 29 -65 30
-62 32 22 12z m-2433 -705 c-5 -25 -19 -66 -31 -93 -18 -39 -25 -46 -42 -41
-31 10 -31 10 3 52 17 22 40 61 51 87 25 58 32 55 19 -5z"/>
<path d="M3010 6993 c1 -13 40 -56 46 -51 12 13 -9 58 -27 58 -10 0 -19 -3
-19 -7z"/>
<path d="M2942 6930 c6 -55 11 -66 27 -55 18 10 14 92 -5 99 -26 10 -27 8 -22
-44z"/>
<path d="M3012 6893 c2 -16 10 -29 19 -31 12 -2 15 4 11 28 -6 39 -35 42 -30
3z"/>
<path d="M3000 6810 c0 -16 23 -60 31 -60 17 0 20 22 5 45 -17 25 -36 33 -36
15z"/>
<path d="M2961 6758 c-8 -23 2 -75 17 -90 10 -10 25 89 16 103 -9 16 -24 9
-33 -13z"/>
<path d="M3010 6679 c0 -25 17 -59 30 -59 11 0 13 40 4 64 -9 23 -34 20 -34
-5z"/>
<path d="M2990 6639 c0 -9 -9 -24 -20 -34 -23 -20 -25 -75 -4 -82 18 -6 50
105 36 119 -9 9 -12 8 -12 -3z"/>
<path d="M860 6965 c0 -16 6 -25 15 -25 8 0 15 4 15 9 0 5 3 16 6 25 4 12 0
16 -15 16 -16 0 -21 -6 -21 -25z"/>
<path d="M1476 6957 c-47 -20 -56 -31 -33 -40 19 -7 117 25 117 39 0 21 -37
22 -84 1z"/>
<path d="M990 6938 c0 -2 11 -25 24 -51 17 -33 23 -58 19 -80 -4 -27 1 -41 29
-74 18 -23 40 -52 49 -65 10 -13 20 -20 24 -16 14 13 -7 66 -41 106 -26 31
-34 49 -34 79 0 43 -32 103 -55 103 -8 0 -15 -1 -15 -2z"/>
<path d="M715 6910 c-7 -12 23 -80 36 -80 12 0 11 47 -1 71 -12 21 -25 25 -35
9z"/>
<path d="M876 6881 c-9 -13 17 -71 32 -71 10 0 12 8 7 33 -4 17 -9 35 -12 40
-6 10 -21 9 -27 -2z"/>
<path d="M1362 6878 c-26 -33 -23 -78 4 -60 13 8 34 46 34 61 0 15 -25 14 -38
-1z"/>
<path d="M687 6804 c-3 -3 -3 -13 1 -22 10 -27 73 -112 83 -112 21 0 6 49 -28
92 -39 48 -45 53 -56 42z"/>
<path d="M1292 6798 c-17 -17 -15 -83 3 -98 22 -18 34 -3 30 38 -2 20 -4 45
-4 55 -1 20 -12 22 -29 5z"/>
<path d="M1492 6788 c-16 -16 -16 -101 0 -96 7 3 17 21 23 40 5 20 13 40 17
44 10 9 0 24 -16 24 -6 0 -17 -5 -24 -12z"/>
<path d="M915 6769 c-8 -12 44 -100 63 -107 20 -6 14 28 -13 75 -26 44 -38 52
-50 32z"/>
<path d="M840 6612 c0 -12 62 -68 83 -75 9 -4 17 -13 17 -20 0 -8 18 -30 40
-51 22 -20 40 -41 40 -45 0 -5 14 -14 31 -20 40 -14 39 -14 39 7 -1 17 -66 64
-107 76 -15 5 -23 15 -23 30 0 14 -17 38 -47 64 -43 39 -73 53 -73 34z"/>
<path d="M1049 6602 c12 -22 107 -103 113 -96 3 2 3 16 0 30 -3 16 -17 31 -43
44 -21 11 -40 24 -44 30 -3 5 -13 10 -21 10 -11 0 -12 -4 -5 -18z"/>
<path d="M1170 6595 c0 -27 158 -113 181 -99 20 12 4 25 -82 68 -50 25 -93 46
-95 46 -2 0 -4 -7 -4 -15z"/>
<path d="M3307 6840 c3 -10 16 -26 29 -35 22 -14 25 -14 30 0 8 19 -23 55 -47
55 -12 0 -16 -6 -12 -20z"/>
<path d="M3460 6772 c0 -47 4 -63 21 -78 l21 -19 -6 69 c-3 37 -9 72 -12 77
-14 24 -24 4 -24 -49z"/>
<path d="M3343 6734 c-3 -9 1 -31 9 -48 8 -17 21 -43 28 -58 7 -16 19 -28 27
-28 21 0 7 68 -23 112 -30 43 -32 44 -41 22z"/>
<path d="M3495 6620 c-3 -5 3 -31 14 -57 10 -26 24 -63 31 -80 7 -18 16 -33
21 -33 15 0 10 62 -8 113 -17 48 -46 77 -58 57z"/>
<path d="M3417 6543 c-2 -5 -3 -46 -2 -93 2 -87 2 -87 -55 -199 -25 -49 -25
-51 -1 -51 25 0 59 58 67 113 3 23 12 64 20 91 17 62 17 106 0 129 -14 18 -23
21 -29 10z"/>
<path d="M7745 5439 c-4 -11 -4 -23 -1 -26 3 -4 6 1 6 10 0 10 5 17 10 17 6 0
10 5 10 10 0 18 -19 10 -25 -11z"/>
<path d="M931 5271 c-11 -7 -4 -15 30 -31 40 -20 73 -55 149 -155 33 -44 115
-105 140 -105 32 0 24 14 -36 58 -30 23 -66 56 -78 75 -29 43 -62 83 -107 129
-37 38 -69 47 -98 29z"/>
<path d="M5318 4978 c4 -18 6 -64 6 -103 -2 -57 -7 -81 -33 -130 -17 -33 -42
-68 -54 -77 -18 -15 -20 -19 -8 -27 55 -36 129 139 118 279 -5 71 -11 90 -27
90 -5 0 -6 -14 -2 -32z"/>
<path d="M5260 4919 c0 -5 5 -7 10 -4 6 3 10 8 10 11 0 2 -4 4 -10 4 -5 0 -10
-5 -10 -11z"/>
<path d="M5236 4766 c-3 -13 -9 -32 -13 -43 -4 -11 2 -8 15 9 22 27 29 58 13
58 -5 0 -12 -11 -15 -24z"/>
<path d="M7650 4835 c0 -8 13 -29 28 -47 16 -18 37 -52 47 -75 18 -40 37 -54
49 -35 6 10 -37 94 -72 140 -25 33 -52 42 -52 17z"/>
<path d="M5500 1839 c0 -5 5 -7 10 -4 6 3 10 8 10 11 0 2 -4 4 -10 4 -5 0 -10
-5 -10 -11z"/>
<path d="M5490 1811 c0 -5 -3 -18 -6 -28 -5 -16 -4 -16 10 1 18 23 20 36 6 36
-5 0 -10 -4 -10 -9z"/>
<path d="M4680 6390 c0 -11 4 -20 9 -20 6 0 9 9 8 20 -1 11 -5 20 -9 20 -4 0
-8 -9 -8 -20z"/>
<path d="M7290 4003 c1 -16 39 -53 54 -53 14 0 13 5 -6 30 -20 27 -48 41 -48
23z"/>
<path d="M7665 3905 c57 -33 114 -47 100 -25 -11 18 -104 60 -132 60 -25 -1
-21 -5 32 -35z"/>
<path d="M7107 3903 c-11 -10 -8 -73 3 -73 11 0 30 42 30 66 0 14 -21 19 -33
7z"/>
<path d="M7157 3868 c6 -34 33 -88 43 -88 16 0 16 14 -1 48 -11 20 -19 44 -19
54 0 10 -7 18 -15 18 -11 0 -13 -8 -8 -32z"/>
<path d="M7210 3876 c0 -16 21 -56 30 -56 14 0 13 33 -2 48 -12 12 -28 16 -28
8z"/>
<path d="M7400 3861 c0 -18 42 -61 61 -61 26 0 24 6 -13 40 -34 30 -48 37 -48
21z"/>
<path d="M7700 3815 c31 -32 70 -47 70 -26 0 14 -67 61 -86 61 -14 0 -10 -8
16 -35z"/>
<path d="M7800 3841 c0 -12 40 -41 57 -41 23 0 14 19 -17 35 -34 18 -40 18
-40 6z"/>
<path d="M7125 3759 c-10 -16 4 -61 18 -56 7 2 12 9 11 15 -1 7 -2 21 -2 32
-2 22 -17 27 -27 9z"/>
<path d="M7639 3724 c12 -23 31 -50 41 -59 19 -17 20 -17 20 1 -1 20 -19 45
-59 79 l-23 20 21 -41z"/>
<path d="M7920 3742 c0 -12 34 -42 48 -42 18 0 14 21 -5 36 -20 15 -43 18 -43
6z"/>
<path d="M7507 3713 c9 -28 57 -103 66 -103 18 0 4 45 -24 81 -32 41 -53 51
-42 22z"/>
<path d="M7230 3686 c0 -29 28 -62 42 -48 9 9 -21 72 -34 72 -5 0 -8 -11 -8
-24z"/>
<path d="M7840 3698 c1 -15 49 -73 55 -66 2 2 2 13 -1 23 -7 25 -54 62 -54 43z"/>
<path d="M7314 3668 c9 -13 19 -31 23 -40 3 -10 11 -18 19 -18 8 0 11 6 8 15
-4 8 -9 15 -13 15 -4 0 -13 11 -19 25 -6 14 -17 25 -23 25 -7 0 -5 -9 5 -22z"/>
<path d="M8010 3643 c0 -5 11 -21 24 -38 20 -24 27 -27 37 -18 10 10 8 18 -11
38 -22 24 -50 34 -50 18z"/>
<path d="M7146 3608 c-9 -33 -8 -38 8 -38 16 0 31 34 21 50 -10 17 -22 11 -29
-12z"/>
<path d="M7767 3520 c26 -50 36 -59 48 -40 6 10 -52 87 -67 89 -4 1 5 -21 19
-49z"/>
<path d="M7954 3525 c21 -45 46 -60 46 -27 0 16 -48 72 -62 72 -3 0 4 -20 16
-45z"/>
<path d="M7290 3535 c0 -16 9 -43 20 -60 l20 -30 0 36 c0 22 -8 46 -20 60
l-19 24 -1 -30z"/>
<path d="M7630 3526 c0 -8 16 -37 35 -66 19 -29 35 -56 35 -62 0 -5 5 -6 10
-3 18 11 10 35 -30 90 -43 58 -50 64 -50 41z"/>
<path d="M7420 3492 c0 -21 47 -92 61 -92 15 0 1 39 -28 78 -28 37 -33 39 -33
14z"/>
<path d="M8138 3455 c27 -54 52 -78 52 -49 0 37 -48 104 -75 104 -2 0 9 -25
23 -55z"/>
<path d="M7187 3433 c-8 -13 11 -83 23 -83 5 0 7 15 3 33 -8 41 -19 62 -26 50z"/>
<path d="M8010 3426 c0 -17 46 -96 54 -93 18 6 16 23 -6 57 -21 30 -48 51 -48
36z"/>
<path d="M7370 3328 c0 -28 25 -66 36 -56 7 8 -13 65 -27 74 -5 3 -9 -5 -9
-18z"/>
<path d="M7902 3279 c51 -94 56 -99 50 -60 -2 15 -15 41 -28 56 -13 15 -24 32
-24 37 0 4 -5 8 -10 8 -6 0 0 -19 12 -41z"/>
<path d="M7760 3293 c0 -5 14 -31 31 -59 18 -27 36 -61 41 -76 6 -16 14 -28
19 -28 12 0 11 27 -1 35 -6 4 -8 11 -4 16 3 5 -2 21 -11 35 -23 36 -75 89 -75
77z"/>
<path d="M7554 3277 c3 -11 9 -30 12 -43 6 -25 28 -32 40 -13 3 6 -8 25 -26
43 -22 21 -31 25 -26 13z"/>
<path d="M7245 3250 c-7 -12 22 -70 35 -70 14 0 12 16 -5 50 -17 32 -21 35
-30 20z"/>
<path d="M8105 3210 c29 -93 85 -176 85 -125 0 20 -56 119 -77 137 -14 11 -15
10 -8 -12z"/>
<path d="M7960 3174 c0 -6 4 -14 9 -19 4 -6 16 -34 27 -62 10 -29 21 -53 25
-53 16 0 16 30 0 66 -18 38 -61 86 -61 68z"/>
<path d="M7456 3113 c4 -16 17 -39 31 -53 21 -22 23 -22 18 -5 -12 35 -39 85
-47 85 -5 0 -6 -12 -2 -27z"/>
<path d="M7650 3102 c0 -5 11 -32 25 -61 26 -53 52 -62 40 -13 -11 46 -65 106
-65 74z"/>
<path d="M7310 3087 c0 -16 51 -98 72 -115 32 -26 28 7 -7 58 -19 29 -35 56
-35 61 0 5 -7 9 -15 9 -8 0 -15 -6 -15 -13z"/>
<path d="M7891 3053 c17 -47 64 -133 72 -133 19 0 4 52 -30 104 -40 60 -59 73
-42 29z"/>
<path d="M7527 2968 c9 -36 54 -91 65 -80 6 6 -2 26 -23 56 -36 50 -50 58 -42
24z"/>
<path d="M8266 2953 c4 -16 12 -39 17 -53 l11 -25 3 26 c5 30 -12 79 -27 79
-6 0 -8 -11 -4 -27z"/>
<path d="M8055 2950 c20 -66 55 -113 72 -96 8 7 -34 80 -57 101 l-23 20 8 -25z"/>
<path d="M7460 2874 c0 -9 57 -89 74 -104 25 -20 31 -4 11 27 -34 53 -85 100
-85 77z"/>
<path d="M7780 2856 c0 -17 51 -116 59 -116 18 0 21 18 6 47 -15 29 -65 83
-65 69z"/>
<path d="M7990 2841 c0 -20 33 -101 46 -112 24 -20 25 -6 4 52 -11 29 -20 54
-20 55 0 1 -7 4 -15 8 -8 3 -15 2 -15 -3z"/>
<path d="M7630 2810 c0 -5 5 -10 10 -10 6 0 10 -6 10 -14 0 -21 29 -41 41 -29
7 7 2 19 -18 37 -29 27 -43 33 -43 16z"/>
<path d="M8178 2748 c-7 -20 24 -88 39 -88 18 0 16 14 -7 60 -22 43 -26 47
-32 28z"/>
<path d="M7629 2673 c6 -10 23 -33 39 -51 24 -28 30 -31 40 -19 10 12 5 21
-28 51 -43 39 -67 48 -51 19z"/>
<path d="M7755 2660 c3 -5 11 -10 16 -10 6 0 7 5 4 10 -3 6 -11 10 -16 10 -6
0 -7 -4 -4 -10z"/>
<path d="M8083 2644 c24 -77 32 -91 46 -77 12 13 11 21 -7 51 -23 40 -49 57
-39 26z"/>
<path d="M7790 2628 c0 -15 80 -88 97 -88 23 0 14 18 -29 59 -43 40 -68 51
-68 29z"/>
<path d="M3823 693 c-49 -107 -63 -166 -43 -178 6 -4 8 -11 5 -16 -3 -5 0 -6
8 -3 9 3 17 26 20 56 4 29 20 79 37 112 32 66 38 96 17 96 -8 0 -27 -30 -44
-67z"/>
<path d="M3678 635 c-4 -4 -22 -10 -39 -14 l-33 -7 32 -32 c18 -18 32 -30 32
-26 0 4 9 -1 20 -11 22 -20 40 -14 22 8 -7 7 -15 30 -19 51 -5 21 -11 34 -15
31z"/>
<path d="M3860 455 c14 -8 32 -14 40 -14 8 0 0 6 -19 14 -42 19 -54 19 -21 0z"/>
</g>
</svg>
