<?xml version="1.0" standalone="no"?>
<!DOCTYPE svg PUBLIC "-//W3C//DTD SVG 20010904//EN"
 "http://www.w3.org/TR/2001/REC-SVG-20010904/DTD/svg10.dtd">
<svg version="1.0" xmlns="http://www.w3.org/2000/svg"
 width="1065.000000pt" height="967.000000pt" viewBox="0 0 1065.000000 967.000000"
 preserveAspectRatio="xMidYMid meet">

<g transform="translate(0.000000,967.000000) scale(0.100000,-0.100000)"
fill="hsl(45, 100%, 44%)" stroke="none">
<path d="M8321 8056 c-30 -13 -60 -31 -66 -40 -11 -14 -14 -14 -30 4 -14 15
-31 19 -92 19 -58 0 -75 -4 -80 -16 -7 -19 13 -33 50 -33 32 0 32 -1 7 -42
-24 -40 -26 -74 -4 -82 24 -9 31 -8 48 10 22 21 20 37 -3 31 -22 -5 -19 15 6
45 8 9 12 22 8 27 -3 6 2 11 12 11 10 0 28 -16 40 -35 28 -43 61 -62 69 -41 3
8 -1 25 -10 38 -20 28 -20 38 -1 38 8 0 15 -7 15 -15 0 -21 27 -30 45 -15 20
17 19 40 -2 40 -13 0 -14 3 -5 12 9 9 17 5 36 -15 29 -31 26 -30 60 -17 52 20
76 -20 36 -60 -25 -25 -40 -26 -40 -1 0 11 -9 21 -22 25 -40 10 -48 7 -48 -23
0 -78 -21 -110 -50 -76 -17 20 -30 9 -30 -26 0 -22 5 -29 19 -29 32 0 34 -19
6 -56 -20 -26 -24 -38 -16 -48 7 -8 7 -23 1 -45 -5 -18 -6 -40 -3 -49 10 -24
61 -72 78 -72 18 0 22 7 39 74 11 41 12 64 5 85 -8 23 -6 36 10 66 17 33 18
41 7 64 -7 14 -11 35 -8 46 5 23 22 45 22 28 0 -23 31 -21 60 3 22 19 30 34
30 58 0 35 -24 76 -45 76 -8 0 -22 14 -32 30 -21 37 -47 38 -122 6z m31 -451
c-3 -27 -8 -35 -19 -31 -8 3 -19 6 -24 6 -16 0 -10 29 13 55 26 30 36 19 30
-30z"/>
<path d="M7945 7967 c-30 -16 -16 -35 32 -42 25 -4 53 -13 61 -21 16 -16 34
-14 40 4 11 34 -94 81 -133 59z"/>
<path d="M7990 7900 c-9 -6 -14 -21 -12 -38 2 -17 -3 -34 -12 -42 -14 -11 -16
-9 -16 8 0 34 -17 35 -32 2 -16 -36 -91 -71 -110 -52 -35 35 -160 -19 -232
-99 -39 -43 -63 -96 -50 -109 3 -2 31 23 62 57 88 94 168 126 208 82 18 -20
18 -20 -8 -14 -51 13 -129 -65 -108 -106 9 -15 8 -24 -1 -35 -9 -11 -5 -21 26
-50 28 -26 35 -38 26 -47 -8 -8 -15 -6 -26 9 -13 16 -16 17 -25 4 -5 -8 -10
-26 -10 -39 0 -18 -3 -21 -13 -12 -8 6 -16 8 -19 5 -6 -6 -88 75 -88 87 0 4
-9 5 -19 2 -13 -3 -25 3 -36 20 -19 29 -82 43 -133 28 -18 -5 -62 -35 -99 -65
-61 -51 -68 -54 -75 -37 -4 11 -18 27 -32 36 -32 21 -70 14 -130 -27 -38 -25
-46 -35 -46 -60 0 -17 -10 -45 -23 -62 -12 -17 -29 -43 -36 -58 -12 -23 -16
-25 -32 -15 -11 7 -19 15 -19 19 0 11 -56 38 -77 38 -37 0 -122 -48 -137 -78
-14 -27 -14 -31 4 -47 24 -22 54 -13 45 14 -5 16 2 24 34 41 61 31 122 5 126
-53 2 -30 22 -28 44 6 14 21 21 25 27 16 4 -7 3 -14 -4 -17 -6 -2 -8 -16 -5
-35 5 -36 -7 -51 -69 -85 -41 -23 -48 -20 -48 20 0 24 -4 28 -27 27 -47 -2
-60 -8 -72 -36 -15 -32 -1 -51 22 -29 23 24 34 20 41 -15 4 -19 13 -33 26 -36
27 -7 25 -17 -11 -47 -35 -30 -86 -34 -104 -9 -14 19 -35 10 -35 -15 0 -10 -9
-23 -21 -30 -18 -11 -24 -11 -40 4 -28 25 -44 6 -27 -31 11 -25 10 -29 -12
-47 -17 -14 -25 -16 -31 -7 -9 15 -42 3 -36 -14 2 -6 16 -11 31 -10 17 1 26
-3 26 -13 0 -9 14 -29 31 -46 37 -37 58 -27 41 20 -7 20 -7 40 1 64 11 34 13
35 49 30 23 -3 44 0 53 8 13 11 18 10 29 -6 12 -16 17 -17 40 -6 19 9 33 9 47
2 25 -14 63 5 55 27 -3 8 -6 17 -6 19 0 2 -9 4 -19 4 -33 0 -34 19 -2 49 20
18 31 39 31 55 0 17 14 41 39 68 33 33 38 44 31 63 -8 21 -6 23 23 21 25 -1
33 3 35 19 2 15 -6 23 -28 32 -36 14 -40 43 -8 72 18 18 30 20 75 15 45 -6 53
-4 53 9 0 9 -10 22 -22 28 -13 7 -23 11 -23 9 0 -2 -17 2 -38 9 l-38 13 32 29
c36 32 92 54 115 45 12 -5 14 -15 9 -50 -5 -34 -4 -44 9 -49 9 -4 13 -13 10
-22 -5 -11 0 -18 14 -22 28 -7 36 -33 15 -49 -24 -18 -40 -17 -47 2 -8 21 -26
8 -26 -20 0 -32 43 -60 70 -46 14 8 21 25 26 70 7 63 13 70 35 44 12 -14 14
-14 26 2 7 10 13 29 13 42 0 21 -3 23 -26 18 -22 -6 -25 -4 -20 9 3 9 6 28 6
41 0 13 5 24 11 24 6 0 28 14 49 30 65 52 138 49 168 -5 9 -17 18 -32 20 -35
1 -2 18 -3 36 -2 29 2 35 -1 40 -23 4 -16 0 -34 -10 -50 -15 -23 -13 -30 9
-26 4 0 7 -8 7 -18 0 -36 20 -33 62 8 43 44 63 49 94 26 17 -13 17 -14 2 -15
-15 0 -38 -27 -38 -46 0 -3 12 -4 26 -1 19 3 29 -2 41 -19 14 -22 14 -26 -1
-50 -15 -21 -23 -25 -59 -22 -32 2 -41 7 -38 18 5 19 4 51 -2 57 -3 2 -17 1
-32 -3 -19 -5 -25 -11 -22 -25 6 -24 -37 -66 -49 -47 -5 7 -9 22 -9 33 0 13
-7 20 -20 20 -16 0 -21 -8 -23 -43 -4 -54 10 -73 52 -68 22 2 31 9 31 21 0 10
6 20 13 22 7 3 12 -5 12 -20 0 -14 9 -35 19 -48 l19 -24 28 33 c35 39 64 43
64 8 0 -14 -4 -28 -10 -31 -21 -13 -10 -35 19 -35 32 0 54 20 46 42 -4 9 4 22
19 32 39 25 49 21 43 -17 -6 -40 4 -60 25 -52 16 6 32 83 22 108 -3 8 -15 19
-27 24 -21 10 -21 10 9 26 41 21 78 4 82 -38 2 -16 10 -34 18 -40 12 -8 9 -13
-16 -28 -29 -18 -40 -37 -20 -37 5 0 7 -7 4 -15 -4 -10 0 -15 10 -15 25 0 31
-28 11 -50 -14 -15 -22 -17 -36 -9 -25 13 -39 4 -39 -25 0 -12 -4 -26 -9 -31
-5 -6 -11 -21 -13 -35 -2 -15 -19 -35 -46 -55 -47 -32 -43 -34 -79 22 -10 15
-14 16 -22 4 -5 -8 -7 -21 -3 -29 3 -8 6 -38 6 -66 1 -39 5 -51 18 -54 11 -2
19 5 23 20 4 15 22 31 51 45 45 22 45 22 39 2 -4 -12 -1 -27 9 -38 14 -15 14
-20 0 -46 -22 -42 -55 -75 -75 -75 -29 0 -31 -18 -5 -35 26 -17 49 -11 87 22
15 12 17 11 21 -10 4 -18 0 -23 -16 -23 -17 1 -21 -5 -21 -34 0 -35 0 -35 39
-32 56 5 71 15 84 61 15 47 0 91 -30 91 -21 0 -23 9 -5 35 22 33 26 64 12 92
-16 30 -9 48 6 20 6 -9 15 -17 22 -17 8 0 12 -18 12 -51 0 -42 4 -54 25 -70
23 -18 24 -20 8 -33 -10 -7 -18 -17 -18 -22 0 -14 58 -46 70 -39 13 8 30 -28
30 -62 0 -16 -8 -44 -19 -63 -15 -29 -25 -36 -59 -41 -36 -5 -41 -3 -47 18 -7
29 -41 31 -50 2 -4 -13 3 -40 21 -75 30 -59 26 -86 -12 -92 -10 -2 -24 -11
-31 -19 -11 -14 -15 -14 -39 2 -25 16 -27 16 -56 -5 -23 -17 -32 -19 -43 -10
-19 16 -35 4 -35 -26 0 -19 5 -24 28 -26 35 -2 41 -1 81 8 22 5 32 4 28 -3 -4
-6 -1 -18 6 -27 11 -15 15 -15 51 4 22 10 50 29 63 41 l23 22 0 -22 c0 -34
-27 -79 -52 -86 -13 -4 -31 -14 -40 -22 -21 -19 -48 -10 -48 15 0 24 -25 46
-40 37 -6 -4 -10 -14 -9 -23 3 -30 -1 -37 -11 -22 -5 8 -24 15 -41 15 -21 0
-35 7 -43 20 -6 11 -17 25 -25 31 -9 7 -12 18 -7 30 8 20 5 30 -5 27 -16 -5
-19 50 -4 73 21 32 85 34 114 3 12 -13 26 -19 35 -16 22 9 20 21 -9 55 -14 17
-25 35 -25 41 0 6 -5 11 -11 11 -17 0 -1 50 27 83 31 37 22 51 -21 33 -32 -14
-34 -13 -37 7 -2 15 -9 21 -21 19 -9 -2 -24 4 -33 12 -8 8 -22 12 -30 9 -15
-6 -14 -24 2 -68 5 -13 2 -15 -17 -10 -21 5 -26 0 -44 -46 -15 -40 -27 -55
-48 -62 -24 -8 -31 -6 -43 12 -8 12 -20 21 -25 21 -5 0 -20 9 -31 20 -28 26
-99 25 -133 -2 -30 -24 -44 -23 -38 2 5 21 6 20 -60 25 -39 3 -42 9 -40 76 1
53 4 63 32 90 21 20 38 28 50 24 13 -4 30 6 55 31 30 30 39 34 51 24 11 -9 12
-16 4 -26 -11 -14 -5 -34 12 -34 5 0 18 -9 29 -20 16 -16 25 -18 40 -10 17 9
17 13 5 37 -10 18 -11 31 -5 37 6 6 10 17 10 26 0 24 36 53 68 55 35 3 123 16
139 20 17 6 5 33 -17 40 -10 3 -20 15 -23 26 l-5 20 -41 -20 c-22 -12 -42 -25
-46 -31 -3 -5 -18 -7 -32 -4 -19 5 -30 2 -40 -12 -13 -18 -14 -18 -19 4 -4 12
-14 22 -25 22 -29 0 -34 -22 -10 -41 21 -17 21 -19 6 -46 l-16 -28 5 31 c5 34
-8 54 -35 54 -14 0 -16 -7 -13 -30 5 -26 2 -30 -17 -30 -12 0 -27 7 -33 15 -6
9 -29 18 -51 22 -45 7 -64 26 -65 64 0 35 43 64 108 73 47 6 52 5 52 -13 0
-29 17 -35 47 -15 20 12 28 14 31 5 8 -23 56 -61 66 -51 6 6 5 14 -1 22 -25
32 -23 48 10 68 40 25 46 25 40 2 -5 -22 29 -55 50 -46 12 4 15 17 13 47 -1
23 -6 50 -10 60 -10 21 -55 23 -82 2 -31 -23 -37 -17 -14 15 25 35 20 65 -10
57 -14 -4 -21 2 -28 23 -8 21 -18 29 -44 33 -43 6 -48 0 -20 -22 20 -15 23
-23 17 -54 -9 -46 -46 -77 -91 -77 -32 0 -34 2 -34 36 0 35 1 36 29 31 15 -3
33 -1 40 6 17 17 13 47 -6 48 -10 0 -44 3 -75 5 -32 3 -58 2 -58 -1 0 -3 6
-16 13 -28 16 -27 16 -30 -7 -90 -20 -50 -44 -65 -90 -53 -28 7 -40 40 -20 57
8 7 14 19 13 28 -5 56 2 81 24 86 12 3 33 22 46 41 20 28 23 40 15 61 -12 35
-25 35 -37 -2 -5 -16 -14 -36 -20 -42 -11 -15 -67 -17 -67 -3 0 5 -11 12 -23
16 -18 4 -23 11 -20 28 3 15 -1 25 -12 30 -20 7 -38 -1 -30 -14 9 -14 -22 -55
-50 -68 -26 -12 -33 -37 -12 -45 6 -2 20 0 30 5 18 9 46 5 85 -14 26 -13 29
-44 6 -76 -20 -29 -76 -30 -104 -2 -11 11 -15 20 -10 20 6 0 10 11 10 25 0 32
-25 33 -46 0 -9 -13 -23 -27 -32 -30 -17 -5 -46 -55 -37 -63 3 -3 13 2 23 11
24 22 38 21 62 -3 35 -35 19 -120 -32 -167 -41 -38 -154 -57 -133 -23 10 17
-4 60 -19 60 -18 0 -27 -26 -20 -56 8 -31 -6 -31 -36 1 -30 32 -55 34 -45 3
21 -69 12 -116 -22 -104 -7 3 -28 -3 -46 -14 -17 -11 -39 -20 -48 -20 -19 0
-31 23 -23 45 4 9 0 15 -8 15 -20 0 -38 -21 -38 -44 0 -17 -4 -16 -33 12 -18
18 -38 32 -44 32 -21 0 -2 83 24 103 12 10 23 25 23 33 0 17 -47 19 -52 2 -4
-11 -67 48 -68 64 0 14 -89 57 -133 63 -41 6 -53 4 -87 -19 -71 -47 -122 -156
-87 -185 19 -15 51 -1 67 29 8 15 6 21 -7 28 -15 9 -13 14 16 51 18 23 44 44
58 47 27 7 103 -14 103 -28 0 -5 -16 -18 -35 -29 -52 -31 -62 -55 -34 -85 23
-24 49 -32 49 -15 0 6 -4 13 -10 16 -18 11 -10 30 19 48 16 9 38 17 48 17 44
0 75 -78 33 -82 -11 -1 -33 -2 -50 -3 -35 -2 -60 -21 -60 -46 0 -10 -5 -21
-11 -24 -6 -4 -8 -13 -5 -20 3 -8 -7 -17 -25 -24 -27 -9 -29 -8 -29 14 0 13
-3 30 -6 38 -3 9 3 16 15 20 22 5 28 31 10 42 -15 10 -77 -23 -90 -48 -17 -32
-18 -32 -34 -11 -15 19 -16 18 -33 -5 -9 -14 -34 -40 -54 -59 -37 -34 -50 -74
-28 -87 6 -3 10 -29 10 -56 l0 -50 -29 22 c-16 12 -34 18 -40 15 -14 -9 -14
-36 0 -36 13 0 48 -41 49 -56 0 -24 -29 -36 -70 -29 -46 8 -50 22 -20 65 l20
29 -22 21 c-30 28 -97 21 -140 -15 -16 -14 -33 -25 -36 -26 -4 0 -17 -2 -29
-3 -29 -3 -69 -31 -89 -62 -16 -23 -16 -26 2 -39 10 -8 30 -15 42 -15 l24 0
-26 -31 c-30 -35 -32 -56 -11 -86 14 -20 13 -22 -23 -41 -46 -24 -72 -67 -81
-135 l-6 -52 -52 3 c-61 4 -124 -22 -172 -72 -39 -40 -57 -119 -35 -153 26
-41 42 -24 42 46 1 45 28 81 82 109 60 30 106 28 174 -8 47 -24 58 -27 63 -15
3 9 -8 29 -26 47 -19 20 -29 38 -25 48 3 8 9 37 13 63 5 27 14 55 22 62 21 20
83 34 102 23 14 -7 17 -5 17 12 0 13 9 24 28 30 15 6 35 15 44 20 29 16 42 12
67 -25 16 -24 31 -35 49 -35 23 0 24 -2 20 -45 -3 -25 -1 -45 4 -45 5 0 -11
-25 -37 -55 -54 -63 -77 -134 -71 -219 5 -82 46 -135 81 -106 14 11 13 15 -4
31 -15 14 -18 27 -14 54 3 21 1 41 -7 50 -18 21 -4 64 38 120 29 39 49 54 87
67 40 13 52 14 60 4 16 -20 45 -27 45 -11 0 10 7 12 31 5 16 -5 36 -7 43 -4 8
3 16 -4 19 -17 4 -16 10 -20 24 -14 10 4 24 9 32 12 9 4 12 0 9 -13 -3 -13
-11 -18 -27 -16 -13 1 -30 -3 -37 -9 -11 -9 -19 -8 -37 3 -20 14 -26 13 -57
-3 -19 -11 -51 -19 -72 -19 -41 0 -51 -11 -63 -70 -4 -19 -17 -43 -28 -52 -19
-15 -20 -20 -9 -38 11 -18 10 -20 -8 -20 -24 0 -26 -22 -4 -40 8 -8 20 -22 25
-33 10 -17 8 -18 -23 -13 -28 6 -31 5 -17 -6 8 -7 18 -21 22 -30 9 -24 44 -23
57 2 20 37 38 24 33 -24 -6 -47 -2 -53 59 -89 l38 -22 -20 -33 c-17 -28 -25
-32 -63 -32 -46 0 -67 -13 -67 -42 0 -22 4 -22 55 -3 57 20 66 19 103 -15 40
-36 80 -49 93 -29 12 19 11 29 -1 29 -6 0 -25 14 -42 31 -25 24 -30 34 -22 46
14 23 34 28 34 9 0 -9 3 -16 8 -16 15 1 42 28 42 43 0 21 64 57 89 50 17 -4
24 3 41 42 21 50 38 54 57 14 30 -63 34 -76 31 -109 -2 -25 1 -35 14 -38 17
-3 40 36 52 89 3 15 22 38 46 54 36 25 61 33 153 52 35 7 59 -12 51 -42 -3
-13 0 -26 6 -30 16 -10 50 29 50 57 0 13 7 32 15 42 20 26 19 45 -1 53 -11 4
-23 -2 -33 -16 -11 -14 -23 -20 -33 -16 -16 6 -15 9 2 27 18 19 19 43 5 111
-2 12 5 22 21 29 21 10 32 8 69 -12 37 -20 47 -22 69 -12 14 6 26 20 26 29 0
14 -8 18 -35 18 -41 0 -48 20 -7 21 49 1 107 15 125 31 9 9 17 11 17 5 0 -6 7
-12 16 -14 9 -2 22 -19 28 -38 6 -20 21 -39 34 -45 12 -5 22 -16 22 -23 0 -7
12 -17 26 -22 49 -19 71 25 38 76 -13 19 -20 22 -30 13 -11 -9 -14 -7 -14 10
0 24 -10 27 -28 9 -10 -10 -15 -10 -22 2 -5 8 -7 17 -4 22 7 11 164 0 179 -12
7 -6 12 -30 11 -54 -1 -53 -32 -88 -96 -111 -24 -8 -44 -14 -45 -13 -1 2 -7
17 -14 35 -27 66 -109 87 -206 53 -33 -12 -68 -24 -77 -27 -22 -7 -33 -42 -19
-56 9 -9 16 -8 29 1 62 45 159 65 201 42 25 -13 34 -39 20 -56 -9 -11 -8 -18
2 -31 12 -14 12 -17 -1 -21 -23 -8 -70 -59 -70 -76 0 -25 -17 -19 -24 9 -7 26
-39 35 -51 15 -7 -11 -25 -4 -25 10 0 5 14 25 30 43 31 36 38 61 19 72 -24 15
-99 -87 -99 -134 0 -22 39 -39 60 -26 5 3 17 -1 26 -10 10 -10 24 -13 37 -9
15 5 19 3 14 -8 -8 -22 8 -42 28 -34 9 3 24 24 33 46 15 34 27 44 87 72 84 38
136 44 161 17 9 -10 23 -19 29 -19 7 0 18 -14 25 -30 19 -46 2 -76 -49 -84
-49 -8 -87 -42 -69 -63 11 -14 34 -13 70 2 13 5 21 0 29 -19 11 -24 9 -29 -23
-59 l-36 -33 -32 29 c-32 28 -50 31 -58 9 -2 -7 8 -16 22 -22 28 -10 31 -17
17 -38 -5 -9 -26 -12 -62 -10 -43 2 -54 0 -57 -13 -4 -23 27 -52 47 -43 33 13
56 9 59 -11 5 -24 20 -35 49 -35 12 0 24 -4 28 -9 13 -22 -51 -116 -79 -116
-6 0 -11 -13 -11 -30 0 -23 5 -31 21 -33 23 -3 42 17 97 102 18 27 36 55 42
62 13 18 -18 50 -62 65 -29 9 -34 15 -29 33 3 11 6 24 6 27 0 4 12 9 28 12 15
3 39 9 54 12 23 6 28 4 34 -19 3 -15 1 -32 -5 -40 -9 -11 -9 -19 1 -35 37 -60
71 34 37 105 -10 22 -19 54 -19 71 0 17 -8 37 -19 47 -18 17 -18 18 5 41 13
13 24 36 24 50 0 16 6 25 15 25 14 0 19 11 16 38 -1 7 5 22 13 34 11 16 12 26
5 40 -9 17 -8 19 10 13 15 -5 23 1 35 24 17 32 52 61 73 61 8 0 18 -11 23 -25
10 -26 24 -32 35 -15 12 19 45 11 45 -10 0 -21 33 -29 45 -10 16 26 85 -4 85
-37 0 -6 7 -13 15 -17 16 -6 21 -56 6 -56 -5 0 -11 -9 -14 -20 -3 -11 -14 -20
-24 -20 -27 0 -34 -9 -23 -30 8 -14 2 -20 -32 -34 -45 -17 -58 -15 -39 7 9 11
6 18 -14 33 -15 11 -23 25 -20 35 3 9 3 24 -1 33 -6 15 -9 15 -30 -5 -28 -27
-31 -55 -6 -82 16 -19 16 -19 -5 -13 -16 5 -25 2 -32 -13 -15 -28 -15 -28 29
-51 l41 -21 69 22 c50 17 80 34 107 61 37 38 38 41 38 111 0 61 -4 77 -24 104
-35 47 -89 73 -120 59 -19 -8 -25 -8 -29 2 -2 8 -15 25 -27 40 l-23 27 -7 -26
c-6 -26 -8 -26 -36 -12 -31 16 -33 20 -20 42 6 9 11 10 15 2 14 -23 44 -9 90
40 34 37 51 49 65 44 14 -4 25 3 41 25 19 27 21 36 11 56 -6 14 -11 27 -11 29
0 9 41 5 61 -5 23 -13 24 -37 3 -92 -27 -68 -84 -104 -84 -53 0 27 -18 33 -38
13 -23 -23 -7 -98 21 -98 7 0 22 -11 35 -25 20 -21 27 -22 53 -13 33 11 79 65
79 92 0 10 -5 26 -10 37 -8 14 -7 36 2 76 11 49 20 62 70 105 77 68 101 144
58 183 -11 10 -20 31 -20 46 0 24 5 30 38 39 82 22 142 88 142 156 0 38 -40
79 -70 71 -28 -7 -25 6 9 45 53 60 80 232 33 213 -51 -21 -57 -18 -26 14 53
52 82 133 52 143 -7 3 -22 -17 -35 -44 -23 -51 -57 -66 -70 -30 -4 9 -14 22
-22 29 -9 6 -13 14 -10 18 4 3 13 -1 22 -9 8 -8 23 -12 36 -9 23 6 26 15 12
41 -5 9 -12 25 -15 36 -5 13 -12 17 -29 13 -20 -6 -21 -5 -4 8 13 9 27 11 49
4 17 -4 35 -6 41 -2 7 4 8 0 4 -11 -6 -14 -3 -17 9 -12 8 3 18 6 20 6 3 0 3 4
-1 10 -3 5 -1 17 4 27 27 50 51 112 51 130 0 11 -12 32 -27 47 l-27 27 20 36
c10 20 20 53 20 72 1 20 5 53 9 75 7 31 5 38 -6 34 -8 -2 -19 -14 -25 -26 -6
-12 -23 -33 -38 -47 -22 -20 -25 -29 -17 -39 9 -10 8 -15 -5 -20 -28 -11 -35
-7 -50 30 -19 46 -5 68 38 59 23 -6 34 -1 58 25 33 35 38 64 15 86 -18 18 -19
54 -3 89 14 32 5 41 -27 27 -22 -10 -27 -9 -32 6 -3 9 -15 25 -25 35 -16 16
-19 16 -24 3 -11 -28 -26 -17 -19 13 3 17 2 32 -4 36 -6 3 -11 10 -11 16 0 5
8 4 19 -2 14 -9 26 -9 51 0 40 13 45 10 30 -19 -16 -30 -4 -60 26 -60 16 0 28
8 36 25 10 22 8 30 -11 55 -17 24 -19 34 -11 50 7 12 7 20 1 20 -5 0 -11 10
-13 22 -2 13 -11 24 -20 26 -14 3 -18 -4 -18 -31 0 -29 -5 -37 -31 -47 -25
-11 -32 -11 -39 -1 -5 9 -16 11 -31 6 -38 -12 -49 -25 -49 -61 0 -38 -23 -56
-58 -47 -12 3 -28 0 -36 -6 -7 -6 -22 -9 -32 -5 -11 3 -25 8 -32 10 -7 2 -10
9 -7 14 5 8 11 8 20 0 22 -18 62 0 91 41 14 21 30 36 35 34 17 -11 20 18 5 50
-20 41 -27 47 -46 35z m108 -230 c7 -11 22 -20 35 -20 12 0 30 -12 40 -25 17
-24 17 -25 -7 -40 -13 -9 -26 -25 -29 -36 -5 -19 -7 -20 -27 -6 -39 27 -48 50
-43 100 6 52 12 57 31 27z m-94 1 c3 -5 -1 -12 -10 -15 -10 -4 -14 -14 -11
-26 4 -16 0 -20 -17 -20 -25 0 -46 -17 -46 -37 0 -23 30 -14 60 17 16 17 31
30 32 30 2 0 4 -18 4 -39 1 -34 -2 -41 -26 -51 -21 -8 -34 -9 -48 -1 -11 6
-27 8 -36 5 -10 -4 -17 2 -22 21 -4 17 -12 25 -23 23 -18 -4 -28 -48 -10 -48
8 0 9 -3 0 -13 -13 -16 -70 -10 -72 7 -1 6 -1 18 0 28 3 23 -14 31 -29 13 -7
-8 -17 -15 -22 -15 -12 0 1 71 16 87 16 18 52 5 65 -24 7 -15 18 -23 28 -21
25 5 28 36 6 60 -18 20 -17 21 2 14 11 -3 40 -2 65 3 62 12 88 13 94 2z m215
-158 c2 -2 -5 -3 -17 -3 -14 0 -22 6 -22 16 0 14 3 15 18 3 9 -7 19 -15 21
-16z m-279 -45 c0 -12 -38 -10 -45 2 -4 6 -4 18 -1 27 6 14 9 14 26 -2 11 -10
20 -22 20 -27z m165 7 c0 -13 -7 -21 -20 -21 -11 -1 -26 -2 -32 -3 -7 -1 -13
-6 -13 -12 0 -6 7 -8 16 -5 12 5 14 1 8 -17 -5 -12 -7 -33 -7 -47 2 -39 -15
-60 -47 -60 -16 0 -32 5 -35 11 -9 13 -30 6 -30 -10 0 -7 -24 -22 -52 -33 -29
-11 -53 -24 -53 -29 0 -5 -7 -9 -15 -9 -15 0 -20 20 -16 76 2 21 -6 41 -23 61
-31 36 -19 54 30 46 25 -4 35 -2 40 11 9 23 27 20 21 -4 -7 -28 7 -33 42 -15
39 20 44 19 38 -7 -12 -44 26 -75 53 -43 10 12 10 18 -1 31 -11 14 -11 18 4
29 26 19 20 27 -15 19 -29 -6 -31 -5 -19 10 7 9 21 16 30 16 10 0 26 7 37 15
26 20 59 15 59 -10z m-225 -5 c0 -5 -5 -10 -11 -10 -5 0 -7 5 -4 10 3 6 8 10
11 10 2 0 4 -4 4 -10z m278 -147 c2 -7 -2 -13 -9 -13 -18 0 -38 -32 -39 -61 0
-31 23 -54 45 -45 17 6 21 56 4 56 -5 0 -7 5 -4 10 9 15 25 12 25 -5 0 -8 11
-17 25 -21 32 -8 44 -48 21 -73 -11 -12 -37 -20 -73 -24 -61 -6 -83 3 -83 34
0 11 -9 19 -22 21 -13 2 -21 5 -19 8 2 3 -1 15 -8 28 -13 25 -9 27 19 10 18
-11 23 -9 45 17 13 17 24 37 25 46 0 9 3 19 7 23 10 10 36 3 41 -11z m-91
-224 c2 -8 -1 -21 -7 -29 -8 -13 -11 -12 -24 5 -10 14 -11 24 -4 33 13 15 32
11 35 -9z m-564 -134 c-17 -23 -33 -32 -33 -18 0 10 32 43 42 43 5 0 1 -11 -9
-25z m566 -15 c6 0 11 -7 11 -15 0 -9 -9 -15 -23 -15 -13 0 -27 -4 -32 -9 -6
-5 -28 -11 -51 -14 -39 -4 -40 -4 -36 23 3 21 8 26 23 23 10 -3 31 4 46 15 24
18 30 19 39 7 6 -8 16 -15 23 -15z m-959 -16 c0 -20 8 -29 40 -42 40 -17 54
-41 23 -38 -13 1 -18 -6 -18 -24 0 -14 -9 -38 -19 -53 -15 -21 -16 -31 -7 -40
19 -19 46 6 45 42 -2 24 2 31 17 31 12 0 23 -10 29 -25 9 -23 13 -24 31 -14
16 8 20 8 14 0 -4 -7 -1 -18 5 -26 10 -12 10 -18 0 -30 -7 -8 -16 -12 -21 -10
-4 3 -18 0 -31 -6 -43 -22 -53 -25 -83 -25 -26 1 -32 7 -43 41 -8 22 -12 62
-9 88 4 44 2 49 -19 58 -17 6 -24 16 -24 36 0 42 13 54 63 62 4 0 7 -11 7 -25z
m994 -79 c19 -20 15 -100 -6 -121 -21 -21 -48 -7 -48 25 0 15 -5 32 -11 38 -8
8 -5 14 11 23 12 6 19 17 16 25 -10 27 15 33 38 10z m-1077 -87 c-3 -7 -5 -2
-5 12 0 14 2 19 5 13 2 -7 2 -19 0 -25z m-63 -27 c-22 -15 -48 -40 -58 -55
-16 -26 -19 -26 -30 -10 -8 10 -20 15 -29 11 -8 -3 -21 1 -27 9 -7 8 -20 14
-30 14 -10 0 -20 9 -23 20 -6 24 -1 25 21 4 19 -20 83 -13 145 15 62 28 75 25
31 -8z m-599 -11 c3 -5 2 -10 -4 -10 -5 0 -13 5 -16 10 -3 6 -2 10 4 10 5 0
13 -4 16 -10z m1799 -17 c-3 -16 -15 -36 -26 -45 -22 -19 -58 -24 -58 -8 0 6
5 10 12 10 16 0 58 41 58 57 0 7 5 13 10 13 6 0 8 -11 4 -27z m-1136 -15 c7
-7 12 -22 12 -35 0 -13 5 -23 10 -23 6 0 21 -7 34 -16 22 -14 23 -17 10 -42
-9 -18 -29 -32 -66 -44 -65 -21 -87 -16 -95 24 -4 18 -14 33 -25 35 -10 3 -18
9 -18 13 0 5 9 6 20 3 15 -4 20 0 20 14 0 22 24 54 55 71 25 15 28 15 43 0z
m-894 -41 c-7 -18 -24 -23 -24 -8 0 22 13 42 22 33 5 -5 6 -16 2 -25z m194 12
c1 -9 -8 -20 -22 -27 -14 -6 -37 -31 -52 -54 -38 -60 -64 -80 -140 -106 -74
-26 -94 -20 -94 28 0 29 34 68 44 52 3 -6 1 -12 -5 -14 -7 -2 -9 -13 -4 -26
10 -33 30 -21 30 19 0 31 3 34 33 37 20 2 38 12 47 26 11 17 22 22 41 18 19
-3 26 0 30 15 6 22 52 54 74 50 8 -1 16 -9 18 -18z m480 -21 c18 -18 15 -28
-8 -28 -11 0 -20 2 -20 4 0 2 -3 11 -6 20 -7 19 16 22 34 4z m-748 -21 c0 -23
-34 -47 -50 -37 -12 7 -11 12 4 29 22 24 46 28 46 8z m430 -38 c0 -5 -7 -6
-15 -3 -11 5 -15 -1 -15 -24 0 -32 -12 -46 -47 -55 -30 -7 -29 6 3 38 14 14
23 29 19 34 -3 5 2 17 11 26 12 12 19 13 30 4 8 -6 14 -15 14 -20z m-121 -9
c6 0 14 7 17 15 7 17 24 21 24 5 0 -12 -70 -60 -88 -60 -22 0 -25 30 -6 51 16
18 20 19 30 5 6 -9 16 -16 23 -16z m471 -46 c0 -8 -5 -12 -10 -9 -6 4 -8 11
-5 16 9 14 15 11 15 -7z m-240 -9 c-7 -9 -15 -13 -17 -11 -7 7 7 26 19 26 6 0
6 -6 -2 -15z m59 -39 c-13 -14 -33 9 -25 30 6 16 8 16 21 -2 8 -12 10 -23 4
-28z m186 -13 c50 7 57 3 43 -28 -6 -14 -26 -27 -50 -34 -33 -10 -37 -15 -27
-27 15 -18 40 -18 65 0 10 8 29 12 41 10 17 -5 22 -1 25 17 3 23 25 29 113 30
32 1 45 -5 69 -32 27 -30 27 -33 11 -45 -19 -14 -12 -34 11 -34 18 0 18 -9 -3
-32 -9 -10 -28 -18 -43 -18 -20 0 -35 -10 -54 -35 -32 -41 -68 -54 -91 -31 -9
8 -21 19 -28 23 -7 5 -25 27 -41 51 -27 39 -31 42 -45 27 -14 -14 -14 -17 -1
-25 24 -15 3 -23 -30 -12 -26 10 -40 7 -87 -13 -31 -14 -58 -23 -60 -21 -3 2
0 21 6 43 6 21 11 59 11 84 0 39 4 48 30 67 17 13 30 31 30 42 0 17 2 18 31 3
21 -10 45 -14 74 -10z m-581 -4 c-12 -13 -20 -16 -22 -9 -3 7 2 16 9 21 25 16
32 9 13 -12z m86 11 c0 -5 -4 -10 -10 -10 -5 0 -10 5 -10 10 0 6 5 10 10 10 6
0 10 -4 10 -10z m160 -24 c0 -16 -18 -31 -27 -22 -8 8 5 36 17 36 5 0 10 -6
10 -14z m-700 -6 c13 -9 13 -11 0 -20 -22 -15 -30 -12 -30 10 0 22 8 25 30 10z
m812 -17 c33 -10 32 -92 -3 -141 -20 -27 -67 -34 -82 -11 -14 22 -2 49 22 49
26 0 34 37 10 50 -14 8 -23 6 -39 -10 -24 -24 -29 -25 -45 -3 -11 14 -15 15
-29 4 -13 -11 -18 -10 -31 3 -14 14 -13 16 17 24 21 5 39 5 50 -2 14 -8 24 -4
49 22 21 22 38 31 48 26 9 -3 23 -8 33 -11z m668 -38 c-15 -18 -42 -19 -58 -3
-20 20 -14 27 26 30 41 3 50 -5 32 -27z m-1244 -7 c6 -21 -12 -41 -31 -35 -12
4 -19 33 -11 52 7 19 34 8 42 -17z m-256 7 c0 -8 -7 -15 -16 -15 -14 0 -14 3
-4 15 7 8 14 15 16 15 2 0 4 -7 4 -15z m398 7 c10 -7 9 -15 -4 -40 l-16 -33
-20 26 c-12 15 -30 25 -46 26 -26 0 -25 1 8 14 41 16 60 18 78 7z m1278 -9
c26 -35 18 -51 -26 -47 -36 3 -40 1 -40 -19 0 -33 -11 -67 -21 -67 -5 0 -9 11
-9 24 0 13 -7 29 -16 36 -13 12 -11 15 17 27 22 9 29 18 25 29 -3 9 -4 20 0
25 9 15 56 10 70 -8z m-1761 -18 c39 -24 57 -33 83 -41 36 -10 -19 -88 -74
-103 -56 -16 -110 13 -84 44 17 20 27 19 35 -5 9 -27 65 -29 65 -2 0 23 -66
82 -91 82 -21 0 -25 20 -7 38 17 17 27 15 73 -13z m649 -21 c9 -3 16 -15 16
-25 0 -23 38 -26 46 -4 4 10 10 12 18 6 6 -5 21 -11 33 -13 20 -3 21 -5 10
-28 -8 -16 -23 -26 -40 -28 -35 -4 -33 -31 3 -49 14 -7 25 -20 25 -30 0 -10 9
-19 20 -21 11 -3 23 -9 26 -15 13 -20 41 2 37 30 -3 23 2 28 31 35 43 12 61 4
61 -26 0 -16 -7 -26 -23 -30 -12 -3 -30 -19 -41 -36 -16 -28 -21 -30 -49 -24
-18 3 -40 15 -50 25 -21 23 -37 25 -37 5 0 -8 -13 -24 -30 -36 -37 -26 -30
-51 14 -48 66 4 86 -1 86 -22 0 -11 -5 -17 -12 -15 -7 3 -29 -8 -48 -25 -34
-29 -89 -45 -62 -18 17 17 15 36 -9 69 -23 33 -40 36 -64 12 -16 -16 -16 -18
4 -34 17 -14 18 -19 7 -28 -10 -9 -23 -5 -55 16 -45 29 -49 38 -26 63 12 14
13 23 5 45 -10 26 -10 27 17 19 38 -10 82 -7 100 8 13 10 13 13 -4 19 -10 4
-30 8 -44 8 -15 1 -32 8 -39 16 -20 24 4 42 56 43 55 0 76 15 45 32 -12 6 -19
15 -16 19 2 5 -2 14 -9 20 -11 10 -16 8 -21 -8 -9 -31 -25 -25 -25 8 0 17 -5
33 -12 37 -7 5 -5 11 7 21 21 15 27 16 49 7z m926 -44 c-19 -17 -28 -34 -24
-44 4 -11 -2 -17 -21 -22 -40 -10 -43 4 -7 32 18 14 32 34 32 44 0 10 8 20 18
23 32 7 33 -4 2 -33z m-1393 -9 c9 -24 8 -31 -3 -35 -18 -7 -18 -30 1 -46 20
-16 30 -6 31 31 1 16 2 36 3 44 1 17 39 35 59 28 6 -3 12 -12 12 -19 0 -8 7
-17 15 -20 8 -4 15 -15 15 -26 0 -14 6 -19 22 -16 29 4 36 37 13 54 -16 12
-16 14 8 25 39 18 52 7 52 -42 0 -24 -4 -45 -8 -46 -5 -1 -23 -13 -42 -27 -18
-14 -43 -26 -53 -26 -18 0 -19 5 -15 40 6 41 2 45 -42 52 -16 2 -20 -3 -22
-32 -2 -46 -27 -64 -59 -43 -26 17 -32 60 -11 82 10 10 8 14 -6 22 -9 6 -15
14 -12 20 12 18 31 9 42 -20z m1676 13 c9 -9 -14 -52 -32 -59 -10 -4 -23 2
-33 15 -21 26 -23 44 -5 37 6 -2 21 -1 32 4 26 10 30 10 38 3z m-233 -44 c0
-5 -5 -10 -11 -10 -5 0 -7 5 -4 10 3 6 8 10 11 10 2 0 4 -4 4 -10z m650 -14
c0 -3 -4 -8 -10 -11 -5 -3 -10 -1 -10 4 0 6 5 11 10 11 6 0 10 -2 10 -4z
m-684 -31 c9 -8 29 -15 45 -15 37 0 40 -30 4 -65 -31 -32 -37 -31 -74 6 -36
35 -36 37 -15 67 18 26 21 27 40 7z m329 -22 c8 -33 -1 -42 -19 -17 -28 38
-27 4 1 -38 23 -35 27 -47 18 -63 -8 -16 -18 -19 -48 -17 -21 2 -44 -1 -50 -6
-17 -13 -67 -24 -67 -14 0 4 5 13 12 20 17 17 -2 33 -30 25 -12 -3 -25 -16
-28 -29 -7 -26 -31 -50 -41 -41 -3 4 -1 12 4 19 6 7 21 38 34 68 13 30 28 58
33 62 19 13 29 9 17 -6 -10 -12 -6 -21 18 -48 31 -34 43 -33 55 8 4 14 1 28
-8 37 -14 13 -12 16 15 27 16 7 34 21 40 31 12 24 35 14 44 -18z m-845 17 c0
-6 11 -22 25 -35 l24 -25 -29 -15 c-36 -19 -38 -19 -36 1 0 11 -7 18 -21 19
-30 2 -36 9 -28 34 5 17 14 22 58 30 4 0 7 -4 7 -9z m382 -34 c-10 -14 -22
-22 -26 -19 -3 4 4 17 16 30 28 30 36 22 10 -11z m-1012 -35 c0 -26 -17 -36
-36 -20 -14 12 -14 14 2 26 25 18 34 16 34 -6z m960 4 c-7 -8 -16 -12 -21 -9
-13 8 -1 24 18 24 13 0 13 -3 3 -15z m-1096 -22 c39 -8 47 -20 33 -50 -8 -19
-18 -23 -53 -23 -23 0 -51 -3 -61 -7 -17 -6 -17 -6 0 14 20 23 22 54 5 72 -11
11 -8 12 16 7 15 -4 42 -10 60 -13z m1184 -21 c44 -41 49 -51 31 -69 -8 -8
-20 -7 -45 3 -18 8 -39 13 -46 12 -9 -2 -12 8 -10 31 2 28 17 61 27 61 1 0 20
-17 43 -38z m-279 -6 c12 -14 0 -30 -24 -31 -46 -3 -76 -19 -91 -51 -22 -46
-39 -30 -22 21 11 33 19 41 50 50 20 5 40 13 44 18 12 11 30 8 43 -7z m-709
-36 c0 -5 -4 -10 -10 -10 -5 0 -10 5 -10 10 0 6 5 10 10 10 6 0 10 -4 10 -10z
m530 0 c10 -6 11 -10 3 -10 -17 0 -17 -26 0 -42 8 -6 11 -23 9 -35 -3 -15 2
-29 13 -37 19 -14 17 -47 -2 -54 -7 -2 -13 3 -13 12 0 22 -9 20 -36 -9 -29
-32 -44 -32 -44 -1 0 14 -4 28 -10 31 -5 3 -10 13 -10 22 0 11 6 14 21 10 38
-10 80 53 44 67 -22 8 -18 56 4 56 3 0 13 -5 21 -10z m245 -10 c4 -6 8 -29 10
-51 7 -68 -51 -104 -133 -83 -20 6 -23 12 -20 52 2 28 8 47 17 50 9 3 11 0 6
-7 -4 -7 -4 -23 -1 -37 5 -20 12 -25 34 -22 19 2 28 9 30 26 2 15 -2 22 -12
22 -18 0 -19 2 -10 24 3 9 12 16 20 16 8 0 14 5 14 10 0 13 37 13 45 0z m180
-70 c8 -13 -37 -31 -49 -20 -4 5 -5 13 -2 19 9 14 43 14 51 1z m428 -28 c-4
-18 -8 -20 -20 -10 -13 10 -13 14 3 25 22 16 25 13 17 -15z m192 18 c-3 -5
-11 -10 -16 -10 -6 0 -7 5 -4 10 3 6 11 10 16 10 6 0 7 -4 4 -10z m-230 -55
c13 -29 14 -42 5 -70 -13 -39 -31 -57 -57 -55 -10 0 -31 1 -47 1 -26 1 -28 3
-22 30 6 33 0 36 -32 13 -21 -15 -22 -14 -22 19 0 43 19 61 73 66 4 1 7 8 7
16 0 11 11 15 39 15 35 0 41 -4 56 -35z m-240 14 c11 -17 -1 -21 -15 -4 -8 9
-8 15 -2 15 6 0 14 -5 17 -11z m345 -9 c0 -5 -4 -10 -10 -10 -5 0 -10 5 -10
10 0 6 5 10 10 10 6 0 10 -4 10 -10z m-1556 -65 c3 -8 -2 -18 -11 -23 -21 -12
-23 -89 -3 -102 8 -6 21 -8 28 -5 8 3 25 5 38 5 14 0 24 6 24 14 0 7 7 19 15
26 12 10 16 8 24 -11 5 -13 12 -36 15 -51 7 -32 26 -35 62 -11 19 12 24 22 20
38 -3 12 -2 25 2 29 4 4 8 12 8 17 1 5 2 13 3 17 0 5 16 17 34 27 29 15 39 16
70 6 41 -14 57 -36 57 -77 0 -25 -2 -26 -36 -21 -20 3 -44 13 -53 21 -16 14
-20 13 -44 -12 -15 -16 -27 -31 -27 -35 0 -11 65 -8 77 4 15 15 49 -56 45 -92
l-3 -26 -54 28 c-46 24 -57 26 -79 16 -27 -13 -33 -36 -15 -54 7 -7 3 -10 -14
-10 -17 0 -29 8 -36 23 -12 28 -33 31 -52 8 -10 -12 -10 -20 -1 -35 19 -30 15
-37 -25 -48 -44 -12 -111 2 -120 25 -9 24 6 64 21 58 27 -11 70 86 45 101 -18
12 -79 15 -79 4 0 -5 -5 -9 -12 -9 -6 0 -19 -7 -28 -15 -14 -13 -22 -13 -46
-3 -26 10 -27 12 -8 15 31 6 68 90 59 133 -6 29 -5 31 14 25 11 -3 29 -2 38 4
25 15 40 13 47 -4z m1781 -15 c-10 -11 -20 -18 -23 -15 -3 3 3 14 13 25 10 11
20 18 23 15 3 -3 -3 -14 -13 -25z m-1755 -30 c0 -11 -4 -20 -10 -20 -5 0 -10
9 -10 20 0 11 5 20 10 20 6 0 10 -9 10 -20z m455 10 c4 -6 2 -17 -5 -25 -6 -7
-15 -26 -19 -41 -11 -43 -19 -14 -9 34 9 41 20 52 33 32z m130 -70 c4 -12 1
-28 -6 -36 -11 -13 -14 -11 -24 13 -9 20 -9 30 -1 35 18 12 24 9 31 -12z
m-635 -75 c10 -12 9 -15 -8 -15 -11 0 -22 7 -26 15 -3 9 0 15 8 15 7 0 19 -7
26 -15z m390 -105 c0 -5 -4 -10 -10 -10 -5 0 -10 5 -10 10 0 6 5 10 10 10 6 0
10 -4 10 -10z m1215 -80 c3 -5 1 -10 -4 -10 -6 0 -11 5 -11 10 0 6 2 10 4 10
3 0 8 -4 11 -10z"/>
<path d="M6956 6631 c-10 -15 18 -71 35 -71 23 0 32 28 14 46 -8 9 -15 20 -15
25 0 11 -27 12 -34 0z"/>
<path d="M6747 6373 c-11 -11 -8 -48 5 -61 7 -7 20 -12 30 -12 13 0 18 8 18
30 0 20 -5 30 -15 30 -8 0 -15 5 -15 10 0 11 -13 13 -23 3z"/>
<path d="M6990 6350 c0 -11 -9 -29 -20 -40 -21 -21 -27 -60 -10 -60 15 0 70
58 70 74 0 25 -12 46 -26 46 -8 0 -14 -9 -14 -20z"/>
<path d="M7842 7858 c-24 -24 -14 -39 26 -36 30 2 38 7 40 26 3 18 -1 22 -25
22 -16 0 -34 -5 -41 -12z"/>
<path d="M7370 7487 c0 -21 -36 -49 -65 -49 -30 0 -32 -13 -6 -30 15 -9 17
-17 10 -42 -7 -24 -6 -34 7 -43 10 -7 11 -13 5 -18 -19 -11 -12 -35 12 -45 17
-6 26 -4 40 12 20 24 21 32 4 50 -22 22 -26 45 -11 67 20 27 35 27 64 -4 19
-20 21 -27 10 -40 -11 -13 -10 -19 9 -36 21 -20 21 -21 4 -49 -9 -16 -30 -34
-46 -40 -31 -10 -77 -4 -77 11 0 5 -6 9 -14 9 -17 0 -31 -33 -16 -38 6 -2 17
-11 26 -19 16 -17 87 -13 124 7 16 8 80 93 80 105 0 2 -9 13 -21 24 l-21 19
21 11 c26 14 26 29 2 61 -15 18 -22 21 -33 13 -10 -9 -19 -6 -40 12 -14 12
-28 31 -30 41 -4 22 -38 32 -38 11z"/>
<path d="M6801 7196 c-16 -19 -6 -36 20 -36 15 0 20 6 17 22 -4 27 -21 33 -37
14z"/>
<path d="M6622 7158 c-15 -18 1 -41 24 -36 23 4 26 41 3 46 -9 1 -21 -3 -27
-10z"/>
<path d="M6493 7120 c-45 -20 -89 -76 -99 -125 -4 -24 0 -35 20 -54 26 -24 56
-23 56 2 0 8 -7 20 -15 27 -21 18 -19 34 11 69 36 43 59 54 84 41 28 -15 43
-4 30 20 -19 35 -42 40 -87 20z"/>
<path d="M6602 7087 c-6 -7 -7 -18 -3 -26 5 -7 6 -22 3 -33 -4 -16 -1 -19 14
-16 10 2 19 11 19 21 0 10 6 21 13 26 17 10 4 41 -18 41 -10 0 -22 -6 -28 -13z"/>
<path d="M7041 7090 c-17 -10 -7 -40 13 -40 7 0 16 6 19 14 8 19 -15 37 -32
26z"/>
<path d="M7794 7055 c-7 -18 3 -35 22 -35 20 0 30 30 13 41 -20 12 -29 11 -35
-6z"/>
<path d="M7197 7033 c-11 -11 -8 -51 5 -59 18 -11 39 25 27 47 -10 20 -21 24
-32 12z"/>
<path d="M7760 6972 c-8 -3 -20 -12 -27 -21 -14 -20 3 -45 25 -36 8 3 21 -3
28 -12 13 -17 15 -17 29 1 20 27 19 36 -5 36 -11 0 -20 6 -20 14 0 19 -11 25
-30 18z"/>
<path d="M7327 6904 c-13 -13 -7 -55 9 -61 24 -9 51 23 38 45 -12 19 -36 27
-47 16z"/>
<path d="M6920 6889 c0 -6 -7 -17 -15 -26 -22 -21 -1 -47 26 -32 23 12 25 54
4 63 -8 3 -15 1 -15 -5z"/>
<path d="M7565 6729 c-4 -12 -2 -26 3 -31 17 -17 42 -1 42 27 0 32 -35 35 -45
4z"/>
<path d="M7667 6704 c-16 -16 -6 -35 16 -32 12 2 22 10 22 18 0 16 -26 25 -38
14z"/>
<path d="M7726 6665 c-11 -8 -28 -15 -37 -15 -24 0 -33 -18 -19 -35 17 -21 47
-19 81 6 32 23 37 44 13 53 -19 7 -15 8 -38 -9z"/>
<path d="M7302 6618 c-19 -19 -14 -49 8 -55 11 -3 20 -9 20 -13 0 -20 -13 -40
-26 -40 -33 0 -10 -16 39 -28 72 -17 75 -16 97 20 26 44 10 66 -24 32 -19 -18
-36 -10 -36 18 0 11 -8 22 -20 25 -13 3 -20 14 -20 29 0 26 -18 32 -38 12z"/>
<path d="M7627 6583 c-15 -14 -7 -43 12 -43 23 0 34 23 18 39 -13 13 -21 14
-30 4z"/>
<path d="M8023 6564 c-3 -8 -1 -20 4 -25 14 -14 43 0 43 22 0 24 -38 26 -47 3z"/>
<path d="M7546 6525 c-3 -8 -12 -15 -21 -15 -8 0 -15 -7 -15 -15 0 -19 29 -32
39 -18 3 6 16 15 28 22 14 7 20 17 17 26 -8 19 -40 19 -48 0z"/>
<path d="M7996 6511 c-8 -13 3 -38 20 -45 19 -7 37 27 22 42 -14 14 -35 15
-42 3z"/>
<path d="M7841 6456 c-18 -22 4 -30 39 -14 17 7 30 16 30 20 0 14 -57 8 -69
-6z"/>
<path d="M7883 6394 c-3 -8 2 -23 11 -32 15 -15 17 -15 33 0 13 14 14 20 3 32
-16 20 -39 20 -47 0z"/>
<path d="M5585 6091 c-11 -10 -4 -59 10 -71 8 -7 15 -19 15 -26 0 -16 28 -18
49 -5 9 6 11 15 6 27 -4 11 -7 31 -6 45 2 24 -2 27 -34 31 -19 2 -38 2 -40 -1z"/>
<path d="M5710 6066 c0 -14 -4 -28 -10 -31 -34 -21 23 -35 61 -15 25 14 24 35
-3 54 -32 23 -48 20 -48 -8z"/>
<path d="M5707 5973 c-4 -3 -4 -16 -1 -28 4 -18 0 -25 -25 -33 -18 -6 -31 -18
-31 -28 0 -14 7 -15 48 -9 26 4 50 9 55 12 13 8 7 41 -8 47 -8 3 -15 12 -15
20 0 17 -14 28 -23 19z"/>
<path d="M5367 5843 c-15 -27 -15 -62 -1 -73 22 -19 38 1 29 39 -7 31 -20 48
-28 34z"/>
<path d="M5410 5830 c0 -27 25 -36 45 -17 23 24 18 37 -15 37 -23 0 -30 -4
-30 -20z"/>
<path d="M5500 5847 c0 -15 54 -58 66 -53 22 8 16 33 -8 39 -13 2 -31 8 -40
12 -10 4 -18 5 -18 2z"/>
<path d="M5040 5830 c-8 -5 -26 -10 -40 -10 -25 0 -50 -16 -50 -31 0 -10 77
-49 96 -49 8 0 13 4 10 9 -13 21 7 41 40 41 28 0 35 -4 40 -26 4 -14 4 -40 1
-58 -6 -38 0 -51 29 -60 19 -6 23 -2 28 28 8 40 -5 107 -28 141 -14 21 -24 25
-64 25 -26 0 -54 -5 -62 -10z"/>
<path d="M5457 5796 c-23 -23 -30 -52 -17 -76 12 -22 35 -27 45 -9 11 17 10
78 -2 90 -7 7 -15 6 -26 -5z"/>
<path d="M4804 5755 c-20 -22 -42 -35 -58 -35 -50 0 -85 -69 -73 -144 5 -30 3
-33 -31 -45 -68 -23 -83 -33 -71 -48 14 -17 43 -16 94 1 22 8 43 12 47 9 16
-9 7 -40 -17 -61 -61 -53 -6 -192 77 -192 23 0 28 -5 33 -34 5 -22 1 -44 -9
-65 -21 -39 -29 -39 -43 -1 -6 17 -19 30 -28 30 -15 0 -17 -7 -11 -50 7 -50 7
-51 -43 -99 -27 -27 -62 -51 -78 -54 -15 -3 -38 -8 -50 -12 -18 -6 -21 -4 -16
14 3 11 14 23 26 27 11 3 35 20 53 38 18 17 44 42 58 55 14 13 26 32 26 42 0
18 -3 17 -40 -7 l-40 -27 -17 21 c-13 15 -35 23 -75 27 -57 6 -58 5 -58 -20 0
-14 -4 -25 -9 -25 -14 0 -21 -43 -9 -57 6 -7 8 -25 5 -40 -3 -18 0 -34 11 -46
14 -16 14 -17 -9 -13 -13 2 -32 -3 -41 -12 -16 -14 -18 -13 -18 2 0 9 -11 21
-25 26 -14 5 -25 14 -25 20 0 18 -49 11 -71 -11 -16 -16 -18 -23 -9 -34 9 -11
17 -12 31 -4 22 11 39 4 39 -16 0 -20 17 -27 37 -16 15 7 21 4 30 -16 11 -22
10 -26 -7 -30 -11 -3 -20 -10 -20 -15 0 -12 -41 -47 -56 -48 -7 0 -14 10 -18
22 -10 41 -27 4 -30 -65 -3 -76 5 -85 54 -56 18 11 34 19 35 17 5 -5 -23 -80
-33 -90 -7 -7 -21 -3 -42 12 -36 26 -57 21 -66 -15 -5 -19 -11 -24 -23 -20 -9
4 -37 9 -62 12 -41 5 -48 3 -68 -22 -13 -17 -19 -36 -16 -47 5 -14 1 -18 -19
-18 -16 0 -26 6 -26 14 0 8 -6 16 -12 19 -16 5 -99 -36 -117 -57 -8 -9 -19
-16 -26 -16 -14 0 -65 -48 -65 -62 0 -23 36 -17 88 15 95 58 164 55 202 -10
11 -20 19 -41 17 -47 -2 -6 -9 -1 -16 12 -8 15 -21 22 -41 22 -36 0 -77 -18
-84 -37 -7 -17 22 -63 39 -63 14 0 36 24 34 36 -3 20 2 24 21 14 11 -6 20 -15
20 -20 0 -6 -9 -10 -20 -10 -28 0 -25 -11 12 -42 l33 -26 -20 -22 c-32 -36
-55 -44 -69 -25 -18 25 -112 30 -203 11 -98 -22 -105 -25 -123 -63 -11 -23
-26 -34 -60 -43 -64 -17 -160 -27 -160 -17 0 5 -7 15 -15 23 -16 17 -142 27
-151 12 -3 -4 -13 -8 -24 -8 -10 0 -20 -6 -23 -13 -4 -11 -16 -12 -60 -4 -50
9 -58 8 -86 -12 -20 -15 -31 -31 -31 -47 0 -29 11 -31 35 -4 20 22 37 18 33
-8 -4 -26 38 -28 54 -3 7 12 21 21 30 21 9 0 21 7 26 15 11 20 135 33 156 16
15 -13 7 -70 -14 -96 -6 -8 -9 -19 -5 -25 4 -6 1 -17 -5 -25 -6 -8 -9 -19 -5
-25 15 -24 37 -6 65 54 32 70 47 86 61 65 6 -10 1 -20 -16 -34 -42 -35 -10
-96 35 -67 17 10 25 9 53 -10 44 -31 47 -36 47 -91 0 -35 -5 -52 -20 -64 -11
-10 -20 -27 -20 -38 0 -12 -13 -34 -30 -50 -16 -16 -30 -35 -30 -42 0 -21 51
-5 77 23 25 28 68 32 77 8 8 -21 -3 -82 -16 -90 -5 -3 -16 0 -25 8 -12 9 -49
12 -139 11 -68 -1 -126 2 -129 7 -3 5 8 16 25 25 30 16 32 26 14 83 -6 19 -24
5 -24 -19 0 -22 -41 -45 -64 -36 -9 4 -16 18 -16 33 0 33 -22 27 -35 -10 -8
-24 -6 -31 14 -47 18 -15 21 -22 12 -33 -11 -13 -10 -71 2 -83 4 -3 -16 -16
-43 -29 -28 -13 -50 -27 -50 -32 0 -17 27 -32 45 -25 15 5 17 2 12 -16 -5 -22
18 -81 32 -81 4 0 18 9 31 20 l23 20 -33 30 -33 31 22 15 c17 13 32 14 69 7
37 -6 50 -14 65 -40 18 -32 18 -34 0 -65 -10 -18 -31 -39 -45 -47 -23 -13 -32
-13 -78 2 -29 9 -70 17 -91 17 -27 0 -39 4 -39 14 0 8 5 18 10 21 11 7 14 45
3 45 -17 0 -73 -53 -73 -71 0 -10 -7 -19 -15 -19 -9 0 -15 -9 -15 -22 -1 -22
-1 -22 -17 4 -28 45 -55 54 -107 34 -52 -20 -129 -89 -104 -94 8 -2 43 13 76
33 33 19 65 35 70 35 17 0 33 -28 55 -93 24 -69 36 -82 52 -49 5 11 17 23 27
25 19 5 24 32 8 42 -5 3 -10 14 -10 24 0 25 83 35 122 15 33 -17 62 -103 56
-167 -5 -53 8 -70 39 -50 17 11 30 12 59 4 25 -7 42 -7 48 -1 7 7 4 10 -7 10
-9 0 -17 4 -17 9 0 5 25 12 56 16 58 7 84 -3 84 -32 0 -11 7 -14 27 -10 15 3
49 0 75 -6 40 -10 49 -17 64 -49 9 -20 24 -40 33 -43 48 -20 77 -23 129 -14
67 13 79 19 61 30 -16 9 -12 14 19 23 17 6 22 3 22 -11 0 -11 5 -24 11 -30 12
-12 7 -16 -46 -43 -24 -12 -30 -22 -30 -47 0 -18 -9 -41 -22 -55 -43 -46 -71
-173 -37 -166 19 3 25 14 46 77 17 53 29 60 59 30 12 -12 35 -22 53 -23 20 -1
34 -8 38 -19 9 -21 27 -19 42 6 8 13 7 20 -4 27 -8 5 -17 7 -21 4 -4 -2 -9 6
-12 17 -4 15 -11 20 -25 17 -12 -3 -23 2 -31 13 -6 11 -18 19 -27 19 -13 0
-15 6 -10 28 12 48 69 70 96 37 16 -19 44 -19 60 0 19 23 54 15 58 -12 8 -52
97 -80 148 -46 22 14 27 14 34 2 5 -8 21 -15 36 -16 15 -1 33 -4 41 -7 20 -8
16 -36 -7 -36 -32 0 -90 -32 -90 -51 0 -31 27 -42 84 -35 30 3 61 8 69 12 9 3
19 -6 27 -26 11 -28 11 -34 -7 -58 -28 -38 -104 -44 -137 -10 -13 13 -42 38
-65 57 -22 19 -41 42 -41 53 0 29 -44 20 -48 -9 -2 -13 1 -23 6 -23 14 0 20
-45 9 -65 -6 -12 -16 -15 -33 -11 -19 5 -31 -1 -54 -24 -41 -42 -38 -53 14
-49 33 3 47 0 55 -13 10 -17 51 -14 51 3 0 14 64 10 85 -5 19 -14 19 -15 1
-35 -16 -17 -16 -22 -4 -26 8 -3 27 -1 42 5 24 9 26 14 21 42 l-6 33 55 2 c42
1 56 -2 56 -13 0 -8 -10 -14 -24 -14 -42 0 -50 -24 -19 -59 15 -17 35 -31 45
-31 9 0 20 -4 23 -10 11 -18 40 -11 50 12 11 25 35 36 35 17 0 -7 -7 -20 -15
-29 -9 -10 -20 -46 -26 -81 -9 -59 -9 -65 9 -77 17 -11 19 -19 12 -43 -5 -16
-9 -32 -9 -34 -2 -9 -6 -9 -25 2 -13 7 -17 17 -13 32 3 15 -1 29 -13 41 -12
12 -16 27 -12 45 6 33 -9 45 -61 45 -27 0 -37 4 -34 13 2 6 10 11 16 10 17 -4
13 47 -4 53 -40 16 -98 -36 -63 -57 18 -11 1 -38 -40 -62 -28 -17 -39 -17
-107 -7 -70 11 -78 10 -90 -7 -17 -23 -30 -11 -16 16 10 17 10 43 2 139 -1 17
-38 15 -45 -3 -3 -9 1 -18 9 -21 21 -8 19 -57 -4 -85 -16 -20 -23 -22 -47 -14
-39 14 -54 56 -32 93 16 26 15 31 -1 68 -11 23 -16 53 -13 72 5 34 -15 45 -36
19 -11 -13 -11 -85 1 -104 7 -12 -20 -33 -42 -33 -15 0 -31 91 -19 113 9 18 5
32 -10 32 -18 1 -65 41 -73 62 -7 18 -17 23 -46 25 -95 4 -113 7 -141 28 -44
33 -74 77 -64 95 6 13 12 10 30 -15 25 -33 73 -62 114 -66 38 -5 114 31 121
57 8 30 -2 49 -31 60 -31 12 -72 -12 -72 -41 0 -21 -16 -25 -56 -14 -31 8 -84
102 -77 136 9 44 26 51 53 23 13 -14 32 -25 42 -25 23 0 34 -25 20 -43 -7 -8
-7 -18 -2 -27 10 -17 38 -5 91 40 34 28 33 50 -2 50 -10 0 -19 5 -19 10 0 6
-10 10 -22 9 -41 -4 -58 1 -58 14 0 26 -37 50 -66 43 -36 -9 -84 -59 -84 -88
-1 -25 -26 -65 -36 -56 -3 4 -1 15 5 27 15 27 -4 38 -29 16 -12 -11 -20 -13
-25 -5 -4 6 5 22 20 36 22 20 25 30 20 57 -11 50 -8 49 -68 32 -25 -7 -28 -11
-23 -36 3 -16 1 -29 -4 -29 -6 0 -10 -9 -10 -20 0 -11 -7 -20 -15 -20 -19 0
-31 46 -15 65 15 18 5 35 -21 35 -25 0 -42 -43 -36 -92 6 -42 -3 -52 -48 -62
-43 -9 -88 -49 -73 -64 7 -7 10 -13 7 -14 -45 -28 -107 -54 -119 -50 -23 8
-30 25 -17 41 9 11 7 17 -11 29 -12 8 -22 23 -22 33 0 11 -6 19 -14 19 -39 0
-52 -76 -19 -112 30 -33 37 -63 18 -78 -31 -26 -36 -47 -17 -79 19 -34 42 -48
42 -26 0 10 11 15 36 15 31 0 35 -3 29 -20 -8 -24 3 -25 41 -5 32 17 64 20 64
6 0 -5 -13 -11 -29 -14 -40 -8 -65 -35 -50 -53 9 -11 16 -11 46 1 66 28 123
14 123 -30 0 -22 9 -30 33 -26 12 2 7 -33 -7 -52 -9 -11 -20 -15 -31 -11 -15
6 -17 3 -11 -19 4 -17 -1 -37 -15 -61 -11 -19 -19 -44 -17 -55 2 -10 -8 -31
-21 -44 -28 -30 -22 -45 16 -40 45 6 59 -9 43 -46 -7 -17 -17 -31 -22 -31 -5
0 -8 -12 -6 -27 2 -21 9 -28 24 -28 11 0 28 -8 38 -17 24 -25 36 -22 36 8 0
21 4 25 22 22 14 -2 24 -11 26 -23 5 -28 31 -46 58 -39 23 6 42 -10 25 -21
-16 -9 -1 -36 27 -46 50 -19 62 21 20 67 -17 19 -18 25 -6 43 14 22 44 40 32
18 -4 -6 4 -2 18 11 l26 23 6 -36 c4 -20 14 -39 22 -42 19 -7 18 -31 -2 -29
-9 0 -19 -5 -21 -11 -3 -7 3 -13 13 -13 16 0 16 -1 -1 -20 -9 -10 -15 -26 -11
-35 4 -12 -4 -20 -29 -31 -45 -18 -61 -19 -46 0 17 20 -29 46 -83 46 -34 0
-48 -5 -55 -18 -8 -15 -3 -26 25 -53 33 -32 40 -34 102 -34 l67 0 10 -39 c8
-33 16 -42 55 -59 63 -29 151 -29 182 -1 16 15 36 22 66 22 29 -1 53 6 73 21
l29 22 29 -22 c26 -19 39 -21 95 -17 55 5 74 12 128 48 43 29 76 43 105 45 23
2 55 11 70 20 40 24 91 95 106 146 l13 44 62 6 c45 4 73 14 102 34 68 47 83
72 76 126 -6 44 -4 49 29 82 42 42 45 78 12 128 -29 44 -100 70 -125 46 -13
-13 -13 -19 -2 -31 11 -14 8 -16 -19 -16 -30 0 -31 0 -25 43 4 29 1 48 -9 62
-13 17 -18 18 -42 7 -15 -7 -30 -11 -32 -8 -8 7 11 97 20 97 4 -1 24 -1 45 -1
37 0 38 0 34 -38 -5 -50 20 -81 73 -89 22 -3 52 -15 66 -25 32 -24 52 -25 112
-9 53 15 112 68 121 110 12 54 20 58 116 47 37 -4 52 -1 82 21 55 37 72 69 73
134 0 41 -5 62 -18 77 -17 19 -16 20 18 46 19 15 38 38 41 51 8 32 -12 91 -39
112 -17 14 -23 31 -25 71 -2 49 -1 52 21 52 26 0 46 19 71 67 13 26 21 31 48
30 18 -1 43 2 56 6 16 6 22 5 22 -5 0 -8 13 -27 29 -42 45 -44 155 -58 248
-33 40 10 54 22 105 86 32 40 58 80 58 89 0 12 10 14 54 9 93 -9 133 1 182 47
24 23 44 46 44 50 0 5 11 19 25 32 14 13 25 33 25 46 0 13 3 34 7 46 5 23 4
24 -38 21 -43 -4 -44 -3 -53 33 -16 64 10 92 35 36 19 -42 38 -52 84 -44 58
11 165 117 189 189 12 36 28 59 47 73 35 23 69 76 69 108 0 21 8 25 63 37 47
10 70 21 95 47 38 39 39 49 11 104 -19 37 -22 39 -32 23 -7 -13 -6 -24 2 -37
18 -30 -11 -75 -57 -87 -60 -17 -116 -13 -146 10 -29 23 -32 45 -11 73 8 10
12 23 9 27 -3 5 -1 9 5 9 5 0 17 3 26 6 13 5 15 2 10 -18 -7 -27 15 -58 41
-58 22 0 74 55 74 78 0 23 22 34 47 25 11 -4 14 -3 9 5 -5 8 3 12 27 12 45 0
96 22 126 54 19 20 22 32 17 57 -8 39 -32 69 -58 69 -16 0 -17 3 -7 23 7 12
15 29 19 37 4 8 16 16 28 18 29 4 50 31 33 42 -9 5 -10 10 -2 14 6 4 11 16 11
27 0 14 -7 19 -26 19 -20 0 -25 -4 -22 -21 2 -12 -5 -26 -14 -32 -39 -25 -29
9 25 85 11 16 20 53 24 97 3 41 12 76 19 82 16 13 18 47 5 68 -6 9 -4 22 6 37
19 30 3 65 -27 57 -11 -3 -20 0 -20 6 0 6 -16 34 -35 62 -33 48 -54 113 -41
126 8 9 36 -17 36 -33 0 -16 46 -37 61 -28 5 3 9 11 9 18 0 18 45 24 98 13 51
-10 64 -33 49 -89 -12 -48 -41 -67 -66 -44 -10 9 -23 16 -29 16 -6 0 -14 9
-17 21 -5 14 -14 19 -28 17 -30 -4 -32 -61 -2 -66 36 -7 56 -33 50 -63 -5 -20
1 -39 20 -69 28 -45 58 -51 63 -12 3 17 -2 22 -18 22 -13 0 -20 5 -18 13 5 13
78 22 115 12 38 -9 29 -64 -21 -122 -24 -28 -46 -29 -79 -3 -21 16 -30 18 -52
10 -20 -8 -26 -16 -22 -29 3 -12 -4 -27 -19 -40 -21 -18 -24 -51 -5 -51 15 0
39 26 43 45 5 27 30 25 44 -4 13 -26 0 -61 -22 -61 -10 0 -24 -21 -24 -35 0
-13 44 -9 69 6 24 14 31 26 31 49 0 24 6 32 34 44 40 17 70 56 86 115 7 28 15
40 21 34 13 -13 81 0 114 21 20 13 25 24 22 39 -3 12 -9 40 -13 62 -3 22 -11
46 -17 53 -15 19 -7 21 51 9 48 -10 57 -9 96 13 24 13 51 36 61 52 10 18 37
38 70 53 57 25 69 40 84 104 11 49 -6 118 -33 133 -29 16 -75 27 -81 19 -5
-10 22 -35 47 -44 23 -8 33 -68 18 -111 -12 -37 -46 -61 -105 -72 -26 -4 -35
-2 -43 13 -11 19 -17 12 -24 -32 -4 -27 -38 -33 -38 -6 0 25 -19 38 -31 20
-14 -22 -10 -61 8 -81 13 -14 13 -18 2 -18 -16 0 -78 22 -96 33 -20 12 -29 1
-42 -45 -19 -74 -105 -120 -154 -84 -15 12 -16 18 -8 35 6 11 11 40 11 65 0
51 -21 78 -77 97 -25 8 -33 16 -33 34 0 13 -5 27 -10 30 -13 8 -42 -14 -35
-26 7 -11 -34 -37 -65 -41 -20 -2 -25 1 -23 17 1 11 -9 28 -22 37 -20 15 -30
16 -72 7 -139 -31 -218 -14 -239 51 -8 22 -18 35 -29 35 -22 0 -35 -33 -24
-62 10 -28 81 -80 125 -92 33 -9 104 -57 104 -71 0 -4 -12 -12 -26 -19 -21 -9
-24 -14 -14 -26 7 -8 25 -15 39 -15 36 0 71 -48 77 -106 4 -43 3 -45 -42 -74
-36 -23 -56 -28 -85 -26 -22 2 -39 0 -39 -4 0 -16 -45 -24 -143 -25 -86 0 -98
2 -103 18 -4 11 2 27 15 40 30 33 50 88 41 113 -5 11 -23 33 -40 48 -30 25
-31 28 -16 45 10 11 16 35 16 64 0 42 3 48 31 62 22 12 29 21 24 33 -6 14 -11
33 -14 51 -1 3 -13 -6 -28 -20 -21 -19 -41 -26 -81 -28 -66 -3 -80 10 -83 80
-3 51 -2 54 24 63 20 7 27 16 25 31 -2 16 -10 20 -38 20 -33 0 -35 -2 -33 -29
1 -17 -2 -35 -8 -42 -5 -6 -12 -34 -16 -61 -5 -44 -3 -52 23 -80 17 -19 43
-34 65 -38 56 -10 65 -19 53 -52 -8 -23 -16 -29 -47 -31 -32 -3 -41 -9 -54
-37 -16 -33 -15 -36 2 -55 17 -19 19 -19 37 -3 17 15 23 16 61 3 33 -12 43
-20 45 -42 6 -51 -71 -88 -154 -72 -44 8 -49 18 -18 35 21 11 25 18 20 43 -8
36 -11 40 -31 33 -8 -4 -15 -16 -15 -27 0 -11 -4 -20 -10 -20 -5 0 -10 7 -10
16 0 11 -6 15 -17 11 -66 -21 -63 -21 -63 12 0 30 2 31 43 31 53 1 77 18 77
59 0 36 -3 38 -30 11 -28 -28 -58 -26 -70 5 -5 14 -16 25 -24 25 -20 0 -46
-39 -46 -69 0 -52 -70 -68 -110 -26 -23 24 -29 65 -18 116 2 9 -5 14 -21 14
-19 0 -26 -7 -32 -30 -5 -16 -6 -39 -3 -51 4 -17 0 -22 -22 -27 -20 -4 -33 2
-51 21 -20 22 -26 24 -38 11 -19 -19 -38 -139 -24 -155 7 -9 7 -19 0 -32 -16
-30 6 -43 53 -32 21 5 43 13 48 18 14 14 -1 35 -19 28 -30 -12 -30 5 1 39 18
19 40 35 48 35 9 0 18 6 21 13 3 8 11 5 25 -9 12 -12 27 -24 34 -26 11 -4 11
-8 0 -21 -8 -9 -11 -20 -8 -25 3 -4 -14 -29 -37 -54 -50 -55 -86 -63 -170 -40
-51 15 -58 20 -63 49 -3 17 0 47 7 67 9 24 10 39 3 46 -15 15 -54 -17 -54 -43
0 -39 -14 -51 -41 -36 -13 7 -49 16 -79 19 -54 5 -55 6 -55 37 0 37 -3 41 -35
46 -19 3 -24 11 -27 43 -2 21 -10 45 -18 53 -20 21 -64 6 -76 -26 -19 -49 -28
-54 -59 -32 -31 23 -30 54 2 77 21 16 24 38 4 45 -15 6 -75 -34 -89 -59 -6
-10 -3 -24 7 -39 9 -13 13 -30 10 -38 -3 -9 4 -22 18 -31 12 -9 17 -16 11 -16
-7 0 -17 -9 -23 -21 -15 -26 3 -49 31 -42 18 5 20 11 16 39 -5 30 -3 34 16 35
66 3 72 5 82 27 13 30 18 28 43 -19 21 -39 21 -41 4 -64 -27 -37 -91 -70 -112
-57 -9 5 -22 7 -29 2 -15 -9 -73 10 -84 28 -4 6 -16 12 -27 12 -10 0 -20 -6
-23 -12 -3 -9 -11 -5 -25 10 -15 17 -35 25 -76 29 -31 3 -56 7 -56 8 0 1 21
37 47 80 38 64 44 81 35 95 -16 26 10 44 56 42 31 -2 43 3 70 33 19 19 46 38
60 42 15 3 37 13 49 21 20 12 28 12 70 -4 61 -23 95 -47 117 -85 23 -40 46
-38 46 4 0 46 -41 87 -122 122 -52 23 -68 34 -68 50 0 17 7 20 45 22 50 2 95
27 95 53 0 20 -65 90 -84 90 -19 0 -49 -37 -41 -50 4 -6 22 -9 40 -8 40 4 46
-13 9 -26 -43 -14 -106 11 -163 65 -35 33 -51 56 -51 74 0 30 -11 32 -34 6
-23 -26 -10 -56 53 -116 39 -38 49 -53 45 -71 -4 -15 0 -25 13 -32 41 -24 -38
-84 -83 -63 -21 9 -24 17 -24 69 0 32 5 63 12 70 9 9 9 12 -1 12 -20 0 -35 22
-48 69 -9 36 -9 47 3 58 27 27 6 61 -29 47 -8 -3 -26 7 -41 22 -21 22 -29 25
-39 15 -9 -10 -8 -15 6 -25 20 -15 22 -33 5 -38 -18 -6 0 -59 22 -65 34 -9 22
-29 -31 -57 -49 -25 -53 -26 -70 -10 -22 20 -22 23 -9 44 9 13 12 13 21 -2 5
-10 19 -18 29 -18 16 0 20 7 20 33 0 38 -14 65 -24 48 -4 -6 -19 -11 -34 -11
-15 0 -39 -8 -52 -17 -14 -10 -34 -19 -44 -21 -45 -6 -48 -56 -5 -71 25 -9 30
-15 27 -38 -3 -27 -6 -28 -60 -31 -40 -2 -58 -7 -58 -16 0 -8 -7 -17 -16 -20
-48 -19 -57 8 -23 74 17 32 19 46 11 69 -7 20 -7 32 1 40 8 8 5 16 -11 31 -23
22 -29 73 -12 100 8 12 12 13 19 2 16 -25 54 -10 63 26 5 17 12 33 16 33 4 1
31 2 61 4 53 2 53 2 30 -16 -25 -19 -19 -38 13 -43 8 -1 23 -10 32 -19 45 -44
44 29 0 96 -22 34 -30 38 -55 35 -17 -3 -32 -1 -35 4 -11 17 -38 7 -70 -27z
m309 -346 c11 -17 -16 -89 -32 -89 -6 0 -11 13 -11 29 0 17 -3 32 -7 34 -13 8
-82 -78 -74 -91 4 -6 24 -14 46 -17 60 -7 66 -21 24 -60 -37 -33 -50 -36 -135
-26 -21 2 -25 33 -7 47 11 8 13 13 6 14 -7 0 -13 11 -13 23 0 35 -11 40 -37
15 -28 -26 -36 -21 -20 12 12 24 101 65 119 54 4 -3 11 3 15 13 8 23 40 46 73
54 32 8 41 6 53 -12z m-333 -99 c0 -5 -4 -10 -10 -10 -5 0 -10 5 -10 10 0 6 5
10 10 10 6 0 10 -4 10 -10z m395 -69 c-6 -5 -21 -12 -35 -16 -22 -7 -23 -6
-11 9 7 9 23 16 34 16 13 0 17 -4 12 -9z m-325 -112 c0 -17 -27 -45 -35 -37
-2 2 0 21 6 43 8 28 13 35 20 24 5 -8 9 -21 9 -30z m-289 -41 c28 -31 23 -46
-17 -63 -39 -16 -74 -7 -74 20 0 7 -3 20 -6 29 -5 12 0 16 17 16 13 0 31 5 39
10 20 13 20 13 41 -12z m489 -3 c0 -17 -29 -53 -62 -76 l-31 -23 -23 30 c-32
39 -52 22 -38 -33 9 -36 11 -38 46 -36 29 2 36 -1 31 -12 -4 -11 3 -15 25 -15
16 0 47 -7 68 -16 l39 -17 -38 -13 c-20 -7 -47 -20 -59 -29 -33 -23 -40 -19
-35 20 4 26 1 35 -9 35 -8 0 -17 -7 -20 -15 -4 -9 -15 -20 -27 -26 -18 -10
-19 -9 -14 10 3 14 0 24 -9 28 -8 3 -14 11 -14 19 0 8 -7 14 -15 14 -11 0 -13
8 -8 30 3 18 1 30 -5 30 -14 0 -52 -49 -52 -66 0 -8 -4 -14 -10 -14 -14 0 -12
47 3 60 6 6 27 20 45 31 18 10 35 27 38 37 12 38 23 47 60 52 63 8 114 6 114
-5z m2340 -136 c0 -19 -6 -32 -17 -36 -10 -4 -21 -11 -25 -16 -8 -13 -70 4
-75 20 -2 6 11 16 30 22 19 7 42 20 52 31 22 25 35 17 35 -21z m-2656 -45 c3
-9 6 -23 5 -32 0 -12 -3 -9 -10 7 -9 22 -10 23 -35 6 -32 -21 -43 -12 -19 15
22 24 51 26 59 4z m1436 -24 c0 -35 -11 -37 -51 -9 -35 25 -30 39 17 39 31 0
34 -2 34 -30z m780 20 c0 -5 -4 -10 -10 -10 -5 0 -10 5 -10 10 0 6 5 10 10 10
6 0 10 -4 10 -10z m-1325 -43 c14 -11 17 -21 12 -46 -11 -55 35 -52 56 3 3 7
10 4 18 -7 23 -29 122 -49 203 -42 61 5 75 10 98 35 23 25 28 27 39 14 10 -12
10 -22 1 -47 -15 -39 0 -61 38 -54 14 3 32 2 39 -3 19 -11 -30 -60 -61 -60
-52 0 -87 52 -54 80 15 12 11 40 -5 40 -19 0 -59 -45 -59 -67 0 -19 -5 -23
-32 -23 -18 0 -42 -7 -52 -15 -28 -21 -33 -19 -39 13 -4 20 -16 34 -39 45 -31
15 -34 15 -54 -4 -24 -23 -37 -24 -54 -4 -7 8 -21 15 -32 15 -43 0 -136 -86
-124 -115 6 -17 32 -20 41 -5 3 6 15 10 26 10 10 0 19 6 19 13 0 7 6 22 14 32
12 16 16 17 30 6 9 -7 16 -21 16 -31 0 -10 7 -23 15 -30 18 -15 6 -34 -36 -56
-38 -19 -40 -18 -37 14 3 23 0 27 -22 24 -14 -1 -34 -13 -46 -26 -11 -13 -37
-29 -57 -35 -21 -7 -42 -21 -47 -32 -15 -26 -32 -24 -25 4 5 18 -3 31 -32 57
-27 25 -37 42 -35 58 2 13 -3 25 -12 28 -17 7 -22 34 -6 34 15 0 12 43 -4 66
-16 22 -28 15 -30 -18 0 -13 -7 -23 -13 -22 -7 1 -26 2 -43 3 -16 0 -30 6 -30
12 0 6 7 8 16 5 9 -3 31 6 53 24 36 30 38 30 69 14 42 -20 60 -8 27 18 -31 24
-24 36 36 63 29 13 43 15 47 7 4 -6 20 -15 35 -21 23 -9 29 -7 39 8 6 11 18
17 25 14 7 -3 13 0 13 6 0 15 32 14 55 -2z m-1010 -16 c3 -6 13 -9 23 -9 21 2
106 -55 127 -85 19 -27 19 -53 1 -60 -8 -3 -16 -16 -18 -29 -2 -12 -18 -32
-36 -45 -32 -21 -52 -21 -80 0 -11 9 -10 12 2 19 9 5 16 13 16 18 0 17 -41 11
-71 -11 -28 -20 -31 -20 -54 -5 -29 19 -31 29 -10 46 20 17 19 40 -2 40 -23 0
-53 -29 -53 -51 0 -31 -18 -30 -29 2 -10 28 -8 34 21 62 18 18 33 37 33 42 0
6 12 11 27 13 20 2 26 0 23 -10 -6 -16 42 -78 60 -78 28 0 37 27 24 67 -14 45
-26 55 -56 48 -27 -6 -29 -2 -7 19 17 18 50 21 59 7z m1614 -42 c21 -20 25
-29 15 -33 -18 -7 -18 -30 0 -45 10 -8 16 -8 24 2 11 13 10 76 -2 95 -13 22
16 23 40 1 21 -20 25 -21 41 -7 35 30 52 29 68 -2 20 -38 10 -79 -21 -90 -19
-8 -22 -13 -15 -32 4 -13 16 -25 26 -26 21 -5 59 31 75 69 15 34 41 38 55 7 6
-12 21 -25 35 -28 14 -3 26 -14 28 -23 4 -19 -6 -20 -63 -7 -26 6 -44 5 -52
-2 -20 -16 1 -34 47 -42 41 -6 58 -36 21 -36 -20 0 -31 -17 -24 -37 7 -20 41
-15 48 7 5 16 10 18 26 10 16 -9 17 -14 7 -30 -10 -15 -10 -22 0 -32 16 -16
45 0 51 28 4 24 27 41 69 53 44 13 59 6 72 -35 9 -26 9 -38 0 -49 -6 -8 -9
-23 -5 -34 3 -10 2 -22 -3 -25 -6 -3 -12 3 -15 14 -7 26 -33 36 -53 19 -13
-11 -15 -26 -11 -76 5 -48 3 -66 -9 -78 -21 -20 -31 -19 -44 5 -6 11 -17 20
-25 20 -22 0 -18 14 8 25 14 7 22 19 22 35 0 23 -3 25 -40 23 -50 -4 -74 -25
-55 -48 12 -15 12 -18 -3 -26 -9 -6 -17 -17 -17 -24 0 -30 -17 -14 -30 28 -8
23 -21 53 -30 67 -9 14 -21 37 -28 53 -13 30 -39 36 -49 11 -4 -11 2 -23 17
-34 22 -17 22 -18 4 -23 -37 -11 -86 0 -112 26 -25 26 -26 27 -7 47 13 14 16
23 8 28 -6 4 -13 18 -14 32 -5 31 -33 33 -37 4 -3 -22 -26 -34 -50 -26 -9 3
-2 14 20 33 32 28 32 29 11 35 -12 3 -25 15 -29 26 -11 36 -39 17 -40 -27 -1
-94 -2 -95 -34 -95 -38 0 -40 -24 -2 -42 41 -20 42 -60 1 -101 -20 -20 -34
-27 -37 -19 -6 19 -28 14 -45 -10 l-16 -23 0 23 c-1 31 -31 29 -31 -2 0 -37
-15 -39 -50 -9 -29 24 -33 25 -42 10 -5 -9 -14 -17 -19 -17 -6 0 -1 12 10 26
21 27 19 54 -5 54 -8 0 -14 7 -14 15 0 8 -4 15 -10 15 -14 0 -12 46 3 57 6 5
25 15 40 21 26 11 28 11 22 -8 -4 -14 -1 -22 11 -27 25 -10 55 31 48 66 -7 34
4 43 59 47 22 2 51 11 64 20 21 13 24 21 19 48 -4 18 -2 44 3 57 7 20 4 29
-18 52 -24 27 -25 29 -8 41 24 18 63 8 96 -25z m-1049 21 c0 -5 -2 -10 -4 -10
-3 0 -8 5 -11 10 -3 6 -1 10 4 10 6 0 11 -4 11 -10z m28 -54 c-2 -16 -7 -23
-15 -18 -6 4 -9 19 -6 35 7 36 26 20 21 -17z m1736 35 c3 -5 -1 -31 -9 -57
-11 -39 -21 -52 -43 -60 -41 -15 -93 3 -110 39 -17 36 -41 35 -48 -3 -4 -16
-10 -30 -14 -30 -8 0 4 67 13 76 2 2 29 6 60 8 53 3 56 2 54 -18 -3 -32 37
-29 41 4 5 35 43 63 56 41z m-2059 -41 c-3 -5 -10 -10 -16 -10 -5 0 -9 5 -9
10 0 6 7 10 16 10 8 0 12 -4 9 -10z m262 -64 c-8 -19 -75 -38 -96 -26 -14 8
-13 9 4 15 11 4 36 13 55 20 39 14 45 13 37 -9z m149 -87 c12 -12 20 -27 18
-34 -3 -7 8 -18 25 -26 34 -15 40 -39 16 -59 -21 -17 -131 -19 -127 -2 3 16
-23 16 -48 0 -16 -10 -24 -10 -40 0 -12 7 -26 9 -33 5 -7 -4 -20 -6 -29 -5
-29 5 -88 -28 -88 -49 0 -11 5 -19 11 -19 22 0 -2 -18 -30 -22 -21 -3 -28 -1
-24 9 3 8 -2 13 -13 11 -48 -4 -51 0 -58 70 -8 80 -4 95 31 111 33 15 39 9 13
-14 -24 -22 -25 -31 -4 -80 13 -33 17 -36 30 -24 7 8 15 30 17 49 3 41 25 50
62 26 33 -21 52 -20 58 4 7 28 27 25 27 -5 0 -14 4 -25 9 -25 13 0 75 23 81
29 3 4 17 14 33 24 15 10 27 24 27 32 0 20 10 19 36 -6z m667 12 c14 -2 7 -22
-10 -28 -10 -4 -31 -16 -46 -27 -28 -21 -29 -21 -43 -2 -8 11 -14 25 -14 31 0
24 51 35 113 26z m-188 -18 c-17 -42 -17 -53 -1 -53 9 0 16 -3 16 -6 0 -8 -32
-33 -42 -34 -14 0 -9 98 5 103 23 10 29 7 22 -10z m-1192 -56 c23 -8 -4 -21
-61 -28 -69 -8 -78 -4 -58 27 9 13 16 30 16 37 0 11 11 9 45 -9 25 -12 51 -24
58 -27z m-313 13 c0 -5 -2 -10 -4 -10 -3 0 -8 5 -11 10 -3 6 -1 10 4 10 6 0
11 -4 11 -10z m-100 -40 c0 -6 -2 -10 -4 -10 -2 0 -11 -3 -19 -6 -15 -5 -31
21 -21 37 6 11 44 -7 44 -21z m557 9 c-1 -13 -13 -26 -36 -35 -39 -16 -60 -40
-61 -69 0 -11 -9 -26 -20 -33 -29 -18 -26 4 7 68 18 34 38 58 62 70 46 24 50
24 48 -1z m-527 -34 c-8 -9 -10 -28 -6 -48 l6 -32 -24 30 c-24 29 -24 30 -6
39 11 5 23 18 26 30 5 13 9 16 12 8 2 -7 -2 -19 -8 -27z m620 -17 c0 -10 -7
-18 -15 -18 -22 0 -18 -21 5 -27 11 -3 20 -10 20 -16 0 -6 7 -19 17 -29 28
-31 -10 -22 -46 11 -35 33 -41 74 -14 103 18 20 33 9 33 -24z m-466 20 c14 -6
35 -26 46 -45 16 -27 25 -33 40 -28 11 3 20 4 20 0 0 -15 -32 -65 -41 -65 -6
0 -8 -7 -5 -16 5 -12 2 -15 -10 -10 -8 3 -27 6 -41 6 -22 0 -24 3 -18 23 16
51 17 68 5 81 -21 27 -41 8 -34 -33 l7 -36 -25 23 c-13 12 -32 22 -41 22 -9 0
-17 5 -17 11 0 21 41 68 63 72 12 2 23 5 24 6 1 0 13 -4 27 -11z m1920 -32
c14 -19 26 -43 26 -54 0 -10 13 -30 29 -44 35 -32 33 -78 -4 -78 -27 0 -48
-22 -40 -41 3 -8 -4 -20 -15 -27 -17 -11 -20 -10 -20 7 0 26 -17 36 -35 21
-12 -10 -15 -9 -15 7 0 10 -6 28 -14 38 -17 23 -10 45 14 45 20 0 32 -23 24
-44 -8 -20 14 -30 32 -15 23 19 15 91 -13 103 -17 8 -20 16 -16 42 3 17 0 41
-6 53 -20 36 23 26 53 -13z m-764 14 c0 -5 -5 -10 -11 -10 -5 0 -7 5 -4 10 3
6 8 10 11 10 2 0 4 -4 4 -10z m-948 -42 c-18 -19 -22 -20 -22 -6 0 9 8 21 17
27 27 15 29 3 5 -21z m605 -6 c5 -20 0 -31 -26 -54 -17 -15 -35 -28 -39 -28
-4 0 -16 14 -25 30 -18 30 -18 31 5 58 30 36 75 33 85 -6z m1603 -2 c0 -11 -4
-20 -10 -20 -5 0 -10 9 -10 20 0 11 5 20 10 20 6 0 10 -9 10 -20z m-1143 -16
c2 -6 -10 -10 -29 -10 -18 0 -46 -3 -63 -7 -33 -8 -61 4 -50 22 9 15 137 10
142 -5z m-287 -2 c0 -5 -9 -17 -20 -27 -11 -10 -20 -31 -20 -46 0 -32 -18 -48
-31 -28 -15 24 -10 62 13 86 21 22 58 32 58 15z m-1067 -95 c-22 -23 -33 -10
-40 44 l-5 44 31 -35 c27 -32 28 -36 14 -53z m267 57 c0 -16 -16 -19 -25 -4
-8 13 4 32 16 25 5 -4 9 -13 9 -21z m268 -17 c27 -25 28 -47 4 -77 -19 -23
-42 -21 -42 4 0 7 -11 18 -25 24 -32 15 -34 53 -2 68 25 12 33 9 65 -19z m583
-57 l-10 -25 -1 25 c0 14 -5 32 -10 40 -6 10 -4 20 8 33 16 19 17 18 20 -15 2
-18 -1 -45 -7 -58z m1520 80 c31 -17 24 -54 -16 -75 -42 -23 -51 -16 -31 24 9
16 16 37 16 46 0 18 5 19 31 5z m-2233 -23 c3 -17 -16 -30 -60 -41 -31 -7 -39
10 -10 21 9 4 23 15 30 25 16 22 35 19 40 -5z m2145 3 c-3 -11 -10 -23 -16
-27 -5 -3 -8 -2 -5 3 3 5 8 17 11 27 9 24 16 22 10 -3z m-1923 3 c0 -10 -20
-40 -20 -31 0 3 -3 13 -6 22 -4 11 -1 16 10 16 9 0 16 -3 16 -7z m960 0 c0 -5
-4 -14 -9 -22 -8 -12 -12 -12 -25 -2 -9 7 -13 17 -10 22 6 11 44 12 44 2z
m-820 -27 c0 -21 -7 -26 -50 -35 -63 -14 -60 -14 -60 3 0 22 49 56 81 56 24 0
29 -4 29 -24z m-909 -29 c-8 -8 -11 -5 -11 9 0 27 14 41 18 19 2 -9 -1 -22 -7
-28z m1473 2 c-3 -5 -10 -7 -15 -3 -5 3 -7 10 -3 15 3 5 10 7 15 3 5 -3 7 -10
3 -15z m858 -6 c10 -9 18 -21 18 -27 0 -6 -5 -5 -12 2 -9 9 -17 7 -36 -10
l-23 -23 33 -27 c18 -14 30 -30 25 -34 -4 -4 -16 1 -28 11 -15 15 -24 17 -37
9 -25 -16 -26 -57 -2 -79 18 -16 28 -45 15 -45 -2 0 -20 11 -40 24 -20 14 -49
28 -66 31 -39 9 -47 31 -21 58 19 19 22 19 28 4 15 -40 55 -3 67 62 12 60 42
77 79 44z m-2019 -12 c4 -4 -2 -20 -13 -34 -28 -35 -97 -38 -126 -6 -19 21
-18 21 3 39 17 13 34 16 75 12 29 -2 57 -8 61 -11z m1380 12 c4 -3 0 -15 -10
-25 -13 -15 -14 -22 -4 -44 6 -15 10 -29 7 -31 -10 -10 -23 7 -36 47 -12 36
-12 43 1 51 17 10 33 11 42 2z m297 3 c0 -3 -4 -8 -10 -11 -5 -3 -10 -1 -10 4
0 6 5 11 10 11 6 0 10 -2 10 -4z m-1454 -36 c1 -32 -16 -40 -35 -16 -9 11 -8
18 4 30 23 23 30 20 31 -14z m84 -10 c-6 -11 -15 -20 -21 -20 -13 0 -22 27
-15 45 4 13 10 14 26 5 16 -9 18 -15 10 -30z m499 26 c14 -16 0 -85 -25 -123
-18 -29 -2 -39 30 -18 19 13 26 27 28 58 2 32 7 41 18 38 8 -2 23 -3 34 -3 10
1 29 -6 41 -14 18 -11 41 -14 90 -10 63 4 67 4 62 -15 -7 -28 22 -38 39 -14 9
12 10 23 5 28 -11 11 6 67 20 67 5 0 7 -11 3 -25 -3 -14 -1 -39 6 -55 11 -26
10 -33 -6 -51 -16 -18 -16 -21 -1 -36 15 -15 17 -15 34 6 12 15 24 20 35 16
15 -6 11 -15 -27 -60 -25 -29 -45 -60 -45 -69 0 -9 -4 -16 -10 -16 -5 0 -10
-7 -10 -16 0 -9 6 -14 13 -11 26 10 40 -9 30 -39 -9 -28 -99 -83 -136 -84 -24
0 -77 -37 -77 -54 0 -6 -9 -29 -20 -51 -11 -22 -20 -50 -20 -64 0 -27 35 -71
57 -71 17 0 16 -11 -3 -38 -18 -27 -11 -42 20 -42 13 0 29 -7 36 -15 11 -13
10 -18 -6 -30 -25 -19 -27 -18 -39 4 -65 122 -96 155 -139 147 -24 -5 -28 -4
-18 6 7 7 12 21 12 32 0 18 1 18 25 -4 l24 -23 11 29 c8 21 8 34 1 46 -17 28
-13 42 22 63 17 11 33 29 36 40 2 11 8 23 15 27 8 5 8 10 -1 19 -8 8 -14 6
-22 -10 -6 -11 -21 -26 -33 -32 -17 -9 -23 -8 -30 5 -5 9 -15 16 -22 16 -9 0
-15 19 -19 56 -3 30 -11 62 -18 71 -11 12 -10 17 4 24 22 13 22 39 0 39 -9 0
-24 7 -33 15 -19 17 -90 9 -90 -10 0 -26 -84 -28 -132 -4 -48 25 -63 76 -33
115 16 22 20 54 5 54 -9 0 -16 -7 -49 -49 l-18 -25 0 30 c0 16 -3 37 -7 46 -5
12 0 21 17 33 41 27 88 29 126 5 32 -20 32 -22 16 -40 -12 -13 -15 -27 -10
-49 5 -23 3 -31 -7 -31 -22 0 -41 -39 -27 -56 15 -18 24 -18 43 2 10 9 24 13
35 9 14 -4 23 0 31 15 7 14 7 20 0 20 -6 0 -16 11 -22 25 -15 33 2 55 27 35
10 -9 19 -10 26 -3 12 12 1 43 -16 43 -11 0 -55 61 -55 75 0 2 16 1 35 -2 23
-4 35 -2 35 6 0 16 65 14 79 -3z m201 4 c0 -5 -5 -10 -11 -10 -5 0 -7 5 -4 10
3 6 8 10 11 10 2 0 4 -4 4 -10z m520 -12 c0 -13 -23 -5 -28 10 -2 7 2 10 12 6
9 -3 16 -11 16 -16z m-1420 -18 c0 -16 -2 -30 -5 -30 -9 0 -26 41 -20 50 12
20 25 9 25 -20z m1332 -2 c-12 -12 -35 -1 -27 12 3 5 13 6 21 3 10 -4 12 -9 6
-15z m188 -3 c0 -23 -2 -25 -22 -14 -21 11 -21 12 -3 25 25 18 25 18 25 -11z
m644 -40 c-15 -20 -29 -34 -31 -31 -6 6 16 47 36 67 27 27 24 2 -5 -36z
m-1034 3 c0 -18 -4 -28 -12 -26 -18 6 -32 34 -25 51 10 27 37 8 37 -25z m480
17 c7 -9 19 -14 27 -11 7 3 13 -1 13 -10 0 -11 -5 -14 -17 -9 -10 4 -26 10
-35 12 -10 3 -18 12 -18 19 0 19 14 18 30 -1z m-1280 -63 c0 -26 -25 -5 -28
24 -2 28 -2 28 13 10 8 -11 15 -26 15 -34z m1158 26 c20 -20 14 -53 -14 -79
-20 -19 -36 -24 -76 -24 -42 0 -53 4 -74 28 -31 37 -30 44 6 39 24 -3 32 0 41
22 11 23 18 26 59 26 25 0 51 -5 58 -12z m-2081 -20 c8 -6 10 -20 7 -34 -4
-17 -1 -26 10 -30 20 -8 20 -33 0 -62 -18 -26 -10 -49 12 -31 11 9 14 8 14 -3
0 -17 -57 -78 -74 -79 -6 0 -22 -2 -36 -5 -34 -5 -59 11 -42 28 6 6 12 18 12
26 0 19 -41 5 -62 -22 l-18 -21 0 23 c0 16 8 26 28 33 34 12 84 67 80 88 -2 9
-13 17 -26 19 -18 3 -23 -3 -28 -26 -4 -19 -14 -32 -28 -36 -36 -10 -43 -7
-56 24 -7 17 -22 36 -33 41 -16 9 -17 13 -6 20 9 6 18 3 26 -8 11 -15 14 -13
19 14 6 28 12 33 62 45 58 14 119 12 139 -4z m711 -6 c17 -2 32 -8 32 -13 0
-13 -74 -11 -88 3 -18 18 -15 31 6 23 9 -5 32 -10 50 -13z m1488 4 c10 -8 17
-16 14 -19 -8 -8 -50 11 -50 23 0 14 13 13 36 -4z m321 -38 c-3 -7 -5 -2 -5
12 0 14 2 19 5 13 2 -7 2 -19 0 -25z m-2024 -18 c7 -18 21 -33 34 -36 39 -10
28 -74 -12 -66 -18 3 -25 12 -30 43 -4 24 -16 46 -31 58 -31 24 -30 31 2 31
20 0 29 -7 37 -30z m368 9 c12 -12 29 -19 40 -16 11 3 19 0 19 -8 0 -7 -9 -15
-20 -18 -44 -11 -13 -58 39 -59 42 -1 41 -27 -3 -70 -58 -57 -65 -61 -107 -54
-82 13 -155 70 -129 101 17 21 25 19 40 -9 28 -53 120 -59 143 -9 17 38 -17
63 -78 56 -39 -4 -45 -2 -45 15 0 16 62 92 75 92 3 0 14 -9 26 -21z m-508 4
c-13 -2 -33 -2 -45 0 -13 2 -3 4 22 4 25 0 35 -2 23 -4z m-238 -22 c3 -11 19
-22 36 -26 28 -6 29 -8 15 -24 -9 -10 -16 -23 -16 -29 0 -6 -13 -18 -30 -27
-36 -19 -46 -19 -31 -1 13 16 17 71 7 104 -4 13 -3 22 3 22 5 0 12 -9 16 -19z
m1809 -61 c6 0 17 -4 24 -9 20 -12 -3 -140 -30 -163 -25 -22 -76 -23 -106 -2
-12 8 -26 13 -31 10 -5 -4 -21 -2 -35 4 -36 13 -33 42 7 76 l32 27 5 -39 c5
-43 35 -60 46 -27 4 10 18 27 31 39 l25 21 -21 34 c-11 18 -27 36 -36 39 -13
5 -13 8 1 28 l16 24 30 -31 c17 -17 35 -31 42 -31z m-1664 35 c-7 -8 -17 -15
-22 -15 -6 0 -5 7 2 15 7 8 17 15 22 15 6 0 5 -7 -2 -15z m188 -13 c4 -28 -23
-62 -49 -62 -36 0 -49 12 -49 44 0 42 2 43 53 42 36 -1 42 -4 45 -24z m-143 8
c-3 -5 -11 -10 -16 -10 -6 0 -7 5 -4 10 3 6 11 10 16 10 6 0 7 -4 4 -10z
m1833 -10 c4 0 7 -26 7 -57 0 -60 -15 -80 -35 -44 -15 30 -34 27 -26 -4 5 -21
2 -27 -19 -35 -15 -6 -25 -17 -25 -29 0 -26 -17 -36 -35 -21 -21 17 -19 54 4
74 10 10 21 26 24 37 4 15 0 19 -19 19 -43 0 -26 26 26 39 27 7 53 17 56 23 3
5 13 7 21 4 8 -3 18 -6 21 -6z m-2406 -48 c-3 -30 3 -52 19 -78 32 -53 35 -99
7 -118 -12 -9 -31 -16 -41 -16 -18 0 -19 6 -12 99 l7 100 -37 15 c-20 9 -41
13 -46 10 -5 -3 -9 -1 -9 5 0 18 34 31 75 28 l40 -2 -3 -43z m2528 39 c0 -5
12 -11 28 -15 36 -8 57 -26 67 -56 6 -20 5 -22 -5 -13 -20 19 -72 -4 -68 -31
3 -18 11 -21 56 -24 59 -3 69 -21 27 -48 -33 -22 -66 -12 -89 26 -11 19 -23
29 -32 26 -9 -3 -14 1 -14 12 0 9 -9 42 -20 72 -11 30 -20 56 -20 57 0 2 16 3
35 3 19 0 35 -4 35 -9z m351 -32 c44 -44 44 -53 1 -54 -27 0 -29 -5 -17 -36 7
-19 -36 -42 -62 -32 -32 12 -46 53 -19 53 19 0 46 45 49 80 1 17 3 30 5 30 1
0 20 -18 43 -41z m-2951 -34 c7 -8 10 -22 6 -30 -5 -14 -10 -13 -36 6 -22 17
-27 25 -18 31 19 12 34 10 48 -7z m650 -25 c5 -10 10 -35 10 -54 0 -33 -3 -36
-27 -36 -16 0 -47 -9 -70 -20 -39 -17 -43 -22 -43 -55 0 -28 -4 -35 -19 -35
-11 0 -26 -6 -33 -13 -7 -7 -25 -20 -40 -30 -27 -17 -39 -57 -18 -57 6 0 10
-4 10 -9 0 -13 -41 -21 -57 -12 -12 6 -12 10 1 20 18 15 21 47 6 56 -18 11
-11 21 24 33 61 22 125 117 98 144 -13 13 -52 -7 -52 -27 0 -16 -57 -75 -72
-75 -4 0 -6 12 -2 28 9 41 34 92 45 92 5 0 34 16 64 37 85 55 150 61 175 13z
m745 9 c-3 -4 -14 -9 -25 -12 -14 -4 -20 0 -20 12 0 10 3 20 6 24 8 8 44 -15
39 -24z m-620 -19 c3 -5 -1 -10 -10 -10 -9 0 -13 5 -10 10 3 6 8 10 10 10 2 0
7 -4 10 -10z m829 -10 c5 -5 -1 -28 -13 -53 -13 -27 -20 -55 -16 -69 6 -26 -1
-38 -33 -56 -18 -10 -27 -10 -38 -1 -19 15 -18 25 6 47 17 15 19 29 17 86 l-3
67 36 -6 c19 -4 39 -10 44 -15z m-644 -31 c9 -16 8 -24 -5 -39 -9 -10 -14 -23
-11 -28 13 -22 -71 -31 -92 -10 -16 16 -15 28 1 28 8 0 31 16 53 35 21 19 40
34 41 35 1 0 7 -9 13 -21z m490 -4 c0 -13 7 -28 16 -33 14 -8 11 -11 -16 -20
-18 -7 -36 -10 -40 -7 -4 3 -19 -5 -34 -16 -14 -11 -29 -18 -34 -15 -12 7 -2
74 14 87 12 10 55 24 87 28 4 1 7 -10 7 -24z m1058 -22 c-2 -20 -10 -29 -33
-35 -44 -11 -51 5 -15 36 40 33 52 33 48 -1z m-2303 7 c3 -5 2 -10 -4 -10 -5
0 -13 5 -16 10 -3 6 -2 10 4 10 5 0 13 -4 16 -10z m77 -55 c0 -25 1 -50 2 -56
1 -13 -4 -16 -82 -50 -55 -24 -72 -42 -72 -78 0 -12 -7 -21 -15 -21 -10 0 -15
10 -15 34 0 27 9 42 50 80 40 38 54 45 65 36 10 -8 15 -8 21 1 4 7 0 17 -10
24 -15 12 -15 15 1 44 10 17 26 31 36 31 13 0 17 -9 19 -45z m2579 -23 c-5
-10 -30 -23 -55 -29 -47 -11 -57 -5 -31 17 8 7 15 25 15 41 l0 29 40 -20 c34
-17 39 -24 31 -38z m-1727 27 c16 -5 42 -9 57 -9 30 0 33 -8 23 -48 l-7 -23
-15 22 c-14 20 -21 21 -80 16 -35 -4 -71 -12 -78 -18 -23 -19 -34 9 -20 48 11
33 44 36 120 12z m914 3 l23 -18 -38 -57 c-35 -53 -40 -57 -68 -52 -56 12 -65
16 -65 35 0 10 -2 25 -5 33 -4 9 8 19 39 31 24 9 50 24 56 32 16 18 30 18 58
-4z m-1268 -2 c0 -5 -4 -10 -9 -10 -6 0 -13 5 -16 10 -3 6 1 10 9 10 9 0 16
-4 16 -10z m1863 -42 c12 0 30 -1 40 0 23 2 22 -6 -5 -29 -31 -25 -59 -23 -86
6 -17 17 -22 31 -17 46 l7 21 19 -21 c11 -12 30 -22 42 -23z m-323 27 c0 -2
-13 -11 -30 -20 -17 -9 -30 -24 -30 -34 0 -10 -9 -30 -20 -44 -13 -17 -20 -40
-20 -71 0 -53 -24 -76 -77 -76 -31 0 -33 2 -27 25 11 44 9 60 -6 61 -8 1 -21
2 -29 3 -10 1 -11 4 -2 15 9 11 9 19 0 34 -10 16 -9 25 10 51 24 33 41 40 41
16 0 -8 -4 -15 -9 -15 -18 0 -22 -52 -6 -71 19 -20 45 -15 45 10 0 26 73 101
98 101 11 0 24 5 27 10 6 10 35 14 35 5z m-2236 -66 c-12 -13 -20 -16 -22 -9
-3 7 2 16 9 21 25 16 32 9 13 -12z m1366 9 c0 -6 7 -20 17 -30 25 -28 8 -33
-32 -8 -29 18 -33 25 -24 36 14 17 39 18 39 2z m1123 -61 c-3 -5 -11 -6 -18
-3 -8 3 -29 1 -46 -4 -47 -14 -161 8 -157 29 3 12 21 17 81 21 42 4 82 11 89
18 9 9 17 4 34 -21 12 -18 20 -36 17 -40z m-1656 47 c10 -28 -13 -37 -25 -9
-10 21 -9 25 4 25 8 0 17 -7 21 -16z m53 6 c0 -5 -4 -10 -9 -10 -6 0 -13 5
-16 10 -3 6 1 10 9 10 9 0 16 -4 16 -10z m194 -19 c16 -18 16 -20 -6 -44 -17
-18 -37 -26 -75 -31 l-53 -5 0 34 c0 28 4 35 20 35 17 0 19 -5 14 -25 -4 -17
-2 -25 7 -25 21 0 49 32 49 57 0 28 21 30 44 4z m1600 7 c3 5 19 7 36 4 28 -4
29 -6 13 -17 -10 -8 -18 -19 -18 -26 0 -19 -70 -70 -87 -64 -9 3 -20 16 -26
28 -8 18 -5 27 21 54 22 24 34 30 43 22 7 -5 15 -6 18 -1z m-2079 -26 c-8 -8
-25 10 -19 20 4 6 9 5 15 -3 4 -7 6 -15 4 -17z m284 -26 c-9 -8 -10 -7 -5 7 3
10 7 24 7 30 1 7 3 4 6 -7 3 -10 -1 -23 -8 -30z m919 25 c12 -6 22 -18 22 -26
0 -9 9 -23 20 -32 26 -23 25 -37 -5 -57 -42 -27 -57 -21 -53 22 2 34 1 37 -22
36 -14 0 -31 -3 -39 -5 -21 -6 -25 28 -8 54 16 25 48 28 85 8z m-1306 -13 c21
1 38 -4 41 -11 4 -12 -10 -77 -25 -117 -18 -44 -17 -65 4 -87 l21 -23 -44 -2
c-24 -1 -56 -2 -70 -2 -41 -1 -80 -27 -77 -50 2 -17 10 -21 38 -19 20 1 49 9
65 17 34 18 46 5 21 -23 -9 -10 -16 -25 -16 -33 0 -18 -26 -31 -41 -22 -15 9
-59 -5 -59 -18 0 -6 7 -19 15 -29 26 -27 9 -65 -41 -94 -56 -33 -82 -29 -106
13 l-18 32 35 37 c19 21 35 43 35 50 0 6 8 16 18 22 12 7 14 13 6 21 -20 21
-111 -52 -134 -107 -8 -18 -14 -21 -32 -14 -18 6 -23 16 -23 42 -1 64 -15 98
-39 95 -36 -5 -57 -18 -52 -32 3 -7 1 -16 -4 -19 -15 -9 -40 7 -40 26 0 12 -7
19 -19 19 -12 0 -23 11 -30 31 -18 53 -14 67 30 89 37 20 42 20 58 6 27 -25
38 -19 46 22 4 20 12 43 18 51 7 8 12 28 12 45 0 28 6 34 57 59 47 24 60 27
78 17 25 -14 14 -34 -25 -44 -16 -4 -25 -14 -25 -26 0 -25 17 -35 36 -19 11 9
18 8 32 -5 10 -9 22 -13 25 -10 4 4 14 1 22 -6 13 -11 20 -11 41 0 27 15 40 8
46 -25 2 -14 10 -19 24 -17 15 2 23 -4 27 -18 6 -24 45 -28 53 -5 7 18 -3 66
-14 62 -14 -4 -82 43 -82 58 0 8 -4 15 -10 15 -20 0 -9 19 23 38 17 11 39 18
47 14 8 -3 31 -5 52 -4z m1044 -9 c3 -6 1 -16 -5 -22 -6 -6 -11 -20 -11 -32 0
-22 -26 -65 -40 -65 -5 0 -11 14 -15 31 -4 18 -15 33 -25 36 -17 5 -17 6 -2
25 28 33 84 49 98 27z m-808 -37 c2 -7 -2 -10 -12 -6 -9 3 -16 11 -16 16 0 13
23 5 28 -10z m140 -11 c10 -6 6 -14 -19 -34 -37 -29 -49 -27 -49 8 0 17 7 25
23 28 12 2 24 5 27 5 3 1 11 -2 18 -7z m1436 0 c17 -7 23 -15 20 -29 -3 -10 1
-24 10 -31 12 -10 20 -9 41 5 14 9 30 24 35 34 11 21 54 19 58 -4 7 -33 -87
-111 -116 -97 -10 5 -30 15 -47 22 -44 20 -105 60 -105 70 0 10 49 38 67 39 6
0 23 -4 37 -9z m-1120 -10 c3 -4 -3 -16 -14 -26 -19 -17 -20 -17 -20 2 0 29
22 45 34 24z m131 -4 c12 -10 14 -16 7 -21 -20 -12 -13 -43 13 -60 50 -33 22
-76 -50 -76 -39 0 -67 -12 -99 -41 -27 -25 -40 -24 -32 4 3 12 6 31 6 42 0 13
12 26 33 35 21 10 33 23 35 40 2 14 8 29 13 35 13 13 11 42 -3 48 -7 3 3 6 23
6 19 1 43 -5 54 -12z m-271 -54 c4 -29 1 -44 -15 -66 -19 -26 -20 -32 -7 -74
8 -28 20 -48 30 -51 23 -6 13 -22 -13 -22 -12 0 -27 12 -37 30 -9 16 -29 34
-44 39 -21 7 -28 19 -35 53 -7 31 -5 47 4 56 16 17 17 42 1 42 -18 0 3 17 27
22 11 2 34 5 51 6 29 2 32 0 38 -35z m51 -13 c-3 -10 -1 -21 5 -25 24 -15 0
-135 -27 -135 -14 0 -15 10 -9 72 8 89 16 119 27 112 6 -3 7 -14 4 -24z m461
16 c3 -8 18 -16 35 -20 40 -8 36 -28 -13 -70 -44 -38 -80 -45 -110 -22 -20 14
-14 56 8 56 8 0 24 16 36 35 25 38 36 43 44 21z m378 -27 c-4 -6 -27 -20 -51
-31 -42 -18 -47 -19 -61 -4 -14 13 -14 16 -2 16 8 0 35 13 60 29 36 23 47 26
53 15 4 -8 5 -19 1 -25z m-1179 -9 c-4 -6 -1 -17 5 -25 10 -12 10 -18 -1 -31
-11 -14 -10 -19 11 -36 17 -14 24 -28 22 -48 -2 -19 2 -30 15 -34 17 -7 17 -8
1 -17 -27 -15 -60 10 -53 39 5 19 3 23 -12 18 -16 -5 -18 1 -18 57 0 58 9 86
28 87 5 0 5 -5 2 -10z m1500 -31 c42 -23 84 -39 97 -37 14 2 23 -2 22 -9 -3
-36 -5 -41 -20 -47 -9 -4 -23 -1 -30 5 -9 8 -18 8 -26 2 -7 -6 -35 -16 -61
-23 -38 -10 -56 -10 -87 -1 -42 12 -51 25 -25 35 8 3 15 14 15 24 0 26 11 34
27 20 10 -8 17 -8 24 -1 16 16 1 53 -22 53 -11 0 -17 5 -14 10 10 16 22 12
100 -31z m-2598 20 c8 -8 23 -9 50 -2 43 11 98 0 126 -24 24 -23 21 -72 -8
-116 -24 -34 -62 -53 -52 -24 2 6 -2 25 -10 40 -14 27 -13 28 5 23 14 -5 24 1
36 19 9 14 14 30 11 35 -10 17 -43 11 -58 -10 -12 -18 -16 -18 -26 -6 -11 13
-93 33 -113 28 -11 -3 -10 5 4 28 15 23 20 24 35 9z m1218 -29 c-3 -5 -1 -19
5 -31 19 -35 -3 -43 -35 -13 -28 25 -28 27 -10 40 22 16 49 19 40 4z m1200 -7
c0 -16 -72 -53 -102 -53 -12 0 -27 9 -33 19 -8 16 -6 23 12 36 28 19 123 17
123 -2z m-396 -45 c-1 -29 1 -63 5 -76 9 -28 44 -43 70 -30 26 14 55 -15 40
-40 -17 -26 -44 -27 -51 -2 -3 13 -11 19 -19 16 -18 -7 -81 30 -94 54 -6 10
-10 29 -10 41 0 24 39 89 53 89 5 0 7 -24 6 -52z m832 -1 c-30 -41 -101 -88
-101 -67 0 6 4 10 9 10 5 0 33 25 62 55 29 30 55 53 57 50 2 -2 -10 -24 -27
-48z m-1828 -23 c-3 -8 -13 -19 -23 -24 -13 -7 -20 -2 -33 26 -22 46 -22 57 2
45 14 -8 22 -7 32 5 12 14 14 13 21 -11 3 -15 4 -33 1 -41z m1237 6 c0 -33 -4
-42 -22 -49 -13 -5 -31 -19 -41 -30 -14 -18 -21 -20 -38 -10 -16 8 -19 16 -14
32 4 12 9 34 12 49 4 20 13 29 42 36 59 16 61 15 61 -28z m-150 -30 c0 -5 -4
-10 -10 -10 -5 0 -10 5 -10 10 0 6 5 10 10 10 6 0 10 -4 10 -10z m-810 -60
c18 0 11 -18 -10 -25 -24 -7 -26 -37 -5 -55 8 -7 15 -17 15 -22 0 -6 8 -22 19
-36 31 -44 15 -132 -28 -159 -20 -12 -65 -1 -126 31 -36 19 -84 21 -120 4 -39
-18 -34 -85 8 -101 21 -8 13 -30 -22 -61 -20 -18 -22 -18 -39 -3 -10 10 -26
17 -34 17 -9 0 -18 9 -21 21 -6 23 -25 22 -41 -3 -15 -24 9 -47 55 -54 43 -7
49 -22 19 -49 -23 -21 -63 -23 -86 -4 -15 12 -15 23 2 63 6 16 4 18 -17 14
-29 -5 -57 17 -34 26 9 3 15 19 15 41 0 33 -2 36 -21 30 -16 -5 -19 -4 -14 5
4 7 8 25 7 41 -1 36 31 67 53 49 8 -7 24 -10 35 -7 22 6 26 -3 8 -21 -8 -8 -8
-15 2 -26 11 -14 15 -14 41 1 37 22 45 43 19 50 -30 8 -6 33 31 33 36 0 40 30
7 45 -18 8 -22 17 -20 43 2 18 -4 46 -12 64 -20 39 -21 37 9 48 21 8 32 6 55
-12 26 -19 28 -23 13 -33 -11 -8 -14 -20 -9 -38 7 -29 30 -36 40 -12 7 18 52
11 76 -12 13 -13 12 -17 -9 -34 -14 -11 -33 -18 -43 -15 -12 2 -18 0 -15 -7 2
-6 21 -16 41 -21 35 -8 40 -6 62 19 26 30 30 55 14 86 -9 16 -7 19 15 19 33 0
32 17 -4 38 -28 16 -28 17 -13 42 26 39 35 41 54 9 10 -16 22 -29 28 -29z
m1128 35 c20 -14 41 -25 47 -25 13 -1 59 -39 53 -45 -2 -3 -13 -5 -24 -6 -46
-5 -63 2 -76 29 -11 21 -20 26 -42 24 -15 -2 -34 2 -41 8 -10 8 -18 1 -33 -29
-20 -37 -20 -42 -5 -56 9 -9 24 -14 34 -12 10 3 20 -2 23 -10 4 -11 13 -13 29
-8 25 8 73 7 100 -1 18 -6 17 -7 -3 -29 -29 -31 -111 -44 -207 -32 -55 7 -82
70 -42 95 13 8 18 19 15 29 -4 9 3 31 16 48 17 26 29 33 56 33 18 0 36 3 39 6
11 10 23 7 61 -19z m-805 -2 c-13 -9 -23 -26 -23 -39 0 -19 -5 -24 -25 -24
-30 0 -31 8 -7 49 13 24 24 31 47 30 l30 0 -22 -16z m-1400 -70 c-27 -37 -43
-90 -40 -132 l2 -34 -75 -17 c-41 -9 -85 -20 -97 -24 -21 -7 -23 -4 -24 31 0
21 -2 49 -4 63 -2 21 3 29 26 39 45 20 73 11 79 -24 7 -39 36 -45 51 -11 16
34 -2 76 -31 76 -11 0 -20 5 -20 10 0 6 13 10 29 10 19 0 39 11 62 35 29 29
36 32 48 21 12 -12 11 -19 -6 -43z m187 37 c0 -5 -2 -10 -4 -10 -3 0 -8 5 -11
10 -3 6 -1 10 4 10 6 0 11 -4 11 -10z m1274 -62 c-8 -60 -22 -87 -35 -66 -5 7
-6 29 -2 48 4 19 6 43 5 53 0 11 6 17 19 17 18 0 19 -5 13 -52z m-869 12 c-3
-5 -11 -10 -16 -10 -6 0 -7 5 -4 10 3 6 11 10 16 10 6 0 7 -4 4 -10z m-499
-15 c16 -8 37 -15 47 -15 9 0 17 -6 17 -14 0 -28 30 -46 76 -46 51 0 58 -16
14 -31 -33 -12 -38 -30 -15 -49 17 -14 19 -47 6 -69 -12 -19 2 -47 27 -53 47
-13 88 68 45 87 -18 7 -38 53 -28 63 1 2 19 -7 39 -19 28 -16 47 -20 77 -16
44 6 123 52 114 67 -7 11 35 23 62 18 13 -3 4 -11 -31 -28 -64 -32 -76 -52
-52 -79 11 -12 27 -21 37 -21 32 0 31 -20 -4 -55 -36 -36 -67 -46 -67 -20 0 8
-9 19 -21 25 -16 9 -18 14 -9 26 19 22 4 46 -27 42 -24 -3 -28 -8 -28 -33 0
-16 4 -36 9 -43 5 -7 7 -13 5 -15 -51 -29 -73 -37 -101 -36 -86 3 -110 31
-109 130 0 57 -1 59 -24 53 -22 -5 -24 -2 -30 43 -4 26 -8 54 -10 61 -8 23
-32 12 -60 -28 -42 -61 -65 -28 -25 38 22 36 27 38 66 17z m1274 5 c0 -5 -4
-10 -10 -10 -5 0 -10 5 -10 10 0 6 5 10 10 10 6 0 10 -4 10 -10z m232 -14 c3
-14 1 -31 -3 -38 -5 -7 -9 -23 -9 -35 0 -13 -5 -23 -10 -23 -7 0 -7 -7 0 -21
13 -24 15 -21 -32 -47 -37 -21 -56 -19 -37 4 7 9 7 19 0 33 -15 28 -14 41 5
41 11 0 13 6 9 19 -3 11 1 36 9 55 11 27 21 36 39 36 18 0 26 -6 29 -24z m198
-33 c0 -13 -4 -23 -10 -23 -5 0 -10 -6 -10 -14 0 -22 -66 -56 -105 -54 -26 1
-34 5 -31 15 3 7 -2 13 -12 14 -12 0 -10 4 8 12 47 22 90 58 90 76 0 28 11 32
41 14 19 -11 29 -26 29 -40z m-639 -56 c-8 -8 -11 -3 -11 19 1 25 2 27 11 11
8 -14 8 -22 0 -30z m148 4 c10 -8 16 -38 17 -80 l3 -68 -47 -16 c-52 -19 -66
-21 -58 -9 2 4 -2 32 -10 62 -11 43 -12 61 -3 83 19 46 66 59 98 28z m111 -1
c0 -5 -4 -10 -9 -10 -6 0 -13 5 -16 10 -3 6 1 10 9 10 9 0 16 -4 16 -10z
m-1325 -45 c33 -34 34 -70 3 -61 -13 3 -27 6 -33 6 -5 0 -19 7 -29 15 -19 15
-19 15 4 40 13 14 25 25 26 25 2 0 15 -11 29 -25z m630 15 c-3 -5 -13 -10 -21
-10 -8 0 -12 5 -9 10 3 6 13 10 21 10 8 0 12 -4 9 -10z m975 -92 c12 -26 15
-47 10 -52 -11 -11 17 -35 43 -36 14 0 17 -9 17 -45 0 -47 -6 -53 -67 -75 -25
-9 -26 -8 -10 4 12 9 16 25 15 50 -3 30 -7 36 -23 34 -14 -2 -24 7 -37 33 -9
20 -29 46 -43 57 -34 27 -32 37 13 55 55 23 61 21 82 -25z m-516 -16 c-6 -9
-24 -18 -40 -20 -38 -5 -50 -17 -34 -37 7 -8 10 -24 7 -35 -7 -28 19 -47 44
-31 15 9 29 9 52 2 18 -6 46 -14 62 -19 44 -13 47 -64 5 -116 -16 -21 -30 -43
-30 -49 0 -6 -9 -1 -21 11 -16 18 -20 33 -17 75 3 49 2 52 -23 55 -18 2 -29
-4 -39 -23 -7 -14 -19 -25 -26 -25 -17 0 -30 -43 -15 -48 8 -3 8 -9 0 -23 -16
-30 -6 -44 32 -44 31 0 34 -3 37 -33 4 -37 -12 -62 -38 -62 -13 0 -17 6 -13
18 8 30 -18 44 -52 26 -15 -8 -30 -12 -32 -10 -2 2 6 26 18 53 12 26 21 63 21
82 -2 36 -35 81 -60 81 -12 0 -12 4 3 19 12 15 16 32 13 65 -2 30 1 46 8 46 6
0 24 10 39 22 67 53 127 65 99 20z m-235 -42 c35 -33 42 -45 37 -65 -5 -20
-44 -54 -49 -43 -24 48 -36 63 -50 62 -12 -1 -17 6 -17 23 0 13 -5 33 -10 44
-9 17 -7 19 18 19 19 0 42 -13 71 -40z m384 -11 c-7 -27 -23 -32 -64 -21 l-34
10 35 15 c50 23 69 22 63 -4z m161 -11 c22 -44 12 -94 -20 -101 -43 -8 -73 4
-82 31 -11 33 11 75 47 90 38 15 38 15 55 -20z m-926 -25 c-25 -51 -34 -62
-57 -66 -26 -6 -67 21 -46 29 6 3 28 13 50 23 44 21 59 25 53 14z m1070 -33
c-15 -24 -22 -19 -13 9 3 12 11 19 16 16 5 -4 3 -14 -3 -25z m-756 -35 c-3
-17 -16 -31 -41 -42 -20 -9 -38 -18 -42 -20 -3 -2 -3 12 -1 32 3 26 9 35 23
35 10 0 21 5 24 10 3 6 14 10 24 10 14 0 17 -6 13 -25z m53 -15 c3 -5 -1 -10
-10 -10 -9 0 -13 5 -10 10 3 6 8 10 10 10 2 0 7 -4 10 -10z m530 -30 c3 -5 15
-10 26 -10 12 0 19 -7 19 -20 0 -20 32 -44 44 -33 15 15 4 -17 -13 -38 -21
-26 -19 -27 -36 27 -3 10 -14 14 -32 12 -24 -3 -29 -8 -33 -43 -5 -36 -8 -40
-48 -52 -32 -9 -49 -9 -68 -1 -30 14 -30 17 1 78 14 27 25 56 25 65 0 8 4 15
10 15 5 0 7 -13 4 -29 -4 -21 -2 -30 11 -35 22 -8 30 -3 49 39 17 35 30 43 41
25z m200 0 c-3 -5 -11 -10 -16 -10 -6 0 -7 5 -4 10 3 6 11 10 16 10 6 0 7 -4
4 -10z m-632 -65 c-1 -15 -12 -38 -23 -50 -20 -21 -24 -22 -48 -9 -15 8 -35
14 -44 14 -24 0 -22 9 6 31 14 11 28 28 31 39 14 44 82 22 78 -25z m143 30
c-25 -19 -36 -19 -36 0 0 10 10 15 28 15 26 -1 26 -1 8 -15z m-1401 -34 c-3
-6 -18 -11 -33 -11 l-27 1 30 13 c32 14 41 13 30 -3z m1872 -1 c6 -22 23 -26
40 -9 8 8 16 4 28 -15 14 -21 15 -31 5 -60 -14 -45 -63 -86 -100 -86 l-29 0
19 33 c18 30 21 79 7 94 -9 8 -9 48 0 56 12 13 25 7 30 -13z m-1765 -50 c26 0
27 -2 23 -39 -4 -48 -14 -68 -53 -105 -24 -22 -37 -27 -56 -22 -28 7 -43 -8
-27 -28 16 -19 3 -26 -26 -15 -13 5 -37 9 -52 9 -21 0 -27 4 -26 20 2 29 12
35 63 35 l47 0 2 53 c1 28 -3 52 -8 52 -17 0 -9 15 19 33 15 9 36 15 47 12 11
-3 32 -5 47 -5z m-182 -36 c0 -12 -42 -64 -51 -64 -18 0 -9 38 14 53 23 17 37
21 37 11z m1850 -37 c-24 -41 -44 -51 -71 -37 -27 15 -24 29 9 41 15 6 38 17
52 24 14 8 26 12 28 11 1 -2 -7 -19 -18 -39z m-1540 8 c18 -22 6 -42 -29 -47
-35 -5 -38 3 -13 37 20 29 25 30 42 10z m1250 -10 c0 -3 -10 -19 -21 -35 -12
-16 -19 -35 -16 -44 4 -9 -1 -17 -14 -21 -12 -4 -19 -15 -19 -31 0 -27 -15
-32 -24 -8 -4 9 8 37 29 68 19 29 35 58 35 65 0 6 7 11 15 11 8 0 15 -2 15 -5z
m-230 -36 c0 -10 -4 -19 -10 -19 -5 0 -10 12 -10 26 0 14 4 23 10 19 6 -3 10
-15 10 -26z m385 -20 c0 -19 4 -45 9 -58 11 -33 -45 -91 -88 -91 -51 0 -56 9
-53 88 2 39 6 74 10 78 3 4 14 -7 24 -25 19 -33 50 -41 60 -15 3 8 1 20 -6 27
-16 16 -14 25 7 30 30 8 37 1 37 -34z m-645 -24 l23 -25 -35 0 c-20 0 -44 -3
-54 -7 -14 -5 -13 0 6 25 13 18 27 32 30 32 4 0 17 -11 30 -25z m-716 -20 c12
-18 25 -25 48 -25 l31 0 -6 -67 c-7 -75 -25 -133 -42 -133 -6 0 -22 12 -34 26
-20 23 -21 27 -6 38 26 19 36 84 19 118 -16 30 -20 32 -75 29 -48 -3 -59 16
-17 28 52 15 65 13 82 -14z m215 1 c11 -14 6 -62 -8 -70 -3 -2 -23 -7 -44 -11
-34 -7 -37 -5 -37 15 0 22 45 76 66 79 6 0 17 -5 23 -13z m-319 -61 c-6 -8
-20 -17 -31 -20 -10 -4 -19 -12 -19 -20 0 -17 -69 -30 -84 -15 -8 8 -7 14 5
20 9 5 27 18 40 29 30 25 109 30 89 6z m64 -1 c20 -8 21 -54 2 -54 -15 0 -30
16 -39 43 -7 18 8 22 37 11z m303 -83 c18 -14 33 -29 33 -33 0 -9 -50 6 -79
23 -19 11 -25 11 -28 2 -3 -7 -13 -13 -24 -13 -13 0 -19 -7 -19 -22 0 -34 -33
-81 -47 -67 -11 11 0 55 18 69 3 3 8 13 12 23 4 9 20 20 36 23 16 4 32 13 35
21 6 16 14 13 63 -26z m-372 -45 c2 -11 6 -32 7 -45 5 -41 24 -34 34 11 l9 43
28 -40 27 -40 -32 -9 c-18 -4 -61 -8 -95 -7 -56 1 -64 -1 -79 -24 -9 -14 -14
-31 -11 -39 8 -20 -13 -35 -53 -38 -44 -4 -50 19 -15 60 14 16 25 37 25 46 0
9 9 33 20 53 31 58 124 78 135 29z m1289 -12 c17 -16 20 -33 10 -58 -7 -19
-26 -22 -22 -3 4 23 -14 58 -35 67 -21 8 -20 9 5 9 15 1 34 -6 42 -15z m-844
-4 c0 -5 -2 -10 -4 -10 -3 0 -8 5 -11 10 -3 6 -1 10 4 10 6 0 11 -4 11 -10z
m-76 -16 c16 -6 23 -34 8 -34 -4 0 -19 -11 -34 -25 -24 -22 -30 -24 -53 -13
-32 14 -29 42 5 46 14 2 29 10 33 18 9 15 17 17 41 8z m860 -7 c12 -9 17 -23
14 -47 -3 -39 -18 -46 -74 -35 -38 7 -44 20 -14 30 30 10 26 45 -5 45 -14 0
-25 5 -25 10 0 15 83 12 104 -3z m-741 -67 c10 -9 48 -24 83 -34 70 -20 82
-36 62 -82 -17 -40 -38 -64 -57 -64 -9 0 -37 -11 -63 -25 -52 -27 -103 -33
-111 -12 -5 14 2 88 9 96 2 2 10 -1 17 -7 19 -16 28 -4 21 27 l-6 26 20 -25
c17 -20 22 -22 36 -11 20 17 21 40 2 47 -8 3 -19 19 -25 35 -5 16 -15 29 -20
29 -6 0 -11 12 -11 28 1 25 1 26 12 7 6 -11 20 -27 31 -35z m-267 -45 c17 -34
25 -40 57 -43 33 -3 42 -11 38 -34 0 -4 6 -5 13 -2 16 6 29 32 21 43 -6 11 43
56 51 48 4 -4 1 -13 -6 -22 -7 -8 -10 -25 -7 -38 5 -17 -1 -27 -24 -42 -54
-36 -45 -93 21 -133 32 -20 29 -31 -12 -49 -26 -12 -27 -11 -33 30 -4 23 -11
45 -16 48 -12 7 -14 49 -4 73 7 16 5 18 -9 13 -10 -4 -27 -1 -37 7 -14 10 -30
11 -56 5 -21 -4 -41 -6 -45 -3 -4 3 -11 -2 -14 -10 -4 -10 -18 -16 -39 -16
-26 0 -34 5 -37 24 -3 15 2 27 14 35 15 9 18 8 18 -10 0 -15 5 -20 22 -17 32
4 49 65 24 84 -12 8 -16 19 -11 34 11 34 47 21 71 -25z m737 13 c7 -42 -21
-68 -70 -68 -19 0 -44 -5 -56 -10 -12 -6 7 16 42 50 35 33 67 60 71 60 4 0 10
-15 13 -32z m-873 3 c0 -5 3 -16 6 -25 7 -18 -47 -49 -70 -40 -26 10 -18 29
24 57 27 19 40 21 40 8z m665 -23 c29 -13 31 -21 10 -38 -19 -16 -65 1 -65 24
0 12 5 17 27 25 1 1 14 -4 28 -11z m-795 -14 c0 -15 -67 -50 -78 -39 -7 7 47
46 76 54 1 1 2 -6 2 -15z m1249 -40 c-21 -22 -69 -34 -69 -16 1 18 37 51 60
54 34 4 37 -8 9 -38z m-489 -30 c0 -8 -51 -57 -55 -52 -3 3 2 19 10 36 10 20
21 29 30 25 8 -3 15 -7 15 -9z m115 -24 c8 0 25 5 39 11 37 17 83 -5 101 -47
15 -37 10 -74 -11 -74 -8 0 -23 -9 -34 -20 -29 -29 -71 -26 -105 10 -26 27
-27 31 -13 47 11 12 14 28 11 46 -6 31 -21 36 -30 10 -13 -38 -83 -72 -83 -40
1 21 48 67 69 67 11 0 23 6 28 13 5 9 8 7 11 -5 2 -10 10 -18 17 -18z m-816
14 c39 -8 40 -31 2 -68 -28 -27 -28 -27 -34 -5 -5 18 -10 20 -29 14 -30 -11
-105 -12 -115 -2 -17 18 15 42 65 47 28 3 54 9 58 13 9 9 13 9 53 1z m1074
-19 c47 -15 64 -17 88 -8 16 6 29 7 29 2 0 -13 -35 -29 -82 -35 -36 -5 -46 -2
-62 15 -11 12 -25 21 -31 21 -7 0 -16 7 -19 16 -7 17 -7 17 77 -11z m-833 -34
c0 -24 -59 -48 -72 -29 -13 21 -10 24 30 35 20 6 38 11 40 12 1 0 2 -8 2 -18z
m370 -41 c0 -5 -7 -10 -16 -10 -8 0 -12 5 -9 10 3 6 10 10 16 10 5 0 9 -4 9
-10z m-69 -73 l-31 -31 -45 22 c-25 12 -45 26 -45 31 0 10 58 23 70 16 4 -3
23 1 41 9 30 13 34 13 37 -1 2 -9 -10 -29 -27 -46z m230 21 c21 -25 42 -58 36
-58 -1 0 -21 18 -42 40 -21 22 -33 40 -26 40 7 0 21 -10 32 -22z m-69 -29 c33
-15 61 -57 61 -90 0 -86 -173 -158 -230 -96 -11 12 -24 32 -28 45 -7 23 -6 23
24 8 21 -12 37 -13 54 -7 29 11 35 24 29 63 -5 35 -15 36 -31 2 -14 -31 -37
-26 -33 7 4 36 27 56 46 39 13 -10 19 -10 34 1 9 8 21 20 25 27 10 15 19 15
49 1z m-422 -21 c0 -10 5 -18 12 -18 6 0 4 -6 -7 -13 -17 -13 -17 -17 -3 -58
11 -33 12 -49 4 -63 -8 -14 -8 -20 2 -23 19 -7 14 -31 -9 -44 -46 -24 -141 13
-158 62 -11 31 -9 34 34 75 41 40 50 57 46 91 -1 8 12 11 39 10 31 -1 40 -5
40 -19z m182 -40 c-9 -9 -12 -7 -12 12 0 19 3 21 12 12 9 -9 9 -15 0 -24z
m-67 11 c8 -12 -23 -49 -41 -49 -21 0 -24 15 -8 38 16 24 39 29 49 11z m509 2
c7 -10 -27 -21 -66 -21 -18 0 -28 5 -28 15 0 11 12 15 44 15 25 0 47 -4 50 -9z
m-919 -71 c7 -12 -2 -12 -30 0 -19 8 -19 9 2 9 12 1 25 -3 28 -9z m465 -37 c0
-16 -35 -43 -55 -43 -38 0 -38 14 2 32 43 19 53 21 53 11z"/>
<path d="M5486 4763 c-35 -6 -60 -28 -52 -48 3 -8 -6 -22 -23 -35 -16 -11 -32
-32 -35 -46 -8 -29 -5 -34 18 -38 8 -1 24 -10 35 -20 26 -24 39 -14 46 37 5
30 13 46 27 52 13 6 26 27 33 52 13 43 11 54 -9 52 -6 -1 -24 -4 -40 -6z m-16
-87 c0 -8 -7 -16 -15 -20 -15 -5 -21 14 -8 27 11 12 23 8 23 -7z"/>
<path d="M6362 4628 c-16 -16 -15 -25 4 -32 19 -7 44 10 44 30 0 17 -32 18
-48 2z"/>
<path d="M6546 4514 c-7 -19 1 -34 19 -34 8 0 16 4 19 9 9 14 -4 41 -19 41 -7
0 -16 -7 -19 -16z"/>
<path d="M5332 4178 c-17 -17 -15 -58 2 -58 15 0 29 50 17 63 -4 4 -12 2 -19
-5z"/>
<path d="M5471 4109 c-23 -31 -22 -59 2 -59 15 0 47 50 47 74 0 26 -24 18 -49
-15z"/>
<path d="M5366 4013 c-4 -5 -18 -8 -29 -8 -17 0 -22 -6 -22 -25 0 -22 4 -25
34 -22 43 3 60 17 54 42 -5 20 -23 26 -37 13z"/>
<path d="M5533 3934 c-8 -21 13 -42 28 -27 13 13 5 43 -11 43 -6 0 -13 -7 -17
-16z"/>
<path d="M5427 3893 c-16 -15 -5 -33 19 -33 20 0 25 4 20 16 -3 9 -6 18 -6 20
0 7 -26 5 -33 -3z"/>
<path d="M3910 3590 c-12 -7 -12 -13 -4 -27 14 -23 40 -28 47 -9 8 20 -24 47
-43 36z"/>
<path d="M3784 3545 c-8 -20 4 -35 26 -35 28 0 35 19 14 35 -24 18 -33 18 -40
0z"/>
<path d="M3689 3488 c-1 -7 -1 -17 0 -22 1 -4 -3 -14 -10 -22 -16 -20 -2 -34
36 -34 32 0 33 1 30 35 -2 19 -6 39 -10 45 -9 14 -45 13 -46 -2z"/>
<path d="M3776 3448 c15 -48 66 -62 72 -20 3 22 -1 25 -51 37 -26 5 -28 4 -21
-17z"/>
<path d="M3893 3423 c-4 -10 -11 -21 -16 -24 -18 -12 2 -39 28 -39 32 0 55 41
35 65 -17 20 -39 19 -47 -2z"/>
<path d="M3431 2358 c-10 -27 1 -43 24 -34 10 3 15 15 13 28 -4 30 -26 34 -37
6z"/>
<path d="M5600 5735 c-7 -14 -21 -25 -31 -25 -10 0 -26 -10 -36 -23 -19 -25
-101 -83 -107 -76 -2 2 -13 23 -25 46 -25 50 -37 59 -58 42 -9 -8 -23 -14 -32
-14 -24 0 -73 -103 -60 -126 18 -34 39 -23 39 21 0 28 4 40 14 40 8 0 17 8 20
17 6 15 8 15 22 2 8 -9 23 -31 32 -50 9 -19 24 -35 33 -37 24 -4 124 59 149
95 12 17 31 34 43 37 31 8 52 43 36 62 -16 20 -24 18 -39 -11z"/>
<path d="M7643 5694 c-10 -26 11 -49 41 -46 22 2 29 -3 37 -28 13 -36 25 -37
63 -6 28 24 28 46 0 46 -8 0 -31 8 -52 19 -62 31 -81 34 -89 15z"/>
<path d="M5645 5655 c-3 -8 -7 -22 -10 -30 -2 -9 -18 -23 -35 -33 -24 -13 -29
-22 -25 -39 3 -12 1 -25 -5 -28 -14 -9 -12 -91 4 -152 13 -50 13 -53 -4 -53
-17 0 -30 -26 -30 -62 0 -9 19 -30 43 -48 47 -35 109 -39 115 -8 2 12 -2 15
-17 11 -23 -6 -86 29 -95 53 -11 28 -6 34 23 28 34 -7 53 23 26 42 -12 9 -17
31 -18 91 l-2 78 63 42 c35 24 75 43 88 43 26 0 44 -27 27 -39 -6 -3 -13 -16
-17 -28 -6 -17 -3 -23 9 -23 8 0 18 8 22 18 3 9 13 25 21 34 37 44 -27 105
-91 87 -46 -13 -55 -11 -62 11 -7 24 -24 26 -30 5z"/>
<path d="M7546 5663 c-11 -12 -6 -34 13 -55 18 -18 22 -19 40 -6 l21 15 -23
20 c-30 27 -43 34 -51 26z"/>
<path d="M4826 5588 c-27 -38 -20 -48 29 -48 38 0 45 3 45 20 0 11 -6 20 -14
20 -8 0 -16 7 -20 15 -8 21 -22 19 -40 -7z"/>
<path d="M6800 5540 c0 -30 13 -37 39 -21 19 12 4 51 -20 51 -14 0 -19 -7 -19
-30z"/>
<path d="M5830 5516 c0 -30 25 -57 45 -50 19 8 19 19 -1 49 -21 32 -44 32 -44
1z"/>
<path d="M6643 5516 c-4 -8 -17 -15 -28 -17 -25 -5 -32 -44 -9 -53 9 -3 23 -1
30 5 7 6 26 8 43 4 17 -4 37 -1 49 6 38 24 70 -31 41 -71 -8 -11 -12 -12 -16
-2 -6 16 -28 15 -42 -2 -19 -23 4 -60 29 -46 10 5 27 10 38 10 29 0 52 32 52
72 0 26 -9 44 -34 72 -37 39 -46 42 -78 25 -14 -8 -23 -8 -31 0 -15 15 -34 14
-44 -3z"/>
<path d="M6847 5504 c-4 -4 -7 -13 -7 -21 0 -18 35 -17 50 2 8 9 8 15 2 15 -6
0 -17 2 -24 5 -8 3 -17 2 -21 -1z"/>
<path d="M7162 5494 c-27 -19 -28 -34 -3 -34 12 0 18 -7 17 -17 -1 -12 6 -18
19 -18 15 0 20 7 20 27 0 14 3 30 8 34 26 26 -25 33 -61 8z"/>
<path d="M7034 5475 c-9 -23 5 -65 21 -65 23 0 27 18 10 50 -18 34 -23 37 -31
15z"/>
<path d="M7452 5468 c2 -13 11 -24 21 -26 22 -4 35 27 16 39 -25 16 -41 10
-37 -13z"/>
<path d="M6920 5465 c0 -3 7 -17 16 -30 19 -29 11 -45 -20 -45 -24 0 -47 -34
-39 -57 7 -21 28 -15 56 17 15 17 31 30 37 30 5 0 15 10 21 22 10 19 8 25 -17
45 -27 21 -54 30 -54 18z"/>
<path d="M4470 5400 c-21 -20 -30 -35 -26 -47 5 -14 -6 -23 -47 -42 -45 -21
-72 -38 -125 -82 -21 -17 -8 -34 29 -36 19 -1 45 -4 59 -5 19 -2 26 2 28 20 2
13 -2 22 -10 22 -7 0 14 13 47 30 33 16 77 30 97 30 34 0 37 -3 51 -42 16 -51
43 -58 41 -12 -2 46 -31 84 -64 84 -41 0 -82 24 -68 38 15 15 50 16 64 2 15
-15 44 -1 44 21 0 19 -18 32 -62 43 -20 5 -33 -1 -58 -24z"/>
<path d="M5735 5405 c-22 -14 -40 -30 -40 -36 0 -7 25 -25 54 -41 52 -28 56
-29 68 -12 27 36 10 114 -25 114 -9 0 -35 -12 -57 -25z m60 -35 c-3 -5 -10
-10 -16 -10 -5 0 -9 5 -9 10 0 6 7 10 16 10 8 0 12 -4 9 -10z"/>
<path d="M7503 5423 c-7 -2 -13 -11 -13 -20 0 -20 34 -12 38 10 3 17 -3 20
-25 10z"/>
<path d="M6585 5410 c-3 -5 -12 -7 -19 -4 -18 7 -29 -11 -21 -35 7 -25 64 -36
83 -17 12 12 12 17 -3 40 -18 27 -30 32 -40 16z"/>
<path d="M6971 5364 c-21 -22 -23 -29 -13 -45 10 -15 9 -23 0 -39 -7 -10 -9
-22 -6 -25 13 -14 46 7 63 38 15 28 22 33 46 29 25 -4 29 -1 29 20 0 32 -8 40
-31 27 -15 -7 -21 -6 -25 6 -9 22 -36 18 -63 -11z"/>
<path d="M6416 5364 c-11 -29 -7 -64 8 -64 8 0 18 5 21 11 5 6 12 4 21 -8 12
-16 15 -16 24 -3 16 24 8 55 -15 53 -11 -1 -24 5 -28 13 -11 18 -23 18 -31 -2z"/>
<path d="M5996 5341 c-20 -22 -20 -50 0 -58 15 -5 74 47 74 66 0 16 -58 9 -74
-8z"/>
<path d="M7550 5331 c-15 -5 -23 -14 -21 -22 2 -8 6 -27 9 -42 6 -40 28 -44
58 -12 25 27 25 61 0 77 -12 9 -12 9 -46 -1z"/>
<path d="M5740 5280 c0 -17 23 -59 35 -64 6 -2 18 -1 25 4 9 6 7 15 -11 39
-22 30 -49 42 -49 21z"/>
<path d="M4507 5249 c-3 -13 0 -22 9 -26 20 -7 38 11 31 31 -9 23 -34 20 -40
-5z"/>
<path d="M6006 5224 c-21 -21 -20 -31 4 -39 11 -3 20 -15 20 -25 0 -19 25 -34
41 -24 18 11 8 46 -20 75 -27 26 -31 28 -45 13z"/>
<path d="M5840 5179 c0 -32 19 -59 40 -59 27 0 26 31 -3 58 -29 27 -37 28 -37
1z"/>
<path d="M6216 5174 c-8 -21 1 -34 24 -34 25 0 35 17 20 35 -16 20 -36 19 -44
-1z"/>
<path d="M3948 5164 c-4 -3 -47 -17 -98 -30 -133 -36 -157 -50 -192 -114 -16
-30 -34 -59 -39 -64 -28 -30 14 -175 47 -162 9 3 18 6 20 6 10 0 2 50 -9 57
-8 4 -16 16 -20 25 -8 23 58 155 85 169 36 20 136 37 148 25 6 -6 16 -4 28 8
19 16 22 14 86 -40 36 -31 69 -67 72 -80 3 -13 13 -24 21 -24 9 0 13 -6 9 -15
-4 -10 1 -15 16 -15 12 0 29 -7 38 -15 22 -20 42 -12 63 24 21 36 21 54 2 91
-14 28 -14 29 8 27 12 0 36 -8 52 -17 37 -20 76 -12 91 18 6 13 21 33 33 46
21 22 28 46 14 46 -5 0 -23 -9 -40 -20 -24 -14 -32 -26 -30 -42 2 -18 -4 -24
-26 -26 -18 -2 -29 2 -33 12 -3 9 -13 16 -20 16 -22 0 -28 27 -12 53 16 24 13
47 -6 47 -23 0 -46 -36 -48 -74 -2 -45 -10 -46 -30 -3 -22 46 -89 77 -166 77
-32 0 -61 -3 -64 -6z m158 -60 c28 -17 74 -109 74 -147 0 -25 -3 -28 -27 -25
-23 2 -29 8 -31 36 -2 17 -7 32 -13 32 -5 0 -9 7 -9 15 0 8 -22 31 -50 51 -64
46 -66 67 -7 58 23 -4 52 -12 63 -20z"/>
<path d="M6532 5154 c-28 -19 -18 -47 15 -41 21 4 24 1 21 -22 -3 -37 10 -54
38 -47 14 4 24 2 24 -4 0 -5 -4 -10 -10 -10 -20 0 -10 -21 14 -30 18 -7 23
-14 19 -30 -7 -27 -24 -21 -41 14 l-13 27 -20 -25 c-15 -20 -18 -34 -13 -61 6
-33 9 -35 43 -35 21 0 46 7 57 15 29 22 57 19 49 -5 -10 -32 24 -39 47 -10 22
27 20 65 -2 66 -8 1 -29 2 -47 2 -31 2 -32 3 -30 45 2 36 -1 42 -16 39 -16 -3
-18 1 -12 27 6 27 4 31 -14 31 -11 0 -26 9 -35 21 -8 11 -23 27 -34 34 -16 12
-22 12 -40 -1z"/>
<path d="M5727 5144 c-8 -8 1 -24 14 -24 5 0 9 7 9 15 0 15 -12 20 -23 9z"/>
<path d="M5503 5126 c-25 -12 -29 -21 -13 -31 6 -3 10 -19 10 -35 0 -46 57
-52 81 -8 9 16 7 20 -11 25 -14 4 -19 11 -15 21 5 14 -11 43 -24 41 -3 -1 -16
-6 -28 -13z"/>
<path d="M5115 5094 c-19 -45 -19 -44 4 -44 22 0 55 46 47 66 -10 26 -36 15
-51 -22z"/>
<path d="M5662 5083 c-16 -12 -16 -14 1 -27 13 -10 15 -16 6 -21 -12 -8 -29
11 -29 33 0 8 -5 12 -12 10 -39 -13 -34 -84 7 -94 42 -10 94 14 113 53 16 33
16 35 -3 46 -28 15 -64 15 -83 0z m48 -27 c0 -3 -4 -8 -10 -11 -5 -3 -10 -1
-10 4 0 6 5 11 10 11 6 0 10 -2 10 -4z"/>
<path d="M3888 4989 c-20 -11 -24 -34 -7 -44 14 -9 81 24 76 38 -5 16 -47 20
-69 6z"/>
<path d="M3816 4931 c-16 -18 -16 -21 -2 -43 9 -14 13 -28 10 -31 -17 -16 28
-17 55 -1 42 25 42 48 0 39 -29 -7 -31 -5 -27 21 4 34 -13 41 -36 15z"/>
<path d="M3983 4897 c-25 -8 -33 -17 -33 -34 0 -36 -29 -75 -51 -68 -11 4 -25
-2 -37 -16 -26 -27 -18 -53 14 -45 12 3 24 1 26 -5 2 -5 11 -7 21 -4 18 8 23
25 7 25 -5 0 -10 5 -10 10 0 6 6 10 13 10 7 0 26 14 42 30 l29 31 18 -23 c13
-18 19 -21 29 -10 17 16 17 76 0 96 -15 18 -21 18 -68 3z"/>
<path d="M4278 4883 c-22 -5 -23 -17 -4 -32 12 -10 17 -8 25 8 12 22 5 30 -21
24z"/>
<path d="M4102 4848 c-31 -15 -22 -33 17 -32 26 2 31 -2 31 -21 0 -17 -7 -24
-30 -28 -29 -6 -69 -51 -56 -64 3 -4 23 1 42 11 l36 17 -4 -26 c-6 -31 9 -43
29 -22 18 17 33 126 21 156 -8 23 -47 27 -86 9z"/>
<path d="M3680 4730 c-30 -30 -16 -42 41 -34 40 5 50 4 55 -10 9 -23 -12 -69
-47 -102 -33 -32 -35 -39 -13 -48 41 -16 114 81 114 151 0 54 -108 85 -150 43z"/>
<path d="M3570 4726 c-38 -22 -108 -125 -93 -140 23 -23 92 27 93 67 0 11 12
23 30 30 22 8 30 17 28 32 -4 25 -25 29 -58 11z"/>
<path d="M3932 4661 c-19 -12 -10 -47 11 -43 11 2 17 -4 17 -18 0 -23 37 -28
71 -9 16 8 18 13 8 25 -6 8 -23 14 -37 14 -14 0 -22 3 -19 7 9 8 -12 33 -27
33 -6 0 -17 -4 -24 -9z"/>
<path d="M3620 4645 c-9 -11 -9 -22 0 -50 9 -28 17 -35 33 -33 27 4 33 30 17
69 -14 32 -31 37 -50 14z"/>
<path d="M7088 4548 c-2 -37 -3 -42 -16 -64 -15 -28 -41 -38 -59 -22 -11 9
-19 7 -36 -10 -21 -21 -21 -22 -2 -37 26 -19 44 -19 77 3 56 37 80 89 62 136
-9 23 -24 19 -26 -6z"/>
<path d="M3424 4529 c-78 -18 -174 -128 -160 -184 5 -21 2 -23 -52 -27 -109
-8 -346 -148 -328 -194 3 -9 6 -28 6 -44 0 -35 26 -47 51 -24 22 20 25 44 5
44 -9 0 -12 8 -9 24 8 40 130 115 235 144 48 13 58 1 58 -65 0 -40 4 -53 15
-53 19 0 35 31 35 70 0 25 4 31 15 26 21 -8 45 3 45 21 0 8 -7 21 -15 29 -21
22 -19 71 6 106 40 55 142 115 126 74 -3 -8 1 -20 10 -27 13 -11 18 -10 30 6
7 11 13 34 11 50 -3 34 -19 39 -84 24z"/>
<path d="M3634 4445 c-18 -14 -18 -15 9 -37 17 -14 30 -36 33 -58 5 -31 0 -41
-38 -82 -44 -48 -120 -84 -152 -72 -10 4 -19 -3 -27 -20 -16 -35 -7 -41 33
-21 19 10 54 16 85 16 l51 -1 52 65 52 66 -17 62 c-28 101 -40 113 -81 82z"/>
<path d="M3414 4355 c-9 -14 -14 -32 -10 -40 3 -8 1 -15 -5 -15 -5 0 -14 -11
-21 -25 -8 -19 -8 -28 2 -40 7 -8 15 -15 19 -15 14 0 71 107 71 133 0 35 -33
37 -56 2z"/>
<path d="M3883 4363 c-15 -5 -18 -43 -4 -43 23 0 41 14 41 31 0 19 -12 23 -37
12z"/>
<path d="M3807 4303 c-12 -11 -8 -41 6 -46 7 -3 19 4 26 15 11 17 10 22 -1 29
-16 11 -23 11 -31 2z"/>
<path d="M3023 4140 c-3 -10 -14 -22 -25 -26 -26 -8 -20 -48 8 -52 15 -2 29 9
48 37 15 22 25 45 21 50 -11 19 -47 12 -52 -9z"/>
<path d="M2787 4040 c-36 -29 -79 -104 -75 -132 4 -27 48 -40 48 -14 0 9 7 33
16 54 18 48 53 67 89 50 33 -15 32 -32 -5 -58 -16 -12 -30 -30 -30 -40 0 -13
-8 -20 -27 -22 -34 -4 -43 -33 -13 -43 11 -4 34 0 52 9 36 19 44 15 29 -12
-13 -24 6 -82 27 -82 15 0 45 66 36 81 -3 5 0 16 6 24 8 9 10 29 6 52 -3 21
-7 49 -8 62 -3 27 -60 77 -98 86 -18 4 -34 0 -53 -15z"/>
<path d="M3221 3981 c-30 -30 -28 -69 5 -77 37 -9 55 12 46 55 -9 42 -24 49
-51 22z"/>
<path d="M3130 3945 c0 -9 6 -12 15 -9 8 4 15 10 15 15 0 5 -7 9 -15 9 -8 0
-15 -7 -15 -15z"/>
<path d="M3000 3941 c0 -6 5 -13 10 -16 6 -3 10 -17 10 -30 0 -13 -4 -27 -10
-30 -18 -11 -11 -43 11 -48 54 -14 66 33 23 95 -26 36 -44 48 -44 29z"/>
<path d="M3085 3910 c-11 -18 17 -42 42 -35 29 7 31 -19 3 -55 -24 -31 -25
-46 -3 -55 27 -10 66 40 58 74 -13 53 -81 101 -100 71z"/>
<path d="M2605 3898 c-11 -6 -24 -18 -29 -26 -5 -8 -24 -32 -44 -54 -19 -21
-36 -49 -37 -61 -2 -12 -12 -38 -23 -57 -11 -19 -23 -62 -26 -95 -5 -50 -3
-64 13 -84 22 -28 58 -23 45 7 -4 9 -9 36 -12 59 -4 48 28 119 60 129 24 7 76
-30 80 -59 2 -12 11 -23 20 -25 22 -4 36 44 19 70 -9 14 -8 18 4 18 9 0 18 6
21 13 2 7 26 13 59 14 l55 1 0 -42 c0 -23 -6 -48 -12 -54 -10 -10 -10 -15 2
-22 22 -14 43 -12 37 4 -3 8 1 17 10 20 13 5 15 16 10 58 -4 29 -13 59 -22 67
-18 19 -78 18 -108 -2 -21 -14 -23 -13 -35 12 -8 17 -9 27 -2 29 15 5 12 45
-6 70 -16 24 -47 28 -79 10z m36 -56 c-5 -10 -8 -34 -6 -55 2 -20 0 -37 -5
-37 -8 0 -58 19 -69 26 -7 6 63 84 76 84 10 0 11 -5 4 -18z"/>
<path d="M3371 3851 c-23 -17 -23 -19 -6 -45 10 -14 28 -29 42 -32 13 -4 22
-11 20 -18 -3 -6 2 -19 10 -28 12 -13 20 -15 39 -6 13 6 24 15 24 19 0 21 -14
39 -31 39 -25 0 -52 43 -44 70 8 26 -20 27 -54 1z"/>
<path d="M3500 3857 c0 -23 22 -38 37 -26 21 18 15 39 -12 39 -14 0 -25 -6
-25 -13z"/>
<path d="M3295 3814 c-13 -20 -14 -29 -5 -38 9 -8 16 -5 31 13 10 13 19 29 19
37 0 23 -27 16 -45 -12z"/>
<path d="M3010 3755 c-14 -8 -35 -20 -47 -26 -13 -7 -23 -18 -23 -26 0 -19 35
-16 82 8 35 18 44 19 64 8 46 -24 57 -136 19 -179 -11 -12 -15 -28 -12 -41 8
-30 -9 -59 -34 -59 -52 0 -82 -51 -38 -65 30 -10 62 1 93 32 22 22 27 34 23
60 -4 20 1 45 14 69 33 66 18 149 -38 201 -38 36 -64 41 -103 18z"/>
<path d="M2893 3647 c-12 -6 -30 -26 -40 -44 -13 -25 -20 -30 -34 -22 -27 14
-85 11 -99 -6 -18 -22 -2 -38 34 -32 38 5 79 -12 71 -30 -2 -8 2 -25 11 -38
14 -22 14 -27 0 -55 -8 -17 -13 -37 -10 -45 4 -9 -7 -17 -36 -25 -30 -8 -40
-16 -38 -28 5 -25 57 -26 96 -2 53 33 66 97 37 180 -8 23 -15 44 -15 45 0 2
14 8 30 14 18 6 34 21 40 37 20 53 0 74 -47 51z"/>
<path d="M2583 3633 c-26 -18 -29 -35 -9 -52 23 -19 46 -2 46 35 0 38 -5 40
-37 17z"/>
<path d="M2963 3568 c-32 -65 -25 -86 18 -61 24 14 29 24 27 48 -4 37 -30 44
-45 13z"/>
<path d="M2583 3530 c-32 -19 -44 -52 -23 -65 6 -4 24 5 41 19 17 14 37 26 45
26 17 0 18 -33 2 -60 -11 -17 -10 -22 2 -30 40 -25 60 -3 60 67 0 59 -65 81
-127 43z"/>
<path d="M2727 3475 c-4 -9 -1 -18 9 -22 22 -8 30 5 12 23 -14 14 -16 14 -21
-1z"/>
<path d="M2492 3447 c-28 -30 -29 -57 -1 -57 13 0 25 11 35 35 7 19 14 37 14
40 0 13 -29 3 -48 -18z"/>
<path d="M2757 3434 c-14 -14 -7 -35 11 -32 9 2 17 10 17 17 0 16 -18 25 -28
15z"/>
<path d="M2594 3405 c-11 -27 1 -39 19 -21 17 17 15 36 -4 36 -5 0 -12 -7 -15
-15z"/>
<path d="M2947 3404 c-4 -4 -7 -16 -7 -26 0 -14 6 -19 23 -16 14 2 22 10 22
23 0 20 -25 32 -38 19z"/>
<path d="M2503 3335 c-22 -19 -48 -51 -57 -70 -16 -33 -16 -38 -2 -61 9 -13
25 -24 36 -24 17 0 18 4 10 25 -11 29 0 55 39 93 22 22 25 23 34 7 7 -12 4
-28 -7 -53 -20 -42 -6 -70 18 -36 14 19 15 19 21 -1 18 -55 28 -71 51 -88 33
-25 48 -12 25 21 -27 38 -33 75 -17 98 14 18 15 18 35 0 12 -11 21 -25 21 -32
0 -7 7 -20 16 -29 20 -20 44 -4 44 29 0 12 5 27 12 34 18 18 -6 40 -25 24 -11
-9 -19 -6 -38 14 -23 25 -38 27 -89 13 -9 -3 -16 5 -18 21 -4 28 -27 50 -52
50 -9 0 -35 -16 -57 -35z"/>
<path d="M2902 3199 c-33 -19 -52 -63 -34 -81 7 -7 15 -2 27 16 24 36 38 33
70 -15 32 -45 65 -69 65 -45 0 25 -66 132 -86 140 -6 2 -25 -4 -42 -15z"/>
<path d="M3205 3158 c0 -22 -5 -34 -17 -36 -12 -2 -15 2 -11 17 6 25 -9 27
-31 5 -20 -20 -21 -63 0 -71 13 -5 12 -9 -7 -29 -28 -29 -22 -36 19 -25 40 12
108 3 124 -17 11 -12 9 -17 -10 -30 -33 -22 -27 -33 18 -30 47 3 54 16 35 60
-18 45 -59 67 -115 62 l-45 -3 43 20 c46 22 53 43 26 84 -22 33 -29 31 -29 -7z"/>
<path d="M2597 3103 c-4 -3 -7 -17 -7 -30 0 -16 6 -23 20 -23 11 0 20 -5 20
-11 0 -7 9 -9 21 -6 29 8 49 -14 49 -52 0 -17 5 -31 10 -31 21 0 9 -19 -19
-28 -32 -11 -72 -5 -83 12 -4 6 -5 28 -1 48 5 33 3 39 -21 49 -39 18 -54 0
-38 -44 7 -18 12 -42 12 -53 0 -11 7 -29 15 -40 8 -10 15 -29 15 -41 0 -26 25
-31 49 -9 28 24 69 28 80 8 6 -10 6 -24 0 -34 -12 -22 16 -46 39 -32 22 14 27
34 8 34 -24 0 -19 18 6 22 25 3 37 28 14 28 -10 0 -15 9 -15 28 1 36 -2 48
-31 107 -25 54 -55 81 -81 77 -9 -2 -19 4 -22 13 -7 15 -28 20 -40 8z"/>
<path d="M2822 3089 c2 -6 8 -10 13 -10 5 0 11 4 13 10 2 6 -4 11 -13 11 -9 0
-15 -5 -13 -11z"/>
<path d="M2776 3083 c-12 -12 -6 -43 9 -43 8 0 15 9 15 19 0 21 -13 34 -24 24z"/>
<path d="M2871 3031 c-16 -28 -14 -33 12 -29 14 2 22 10 22 22 0 27 -21 31
-34 7z"/>
<path d="M3065 3000 c-4 -7 -3 -16 3 -22 14 -14 45 -2 40 15 -6 16 -34 21 -43
7z"/>
<path d="M2920 2977 c-59 -29 -75 -75 -40 -112 12 -13 19 -28 16 -33 -3 -6 1
-18 11 -27 14 -14 14 -21 4 -37 -6 -10 -11 -41 -10 -67 1 -26 -1 -53 -5 -59
-10 -17 -37 -15 -30 2 7 19 -31 39 -57 31 -28 -9 -51 -48 -42 -71 10 -27 45
-54 62 -49 20 7 62 -40 48 -54 -6 -6 -17 -11 -24 -11 -7 0 -13 -11 -13 -26 0
-15 -10 -44 -22 -65 -12 -21 -19 -42 -15 -45 12 -12 85 56 92 86 4 17 13 30
21 30 8 0 14 6 14 13 0 6 14 30 30 51 35 46 31 58 -9 28 -29 -21 -29 -21 -47
-1 -19 21 -19 21 12 37 23 12 31 38 42 138 7 61 15 76 61 124 30 32 38 55 33
91 -3 19 -10 29 -21 29 -25 0 -33 -11 -20 -26 8 -9 4 -21 -12 -44 -19 -25 -30
-30 -54 -28 -51 5 -44 40 18 83 14 10 18 18 11 25 -7 7 -25 3 -54 -13z"/>
<path d="M3170 2895 c-6 -8 -9 -23 -5 -34 4 -14 0 -23 -15 -31 -32 -17 -25
-40 13 -40 31 0 34 3 45 46 10 35 10 50 1 60 -15 18 -24 18 -39 -1z"/>
<path d="M2626 2777 c-22 -29 -26 -42 -22 -83 3 -26 0 -54 -5 -61 -13 -15 -3
-33 18 -33 28 0 8 -58 -72 -210 -64 -121 -87 -156 -143 -210 -59 -58 -77 -69
-152 -94 -47 -16 -96 -36 -110 -46 -14 -9 -76 -38 -138 -64 -62 -26 -161 -71
-220 -101 -59 -29 -152 -68 -207 -85 -55 -17 -134 -44 -175 -60 -41 -16 -174
-62 -295 -103 -121 -41 -301 -105 -400 -141 -99 -36 -241 -81 -315 -101 -74
-20 -173 -47 -220 -60 -47 -13 -104 -29 -127 -35 -36 -9 -43 -15 -43 -35 0
-14 3 -25 8 -25 4 0 47 12 97 25 50 14 124 35 165 46 41 11 86 23 100 28 14 5
50 16 80 24 179 51 181 52 530 186 30 11 71 24 90 27 19 4 40 10 45 14 13 10
195 70 211 70 8 0 33 9 56 19 63 28 115 47 183 66 80 23 223 84 260 110 25 18
243 115 259 115 2 0 46 20 98 45 51 25 100 45 110 45 51 0 198 120 233 189 11
22 39 78 62 123 23 46 47 96 53 112 8 22 14 26 28 20 25 -12 120 -8 137 6 18
15 20 40 4 40 -7 0 -18 8 -26 18 -10 12 -16 14 -19 5 -8 -18 -69 -16 -84 2
-10 12 -10 22 -2 39 12 27 5 42 -23 49 -18 4 -17 5 3 6 13 0 33 -4 44 -10 23
-12 38 1 38 34 0 12 -7 17 -22 16 -49 -4 -68 1 -68 19 0 9 9 23 21 30 13 8 19
21 17 35 -5 34 -33 32 -62 -6z"/>
<path d="M2790 2790 c0 -11 9 -29 20 -40 11 -11 20 -27 20 -35 0 -9 7 -18 16
-22 18 -7 36 15 26 32 -4 5 -7 17 -7 25 0 8 -8 14 -18 14 -10 -1 -19 7 -23 22
-7 29 -34 32 -34 4z"/>
<path d="M2745 2757 c-22 -17 -12 -37 20 -37 31 0 39 14 19 34 -19 19 -16 19
-39 3z"/>
<path d="M4161 2716 c-9 -10 -8 -16 4 -26 14 -12 14 -15 -1 -31 -12 -13 -21
-16 -29 -9 -19 16 -38 3 -57 -39 -22 -47 -22 -51 1 -51 22 0 77 32 124 72 26
21 30 29 20 39 -7 7 -13 23 -13 36 0 26 -30 32 -49 9z"/>
<path d="M3940 2655 c0 -22 4 -26 23 -23 14 2 22 10 22 23 0 13 -8 21 -22 23
-19 3 -23 -1 -23 -23z"/>
<path d="M2680 2435 c-9 -11 -10 -18 -1 -29 13 -15 0 -52 -50 -149 -34 -64
-33 -95 1 -77 34 18 119 222 106 255 -7 19 -40 19 -56 0z"/>
<path d="M3044 2435 c-10 -24 12 -42 34 -29 24 16 21 38 -6 42 -13 2 -25 -3
-28 -13z"/>
<path d="M2915 2410 c-8 -13 12 -40 29 -40 18 0 35 21 29 36 -6 16 -49 19 -58
4z"/>
<path d="M3190 2391 c0 -11 9 -21 22 -24 34 -9 41 3 14 24 -30 24 -36 24 -36
0z"/>
<path d="M4208 2393 c-42 -6 -36 -33 6 -33 19 0 38 -5 41 -10 10 -16 45 8 45
30 0 21 -22 24 -92 13z"/>
<path d="M2876 2377 c-13 -10 -15 -26 -9 -101 6 -86 7 -89 37 -105 17 -9 44
-31 61 -48 38 -40 63 -42 76 -5 12 33 63 68 124 83 58 15 86 48 78 92 -9 48
-30 67 -75 67 -21 0 -38 -3 -38 -7 1 -18 19 -34 46 -42 l29 -9 -32 -12 c-30
-11 -37 -19 -30 -36 1 -4 -20 -15 -48 -24 -27 -10 -64 -23 -81 -31 -25 -10
-37 -10 -62 0 -27 11 -31 20 -41 73 -7 39 -7 67 -1 79 13 23 13 26 -4 32 -8 3
-21 0 -30 -6z"/>
<path d="M3056 2348 c-30 -43 -12 -71 28 -44 18 11 22 21 19 40 -6 32 -27 33
-47 4z"/>
<path d="M2800 2322 c0 -4 -20 -34 -45 -67 -48 -64 -53 -75 -32 -75 17 0 77
79 77 102 0 11 4 17 8 14 4 -2 8 4 8 15 0 10 -4 19 -8 19 -4 0 -8 -3 -8 -8z"/>
<path d="M3164 2152 c-6 -4 -11 -27 -10 -52 1 -48 22 -64 52 -39 13 10 12 14
-3 31 -10 11 -16 31 -15 44 3 24 -4 30 -24 16z"/>
<path d="M2785 2066 c-43 -13 -58 -43 -31 -65 12 -10 19 -8 35 8 12 12 24 21
29 22 4 0 20 3 36 5 40 7 84 -13 99 -45 16 -35 70 -42 87 -12 10 19 8 21 -20
21 -26 0 -33 6 -45 34 -11 25 -22 35 -46 40 -46 9 -98 6 -144 -8z"/>
<path d="M3040 2025 c0 -8 5 -15 10 -15 6 0 10 7 10 15 0 8 -4 15 -10 15 -5 0
-10 -7 -10 -15z"/>
<path d="M2470 2001 c-60 -23 -200 -119 -200 -137 0 -8 6 -17 14 -20 52 -20 0
-54 -194 -130 -77 -29 -120 -48 -245 -103 -22 -10 -67 -28 -100 -41 -33 -13
-101 -43 -152 -67 -50 -24 -96 -43 -102 -43 -14 0 -123 -52 -138 -66 -27 -26
-398 -194 -426 -194 -8 0 -48 -13 -88 -30 -39 -16 -85 -32 -100 -35 -16 -4
-31 -11 -34 -16 -4 -5 -13 -9 -21 -9 -9 0 -21 -6 -29 -13 -11 -11 -202 -64
-339 -94 -49 -11 -60 -33 -17 -33 42 0 378 83 494 121 88 30 166 64 177 78 8
11 176 91 190 91 12 0 189 86 245 120 17 10 55 28 85 40 30 13 93 41 139 62
46 21 122 54 170 73 91 35 264 107 318 131 17 8 34 14 37 14 3 0 56 24 118 54
124 59 225 104 332 145 65 25 97 51 62 51 -9 0 -25 5 -35 12 -15 9 -26 9 -48
-1 -27 -13 -57 -24 -158 -55 -25 -8 -45 -11 -45 -6 0 4 26 25 58 46 31 22 59
42 60 47 2 4 10 7 18 7 8 0 14 5 14 10 0 13 -5 12 -60 -9z"/>
<path d="M3150 1980 c-11 -11 -20 -25 -20 -31 0 -8 -5 -7 -16 2 -15 12 -22 8
-36 -22 -3 -5 -36 -13 -208 -49 -30 -7 -75 -21 -100 -31 -25 -10 -72 -23 -105
-30 -53 -10 -146 -40 -510 -165 -101 -35 -260 -107 -390 -177 -38 -21 -99 -52
-135 -69 -36 -16 -105 -50 -155 -73 -102 -49 -204 -95 -210 -95 -2 0 -32 -13
-67 -29 -104 -47 -238 -98 -390 -147 -79 -25 -163 -54 -188 -64 -68 -28 -318
-87 -475 -113 -131 -22 -140 -24 -143 -46 -4 -22 -1 -24 35 -17 21 3 72 11
113 17 162 24 318 61 488 118 64 21 137 44 162 51 25 7 54 18 65 25 11 6 36
15 55 19 62 12 19 -11 -100 -54 -63 -23 -124 -46 -135 -51 -11 -5 -60 -20
-110 -34 -140 -38 -319 -95 -329 -106 -6 -5 -20 -9 -32 -9 -13 0 -26 -4 -29
-10 -3 -5 -30 -10 -58 -10 -85 0 -127 -10 -127 -30 0 -15 9 -18 63 -18 62 0
84 5 397 108 63 21 133 41 155 45 22 4 56 16 76 26 20 10 65 28 100 39 35 12
105 39 154 60 234 99 433 180 444 180 6 0 33 11 59 24 26 13 60 26 77 30 16 4
66 25 112 47 45 21 90 39 100 39 10 0 34 8 53 18 19 11 89 47 155 82 66 34
149 80 185 100 36 21 99 54 140 75 41 21 82 44 90 50 13 11 89 40 235 89 28 9
97 30 155 47 58 16 133 39 167 50 35 11 86 24 115 28 50 8 52 8 85 -27 33 -35
34 -35 98 -29 83 8 148 47 143 86 -3 28 -23 31 -23 4 0 -26 -43 -43 -111 -43
-46 0 -65 4 -77 18 -23 25 -21 30 6 25 29 -6 66 32 49 49 -7 7 -12 20 -12 30
0 24 -15 23 -40 -2z m-970 -374 c0 -13 -466 -256 -491 -256 -9 0 -55 -18 -102
-40 -47 -22 -89 -40 -95 -40 -5 0 -29 -9 -53 -20 -24 -11 -51 -19 -59 -19 -13
1 -13 1 0 6 17 6 297 141 320 153 53 30 384 192 416 204 39 15 64 19 64 12z
m-880 -406 c0 -5 -8 -10 -17 -10 -15 0 -16 2 -3 10 19 12 20 12 20 0z"/>
<path d="M2831 1943 c-15 -13 -18 -22 -12 -32 14 -22 91 3 91 29 0 26 -49 27
-79 3z"/>
</g>
</svg>
