<?xml version="1.0" standalone="no"?>
<!DOCTYPE svg PUBLIC "-//W3C//DTD SVG 20010904//EN"
 "http://www.w3.org/TR/2001/REC-SVG-20010904/DTD/svg10.dtd">
<svg version="1.0" xmlns="http://www.w3.org/2000/svg"
 width="998.000000pt" height="848.000000pt" viewBox="0 0 998.000000 848.000000"
 preserveAspectRatio="xMidYMid meet">

<g transform="translate(0.000000,848.000000) scale(0.100000,-0.100000)"
fill="hsl(30, 98%, 21%)" stroke="none">
<path d="M5713 6252 c-6 -4 -20 -26 -31 -48 -20 -39 -24 -42 -72 -46 -28 -3
-59 -13 -70 -23 -18 -17 -20 -16 -43 11 l-25 28 -37 -37 c-20 -20 -42 -37 -48
-37 -6 0 -25 -5 -44 -12 -29 -11 -35 -10 -46 7 -15 20 -47 15 -47 -7 0 -7 -18
-26 -40 -41 -28 -20 -40 -36 -40 -53 0 -31 -23 -31 -40 1 -7 13 -22 27 -32 31
-29 9 -68 -4 -68 -22 0 -10 -6 -14 -15 -10 -24 9 -45 -4 -45 -29 0 -21 -4 -23
-34 -18 -29 4 -36 1 -56 -28 -15 -19 -23 -46 -23 -66 1 -18 -3 -36 -8 -39 -5
-3 -9 -15 -9 -27 0 -19 2 -19 14 -7 8 8 23 38 33 65 14 37 24 51 41 53 16 3
22 -2 22 -16 0 -26 17 -39 60 -46 111 -17 114 -18 99 -27 -8 -5 -42 -6 -75 -3
-40 4 -64 3 -68 -5 -5 -7 -14 -6 -31 5 -27 18 -45 12 -45 -14 0 -10 -13 -26
-30 -35 -34 -20 -38 -38 -14 -58 9 -8 27 -30 40 -50 23 -36 127 -118 180 -141
16 -7 43 -22 59 -34 96 -69 272 -144 384 -164 25 -5 66 -16 90 -25 35 -12 83
-16 230 -16 102 0 206 4 231 9 42 10 196 15 337 13 34 -1 64 3 68 9 8 13 52
13 60 1 6 -10 75 25 75 38 0 18 111 86 246 152 252 122 272 133 329 188 56 54
62 65 45 91 -7 11 -22 0 -71 -53 -60 -66 -88 -84 -194 -123 -27 -10 -81 -36
-120 -59 -38 -23 -86 -48 -105 -55 -19 -7 -63 -33 -96 -56 l-62 -43 -48 12
c-59 15 -276 0 -296 -20 -15 -16 -44 -17 -53 -2 -4 6 -28 10 -54 9 -25 -1 -48
-1 -51 0 -18 5 -242 2 -270 -5 l-35 -7 19 21 c16 17 17 23 6 37 -11 12 -26 14
-66 10 -52 -5 -84 8 -47 20 10 3 25 9 33 13 8 4 52 14 98 21 67 11 87 11 104
1 15 -9 23 -10 34 0 33 28 -5 40 -131 43 -47 1 -64 5 -77 21 -23 27 -22 30 9
50 26 17 27 17 41 -3 19 -30 46 -14 73 42 24 53 57 73 89 56 12 -6 28 -9 36
-6 20 8 17 34 -6 46 -23 13 -26 30 -5 30 8 0 19 9 25 20 9 16 8 20 -5 20 -8 0
-15 7 -15 15 0 8 5 15 10 15 6 0 10 14 10 30 0 30 -13 37 -37 22 -6 -4 -17
-29 -23 -55 -9 -35 -27 -62 -66 -103 -30 -30 -54 -59 -54 -64 0 -5 -13 -7 -29
-4 -21 5 -38 0 -60 -16 -26 -18 -39 -20 -83 -15 -59 7 -107 20 -146 41 -35 18
-58 18 -66 -2 -10 -27 -7 -34 20 -34 24 0 77 -14 169 -46 l40 -13 -53 6 c-34
4 -62 1 -76 -7 -20 -10 -29 -8 -65 15 -22 15 -41 31 -41 35 0 4 -27 28 -60 54
-34 25 -58 51 -55 56 3 5 20 13 38 18 34 9 48 36 23 45 -8 3 -35 -4 -60 -17
l-45 -23 -3 31 c-2 24 -7 30 -22 28 -11 -2 -35 -1 -55 3 -34 6 -35 7 -16 21
13 10 32 13 55 9 21 -4 53 0 79 10 53 18 51 18 51 0 0 -20 8 -19 59 10 24 14
56 24 71 23 17 -1 41 8 63 25 38 29 76 34 106 15 14 -9 30 -7 72 6 l54 18 25
-30 c29 -33 75 -49 96 -31 23 19 16 27 -28 34 -27 4 -50 15 -63 30 -18 21 -24
23 -59 15 -46 -10 -56 -6 -56 21 0 14 -7 19 -24 19 -14 0 -28 -4 -31 -10 -3
-5 -18 -10 -32 -10 -14 0 -42 -12 -61 -26 -32 -25 -36 -26 -61 -12 -28 17
-101 17 -206 0 -33 -6 -63 -7 -67 -3 -4 4 0 22 10 41 15 31 22 35 58 36 32 2
41 -2 40 -14 0 -9 7 -18 16 -20 12 -2 24 10 40 40 19 37 23 40 26 21 2 -16 13
-25 34 -31 28 -7 36 -4 76 36 44 42 47 44 101 40 l56 -3 21 45 c29 59 40 71
67 66 12 -3 30 -5 39 -5 11 -1 15 -6 12 -16 -4 -10 -20 -15 -44 -15 -36 0 -58
-19 -46 -39 7 -11 100 -12 152 -2 24 5 44 5 44 1 0 -4 11 -11 25 -14 13 -3 38
-24 56 -45 l31 -39 44 15 c43 14 44 14 81 -15 21 -17 57 -36 80 -43 37 -10 45
-10 70 7 15 10 34 17 42 15 8 -1 18 3 23 11 6 10 13 8 28 -11 18 -21 25 -23
63 -16 55 9 81 9 147 -2 75 -12 90 -22 59 -39 -33 -18 -66 -17 -73 2 -5 13 -9
14 -21 4 -12 -10 -21 -10 -45 0 -36 15 -99 5 -107 -16 -12 -32 33 -59 128 -78
17 -4 36 -21 54 -51 33 -51 60 -65 83 -41 15 15 15 16 0 16 -21 0 -58 51 -58
79 0 14 6 21 19 21 10 0 29 9 42 19 29 23 63 13 96 -27 28 -34 29 -64 3 -87
-11 -10 -20 -22 -20 -27 0 -13 43 -9 63 7 12 8 31 11 53 8 34 -6 151 13 169
26 18 14 103 31 153 31 32 0 54 5 62 15 7 9 11 18 8 20 -9 10 -144 8 -163 -2
-19 -10 -65 -21 -125 -31 -14 -2 -47 -3 -75 -3 -39 0 -54 5 -67 22 -24 29 -23
46 2 24 11 -10 23 -15 27 -11 9 9 -8 37 -28 46 -8 4 -33 16 -56 28 -23 12 -51
22 -62 22 -12 0 -21 6 -21 13 0 26 -36 47 -80 47 -27 0 -51 6 -62 17 -17 15
-22 15 -66 1 -47 -15 -47 -15 -92 16 -25 17 -51 38 -57 48 -18 23 -86 33 -115
17 -13 -7 -35 -12 -50 -10 -14 1 -29 -2 -32 -8 -4 -6 -13 -8 -21 -5 -8 3 -28
-1 -46 -10 -29 -15 -33 -14 -60 5 -36 25 -37 33 -4 25 36 -9 45 0 32 33 -20
53 -92 76 -127 41 -22 -22 -80 -39 -80 -24 1 5 7 20 15 34 8 14 14 28 15 32 0
3 -35 6 -78 6 -43 0 -83 -3 -89 -6z m277 -82 c0 -5 -4 -10 -10 -10 -5 0 -10 5
-10 10 0 6 5 10 10 10 6 0 10 -4 10 -10z m-510 -85 c10 -12 9 -16 -5 -21 -19
-8 -40 9 -31 25 10 15 21 14 36 -4z m835 5 c7 -12 -36 -51 -47 -43 -5 2 -8 15
-8 29 0 19 5 24 24 24 14 0 28 -5 31 -10z m-1315 -170 c0 -5 -2 -10 -4 -10 -3
0 -8 5 -11 10 -3 6 -1 10 4 10 6 0 11 -4 11 -10z m326 -5 c-11 -8 -29 -15 -40
-15 -36 0 7 25 49 29 6 0 1 -6 -9 -14z m-71 -15 c3 -5 -1 -10 -10 -10 -9 0
-13 5 -10 10 3 6 8 10 10 10 2 0 7 -4 10 -10z m-95 -9 c0 -11 -39 -25 -47 -18
-3 3 -2 10 2 16 8 13 45 15 45 2z m94 -133 c50 -33 46 -47 -11 -41 -56 6 -98
37 -73 53 24 15 46 12 84 -12z m-94 -109 c0 -15 -5 -18 -23 -14 -13 4 -31 7
-40 9 -10 1 -23 8 -30 15 -10 11 -7 13 15 9 15 -3 32 -2 39 3 18 11 39 -1 39
-22z m124 -38 c14 -5 16 -10 7 -15 -9 -6 -9 -11 0 -22 16 -20 3 -17 -42 8 -21
11 -36 25 -33 30 6 10 42 9 68 -1z m-109 -41 c3 -5 1 -10 -4 -10 -6 0 -11 5
-11 10 0 6 2 10 4 10 3 0 8 -4 11 -10z m210 -50 c11 -10 47 -32 80 -48 65 -34
50 -43 -25 -17 -24 8 -55 14 -69 13 -14 -1 -37 4 -51 12 l-25 13 25 11 c35 14
36 15 14 32 -18 14 -18 15 6 8 14 -3 34 -14 45 -24z m-99 -11 c4 -8 1 -8 -14
0 -12 6 -24 16 -28 22 -4 8 -1 8 14 0 12 -6 24 -16 28 -22z m379 1 c19 -8 19
-9 -2 -9 -12 -1 -25 4 -28 9 -7 12 2 12 30 0z m65 -100 c0 -5 -4 -10 -10 -10
-5 0 -10 5 -10 10 0 6 5 10 10 10 6 0 10 -4 10 -10z m99 -81 c-25 -16 -32 -9
-13 12 12 13 20 16 22 9 3 -7 -2 -16 -9 -21z m619 14 c-10 -2 -26 -2 -35 0
-10 3 -2 5 17 5 19 0 27 -2 18 -5z"/>
<path d="M5967 5935 c-4 -8 -2 -17 4 -20 15 -10 49 5 49 21 0 19 -46 18 -53
-1z"/>
<path d="M4590 5875 c-25 -13 -52 -24 -61 -25 -24 0 -81 -68 -74 -89 2 -9 6
-54 6 -99 2 -66 6 -88 22 -108 11 -14 23 -22 28 -17 5 5 4 55 0 112 -10 111
-3 151 26 151 10 0 38 14 62 30 24 17 50 30 57 30 7 0 42 -16 79 -35 61 -33
85 -37 85 -15 0 14 -121 82 -155 86 -19 3 -46 -5 -75 -21z"/>
<path d="M6075 5858 c-11 -6 -27 -14 -35 -18 -8 -4 -16 -15 -18 -24 -5 -26 34
-19 63 11 37 41 33 54 -10 31z"/>
<path d="M6211 5859 c-14 -5 -37 -7 -53 -4 -15 4 -28 2 -28 -3 0 -19 38 -42
69 -42 17 0 43 -7 57 -16 47 -31 171 3 136 38 -8 8 -15 8 -24 1 -17 -13 -68
-22 -86 -16 -7 3 -18 16 -23 29 -9 26 -13 27 -48 13z"/>
<path d="M7288 5849 c-47 -26 -60 -157 -24 -228 18 -34 21 -93 7 -120 -6 -10
-28 -30 -50 -46 -40 -27 -54 -55 -28 -55 7 0 18 5 24 11 9 9 13 2 18 -27 4
-22 13 -59 21 -83 8 -25 14 -46 14 -48 0 -2 -19 -2 -42 -1 -34 3 -43 7 -48 25
-16 69 -83 83 -154 33 -24 -16 -46 -36 -49 -45 -4 -8 -15 -15 -25 -15 -10 0
-27 -6 -37 -14 -17 -12 -23 -11 -48 10 -39 33 -71 39 -119 23 -28 -9 -47 -24
-61 -46 -11 -19 -27 -33 -38 -33 -54 0 -139 -62 -139 -101 0 -22 -3 -22 -50
-9 -46 14 -121 -4 -161 -38 -69 -57 -129 -74 -186 -50 -34 13 -132 13 -196 -2
-33 -7 -54 -7 -74 2 -15 6 -72 12 -126 13 -111 3 -192 17 -292 49 -60 19 -70
26 -79 53 -14 41 -23 48 -40 34 -12 -10 -12 -19 2 -68 13 -47 14 -63 3 -107
-7 -28 -12 -61 -13 -73 0 -13 -6 -23 -13 -23 -7 0 -41 -32 -76 -71 -158 -177
-200 -212 -315 -269 -128 -62 -205 -91 -219 -82 -5 4 -32 7 -60 8 -27 0 -93 4
-146 9 -85 7 -104 5 -160 -14 -35 -11 -109 -25 -164 -30 -90 -8 -148 -23 -212
-53 -12 -6 -39 -11 -59 -12 -33 -1 -39 2 -44 24 -13 56 -52 121 -78 132 -15 6
-65 28 -112 49 -95 43 -213 65 -294 54 -59 -7 -67 -11 -60 -29 4 -9 21 -12 57
-11 75 5 222 -26 297 -62 36 -17 72 -33 81 -36 27 -9 72 -95 67 -128 -3 -17
-1 -32 4 -35 13 -8 9 -42 -9 -77 -9 -18 -24 -70 -33 -117 l-16 -85 -52 -25
c-28 -14 -93 -63 -144 -110 -51 -47 -112 -103 -136 -124 -31 -28 -70 -49 -147
-76 -57 -20 -132 -55 -165 -76 -34 -21 -90 -58 -125 -80 -97 -63 -247 -133
-317 -147 -35 -8 -88 -27 -118 -42 -53 -28 -62 -29 -250 -36 -150 -6 -210 -4
-260 6 -36 7 -126 25 -200 40 -74 14 -162 35 -195 45 -207 64 -323 103 -345
114 -14 8 -70 27 -125 44 -55 16 -127 42 -159 56 -33 14 -71 25 -85 24 -23 -3
-26 1 -26 26 0 25 -6 31 -42 43 -40 14 -41 15 -51 76 -11 66 -8 357 3 395 9
26 -2 28 -41 7 -16 -8 -42 -15 -57 -15 -33 0 -45 -24 -24 -48 29 -32 55 -187
60 -351 3 -137 6 -155 23 -168 11 -8 29 -11 46 -7 25 5 28 3 28 -23 0 -33 -38
-108 -91 -178 -48 -64 -59 -93 -69 -188 -5 -57 -4 -91 6 -124 8 -27 13 -85 12
-142 -1 -108 18 -372 32 -441 5 -25 9 -69 10 -99 0 -48 -4 -59 -37 -100 -49
-61 -116 -124 -183 -174 -123 -90 -407 -406 -384 -426 17 -15 139 -106 172
-129 38 -26 62 -28 62 -7 0 16 -6 22 -98 96 -35 28 -66 57 -68 64 -12 30 152
209 349 382 62 54 140 127 174 162 62 64 63 66 63 120 0 31 -7 94 -15 141 -14
86 -36 318 -34 368 2 52 40 -155 50 -273 17 -204 19 -215 39 -215 35 0 42 23
27 92 -14 58 -26 153 -32 238 -3 53 -16 124 -25 135 -4 6 -8 17 -8 25 -2 30
-21 120 -27 130 -4 6 1 24 9 42 10 19 16 60 17 103 1 40 5 79 10 86 10 16 11
-1 10 -116 -1 -53 1 -66 9 -53 16 26 9 244 -7 240 -7 -1 -13 5 -13 14 0 9 6
14 13 11 10 -4 14 6 15 40 0 25 4 49 10 55 5 5 9 -21 8 -69 0 -140 4 -193 15
-193 7 0 9 21 6 59 -6 73 8 103 17 35 3 -27 11 -103 17 -169 7 -66 16 -129 21
-140 5 -13 6 2 3 40 -3 33 -7 89 -10 125 -3 36 -10 110 -15 165 -16 167 -18
235 -8 241 5 3 7 17 4 29 -3 13 -2 26 2 29 5 3 12 -68 16 -157 7 -174 23 -282
25 -177 2 74 17 46 24 -47 3 -41 13 -83 22 -97 12 -18 16 -44 15 -93 -1 -37
-2 -77 -1 -88 2 -20 2 -20 13 -1 8 14 9 106 5 318 -3 164 -2 298 2 298 4 0 14
-47 21 -105 12 -98 11 -128 -6 -264 -7 -51 -6 -53 14 -46 20 6 22 3 22 -35 0
-25 5 -43 14 -46 7 -3 16 -23 20 -44 6 -37 21 -58 33 -46 3 3 0 13 -8 22 -20
24 -30 230 -14 269 12 28 14 24 16 -60 1 -49 1 -114 0 -142 -2 -35 1 -53 9
-53 6 0 10 8 9 18 -3 33 4 98 8 75 2 -13 11 -23 19 -23 15 0 17 -10 14 -78 -3
-67 9 -122 27 -122 11 0 13 5 7 18 -9 18 -19 300 -10 292 2 -3 14 -61 25 -129
20 -121 34 -159 49 -134 4 6 6 42 6 80 -1 37 -3 128 -4 201 -1 73 0 135 2 138
5 4 18 -223 22 -365 0 -24 6 -46 13 -48 8 -3 10 32 8 129 -3 117 -13 301 -20
366 -2 17 3 22 21 22 25 0 40 -15 24 -25 -6 -4 -10 -83 -10 -211 0 -134 3
-203 10 -199 6 3 10 30 11 58 0 45 2 49 10 27 6 -14 10 -60 10 -102 0 -50 3
-78 10 -78 8 0 9 46 5 153 -13 314 -12 358 1 355 10 -2 14 -39 18 -143 6 -201
16 -315 28 -315 7 0 8 73 3 220 -4 121 -3 220 2 220 4 0 16 -6 25 -12 15 -11
18 -46 26 -266 5 -145 13 -258 19 -264 17 -17 20 5 10 65 -8 47 -7 61 5 75 8
9 17 24 19 32 3 8 8 -25 12 -75 10 -126 10 -126 21 -123 6 2 9 79 8 211 -1
124 2 205 8 202 5 -4 9 -61 10 -128 1 -142 9 -209 27 -215 10 -3 12 38 12 193
-1 108 1 199 3 202 8 7 30 -168 30 -239 1 -65 1 -66 29 -70 32 -5 48 7 48 38
0 12 3 31 8 41 5 13 8 3 12 -32 4 -40 8 -49 22 -47 10 1 18 -5 20 -18 5 -32
23 -29 26 5 6 49 22 54 22 7 0 -31 4 -42 15 -42 17 0 18 25 17 230 -2 148 15
106 23 -60 8 -153 12 -180 30 -174 10 4 15 -5 17 -35 2 -23 8 -42 13 -44 6 -1
12 60 15 160 3 89 8 164 11 168 4 3 8 -79 10 -184 3 -132 8 -194 16 -202 22
-22 26 15 21 236 -3 166 -1 215 8 215 19 0 22 -22 29 -205 11 -295 44 -375 44
-107 0 79 2 147 5 150 4 3 6 -11 6 -32 0 -39 19 -42 21 -3 1 46 18 -16 18 -70
1 -54 14 -71 24 -30 7 26 12 286 6 292 -3 2 -11 0 -18 -5 -10 -6 -14 -30 -13
-87 0 -51 -3 -71 -8 -58 -5 11 -9 53 -9 93 l-1 72 38 0 37 0 3 -198 c2 -108 6
-199 8 -201 14 -14 20 32 25 202 4 106 7 193 8 193 0 1 10 4 22 7 16 4 19 2
14 -11 -4 -9 -9 -87 -11 -172 -2 -85 -6 -183 -8 -217 -4 -61 5 -81 19 -45 3 9
11 91 16 182 6 91 14 188 18 215 8 49 8 48 11 -30 1 -44 2 -83 1 -87 0 -3 -2
-65 -5 -137 -4 -126 3 -157 19 -89 l9 33 3 -35 c6 -64 12 -80 28 -74 8 4 17
-1 21 -10 11 -29 25 -5 24 42 -1 26 1 101 4 167 4 66 7 141 7 165 2 65 7 32
18 -110 10 -130 16 -160 33 -160 7 0 8 21 4 58 -10 93 -8 334 3 345 6 6 14 8
17 4 4 -4 7 -89 6 -189 -2 -163 9 -261 25 -244 3 2 5 107 6 232 2 186 5 228
16 232 12 4 13 -25 9 -189 -3 -107 -2 -207 2 -224 14 -59 18 -19 35 307 1 21
5 41 8 45 7 6 10 -73 9 -227 -1 -70 1 -79 8 -50 12 44 19 115 25 255 3 60 8
111 13 113 5 1 9 -72 10 -164 1 -91 5 -170 8 -175 18 -29 24 5 24 135 0 156 7
236 22 236 5 0 9 -19 8 -42 -1 -24 -1 -45 0 -48 1 -3 3 -78 4 -167 1 -114 5
-166 14 -175 9 -9 12 7 14 83 1 51 3 110 4 129 1 19 3 83 3 141 1 103 2 106
26 117 42 19 50 14 21 -13 -19 -18 -26 -31 -21 -43 4 -9 6 -117 6 -239 -1
-150 2 -224 9 -228 6 -4 13 -5 15 -4 1 2 5 45 9 94 6 93 24 338 27 365 5 46
17 -63 19 -170 2 -104 15 -220 19 -171 1 10 4 11 15 2 15 -12 20 42 32 334 5
122 9 152 23 163 14 11 17 9 23 -20 5 -18 8 -123 7 -233 -1 -256 0 -280 8
-272 8 8 10 32 20 212 7 123 8 226 3 318 -1 16 4 35 11 43 25 30 31 -18 33
-257 2 -217 6 -262 21 -247 7 7 12 508 5 527 -3 9 2 16 12 18 15 4 17 -19 20
-251 3 -224 7 -281 22 -265 2 2 6 123 10 269 6 238 13 297 32 277 3 -3 6 -111
5 -239 -1 -188 1 -229 11 -213 7 11 13 31 13 45 1 14 2 79 3 144 1 66 5 116 9
113 8 -9 11 -47 14 -185 2 -80 6 -109 13 -102 7 7 11 93 12 243 1 127 6 233
10 234 5 2 9 -85 9 -192 0 -133 4 -198 11 -205 18 -18 23 25 22 217 0 104 4
178 11 190 8 13 10 -34 11 -180 0 -154 3 -198 13 -195 15 6 24 101 26 281 1
97 -2 137 -10 137 -8 0 -7 5 2 17 12 14 15 11 21 -33 3 -27 7 -104 7 -171 1
-68 5 -123 10 -123 16 0 21 47 22 214 0 157 8 199 23 124 3 -18 6 -128 6 -246
0 -214 10 -265 26 -130 7 69 8 71 14 33 4 -22 8 -36 9 -31 0 6 8 1 16 -10 11
-15 15 -16 16 -4 1 8 1 18 0 23 -5 33 1 399 7 427 5 21 7 -13 4 -87 -4 -109
-3 -123 12 -123 14 0 16 -19 17 -152 2 -146 4 -207 9 -273 2 -28 3 -27 11 10
4 22 8 141 9 265 1 199 3 222 15 195 10 -21 14 -77 15 -185 1 -141 3 -152 15
-120 7 19 14 63 14 98 1 34 5 62 9 62 4 0 14 -35 21 -77 29 -182 57 -259 208
-569 26 -53 36 -88 39 -135 2 -35 4 -66 4 -69 0 -3 12 9 25 25 31 38 32 19 5
-61 -12 -32 -25 -98 -30 -146 -5 -49 -11 -92 -14 -97 -3 -4 -8 -51 -11 -102
-2 -52 -14 -128 -26 -169 -11 -41 -27 -102 -35 -135 -10 -38 -23 -64 -37 -74
-12 -8 -91 -82 -175 -164 -84 -81 -167 -154 -185 -162 -63 -26 -166 -45 -212
-38 -38 5 -56 0 -122 -32 -43 -20 -92 -48 -109 -60 -41 -31 -136 -52 -274 -61
-127 -8 -390 -8 -418 0 -9 3 -44 7 -77 11 -33 3 -64 11 -70 18 -5 7 -34 14
-63 15 -30 2 -64 7 -76 12 -12 4 -49 11 -82 15 -140 15 -211 28 -244 45 -19
10 -53 21 -75 24 -64 11 -233 -10 -346 -42 -57 -16 -159 -37 -226 -45 -67 -9
-135 -23 -150 -31 l-28 -15 45 0 c25 -1 72 6 105 13 33 8 85 15 115 15 130 1
556 -16 567 -22 6 -4 51 -9 100 -12 48 -3 104 -8 123 -13 19 -5 53 -4 75 1 22
5 56 6 75 2 19 -3 62 -8 95 -11 33 -3 76 -9 95 -14 85 -22 568 -7 665 21 22 6
87 38 144 71 66 38 107 56 113 50 13 -13 164 -5 268 15 76 15 92 21 150 68 72
57 124 88 134 78 3 -4 6 -20 6 -37 0 -36 19 -78 38 -84 11 -3 13 11 7 81 -8
97 4 151 60 269 19 40 35 87 35 106 0 18 5 43 11 55 21 38 49 168 49 224 0 86
34 312 61 398 10 33 21 77 24 99 4 21 9 35 12 32 3 -3 0 -60 -7 -126 -9 -80
-10 -124 -3 -131 10 -10 44 283 43 366 -1 22 3 65 8 95 6 36 7 -65 4 -287 -4
-256 -2 -343 6 -343 8 0 12 35 14 113 0 61 0 119 -1 127 -1 8 4 113 11 233 9
175 14 217 26 217 8 0 12 -6 8 -15 -7 -20 -9 -585 -2 -593 3 -3 8 -3 11 0 3 3
8 129 12 281 3 153 8 277 10 277 19 0 39 -42 44 -94 9 -85 1 -333 -17 -511 -8
-82 -17 -179 -20 -215 -5 -60 -4 -63 9 -40 8 14 20 79 26 145 6 66 16 156 21
200 6 44 12 159 14 255 4 152 7 175 20 173 9 -2 23 -4 32 -5 28 -5 26 17 -3
34 -16 9 -42 33 -58 54 -27 33 -106 122 -213 237 -24 26 -43 37 -63 37 -37 0
-37 -14 0 -36 46 -27 74 -70 61 -93 -5 -11 -10 -51 -10 -89 0 -64 -20 -221
-39 -302 l-8 -35 -11 53 c-7 30 -49 129 -93 220 -100 208 -126 284 -174 517
-8 39 -21 95 -30 125 -31 101 -54 204 -48 214 4 5 10 -1 15 -13 4 -12 12 -20
17 -17 5 3 11 -4 14 -15 4 -15 11 -20 23 -15 12 4 15 2 10 -9 -3 -8 -1 -25 4
-37 10 -27 12 -25 15 25 3 56 25 73 25 20 0 -23 5 -45 10 -48 6 -4 10 11 10
39 0 26 6 51 14 59 10 10 19 58 27 143 7 71 16 133 20 137 4 5 5 -56 2 -136
-4 -102 -3 -146 6 -151 6 -4 12 -4 12 1 4 24 8 95 14 238 12 268 29 227 26
-65 0 -83 0 -84 15 -52 10 23 16 83 20 200 3 92 10 172 15 177 7 6 9 -61 7
-192 -2 -112 -1 -203 2 -203 12 0 30 127 30 209 0 50 4 81 11 81 7 0 8 -48 4
-152 -5 -122 -4 -151 6 -141 8 8 15 67 21 165 12 212 18 258 30 258 7 0 9 -57
6 -180 -3 -99 -2 -180 2 -180 10 0 28 127 36 250 8 114 24 134 25 33 1 -38 2
-77 3 -88 1 -11 3 -36 4 -55 2 -30 4 -32 13 -16 6 10 12 63 13 117 1 54 5 102
9 105 4 4 7 1 8 -7 5 -120 11 -194 14 -197 2 -2 8 -1 14 3 7 3 11 44 11 100 0
133 19 132 22 -2 2 -65 7 -107 13 -106 6 1 14 45 19 98 5 52 12 95 16 95 4 0
11 -36 16 -80 5 -45 13 -79 19 -78 5 2 12 -10 15 -27 11 -62 25 -26 37 90 14
141 11 125 23 125 7 0 9 -39 8 -107 -3 -91 -1 -108 12 -108 12 0 17 20 22 95
4 52 10 101 13 109 12 30 20 -5 25 -107 3 -64 9 -106 15 -105 6 1 18 47 27
103 26 149 36 151 30 7 -3 -83 -1 -126 6 -131 13 -8 19 23 27 144 7 98 13 123
26 114 5 -3 7 -9 4 -14 -2 -4 -7 -41 -10 -81 -3 -41 -8 -93 -11 -116 -6 -48
10 -65 24 -26 l10 28 1 -33 c1 -22 5 -32 14 -30 13 5 24 76 27 183 1 54 4 64
10 43 4 -15 6 -58 4 -95 -2 -37 -1 -77 2 -87 6 -18 8 -18 25 5 l19 24 0 -38
c0 -27 -7 -45 -23 -61 -21 -21 -30 -23 -93 -19 -38 3 -94 1 -124 -5 -40 -7
-71 -6 -115 3 -73 15 -119 11 -199 -19 -53 -20 -66 -30 -102 -82 -23 -32 -67
-104 -99 -159 -31 -55 -61 -102 -66 -105 -18 -12 -42 -87 -40 -130 1 -25 10
-71 21 -103 11 -31 20 -63 20 -71 0 -15 21 -26 51 -26 20 0 27 26 8 32 -6 2
-21 43 -34 91 -28 104 -25 122 39 222 25 39 58 95 75 125 69 129 112 166 219
189 39 8 65 8 98 0 26 -7 83 -10 135 -7 52 3 89 2 89 -4 0 -5 -11 -24 -25 -42
-14 -18 -25 -38 -25 -44 0 -7 -4 -12 -9 -12 -7 0 -51 -100 -51 -116 0 -2 8 -4
18 -4 11 0 25 17 39 48 37 79 102 160 139 172 35 12 78 55 89 89 3 11 30 31
61 45 61 28 73 52 22 43 -18 -3 -41 -8 -50 -12 -16 -6 -18 -1 -17 51 1 57 1
58 11 24 15 -53 22 -54 45 -9 12 25 24 36 28 29 5 -8 10 -8 21 1 12 9 14 6 14
-19 0 -53 33 -56 36 -4 3 57 4 58 13 43 10 -16 31 -6 31 15 0 8 9 14 20 14 11
0 20 5 20 10 0 6 7 10 15 10 9 0 18 7 21 15 4 8 12 15 20 15 9 0 14 11 14 30
0 17 5 30 11 30 6 0 9 -9 6 -19 -2 -10 -1 -25 3 -32 7 -10 11 -10 24 0 13 11
17 9 26 -15 6 -15 10 -39 8 -53 -2 -21 -9 -27 -37 -29 -18 -2 -38 1 -44 7 -6
6 -18 11 -26 11 -38 0 -126 -155 -96 -166 22 -9 34 4 41 41 8 46 45 79 81 72
15 -3 43 1 62 9 37 16 99 18 119 5 9 -6 11 -19 7 -45 -8 -41 2 -46 37 -16 98
82 118 89 118 40 0 -38 11 -38 54 0 21 19 40 28 50 24 9 -3 23 -4 31 0 13 4
13 9 3 25 -9 15 -9 23 0 33 19 23 25 94 13 146 -7 27 -16 96 -20 153 l-7 104
-16 -35 c-12 -28 -14 -58 -10 -150 11 -217 11 -212 -28 -248 -40 -36 -54 -40
-45 -13 10 32 -16 42 -60 22 -22 -10 -46 -25 -54 -34 -18 -23 -26 -21 -38 6
-7 14 -27 28 -51 36 l-39 13 -7 76 c-3 42 -3 117 0 167 4 56 2 112 -6 148
l-12 58 42 66 c22 36 45 87 51 112 l10 48 42 -8 c23 -5 71 -15 106 -23 36 -8
112 -18 170 -21 58 -3 123 -11 143 -17 28 -8 56 -8 112 2 61 10 89 10 155 -1
45 -7 81 -16 81 -21 0 -4 -10 -14 -22 -22 -31 -20 -78 -31 -78 -18 0 5 -14 15
-30 22 -25 10 -37 10 -73 -4 -32 -12 -85 -16 -222 -18 -108 -2 -183 -7 -187
-13 -4 -5 -8 -24 -8 -40 0 -23 -7 -35 -29 -48 -40 -23 -54 -86 -42 -193 4 -45
11 -85 14 -90 3 -5 2 -25 -2 -44 -9 -44 7 -98 32 -112 27 -14 42 3 27 32 -12
22 -17 85 -22 262 -3 85 -2 88 28 120 17 18 36 41 41 52 10 17 13 16 49 -21
22 -22 59 -52 84 -68 25 -15 56 -37 70 -50 30 -27 108 -68 171 -90 25 -8 72
-31 104 -50 70 -42 78 -43 70 -7 -9 44 16 59 38 23 18 -31 15 -56 -9 -65 -22
-8 -16 -26 9 -26 28 0 193 -83 305 -154 56 -35 140 -69 342 -136 100 -33 194
-59 220 -59 25 -1 74 -6 110 -12 36 -7 130 -13 210 -14 119 -2 151 1 180 15
59 28 130 44 142 32 8 -8 18 -6 35 5 21 14 36 14 130 3 59 -7 132 -21 162 -31
41 -15 63 -17 85 -10 17 5 83 15 146 21 63 7 137 19 164 26 27 8 63 14 78 14
44 0 124 26 213 70 44 21 100 48 125 60 25 11 68 34 95 50 28 16 56 30 63 30
7 0 38 11 68 25 30 14 58 25 62 25 22 0 131 56 142 74 11 18 9 23 -26 53 -22
19 -67 48 -101 65 -35 17 -63 35 -63 40 0 5 13 2 28 -6 18 -9 57 -15 103 -15
85 1 146 -18 171 -53 16 -21 17 -29 3 -108 -8 -47 -17 -103 -20 -125 -8 -52
-44 -156 -62 -176 -14 -16 -118 -41 -184 -43 -19 -1 -47 -11 -62 -23 -17 -13
-54 -25 -100 -32 -80 -13 -155 -46 -214 -95 -21 -18 -54 -38 -73 -46 -19 -7
-40 -17 -46 -22 -15 -11 -280 -141 -324 -158 -19 -8 -50 -24 -68 -37 -18 -12
-59 -27 -90 -34 -84 -17 -313 -15 -398 4 -44 10 -91 14 -126 10 -60 -6 -100 4
-188 46 -43 20 -70 26 -125 26 -38 0 -82 -4 -97 -9 l-28 -8 0 55 c0 55 -15
107 -32 107 -10 0 -9 7 -14 -77 -3 -41 2 -112 12 -170 9 -54 20 -161 25 -238
4 -77 11 -153 15 -168 5 -23 0 -34 -33 -65 -21 -21 -73 -55 -114 -76 -41 -21
-94 -52 -119 -70 -25 -17 -63 -40 -84 -49 -22 -10 -63 -39 -92 -64 -30 -25
-79 -61 -111 -81 -84 -52 -226 -121 -236 -115 -4 3 -16 -2 -25 -10 -22 -20
-101 -54 -177 -77 -33 -10 -82 -27 -110 -38 -241 -98 -439 -118 -551 -56 -27
15 -56 32 -64 39 -8 7 -35 20 -60 28 -25 9 -61 22 -80 30 -19 8 -55 18 -80 22
-25 4 -81 24 -125 45 -130 62 -250 100 -346 110 -48 5 -96 13 -107 19 -10 5
-48 15 -83 20 -100 16 -100 17 -105 -225 -2 -109 -7 -245 -11 -301 -8 -106 -7
-123 7 -123 4 0 10 44 13 97 3 54 10 141 15 193 6 52 13 144 16 204 3 60 8
111 10 114 3 2 19 1 36 -3 24 -5 30 -11 25 -23 -11 -29 -19 -552 -8 -552 8 0
38 423 38 533 0 15 5 27 11 27 6 0 10 -10 10 -22 -1 -13 4 -22 12 -21 16 4 16
-92 -3 -322 -21 -259 -30 -555 -18 -555 6 0 13 64 17 163 4 89 9 176 11 192 5
36 36 439 37 478 1 15 6 26 12 24 13 -4 14 -110 4 -242 -15 -177 -19 -331 -10
-360 7 -24 10 -11 15 70 17 247 40 501 47 508 3 4 15 5 25 1 17 -7 17 -20 11
-208 -4 -111 -11 -244 -16 -296 -5 -56 -5 -99 0 -104 17 -17 36 148 46 412 5
140 9 175 21 179 30 12 34 -21 28 -212 -4 -104 -8 -192 -10 -195 -1 -3 -5 -57
-9 -120 -4 -80 -3 -108 4 -91 10 24 34 257 45 436 10 168 13 178 48 152 15
-10 19 -36 23 -152 5 -116 18 -285 37 -485 2 -19 -1 -52 -6 -73 -6 -25 -6 -42
0 -48 18 -18 67 450 73 694 0 9 7 17 17 17 15 0 15 -24 9 -282 -4 -156 -9
-305 -13 -333 -4 -36 -2 -47 5 -40 14 13 29 141 31 270 1 54 4 101 6 105 2 3
5 59 6 124 2 112 3 117 23 114 21 -3 21 -7 21 -275 -1 -250 5 -311 20 -208 3
22 9 131 13 242 4 111 11 205 15 209 4 4 12 3 18 -3 11 -11 13 -240 3 -345 -4
-35 -2 -58 4 -58 14 0 20 43 33 225 6 88 13 162 15 165 17 16 23 -46 21 -191
-5 -276 13 -254 30 36 7 105 11 130 23 130 20 0 24 -61 11 -188 -11 -116 0
-162 17 -71 6 33 14 98 18 146 11 146 26 101 18 -55 -9 -189 -9 -201 5 -193 4
3 11 49 15 103 10 146 25 223 43 223 13 0 15 -9 10 -53 -4 -29 -9 -114 -12
-188 -6 -164 8 -138 30 56 9 72 17 141 19 155 1 14 10 26 20 28 16 4 17 -9 12
-175 -5 -156 -4 -174 8 -148 7 17 16 85 20 155 6 107 9 138 16 170 0 3 7 -4
15 -14 12 -16 15 -64 15 -255 0 -217 5 -278 16 -184 3 21 8 129 11 240 l6 201
26 5 c14 3 28 3 31 0 3 -2 5 -146 5 -318 0 -297 7 -376 19 -220 10 123 15 256
16 406 l0 147 63 10 c34 6 71 12 81 14 23 4 23 11 27 -320 2 -134 7 -246 10
-248 14 -9 20 73 19 296 0 129 -1 249 0 266 0 25 5 33 24 36 24 5 24 4 30
-106 4 -61 8 -176 11 -256 2 -80 4 -152 5 -160 0 -13 1 -13 10 0 6 9 10 127
10 283 0 171 4 267 10 267 6 0 10 -34 10 -82 1 -90 4 -137 21 -326 7 -67 16
-125 22 -129 9 -6 9 20 -9 407 l-7 146 27 12 c64 29 61 39 65 -255 1 -148 5
-270 7 -272 15 -16 19 42 19 277 0 215 3 269 14 276 22 14 31 -13 32 -104 1
-47 3 -98 4 -115 2 -16 4 -78 5 -137 3 -104 13 -136 26 -83 3 14 3 126 0 249
-6 223 -6 225 15 231 11 4 26 2 31 -3 6 -6 12 -99 15 -219 3 -149 9 -217 19
-240 8 -17 14 -36 14 -42 0 -6 5 -11 11 -11 8 0 10 19 5 65 -8 76 4 435 14
435 4 0 8 -89 9 -197 2 -181 4 -214 15 -202 2 2 7 87 11 189 4 102 10 210 15
240 l7 55 2 -65 c1 -36 2 -129 1 -207 -1 -90 3 -143 9 -148 7 -4 11 5 12 22 0
15 2 39 4 53 2 14 6 81 9 149 3 69 8 127 11 129 3 3 5 -79 5 -181 0 -118 4
-187 10 -187 6 0 10 8 11 18 1 9 5 109 10 222 5 113 10 217 10 233 1 15 6 27
10 27 5 0 10 -73 10 -162 2 -241 3 -266 11 -273 11 -11 18 65 23 265 7 248 25
279 26 44 1 -217 8 -346 20 -359 11 -11 10 -33 14 288 2 248 4 269 21 282 18
13 19 10 22 -65 1 -44 -2 -137 -8 -207 -27 -340 -33 -440 -27 -457 13 -32 19
-10 22 81 2 48 11 144 20 213 20 159 32 315 29 408 -1 39 2 75 7 78 5 3 9 -79
10 -193 1 -109 2 -209 4 -223 1 -14 3 -45 4 -70 2 -37 4 -41 11 -23 5 12 10
99 11 195 5 277 14 293 19 33 6 -267 22 -326 30 -110 l5 130 8 -90 c10 -103
15 -127 26 -120 5 2 9 71 9 153 1 163 11 374 18 381 2 2 4 -34 4 -80 0 -109
17 -371 26 -392 13 -34 26 -4 20 47 -6 52 -9 381 -4 426 3 21 -1 25 -22 23
l-25 -3 25 20 c22 17 39 25 40 18 0 -2 3 -84 6 -183 6 -249 14 -364 25 -371
11 -6 10 -13 9 293 0 154 3 244 10 248 6 4 10 -31 10 -102 1 -182 18 -465 29
-476 8 -8 11 52 11 203 0 117 2 211 4 209 2 -2 11 -58 20 -124 9 -66 20 -151
26 -190 5 -38 12 -101 15 -140 5 -72 22 -214 31 -272 11 -69 22 -28 19 70 -2
66 -1 88 4 62 8 -42 65 -164 99 -212 11 -15 32 -53 47 -83 15 -30 46 -76 69
-102 22 -25 68 -78 101 -118 33 -39 72 -84 87 -101 15 -16 35 -44 44 -62 10
-17 26 -45 38 -60 16 -22 20 -40 18 -87 -1 -33 1 -60 6 -60 16 0 32 51 32 102
0 61 -33 124 -112 213 -173 197 -278 335 -278 363 0 6 -3 12 -7 14 -16 6 -83
155 -97 213 -8 33 -22 83 -31 110 -9 28 -20 64 -25 80 -5 17 -14 82 -20 145
-6 63 -16 127 -22 142 -5 14 -15 99 -22 187 l-12 161 29 28 29 27 -5 -95 c-6
-91 5 -91 17 0 3 19 10 60 16 90 6 30 13 147 16 260 3 112 7 206 10 209 3 3 5
-73 4 -169 -2 -221 -2 -209 10 -190 5 8 10 35 11 60 1 25 6 -24 10 -109 5 -85
11 -157 14 -160 18 -18 24 51 24 293 1 149 5 274 10 279 23 23 35 -42 37 -208
3 -205 2 -200 11 -192 5 6 15 129 27 335 2 29 8 58 13 63 13 13 26 -158 27
-351 1 -74 5 -134 9 -132 4 1 13 2 20 2 11 0 16 33 21 138 13 227 24 272 24
97 1 -210 1 -215 11 -215 9 0 20 138 23 293 1 95 11 125 22 70 3 -16 10 -111
16 -213 7 -102 16 -189 21 -195 18 -18 25 14 18 81 -4 37 -7 147 -8 245 -2
147 1 179 12 179 18 0 27 -146 27 -452 0 -145 4 -228 10 -228 10 0 11 17 12
157 0 34 4 79 9 100 6 21 16 115 23 209 7 94 17 177 22 185 13 22 23 -50 23
-184 1 -66 5 -116 10 -113 13 9 21 63 22 154 1 51 5 80 11 76 5 -4 7 -30 4
-63 -4 -48 -9 -268 -7 -296 1 -5 6 -3 11 5 5 8 10 47 11 85 2 109 15 145 16
47 2 -88 8 -122 24 -122 5 0 9 56 10 128 0 70 4 150 8 177 l7 50 7 -45 c3 -25
8 -92 11 -149 3 -57 8 -106 11 -109 14 -15 18 22 17 183 0 137 2 175 13 175
14 0 28 -101 21 -163 -2 -22 -7 -100 -11 -175 -5 -101 -4 -134 4 -126 6 6 14
40 18 77 3 36 10 64 14 61 11 -6 9 -16 23 96 l12 95 8 -163 c4 -89 12 -165 17
-168 5 -3 9 1 9 8 0 10 2 10 9 -1 19 -29 28 33 36 249 6 151 19 235 33 226 4
-2 4 -46 0 -98 -20 -258 -21 -305 -9 -313 7 -4 14 -5 16 -3 2 2 7 51 10 108 9
143 33 312 46 325 9 7 10 3 6 -15 -3 -14 -9 -103 -13 -199 -6 -144 -5 -173 6
-169 9 3 14 18 13 41 0 21 4 40 8 43 5 3 9 -11 9 -31 0 -25 4 -35 13 -33 8 3
13 33 14 94 3 136 14 253 24 260 5 3 9 16 9 29 0 13 5 27 12 31 11 7 10 -42
-10 -314 -4 -52 -4 -99 0 -105 10 -16 28 36 28 79 0 19 7 78 15 132 7 53 15
122 16 152 1 30 6 64 11 75 11 27 0 -417 -13 -522 -7 -51 -7 -88 -1 -98 15
-29 30 74 47 341 19 297 23 334 36 334 10 0 11 -275 1 -450 -4 -63 -5 -133 -2
-155 9 -74 24 -31 26 80 2 61 5 121 8 135 4 14 8 110 11 214 3 104 8 193 11
197 13 22 25 5 23 -33 -2 -77 18 -468 25 -475 14 -15 20 13 23 109 3 124 14
156 24 73 14 -100 24 -141 32 -128 4 7 13 105 19 218 8 135 15 202 21 196 6
-6 12 -93 15 -193 4 -175 6 -184 28 -204 l22 -22 6 22 c2 11 7 113 11 226 8
260 12 321 25 334 7 7 10 -65 10 -223 -1 -214 7 -288 24 -235 5 17 15 323 16
477 0 44 3 57 15 57 11 0 15 -11 16 -37 0 -21 2 -51 3 -68 2 -16 -1 -124 -5
-240 -7 -212 -2 -304 16 -295 6 3 10 37 11 75 0 39 4 120 8 180 5 61 9 175 10
255 l2 145 26 3 c22 3 26 -1 31 -33 3 -19 1 -102 -4 -183 -11 -165 -3 -345 15
-339 7 2 12 36 13 88 5 185 25 475 34 483 17 18 19 -2 10 -95 -16 -158 -22
-301 -12 -295 13 8 29 89 36 172 5 79 23 210 31 236 5 16 33 33 41 24 3 -3 0
-60 -7 -128 -6 -68 -13 -168 -16 -223 -2 -55 -7 -119 -9 -142 -5 -42 9 -59 19
-25 8 26 24 147 31 237 4 44 8 91 10 105 22 178 25 190 38 190 9 0 11 -79 9
-337 -2 -242 0 -335 8 -327 6 6 14 59 17 118 3 59 10 109 15 112 4 3 8 2 8 -3
0 -4 4 -34 10 -66 5 -32 10 -119 11 -192 0 -74 5 -152 9 -172 4 -21 10 -99 13
-173 3 -99 9 -146 22 -175 15 -34 18 -73 19 -260 0 -209 -1 -222 -22 -262 -12
-23 -22 -49 -22 -57 0 -8 -25 -44 -55 -80 -74 -87 -65 -113 14 -37 66 64 80
88 109 186 37 123 36 384 -2 528 -13 51 -17 92 -31 322 -3 50 -8 122 -11 160
-3 39 -7 99 -9 135 -2 36 -9 126 -15 200 -19 216 -23 400 -8 400 51 2 99 107
124 270 27 173 28 213 7 232 -39 34 -140 68 -206 68 -49 0 -75 6 -113 26 -27
14 -54 32 -60 40 -9 11 -21 12 -64 4 -29 -5 -56 -10 -60 -10 -4 0 -12 18 -19
40 -16 53 -52 94 -106 120 -42 20 -47 21 -76 6 -30 -15 -32 -14 -49 7 -34 41
-157 22 -202 -32 -23 -28 -42 -26 -62 4 -17 26 -60 52 -109 66 -35 10 -82 -9
-117 -46 l-23 -24 -18 23 c-10 13 -34 27 -53 30 -27 5 -33 10 -29 25 3 10 -6
30 -21 47 l-25 29 -33 -18 c-19 -11 -34 -15 -36 -8 -2 5 -20 32 -41 58 -31 38
-38 54 -34 79 10 64 -86 110 -144 69 -19 -13 -24 -13 -51 2 -28 16 -33 16 -64
2 -31 -15 -35 -15 -72 4 -34 18 -42 19 -73 8 -25 -10 -38 -10 -46 -2 -16 16
-48 14 -68 -5 -13 -12 -22 -13 -37 -5 -16 8 -18 17 -13 43 4 17 1 67 -7 110
-13 78 -13 78 13 105 33 36 30 83 -10 193 -15 42 -15 49 0 113 9 38 15 70 13
72 -2 2 -11 -1 -20 -6z m-160 -561 c19 -19 14 -45 -10 -62 -29 -21 -41 -20
-69 4 l-24 20 28 25 c31 27 56 32 75 13z m-298 -68 c24 -24 25 -43 5 -64 -25
-25 -56 -30 -74 -11 -15 15 -14 18 12 40 15 13 27 26 27 28 0 2 -15 2 -32 0
-31 -4 -32 -3 -14 11 27 21 52 20 76 -4z m188 -48 c2 -7 -6 -12 -17 -12 -21 0
-27 11 -14 24 9 9 26 2 31 -12z m269 2 c9 -24 -10 -36 -33 -19 -16 13 -17 16
-4 25 21 14 30 12 37 -6z m250 4 c11 -18 10 -52 -2 -60 -17 -13 -35 -9 -35 7
0 8 -6 15 -13 15 -19 0 -36 20 -30 36 6 18 69 19 80 2z m267 6 c9 -3 16 -17
16 -30 0 -18 -8 -25 -32 -32 -38 -10 -43 -7 -52 30 -5 20 -2 28 11 31 28 7 40
7 57 1z m-682 -29 c-5 -28 -14 -31 -31 -11 -10 11 -8 17 6 25 27 16 31 13 25
-14z m555 5 c11 -17 10 -21 -8 -30 -29 -16 -49 -5 -49 25 0 19 5 25 23 25 12
0 28 -9 34 -20z m-294 4 c9 -9 -4 -35 -14 -28 -5 3 -9 12 -9 20 0 14 12 19 23
8z m-710 -57 c9 -23 17 -45 17 -49 0 -8 -62 -30 -68 -23 -8 7 19 35 34 35 8 0
14 5 14 11 0 6 -7 8 -16 5 -9 -3 -29 -6 -45 -6 -37 0 -60 -40 -41 -71 10 -15
9 -19 -2 -19 -14 0 -26 29 -26 66 0 26 35 73 64 84 39 16 51 10 69 -33z m607
3 c24 0 35 -17 21 -34 -19 -23 -69 -27 -99 -9 -45 29 -51 43 -26 68 15 14 19
14 51 -5 19 -11 43 -20 53 -20z m-230 1 c0 -6 -5 -13 -10 -16 -6 -4 -17 -23
-26 -43 -15 -37 -30 -52 -52 -52 -9 0 -10 5 -2 19 5 11 10 31 10 46 0 20 8 29
33 40 38 17 47 18 47 6z m-180 -15 c-8 -7 -28 -16 -45 -20 l-30 -6 24 20 c27
24 75 30 51 6z m850 -11 c7 -9 10 -18 7 -21 -9 -9 -48 16 -42 27 9 13 21 11
35 -6z m-790 -24 c0 -24 -64 -81 -90 -81 -11 0 -24 8 -29 19 -8 14 -5 23 13
40 12 11 30 21 39 21 9 0 19 5 22 10 11 18 45 11 45 -9z m455 9 c-3 -5 -11
-10 -16 -10 -6 0 -7 5 -4 10 3 6 11 10 16 10 6 0 7 -4 4 -10z m205 -2 c0 -7
-7 -22 -15 -32 -18 -23 -19 -69 -4 -98 15 -27 7 -31 -41 -23 l-42 7 26 27 c18
19 26 38 26 63 0 20 3 43 6 52 7 19 44 22 44 4z m283 -20 c29 -38 43 -78 28
-78 -5 0 -13 5 -16 11 -5 7 -13 5 -25 -6 -22 -20 -51 -8 -76 30 -21 32 -11 46
28 38 28 -6 31 -4 26 15 -9 32 7 27 35 -10z m-378 -26 c8 -33 -15 -57 -46 -47
-21 7 -21 9 -6 20 24 17 22 38 -3 30 -23 -7 -25 -2 -8 24 15 25 54 9 63 -27z
m-1017 11 c37 -33 37 -60 -1 -98 -47 -47 -69 -45 -92 8 -10 23 -27 48 -37 55
-15 11 -16 17 -8 27 23 27 110 32 138 8z m292 13 c0 -3 -4 -8 -10 -11 -5 -3
-10 -1 -10 4 0 6 5 11 10 11 6 0 10 -2 10 -4z m928 -7 c25 -9 34 -20 48 -62
l17 -51 -27 -23 c-36 -31 -52 -29 -92 11 -38 38 -46 92 -18 120 18 19 30 20
72 5z m-550 -15 c26 -18 27 -24 9 -48 -12 -16 -16 -17 -38 -5 -13 8 -25 15
-27 15 -6 3 18 54 26 54 4 0 18 -7 30 -16z m195 0 c10 -4 13 -19 11 -57 -2
-49 -4 -52 -33 -58 -28 -6 -31 -4 -26 12 5 15 1 19 -19 19 -29 0 -32 10 -14
43 21 39 49 54 81 41z m-644 -40 c-6 -8 -15 -14 -20 -14 -14 0 -11 28 4 33 20
7 29 -4 16 -19z m-419 -28 c0 -8 12 -28 26 -45 21 -26 24 -34 14 -46 -21 -26
-64 -18 -83 14 -17 28 -15 52 6 79 13 16 37 15 37 -2z m484 -9 c16 -11 15 -14
-13 -35 l-31 -23 0 29 c0 43 13 52 44 29z m1241 4 c3 -5 -8 -18 -24 -27 -17
-10 -35 -30 -42 -46 -6 -15 -16 -28 -21 -28 -6 0 -6 5 1 14 6 7 9 21 5 29 -12
31 64 85 81 58z m-1357 -28 c4 -25 -27 -49 -76 -59 -28 -6 -32 -4 -32 14 0 12
5 24 11 27 6 4 8 13 5 20 -6 16 16 24 59 22 23 -2 31 -7 33 -24z m402 7 c20
-15 23 -21 13 -31 -7 -7 -13 -21 -13 -30 0 -28 -17 -32 -47 -11 -16 11 -41 27
-56 36 -32 20 -27 36 11 36 15 0 34 5 42 10 20 13 21 13 50 -10z m148 -23 c20
-24 24 -63 8 -76 -9 -8 -16 -24 -16 -37 0 -29 -15 -31 -30 -4 -6 11 -17 17
-24 14 -8 -3 -19 3 -25 15 -27 49 53 130 87 88z m242 4 c0 -5 -7 -12 -16 -15
-24 -9 -28 -7 -14 9 14 17 30 20 30 6z m906 -16 c15 -15 24 -34 22 -47 -3 -18
-11 -22 -51 -24 -41 -3 -49 0 -63 22 -41 61 38 103 92 49z m-531 5 c-3 -5 -13
-10 -21 -10 -8 0 -14 5 -14 10 0 6 9 10 21 10 11 0 17 -4 14 -10z m287 -18
c23 -23 -2 -61 -55 -88 -44 -22 -49 -23 -34 -7 23 26 22 33 -7 33 -34 0 -41
28 -14 57 19 21 30 24 62 20 21 -3 43 -10 48 -15z m529 -1 c21 -17 22 -20 9
-52 -20 -51 -23 -52 -69 -19 -41 30 -59 55 -48 67 5 4 52 18 78 22 4 1 17 -7
30 -18z m-2591 -11 c11 -7 12 -14 4 -27 -16 -25 -28 -26 -55 -4 -20 18 -22 22
-9 31 19 12 41 12 60 0z m1829 -13 c-2 -1 -29 -19 -60 -40 -62 -41 -74 -44
-83 -21 -8 20 1 34 20 34 14 0 22 3 79 32 17 8 34 11 39 7 5 -5 8 -10 5 -12z
m931 0 c19 -12 42 -37 53 -55 17 -30 18 -35 4 -70 -20 -50 -54 -57 -124 -23
-31 14 -53 32 -53 41 1 40 21 97 41 113 28 22 39 22 79 -6z m-1870 -8 c0 -18
-2 -19 -15 -9 -8 7 -15 16 -15 21 0 5 7 9 15 9 9 0 15 -9 15 -21z m665 6 c19
-4 25 -12 25 -30 0 -20 5 -25 24 -25 35 0 39 -24 8 -47 -20 -14 -34 -18 -49
-12 -16 6 -32 1 -58 -17 -28 -19 -40 -22 -50 -14 -14 12 -9 44 5 35 5 -3 15
-2 24 1 19 7 17 73 -2 96 -15 19 -5 29 24 23 13 -3 35 -7 49 -10z m-1397 -20
c2 -20 -58 -95 -76 -95 -15 0 -35 56 -28 78 13 41 99 55 104 17z m1177 16 c3
-5 -6 -22 -20 -37 -27 -29 -31 -44 -15 -60 13 -13 -4 -30 -41 -39 -18 -4 -31
-1 -43 10 -42 43 11 135 78 135 19 0 37 -4 41 -9z m-1501 -31 c3 -20 16 -37
36 -48 32 -18 37 -37 18 -77 -11 -25 -32 -29 -34 -7 -3 25 -5 27 -13 14 -6
-11 -27 -2 -89 39 -67 44 -102 80 -102 104 0 3 40 5 89 5 l89 0 6 -30z m1008
10 c12 -11 29 -20 39 -20 9 0 20 -8 23 -17 7 -18 -9 -33 -36 -33 -9 0 -23 -3
-32 -6 -10 -4 -20 5 -31 25 -13 25 -13 34 -3 51 16 24 14 24 40 0z m-903 -3
c13 -16 5 -27 -19 -27 -20 0 -43 24 -33 33 11 12 40 8 52 -6z m746 -7 c40 -25
51 -56 25 -70 -31 -16 -40 -12 -40 20 0 19 -7 34 -20 42 -11 7 -20 16 -20 20
0 14 22 9 55 -12z m-261 -5 c5 -15 -11 -36 -51 -62 -27 -18 -37 -11 -47 30 -6
26 3 33 37 28 4 0 7 4 7 9 0 16 47 12 54 -5z m87 -10 c-1 -15 -24 -12 -29 3
-3 9 2 13 12 10 10 -1 17 -7 17 -13z m1912 -5 c6 -21 53 -48 65 -36 4 4 -2 14
-12 22 -11 7 -17 17 -13 21 9 8 47 -26 47 -44 0 -7 -7 -13 -15 -13 -25 0 -70
-26 -103 -60 -25 -25 -72 -42 -72 -26 0 2 -2 11 -5 18 -3 8 4 25 15 38 14 16
19 32 16 47 -4 15 0 26 16 37 31 22 55 20 61 -4z m-2173 -34 c0 -13 10 -30 23
-39 19 -13 20 -17 7 -30 -43 -43 -86 -19 -54 30 20 32 12 39 -20 18 -34 -22
-34 -3 -1 31 28 28 45 24 45 -10z m1590 20 c0 -8 -10 -13 -25 -13 -26 0 -34
12 -12 20 23 10 37 7 37 -7z m-1218 -13 c26 -31 26 -47 3 -88 -26 -48 -62 -55
-82 -15 -7 15 -9 26 -3 28 6 2 10 15 10 30 0 27 25 62 45 62 7 0 19 -8 27 -17z
m404 0 c3 -10 12 -31 20 -46 17 -35 18 -49 2 -65 -9 -9 -19 -5 -45 20 -18 18
-33 40 -33 51 0 46 44 78 56 40z m1070 -20 c-21 -19 -24 -28 -16 -43 7 -12 7
-27 0 -45 -9 -23 -15 -26 -52 -23 -34 2 -45 8 -58 31 -15 27 -14 29 18 58 18
16 38 29 46 29 8 0 26 7 42 14 39 21 51 8 20 -21z m-2092 2 c6 -17 -13 -29
-40 -23 -17 3 -17 4 0 21 21 21 32 22 40 2z m2584 -37 c-29 -18 -37 -3 -17 35
l12 21 9 -24 c6 -16 5 -26 -4 -32z m-1808 9 c0 -5 -4 -5 -10 -2 -5 3 -10 14
-10 23 0 15 2 15 10 2 5 -8 10 -19 10 -23z m-302 -4 c-4 -35 -42 -45 -51 -14
-6 23 10 41 36 41 14 0 18 -6 15 -27z m1198 -17 c-4 -18 -1 -28 11 -35 16 -9
16 -12 3 -21 -8 -6 -26 -9 -40 -8 -31 4 -39 41 -14 69 25 28 48 25 40 -5z
m178 -2 c9 -24 8 -26 -14 -14 -11 6 -18 15 -15 21 9 14 22 11 29 -7z m-919
-21 c13 -16 25 -34 25 -40 0 -7 -23 -36 -51 -64 -36 -37 -54 -48 -62 -40 -8 6
-18 6 -27 1 -15 -9 -30 -4 -30 9 0 4 12 13 26 20 23 10 25 15 19 52 -14 80 50
119 100 62z m2036 11 c11 -14 10 -21 -4 -46 -9 -16 -17 -44 -17 -61 0 -17 -7
-38 -16 -48 -15 -16 -18 -16 -64 4 -56 25 -68 52 -45 98 30 57 116 89 146 53z
m-2626 -4 c-3 -5 -10 -10 -16 -10 -5 0 -9 5 -9 10 0 6 7 10 16 10 8 0 12 -4 9
-10z m335 0 c0 -5 -5 -10 -11 -10 -5 0 -7 5 -4 10 3 6 8 10 11 10 2 0 4 -4 4
-10z m90 -21 c17 -30 11 -67 -12 -83 -39 -28 -68 -18 -58 19 2 6 4 19 5 30 4
57 42 77 65 34z m-654 -4 c7 -28 -18 -75 -40 -75 -17 0 -31 33 -17 38 6 2 11
11 11 21 0 18 18 41 32 41 4 0 10 -11 14 -25z m1266 7 c3 -10 -3 -29 -14 -42
-12 -15 -17 -32 -13 -47 6 -25 -18 -34 -29 -10 -5 9 -7 9 -12 0 -9 -20 -44 4
-44 29 0 24 66 88 91 88 9 0 19 -8 21 -18z m1105 -12 c0 -27 -2 -29 -15 -16
-8 8 -12 22 -9 30 10 26 24 18 24 -14z m162 15 c16 -8 31 -22 35 -31 5 -13 3
-14 -6 -7 -7 6 -28 14 -45 18 -32 6 -40 15 -26 28 9 9 10 9 42 -8z m-1469 -25
c0 -26 4 -30 26 -30 20 0 24 -4 20 -17 -3 -10 1 -30 9 -45 12 -24 12 -28 0
-28 -8 0 -17 5 -20 10 -4 6 -26 8 -53 5 -58 -7 -69 0 -72 45 -5 65 -3 70 30
64 22 -5 31 -2 36 10 10 26 24 18 24 -14z m-1000 -1 c0 -6 -4 -7 -10 -4 -5 3
-10 11 -10 16 0 6 5 7 10 4 6 -3 10 -11 10 -16z m-170 -6 c0 -5 -4 -15 -10
-23 -11 -18 -25 -7 -17 15 6 15 27 21 27 8z m1878 -9 c26 -18 29 -52 5 -60
-10 -3 -33 -12 -52 -20 -39 -17 -61 -6 -61 32 0 17 10 29 38 43 47 24 44 24
70 5z m686 1 c3 -8 12 -12 20 -9 16 6 71 -49 71 -70 0 -6 -18 -15 -40 -22 -27
-7 -41 -17 -43 -30 -2 -10 -12 -30 -23 -44 l-19 -25 -21 25 c-18 21 -20 33
-14 75 4 29 14 57 26 68 10 10 19 24 19 32 0 19 16 19 24 0z m194 -28 c0 -24
3 -53 6 -65 12 -36 -9 -25 -22 11 -13 37 -16 80 -5 90 15 16 22 4 21 -36z
m-538 23 c0 -5 -12 -10 -26 -10 -14 0 -23 4 -19 10 3 6 15 10 26 10 10 0 19
-4 19 -10z m-1949 -44 c-8 -50 -41 -66 -72 -35 -11 11 -19 30 -17 42 2 17 11
22 42 24 21 1 41 4 44 8 9 9 10 1 3 -39z m185 29 c3 -8 -2 -32 -13 -54 -14
-31 -25 -40 -52 -45 -44 -7 -52 -1 -41 30 6 14 10 36 10 49 0 20 6 24 38 28
20 2 41 4 45 5 4 1 10 -5 13 -13z m1034 0 c0 -8 -4 -15 -10 -15 -5 0 -7 7 -4
15 4 8 8 15 10 15 2 0 4 -7 4 -15z m229 -19 c15 -18 2 -27 -27 -19 -22 5 -27
14 -15 26 11 11 30 8 42 -7z m265 -7 c-8 -14 -34 -10 -34 5 0 9 7 12 20 9 11
-3 17 -9 14 -14z m-356 -7 c3 -9 -2 -13 -14 -10 -9 1 -19 9 -22 16 -3 9 2 13
14 10 9 -1 19 -9 22 -16z m756 -21 c-4 -18 0 -32 10 -40 28 -23 20 -55 -18
-72 -33 -15 -33 -15 -64 22 -28 32 -30 39 -16 50 8 7 14 22 12 33 -4 33 8 42
46 38 32 -4 35 -6 30 -31z m-1799 9 c3 -10 2 -28 -4 -38 -10 -20 -45 -35 -55
-24 -12 11 -5 32 10 32 12 0 15 6 10 25 -5 20 -3 25 13 25 11 0 22 -9 26 -20z
m439 -11 c37 -44 32 -53 -14 -23 -40 27 -46 35 -33 47 12 12 21 8 47 -24z
m1141 21 c3 -5 -7 -16 -22 -24 -15 -7 -41 -26 -56 -40 -23 -21 -29 -23 -34
-10 -8 20 14 59 41 72 27 14 63 15 71 2z m917 -35 c10 -11 17 -24 18 -28 0
-14 -53 -61 -83 -75 -26 -11 -28 -10 -24 5 3 10 8 41 12 68 11 82 27 88 77 30z
m-1555 -2 c-9 -9 -19 -14 -23 -11 -10 10 6 28 24 28 15 0 15 -1 -1 -17z m-877
2 c0 -2 -9 -19 -20 -37 -11 -18 -20 -41 -20 -50 0 -21 -13 -23 -29 -5 -8 10
-4 20 19 42 17 16 30 35 30 42 0 7 5 13 10 13 6 0 10 -2 10 -5z m930 1 c0 -11
-19 -15 -25 -6 -3 5 1 10 9 10 9 0 16 -2 16 -4z m-786 -66 c20 -22 36 -44 36
-49 0 -7 -65 -71 -73 -71 -1 0 -17 -4 -35 -10 -29 -8 -37 -6 -57 14 -21 21
-22 28 -14 72 17 92 81 112 143 44z m183 29 c8 -8 0 -22 -29 -51 -38 -38 -40
-39 -59 -22 -10 9 -19 22 -19 29 0 16 30 42 55 48 33 8 41 7 52 -4z m421 -1
c16 -16 15 -43 -3 -58 -13 -11 -15 -9 -15 13 0 34 -28 43 -61 18 -16 -12 -30
-17 -34 -12 -6 10 5 19 45 38 33 15 53 16 68 1z m262 2 c13 -7 27 -6 44 2 22
9 29 8 46 -7 26 -23 26 -39 0 -25 -16 9 -23 5 -41 -20 -28 -37 -43 -38 -74 -4
-43 46 -26 81 25 54z m-2520 -25 c0 -14 -4 -25 -10 -25 -5 0 -10 11 -10 25 0
14 5 25 10 25 6 0 10 -11 10 -25z m1160 -5 c0 -29 -16 -33 -56 -14 l-37 18 39
11 c45 13 54 11 54 -15z m1660 14 c0 -8 -4 -12 -10 -9 -5 3 -10 10 -10 16 0 5
5 9 10 9 6 0 10 -7 10 -16z m-710 -43 c0 -19 -42 -54 -78 -65 -33 -11 -28 9
13 51 19 20 35 40 35 46 0 5 7 4 15 -3 8 -7 15 -20 15 -29z m-160 -5 c-25 -23
-37 -19 -26 9 3 8 16 15 28 15 l23 0 -25 -24z m-670 -6 c0 -10 -7 -23 -15 -30
-12 -10 -20 -9 -40 4 -41 27 -32 38 32 42 16 1 23 -4 23 -16z m1538 -23 c26
-24 28 -43 7 -55 -9 -4 -24 -24 -34 -43 -15 -28 -23 -33 -47 -31 -41 5 -43 11
-11 36 15 12 27 25 27 28 0 8 -54 3 -68 -6 -4 -2 -6 11 -4 31 3 26 12 40 36
54 35 21 59 17 94 -14z m-1410 15 c10 -7 9 -15 -3 -39 -30 -61 -65 -68 -65
-13 0 45 36 72 68 52z m1520 -18 c8 -4 -12 -34 -23 -34 -11 0 -45 41 -45 54 0
3 48 -11 68 -20z m201 12 c9 -11 4 -17 -29 -30 -22 -9 -40 -20 -40 -26 0 -5
-11 -10 -25 -10 -31 0 -33 18 -2 29 12 5 31 18 41 30 22 24 39 27 55 7z m-682
-14 c-10 -10 -17 -24 -17 -30 0 -13 -10 -15 -35 -6 -13 5 -9 11 17 30 40 28
57 31 35 6z m1293 -5 c0 -12 -44 -44 -105 -79 -36 -21 -51 -22 -53 -5 -16 103
-16 98 11 88 14 -5 28 -7 32 -3 4 4 13 -1 20 -12 14 -18 15 -18 45 8 31 26 50
27 50 3z m-3940 -37 c0 -16 -2 -30 -4 -30 -2 0 -6 14 -8 30 -3 17 -1 30 4 30
4 0 8 -13 8 -30z m3560 11 c0 -11 -5 -23 -11 -26 -6 -4 -14 -17 -19 -29 -8
-20 -8 -20 -19 7 -19 50 -15 67 19 67 23 0 30 -5 30 -19z m-1420 -1 c0 -5 -2
-10 -4 -10 -3 0 -8 5 -11 10 -3 6 -1 10 4 10 6 0 11 -4 11 -10z m204 -24 c37
-50 34 -63 -15 -63 -33 0 -43 4 -51 23 -8 18 -7 29 6 49 22 33 28 32 60 -9z
m464 17 c-5 -25 -28 -28 -28 -4 0 12 6 21 16 21 9 0 14 -7 12 -17z m-73 -17
c24 -26 17 -46 -16 -46 -19 0 -49 36 -49 57 0 22 41 14 65 -11z m-1090 -9 c-7
-25 29 -71 49 -64 45 17 51 16 63 -10 7 -15 12 -28 10 -29 -6 -6 -161 63 -165
74 -4 14 25 52 40 52 4 0 6 -10 3 -23z m-2556 -81 c-9 -8 -10 -5 -5 14 3 14 7
39 8 55 1 20 3 16 5 -14 3 -26 -1 -48 -8 -55z m350 22 c-2 -58 -3 -65 -8 -33
-6 39 -3 105 5 105 2 0 3 -33 3 -72z m2651 63 c0 -6 -4 -13 -10 -16 -5 -3 -10
1 -10 9 0 9 5 16 10 16 6 0 10 -4 10 -9z m-110 -11 c0 -5 -5 -10 -10 -10 -6 0
-17 -18 -26 -40 -9 -22 -20 -37 -25 -34 -17 10 -9 56 14 75 24 20 47 25 47 9z
m625 -16 c14 -9 25 -22 25 -29 0 -7 6 -15 13 -18 17 -5 -9 -37 -31 -37 -23 0
-62 40 -62 65 0 38 17 44 55 19z m1105 6 c0 -5 -5 -10 -11 -10 -5 0 -7 5 -4
10 3 6 8 10 11 10 2 0 4 -4 4 -10z m-4807 -62 c-8 -59 -13 -61 -13 -5 0 26 4
47 9 47 5 0 7 -19 4 -42z m3597 23 c0 -11 5 -23 10 -26 20 -12 9 -23 -27 -27
-22 -3 -41 0 -45 6 -15 21 -8 47 15 56 35 14 47 12 47 -9z m-660 -16 c13 -14
20 -25 16 -25 -12 0 -56 32 -56 41 0 16 16 10 40 -16z m305 15 c4 -6 1 -18 -6
-26 -10 -12 -10 -17 0 -27 10 -9 17 -6 33 16 21 29 45 35 54 14 7 -19 -14 -69
-26 -62 -6 4 -27 1 -46 -5 -29 -10 -39 -10 -49 1 -28 30 -18 99 15 99 10 0 22
-5 25 -10z m1320 -9 c8 -25 -10 -68 -32 -78 -33 -15 -123 -2 -123 17 0 5 10
12 22 16 12 3 39 19 61 35 47 34 63 36 72 10z m-295 -51 c0 -10 7 -23 15 -30
28 -23 17 -33 -27 -25 -24 4 -57 7 -75 6 -35 -2 -46 9 -37 33 4 11 13 14 30
10 17 -5 30 1 46 19 24 27 48 21 48 -13z m102 -12 c-9 -9 -12 -7 -12 12 0 19
3 21 12 12 9 -9 9 -15 0 -24z m328 12 c3 0 -2 -5 -10 -10 -25 -16 -80 -12 -80
6 0 16 4 16 90 4z m-1200 -25 c10 -20 11 -28 2 -37 -7 -7 -12 -20 -12 -30 0
-24 -51 -24 -73 0 -15 16 -14 20 19 55 19 20 39 37 43 37 4 0 14 -11 21 -25z
m410 6 c0 -12 -30 -22 -43 -14 -7 4 -3 9 9 14 26 10 34 10 34 0z m-3913 -38
c-3 -10 -5 -4 -5 12 0 17 2 24 5 18 2 -7 2 -21 0 -30z m3161 6 c17 -27 14 -29
-27 -20 -41 8 -52 28 -19 34 13 2 25 5 28 6 3 0 11 -8 18 -20z m532 7 c0 -2
-11 -11 -24 -19 -22 -15 -25 -15 -41 3 -18 20 -17 20 23 20 23 0 42 -2 42 -4z
m70 -10 c0 -3 -4 -8 -10 -11 -5 -3 -10 -1 -10 4 0 6 5 11 10 11 6 0 10 -2 10
-4z m330 -6 c0 -5 -2 -10 -4 -10 -3 0 -8 5 -11 10 -3 6 -1 10 4 10 6 0 11 -4
11 -10z m-765 -9 c5 -1 4 -6 -2 -12 -14 -14 -67 -3 -58 11 3 5 16 8 28 6 12
-3 26 -5 32 -5z m245 -5 c0 -8 -7 -16 -15 -20 -17 -6 -18 -4 -9 18 8 20 24 21
24 2z m-6721 -34 c0 -24 -1 -25 -9 -7 -12 28 -12 47 0 40 6 -3 10 -18 9 -33z
m3062 -203 l-8 -94 -1 75 c-2 69 5 126 14 117 2 -2 0 -46 -5 -98z m-110 18
c-8 -8 -11 -7 -11 4 0 20 13 34 18 19 3 -7 -1 -17 -7 -23z m-61 -27 c0 -5 -4
-10 -10 -10 -5 0 -10 5 -10 10 0 6 5 10 10 10 6 0 10 -4 10 -10z m5090 -21 c0
-11 -4 -17 -10 -14 -5 3 -10 13 -10 21 0 8 5 14 10 14 6 0 10 -9 10 -21z
m-4884 -16 c-10 -10 -19 5 -10 18 6 11 8 11 12 0 2 -7 1 -15 -2 -18z m3454
-187 c0 -3 -4 -8 -10 -11 -5 -3 -10 -1 -10 4 0 6 5 11 10 11 6 0 10 -2 10 -4z
m-6457 -18 l22 -12 -25 -6 c-25 -7 -50 4 -50 21 0 13 27 11 53 -3z m6404 -50
c-3 -7 -5 -2 -5 12 0 14 2 19 5 13 2 -7 2 -19 0 -25z m595 -23 c-2 -14 -6 -25
-8 -25 -2 0 -4 11 -4 25 0 14 4 25 9 25 4 0 6 -11 3 -25z m275 -7 c-3 -7 -5
-2 -5 12 0 14 2 19 5 13 2 -7 2 -19 0 -25z m-875 -135 c-1 -81 -5 -149 -7
-152 -3 -2 -5 64 -5 147 0 84 3 152 8 152 4 0 6 -66 4 -147z m-3935 115 c-3
-8 -6 -5 -6 6 -1 11 2 17 5 13 3 -3 4 -12 1 -19z m4213 -28 c0 -5 -2 -10 -4
-10 -3 0 -8 5 -11 10 -3 6 -1 10 4 10 6 0 11 -4 11 -10z m-6330 -30 c0 -5 -4
-10 -10 -10 -5 0 -10 5 -10 10 0 6 5 10 10 10 6 0 10 -4 10 -10z m1798 -71 c1
-22 -3 -39 -8 -39 -9 0 -20 80 -12 94 8 15 20 -16 20 -55z m-1419 -221 c1 -43
-3 -78 -8 -78 -10 0 -20 227 -11 245 7 15 18 -79 19 -167z m-379 125 c0 -21
-3 -24 -9 -14 -5 8 -7 20 -4 28 8 21 13 15 13 -14z m70 -10 c0 -42 -12 -37
-17 7 -1 16 2 30 7 30 6 0 10 -16 10 -37z m1411 -6 c-8 -8 -11 -7 -11 4 0 20
13 34 18 19 3 -7 -1 -17 -7 -23z m-1892 -84 c0 -54 -4 -107 -9 -118 -11 -25
-11 -25 -11 65 -1 128 1 150 11 150 6 0 10 -39 9 -97z m998 47 c2 -41 1 -43
-8 -17 -6 15 -15 27 -20 27 -5 0 -9 9 -9 21 0 14 5 19 18 17 13 -2 18 -14 19
-48z m103 21 c0 -6 -4 -13 -10 -16 -5 -3 -10 1 -10 9 0 9 5 16 10 16 6 0 10
-4 10 -9z m133 -29 c5 -2 -2 -10 -15 -16 -19 -10 -24 -9 -29 3 -12 29 6 34 44
13z m-836 -14 c-3 -8 -6 -5 -6 6 -1 11 2 17 5 13 3 -3 4 -12 1 -19z m-190 -25
c-3 -10 -5 -4 -5 12 0 17 2 24 5 18 2 -7 2 -21 0 -30z m-254 -15 c3 -21 2 -38
-4 -38 -5 0 -9 19 -9 42 0 49 5 47 13 -4z m527 -5 c0 -55 -5 -54 -14 5 -4 26
-2 42 4 42 5 0 10 -21 10 -47z m765 17 c3 -5 1 -10 -4 -10 -6 0 -11 5 -11 10
0 6 2 10 4 10 3 0 8 -4 11 -10z m402 -134 c-3 -74 -10 -143 -17 -153 -9 -14
-10 -9 -6 27 3 25 6 86 8 135 2 91 6 125 16 125 3 0 2 -60 -1 -134z m-1237
108 c0 -8 -4 -12 -10 -9 -5 3 -10 10 -10 16 0 5 5 9 10 9 6 0 10 -7 10 -16z
m597 -16 c-3 -8 -6 -5 -6 6 -1 11 2 17 5 13 3 -3 4 -12 1 -19z m-787 -28 c0
-5 -2 -10 -4 -10 -3 0 -8 5 -11 10 -3 6 -1 10 4 10 6 0 11 -4 11 -10z m187
-22 c-3 -7 -5 -2 -5 12 0 14 2 19 5 13 2 -7 2 -19 0 -25z m5742 -385 c-1 -69
-3 -82 -10 -58 -5 17 -7 46 -5 65 3 19 5 45 5 58 1 12 3 22 6 22 3 0 5 -39 4
-87z m-2114 17 c3 -5 -1 -10 -9 -10 -9 0 -16 5 -16 10 0 6 4 10 9 10 6 0 13
-4 16 -10z m135 -30 c30 -10 56 -22 58 -29 2 -7 -13 -5 -40 5 -24 9 -54 16
-68 15 -14 0 -31 3 -39 8 -18 12 -3 34 18 25 9 -3 41 -14 71 -24z m1627 -42
c-2 -13 -4 -3 -4 22 0 25 2 35 4 23 2 -13 2 -33 0 -45z m-1507 -8 c0 -5 -4
-10 -9 -10 -6 0 -13 5 -16 10 -3 6 1 10 9 10 9 0 16 -4 16 -10z m-12 -52 c6
-8 8 -53 6 -108 -7 -186 -16 -361 -19 -358 -7 6 -16 147 -20 310 -4 139 -3
168 9 168 7 0 18 -6 24 -12z m270 -37 c84 -29 102 -38 102 -50 0 -5 -17 -3
-37 5 -21 7 -48 13 -61 14 -13 0 -42 9 -64 20 -23 11 -47 20 -53 20 -6 0 -20
7 -31 15 -18 15 -16 15 24 9 24 -3 78 -18 120 -33z m-1462 -821 c-16 -54 -38
-79 -69 -80 -10 0 -49 -26 -85 -59 -78 -68 -146 -100 -76 -34 23 21 86 82 140
135 54 53 100 96 102 94 2 -2 -4 -28 -12 -56z m-2116 -296 c42 -28 104 -41
224 -48 49 -3 94 -10 100 -17 8 -9 3 -10 -24 -6 -79 14 -255 27 -415 32 -156
5 -241 12 -233 21 10 9 132 36 193 42 86 9 110 5 155 -24z"/>
<path d="M5634 5815 c-8 -21 -25 -40 -40 -45 -33 -13 -34 -13 -34 8 0 10 -6
26 -13 36 -11 16 -22 18 -60 12 -55 -8 -98 -38 -80 -57 11 -11 25 -9 84 16 13
5 18 -2 23 -34 7 -46 17 -49 72 -26 38 16 56 12 52 -10 -2 -8 2 -14 7 -15 6 0
11 10 13 22 1 13 5 34 8 48 l5 24 21 -32 c11 -18 26 -32 34 -32 18 0 18 1 -13
65 -33 66 -57 72 -79 20z"/>
<path d="M5767 5753 c-8 -8 -9 -43 -1 -43 16 0 44 23 44 35 0 15 -31 21 -43 8z"/>
<path d="M6222 5708 c-7 -7 -12 -18 -12 -24 0 -16 -38 -22 -70 -10 -38 13 -94
-27 -116 -82 -9 -24 -13 -46 -10 -50 11 -10 41 13 44 35 5 33 50 51 107 43
l50 -7 -47 -22 c-53 -24 -65 -38 -49 -54 8 -8 20 -7 44 5 53 28 85 32 112 14
34 -23 53 -20 83 12 35 36 78 56 125 57 21 1 45 9 54 18 15 14 15 19 3 43 -21
38 -40 41 -64 12 -12 -13 -42 -37 -68 -52 -27 -15 -48 -31 -48 -36 0 -20 -68
-22 -99 -4 -37 22 -38 27 -6 52 28 23 32 47 9 56 -22 8 -28 8 -42 -6z"/>
<path d="M6759 5648 c-24 -30 -28 -32 -53 -20 -41 19 -104 15 -147 -10 -65
-36 -39 -62 35 -34 39 15 48 15 86 2 37 -13 47 -13 69 -1 39 20 74 62 68 79
-10 25 -30 19 -58 -16z"/>
<path d="M3490 5579 c-11 -40 -12 -41 -43 -33 -18 5 -64 8 -104 8 l-72 -1 6
28 c5 26 3 29 -20 29 -14 0 -28 -4 -31 -9 -6 -9 -112 -39 -155 -43 -18 -2 -27
-12 -36 -38 -9 -27 -18 -36 -39 -38 -31 -4 -109 23 -147 51 -37 27 -102 33
-130 13 -13 -9 -29 -16 -36 -16 -7 0 -36 -11 -65 -25 -31 -15 -69 -25 -96 -25
-33 0 -63 -10 -111 -37 -117 -65 -124 -71 -118 -114 4 -30 1 -41 -18 -57 -21
-18 -23 -27 -19 -74 8 -84 34 -130 97 -174 61 -43 101 -109 75 -125 -20 -13
-25 -11 -32 16 -13 53 -72 16 -104 -66 -17 -45 -49 -96 -55 -88 -12 18 -27 84
-27 122 0 43 -2 47 -25 47 -18 0 -34 -12 -55 -42 -16 -22 -30 -46 -30 -53 0
-6 -7 -20 -16 -31 -14 -18 -15 -15 -10 32 4 28 1 65 -5 83 -9 27 -16 32 -38
29 -15 -2 -30 -12 -36 -25 -6 -14 -16 -21 -25 -19 -48 14 -141 28 -155 23 -8
-4 -15 -13 -15 -22 0 -21 95 -80 164 -101 32 -10 61 -24 63 -32 16 -41 -42
-20 -163 58 -100 65 -119 70 -176 51 -41 -14 -44 -21 -26 -54 6 -12 14 -35 17
-50 6 -27 10 -29 58 -31 29 -1 57 -6 63 -12 18 -18 -122 -34 -235 -26 -55 4
-121 6 -147 4 -46 -3 -48 -4 -48 -33 0 -17 9 -42 20 -56 11 -14 20 -30 20 -34
0 -15 -70 -10 -96 8 -23 14 -27 15 -40 1 -14 -14 -12 -19 18 -47 18 -18 45
-39 61 -49 15 -9 27 -20 27 -24 0 -11 1 -11 -54 17 -27 14 -57 25 -65 25 -17
0 -91 46 -102 63 -10 14 -43 4 -47 -15 -2 -9 11 -32 29 -52 l31 -36 -33 -14
c-19 -8 -53 -17 -76 -21 -85 -14 -99 -58 -21 -69 24 -3 55 -4 70 -1 15 3 30 1
33 -5 3 -5 15 -10 26 -10 29 0 81 -29 74 -41 -11 -17 -200 -2 -252 21 -57 25
-93 26 -93 3 0 -18 86 -73 114 -73 16 0 66 -39 51 -40 -6 0 -26 9 -46 19 -43
23 -67 15 -50 -18 7 -11 21 -22 31 -22 33 -2 38 -4 46 -11 4 -5 15 -8 24 -8
10 0 23 -7 31 -16 12 -14 8 -15 -37 -9 -72 10 -108 34 -114 76 -7 45 -34 47
-38 2 -2 -18 1 -41 7 -52 12 -22 119 -61 169 -61 34 0 122 -37 122 -51 0 -17
-35 -18 -64 0 -17 10 -56 24 -86 31 -30 7 -75 23 -100 35 -47 23 -70 23 -70
-1 0 -17 88 -59 154 -74 49 -11 112 -49 85 -51 -34 -3 -77 4 -108 17 -42 18
-61 18 -61 1 0 -24 68 -47 158 -54 48 -3 118 -17 156 -30 38 -12 83 -23 100
-23 17 0 78 -15 136 -34 194 -64 206 -66 343 -70 139 -4 203 -20 288 -72 39
-24 38 -24 164 30 70 30 118 32 175 10 32 -13 46 -14 72 -5 29 10 34 9 50 -11
15 -20 15 -25 2 -39 -17 -19 -18 -39 -1 -39 26 0 56 32 63 65 4 21 18 45 36
60 31 26 45 31 114 38 22 3 61 17 85 33 68 43 133 79 269 148 233 117 418 224
431 249 11 19 3 57 -12 57 -5 0 -31 22 -57 49 -46 47 -95 71 -149 71 -14 0
-23 6 -23 16 0 23 -62 75 -85 72 -30 -5 -29 -31 3 -49 18 -10 31 -27 35 -45 7
-38 2 -42 -31 -23 -20 11 -26 22 -24 41 2 20 -5 30 -33 47 -31 18 -35 25 -33
55 1 19 -4 41 -10 49 -25 29 -82 48 -137 46 -33 -2 -60 2 -70 11 -13 11 -19
10 -35 -5 -17 -16 -20 -16 -20 -2 0 9 -9 18 -20 22 -19 6 -19 7 2 36 19 25 20
32 8 39 -16 10 -48 -5 -104 -49 -21 -17 -42 -31 -47 -31 -4 0 -22 18 -39 40
l-32 41 26 26 c14 14 26 32 26 39 0 21 -20 27 -38 11 -9 -8 -54 -40 -99 -70
-78 -52 -83 -54 -98 -37 -13 15 -14 23 -5 39 15 29 5 41 -32 41 l-30 0 27 36
c20 26 24 39 16 47 -6 6 -11 19 -11 29 0 36 -29 75 -85 114 -68 46 -85 76 -85
144 0 65 12 70 104 41 39 -12 76 -23 82 -24 7 -2 18 -8 25 -13 8 -6 34 -22 59
-36 25 -14 55 -38 67 -52 13 -14 27 -26 33 -26 5 0 18 -7 28 -16 45 -40 123
-96 128 -91 10 10 -15 45 -58 81 -45 39 -45 64 0 28 15 -12 45 -34 67 -49 22
-14 56 -41 75 -59 l35 -34 -37 7 c-29 4 -38 2 -38 -9 0 -20 63 -48 124 -55 66
-8 150 -47 201 -93 24 -21 81 -38 156 -45 31 -3 77 -17 109 -33 30 -16 84 -36
120 -46 36 -10 92 -27 124 -38 61 -21 165 -25 236 -10 19 5 58 7 85 6 142 -5
387 40 441 81 11 8 31 15 46 15 15 0 29 4 32 9 3 5 27 14 53 20 119 29 159 45
198 81 28 26 64 45 123 64 46 15 102 39 125 53 49 32 137 114 137 128 0 18
-56 45 -92 45 -19 0 -39 5 -46 12 -16 16 -35 -3 -30 -28 2 -13 15 -21 41 -25
20 -3 41 -9 45 -13 11 -12 -88 -94 -135 -112 -50 -19 -57 -16 -44 19 8 20 5
31 -15 58 -16 22 -24 46 -24 74 0 47 -23 85 -50 85 -30 0 -34 -19 -10 -46 23
-23 23 -24 3 -31 -26 -11 -158 -157 -190 -210 -13 -23 -23 -50 -21 -59 3 -15
-23 -24 -166 -60 -191 -49 -339 -69 -394 -55 -43 11 -201 9 -219 -2 -15 -10
-17 -47 -3 -47 6 0 10 -4 10 -9 0 -4 -17 -11 -37 -14 -27 -5 -66 3 -147 30
-61 19 -120 39 -131 44 -36 14 26 11 104 -6 66 -14 101 -12 101 4 0 4 -35 18
-77 32 -56 17 -102 24 -163 25 -109 0 -209 12 -236 27 -12 7 -41 25 -65 41
-24 17 -64 40 -89 53 -72 37 -174 103 -183 119 -4 8 -25 23 -45 33 -20 11 -48
30 -60 44 -13 14 -37 31 -53 37 -16 7 -29 16 -29 21 0 4 -27 36 -60 71 -33 35
-60 71 -60 80 0 32 78 65 94 39 7 -10 54 -2 62 10 8 14 46 11 78 -6 27 -15 31
-14 76 15 26 16 59 30 73 30 50 0 75 19 74 56 -1 46 17 60 86 68 46 5 57 3 57
-8 0 -20 30 -28 68 -17 30 9 53 -1 32 -14 -5 -3 -10 -17 -10 -31 0 -33 33 -32
57 1 42 60 48 66 64 60 11 -4 15 -14 12 -26 -6 -22 18 -35 45 -23 32 14 73 12
89 -5 9 -9 28 -21 42 -28 19 -8 21 -12 8 -12 -9 -1 -26 5 -37 12 -17 10 -22 9
-30 -3 -13 -22 8 -42 39 -36 28 6 60 -15 80 -52 12 -23 35 -29 46 -13 3 5 -6
26 -20 47 -14 20 -25 40 -25 43 0 3 33 19 73 35 87 35 110 53 103 80 -7 28 11
46 46 46 24 0 32 -6 44 -36 11 -26 12 -40 5 -47 -6 -6 -11 -23 -11 -38 0 -15
-7 -29 -15 -33 -8 -3 -15 -12 -15 -21 0 -11 8 -14 36 -10 38 5 67 31 59 53 -3
6 -8 18 -11 26 -7 17 21 25 65 18 33 -5 33 -5 28 -48 -2 -25 -1 -47 3 -49 5
-3 31 7 60 21 28 14 60 24 71 21 10 -3 21 -2 24 3 3 4 33 11 68 14 56 6 68 5
100 -16 20 -13 39 -31 42 -41 4 -9 17 -30 30 -45 13 -15 25 -39 27 -52 3 -24
7 -25 88 -31 47 -3 93 -9 102 -13 32 -15 50 -55 46 -109 -4 -70 16 -72 36 -4
9 31 16 60 16 65 0 6 -20 28 -45 50 -45 39 -81 52 -155 52 -29 0 -41 7 -72 46
-21 26 -38 54 -38 64 0 9 -18 32 -41 50 -40 32 -43 33 -110 26 l-69 -6 -6 27
c-9 39 -13 43 -29 37 -7 -3 -16 -18 -20 -33 -4 -18 -17 -33 -39 -44 -39 -18
-46 -14 -46 24 0 33 -14 39 -91 39 -46 0 -59 3 -59 15 0 27 -38 55 -75 55 -49
0 -88 -22 -109 -63 -31 -57 -141 -110 -161 -77 -3 6 1 17 9 26 9 8 16 21 16
28 0 8 7 19 15 26 8 7 12 16 9 21 -9 15 -42 10 -76 -11 -51 -31 -68 -27 -61
15 5 31 3 35 -15 35 -16 0 -24 -10 -32 -41z m-635 -85 c39 -19 74 -39 78 -43
5 -5 -7 -17 -25 -28 -27 -15 -41 -17 -78 -11 -25 5 -58 6 -75 3 -16 -3 -50 -6
-76 -5 -33 1 -55 -6 -84 -26 l-39 -26 -19 26 c-10 14 -23 26 -29 26 -13 0 -1
-39 23 -72 10 -15 19 -36 19 -48 0 -11 5 -21 10 -21 6 -1 14 -2 18 -3 11 -1
122 -118 122 -128 0 -13 -17 -9 -31 8 -24 29 -196 124 -253 138 -31 8 -61 18
-66 21 -12 8 -13 55 -2 55 5 0 37 18 71 40 48 31 71 40 106 40 26 0 61 9 82
20 21 11 45 20 53 20 8 1 35 12 60 25 25 13 50 24 55 24 6 1 42 -15 80 -35z
m2003 -466 c11 -17 18 -37 16 -43 -10 -26 -104 -49 -104 -25 0 13 53 100 61
100 4 0 16 -14 27 -32z m-166 -137 c-5 -22 -15 -37 -30 -42 -12 -5 -22 -5 -22
-1 0 10 51 84 55 80 2 -2 0 -18 -3 -37z m98 23 c0 -8 -4 -12 -10 -9 -5 3 -10
10 -10 16 0 5 5 9 10 9 6 0 10 -7 10 -16z m30 6 c0 -5 -5 -10 -11 -10 -5 0 -7
5 -4 10 3 6 8 10 11 10 2 0 4 -4 4 -10z m-2844 -56 c30 -8 54 -20 54 -25 0 -5
-4 -9 -8 -9 -20 0 -112 31 -117 40 -9 14 8 12 71 -6z m374 -24 c-16 -31 -23
-19 -9 16 6 16 13 24 16 17 2 -7 -1 -22 -7 -33z m-544 -11 c32 -17 70 -42 84
-55 22 -22 23 -24 5 -24 -10 0 -54 10 -96 22 -61 18 -80 28 -89 47 -8 19 -8
26 2 32 21 14 32 11 94 -22z m394 -69 c9 -17 9 -32 0 -66 -10 -35 -10 -47 0
-59 19 -23 3 -31 -20 -10 -13 12 -18 25 -14 40 4 18 0 23 -28 31 -27 9 -33 15
-31 37 2 27 28 91 47 116 8 11 13 5 22 -26 7 -23 17 -51 24 -63z m221 14 c-15
-19 -21 -41 -21 -80 l0 -53 -31 9 c-18 5 -33 11 -35 13 -9 8 50 126 65 130 38
11 42 7 22 -19z m224 -66 c-14 -29 -25 -65 -25 -80 0 -34 -17 -37 -26 -4 -6
26 16 77 49 114 11 12 22 22 23 22 2 0 -8 -24 -21 -52z m1782 28 c-9 -7 -36
-17 -59 -20 -23 -4 -48 -12 -55 -18 -16 -13 -49 -15 -290 -22 -137 -4 -173 -2
-173 8 0 16 152 31 178 18 37 -20 297 7 375 38 33 13 44 11 24 -4z m-2437 -26
c9 0 3 -7 -13 -16 -18 -10 -33 -12 -43 -6 -10 6 -28 5 -45 -1 -32 -12 -42 -7
-34 15 6 15 15 15 135 8z m575 -23 c-9 -36 -34 -55 -45 -37 -6 10 -1 23 18 41
31 32 35 31 27 -4z m145 -1 c0 -17 -28 -41 -37 -32 -10 9 16 58 27 51 6 -3 10
-12 10 -19z m-250 -1 c0 -8 -4 -15 -10 -15 -5 0 -10 7 -10 15 0 8 5 15 10 15
6 0 10 -7 10 -15z m398 -17 c-20 -35 -41 -59 -62 -70 -17 -9 -17 -8 -5 9 56
77 97 115 67 61z m-581 11 c7 -7 8 -21 2 -41 -14 -50 9 -63 56 -32 36 23 31 2
-5 -24 -45 -34 -40 -64 15 -92 25 -13 45 -27 45 -32 0 -5 -9 -4 -19 2 -11 5
-34 10 -51 10 -23 0 -43 12 -80 46 -51 48 -54 64 -14 82 20 10 24 19 24 52 0
41 7 49 27 29z m-679 -5 c69 -8 75 -20 11 -22 -23 -1 -69 -6 -102 -12 -63 -10
-87 -3 -87 26 0 16 72 19 178 8z m510 -31 c-3 -25 -7 -28 -40 -28 -45 -1 -47
6 -12 34 38 30 56 27 52 -6z m-128 -6 c0 -7 -6 -21 -13 -31 -11 -15 -33 -18
-142 -21 -72 -2 -135 -4 -140 -5 -22 -5 -46 0 -41 9 3 4 45 11 93 14 108 8
136 12 153 22 11 7 58 21 83 24 4 1 7 -5 7 -12z m1130 -12 c10 -13 9 -19 -6
-36 -14 -16 -28 -19 -68 -17 -56 3 -70 22 -41 52 21 21 98 22 115 1z m-382
-35 c-13 -22 -25 -40 -28 -40 -3 0 -10 10 -15 23 -9 19 -6 24 20 38 45 25 48
23 23 -21z m-1139 13 c-7 -10 -14 -19 -15 -21 -1 -1 -9 0 -18 4 -29 11 -19 34
15 34 28 0 30 -2 18 -17z m901 2 c0 -8 -4 -15 -10 -15 -5 0 -10 7 -10 15 0 8
5 15 10 15 6 0 10 -7 10 -15z m412 -32 c-34 -28 -42 -41 -38 -58 3 -13 0 -28
-8 -34 -26 -22 -27 6 -2 63 18 41 30 56 45 56 11 0 23 5 26 11 4 6 10 7 13 4
4 -3 -13 -22 -36 -42z m-1382 33 c0 -3 -4 -8 -10 -11 -5 -3 -10 -1 -10 4 0 6
5 11 10 11 6 0 10 -2 10 -4z m920 -36 c8 -15 7 -26 -6 -45 -15 -23 -17 -24
-44 -10 -42 22 -43 31 -7 54 40 26 44 26 57 1z m-724 -25 c63 4 114 4 114 1 0
-10 -49 -27 -90 -31 -19 -2 -55 -7 -80 -10 -42 -6 -46 -5 -62 23 -10 17 -18
34 -18 39 0 4 5 0 11 -11 10 -17 20 -18 125 -11z m401 -15 c52 -28 91 -65 80
-76 -2 -2 -40 -7 -83 -11 l-80 -6 2 49 c3 73 3 74 14 74 6 0 36 -14 67 -30z
m1052 -5 l20 -35 -24 0 c-29 0 -75 17 -75 27 0 5 12 15 28 25 15 9 28 17 29
17 0 1 10 -15 22 -34z m-1689 5 c0 -23 -17 -25 -72 -10 -60 17 -55 30 11 30
54 0 61 -2 61 -20z m1150 12 c0 -4 -5 -13 -12 -20 -6 -6 -11 -31 -12 -55 -1
-43 -1 -43 -26 -30 -14 7 -33 13 -42 13 -24 0 -23 16 3 38 12 9 33 27 48 39
27 23 41 28 41 15z m-1060 -17 c18 -21 11 -25 -30 -16 -32 6 -34 8 -15 19 26
15 30 15 45 -3z m1450 -2 c2 -2 0 -12 -6 -21 -14 -22 -215 -202 -226 -202 -24
0 0 36 73 109 44 45 79 89 78 99 -1 9 -1 21 0 25 1 7 71 -1 81 -10z m-1040
-12 c0 -16 -22 -71 -28 -71 -15 0 -34 18 -29 27 3 5 -18 7 -53 5 -32 -2 -64
-2 -72 1 -21 7 40 29 107 37 33 4 63 8 68 9 4 0 7 -3 7 -8z m703 -21 c8 -11
31 -38 51 -60 35 -38 36 -41 23 -72 -27 -65 -67 -74 -89 -21 -14 36 -21 173
-9 173 6 0 16 -9 24 -20z m-1385 -16 c24 -16 29 -34 10 -35 -7 0 -20 -2 -28
-4 -70 -14 -134 -24 -137 -21 -2 2 13 13 33 25 20 12 38 30 41 41 4 16 11 19
32 14 14 -4 36 -13 49 -20z m1172 1 c-7 -9 -15 -13 -17 -11 -7 7 7 26 19 26 6
0 6 -6 -2 -15z m-928 -30 c6 -29 7 -29 -43 -13 -31 9 -37 14 -28 25 6 7 24 13
39 13 22 0 29 -6 32 -25z m1697 -22 c36 -21 52 -24 90 -19 l46 6 -29 -19 c-25
-17 -41 -19 -120 -14 -50 3 -111 0 -136 -5 -24 -6 -47 -9 -49 -6 -3 2 5 25 17
49 l22 45 57 -6 c33 -4 77 -17 102 -31z m-224 10 c-5 -10 -13 -38 -20 -63 -12
-44 -13 -46 -90 -76 -43 -17 -87 -37 -98 -43 -47 -30 -21 2 55 67 46 39 96 84
112 101 33 34 52 41 41 14z m-1099 -32 c-8 -13 -56 -15 -56 -3 0 13 44 31 54
22 4 -5 5 -13 2 -19z m-456 -41 c0 -10 -26 -20 -51 -20 -13 0 -17 4 -13 11 4
7 -4 20 -17 30 -20 15 -21 21 -10 28 10 6 26 1 53 -16 21 -14 38 -29 38 -33z
m334 16 c-3 -20 -9 -36 -13 -34 -3 2 -23 10 -43 18 -21 8 -38 17 -38 21 0 9
28 21 59 25 13 1 26 5 29 8 11 11 13 -3 6 -38z m446 29 c29 -17 86 -20 95 -5
8 12 42 13 49 1 3 -5 3 -23 -1 -41 l-6 -33 -61 7 c-34 3 -81 17 -108 31 -58
30 -77 31 -148 5 -64 -23 -90 -25 -90 -7 0 40 215 74 270 42z m261 0 c0 -13
-41 -19 -41 -7 0 11 20 22 33 18 5 -1 8 -6 8 -11z m958 4 c42 -15 98 -94 81
-114 -7 -8 -17 -15 -23 -15 -6 0 -33 -15 -61 -34 -73 -48 -216 -127 -326 -180
-52 -25 -123 -63 -156 -84 -90 -57 -119 -70 -186 -82 -61 -11 -96 -24 -135
-48 -33 -21 -147 -26 -180 -9 -25 14 -25 15 -7 24 10 6 37 14 59 17 54 10 162
49 207 76 20 11 74 34 120 50 134 46 188 68 213 84 53 35 194 105 255 126 72
26 144 71 154 95 17 44 0 54 -54 31 -8 -3 -22 -1 -30 4 -13 8 -12 12 8 25 12
9 22 23 22 31 0 17 -1 17 39 3z m-2139 -24 c13 -16 8 -18 -27 -9 -13 4 -23 10
-23 15 0 15 37 10 50 -6z m231 -11 c19 -8 49 -23 67 -33 l34 -17 -41 -12 c-40
-12 -41 -12 -75 25 -52 55 -47 66 15 37z m650 -38 c52 -29 155 -49 203 -40 19
3 44 16 56 29 13 14 29 21 41 18 10 -3 25 0 32 6 15 12 27 4 60 -35 13 -16 15
-27 9 -45 -9 -24 -9 -23 -16 8 -11 50 -28 57 -66 25 -18 -15 -44 -28 -59 -28
-14 -1 -52 -8 -83 -15 -46 -10 -65 -11 -91 -1 -49 18 -98 15 -195 -12 -117
-33 -176 -40 -189 -24 -6 7 -13 30 -17 51 -6 33 -5 37 13 37 11 0 22 -4 25 -9
3 -4 31 1 63 12 63 21 141 44 159 46 6 0 31 -10 55 -23z m-351 4 c-8 -5 -22
-10 -30 -10 -13 0 -13 1 0 10 8 5 22 10 30 10 13 0 13 -1 0 -10z m-115 -10 c3
-5 -1 -10 -9 -10 -9 0 -16 5 -16 10 0 6 4 10 9 10 6 0 13 -4 16 -10z m1623 -6
c32 -9 27 -30 -9 -38 -48 -9 -77 -7 -83 7 -3 8 -13 2 -29 -17 -16 -18 -27 -24
-31 -17 -15 24 -258 6 -305 -23 -5 -4 -13 -1 -16 5 -4 6 3 13 16 16 13 4 48
19 78 35 41 22 57 26 67 17 9 -8 29 -9 57 -4 23 3 62 10 87 15 57 9 138 11
168 4z m-1911 -26 c31 10 34 8 48 -19 15 -28 15 -29 -10 -29 -23 0 -145 54
-145 65 0 2 17 -3 37 -12 29 -11 45 -13 70 -5z m-83 -43 c41 -20 78 -40 81
-45 10 -17 -32 -11 -45 6 -27 32 -46 34 -106 13 -62 -22 -97 -18 -166 17 -45
23 -33 33 45 37 39 1 82 4 94 5 11 1 55 -14 97 -33z m456 10 c17 -20 -5 -20
-40 0 l-25 14 26 1 c15 0 32 -7 39 -15z m-65 -29 c73 -26 164 -75 165 -89 0
-4 -15 -5 -32 -2 -18 3 -71 9 -117 15 -90 10 -106 18 -114 53 -2 12 -8 31 -12
41 -10 23 2 21 110 -18z m800 -43 c0 -41 5 -58 15 -60 8 -3 24 -8 35 -13 11
-5 50 -11 86 -14 l66 -6 37 44 c33 41 38 43 61 33 36 -17 27 -38 -30 -69 -76
-42 -151 -39 -241 8 -110 57 -124 65 -124 72 0 3 17 23 37 44 45 46 56 39 58
-39z m115 68 c0 -5 8 -17 18 -27 9 -10 17 -29 17 -43 0 -26 5 -28 38 -16 20 8
22 -3 4 -27 -11 -14 -20 -15 -61 -6 -44 9 -46 11 -32 27 21 23 21 55 1 47 -11
-4 -15 1 -15 18 0 12 3 26 7 29 9 10 23 8 23 -2z m-1565 -41 c3 -5 2 -10 -4
-10 -5 0 -13 5 -16 10 -3 6 -2 10 4 10 5 0 13 -4 16 -10z m2050 -5 c0 -12 -91
-74 -160 -109 -76 -38 -215 -70 -152 -34 10 5 34 24 53 41 29 25 35 36 32 59
-3 16 -1 31 4 34 34 21 223 29 223 9z m-1005 -16 c15 -28 10 -31 -39 -23 -47
7 -51 14 -18 30 34 17 45 16 57 -7z m-602 -11 c6 -6 12 -19 12 -29 0 -11 7
-19 15 -19 8 0 15 -7 15 -15 0 -23 -10 -18 -49 23 -20 20 -45 43 -56 50 -18
11 -16 12 15 6 19 -3 41 -11 48 -16z m779 10 c69 0 74 -2 59 -16 -9 -9 -26
-17 -39 -18 -12 -1 -35 -6 -50 -13 -16 -6 -44 -11 -64 -11 -30 0 -34 2 -23 15
6 8 9 23 5 36 -6 18 -4 20 15 14 13 -4 56 -7 97 -7z m-992 -28 c14 -5 23 -14
20 -20 -3 -5 -1 -19 5 -30 6 -12 7 -20 1 -20 -5 0 -12 9 -16 19 -3 10 -19 24
-36 31 -58 25 -35 43 26 20z m732 -17 c29 -9 53 -20 53 -24 0 -11 -66 -22 -92
-16 -34 9 -62 32 -54 45 10 16 30 15 93 -5z m-555 -35 c21 -23 38 -47 38 -54
0 -7 9 -18 19 -24 28 -15 108 21 121 55 10 26 41 33 69 16 11 -7 3 -15 -30
-31 -41 -22 -68 -46 -69 -62 0 -16 28 -7 78 26 67 43 114 50 194 31 35 -9 90
-18 123 -21 70 -7 98 -24 39 -24 -21 0 -55 -5 -74 -11 -19 -5 -81 -10 -137
-11 -102 -1 -131 -10 -115 -36 6 -9 38 -9 132 -1 234 19 270 21 305 15 47 -9
35 -26 -18 -26 -57 1 -367 -43 -367 -52 0 -3 16 -12 35 -18 69 -23 52 -33 -41
-26 -77 6 -257 51 -355 87 -14 6 -48 11 -75 13 -47 2 -144 40 -144 56 0 15 55
19 70 5 28 -25 70 -29 84 -9 8 10 12 24 9 31 -3 9 4 13 20 13 30 0 44 -17 28
-33 -6 -6 -11 -14 -11 -18 0 -12 159 -57 218 -62 12 -1 22 -5 22 -9 0 -4 8 -8
18 -8 9 -1 33 -7 53 -14 23 -8 43 -10 53 -4 27 15 18 25 -29 31 -25 4 -63 16
-85 27 -21 11 -50 20 -62 20 -23 0 -110 24 -129 36 -7 4 -6 10 1 19 12 15 6
35 -11 35 -5 0 -18 9 -29 20 -11 11 -29 20 -40 20 -25 0 -26 16 -2 29 32 19
55 11 94 -31z m1013 -15 l34 -28 -97 -17 c-136 -25 -228 -33 -235 -21 -10 16
40 57 72 59 15 1 43 10 62 19 75 39 103 37 164 -12z m-1231 17 c12 -12 0 -40
-18 -40 -8 0 -18 9 -21 20 -3 11 -13 20 -21 20 -8 0 -14 5 -14 11 0 13 59 4
74 -11z m906 -35 c-13 -16 -40 -20 -40 -7 0 14 12 22 33 22 16 0 17 -3 7 -15z
m484 -53 c3 -5 -17 -21 -45 -37 -27 -16 -49 -33 -49 -38 0 -9 -49 -30 -95 -41
l-30 -8 33 31 c32 31 40 55 23 65 -5 4 -61 -9 -125 -27 -63 -18 -113 -30 -110
-26 11 19 126 62 194 74 87 15 197 19 204 7z m-269 -103 c-43 -20 -75 -24 -75
-10 0 10 62 29 95 29 13 0 5 -7 -20 -19z m-189 -7 c10 -5 38 -19 60 -31 23
-11 54 -21 70 -21 15 0 25 -3 21 -6 -3 -3 -57 -7 -121 -9 -63 -2 -124 -6 -136
-10 -39 -13 -178 34 -165 55 3 4 44 13 92 20 49 6 95 13 103 14 25 3 56 -1 76
-12z m9 -122 c-10 -11 -26 -20 -36 -20 -24 0 -49 10 -49 20 0 9 18 13 74 18
29 3 29 2 11 -18z"/>
<path d="M4556 5505 c-3 -9 1 -18 9 -21 8 -4 15 -11 15 -18 0 -10 214 -126
233 -126 5 0 27 -13 50 -30 24 -16 103 -50 180 -75 75 -25 152 -54 170 -65 30
-19 77 -27 77 -14 0 35 -61 73 -150 94 -93 22 -200 59 -228 78 -15 10 -71 42
-125 71 -55 28 -122 67 -150 86 -57 39 -72 42 -81 20z"/>
<path d="M3111 5456 c-7 -8 -11 -27 -9 -43 2 -21 8 -28 23 -26 10 1 25 -7 33
-18 14 -20 52 -26 52 -8 0 6 -8 25 -17 42 -37 67 -59 81 -82 53z"/>
<path d="M3797 5463 c-4 -3 -7 -21 -7 -40 0 -29 3 -33 25 -33 26 0 33 -18 15
-36 -20 -20 14 -36 44 -23 27 13 35 29 14 29 -8 0 -14 18 -16 47 -1 26 -8 51
-15 55 -15 10 -51 10 -60 1z"/>
<path d="M6134 5463 c-39 -5 -73 -38 -57 -54 13 -13 60 0 100 27 23 15 23 36
0 32 -7 0 -26 -3 -43 -5z"/>
<path d="M3454 5449 c-3 -6 -12 -8 -20 -5 -24 9 -44 -5 -44 -30 0 -28 7 -30
38 -8 13 9 32 14 44 11 27 -8 48 2 48 22 0 18 -55 27 -66 10z"/>
<path d="M4336 5431 c-20 -22 -104 -53 -111 -41 -8 13 -45 -1 -45 -16 0 -7 13
-20 29 -28 26 -14 30 -14 42 0 7 8 19 12 26 9 8 -2 23 0 33 5 24 13 47 4 53
-21 3 -11 14 -19 27 -19 15 0 25 -11 36 -36 17 -41 15 -44 -29 -59 -36 -11
-43 -38 -10 -43 14 -2 26 4 32 17 7 12 24 21 43 23 46 4 47 30 4 70 -25 22
-36 42 -36 60 0 23 -4 28 -24 28 -20 0 -25 6 -28 32 -4 38 -19 45 -42 19z"/>
<path d="M3978 5375 c-25 -33 -22 -52 7 -57 31 -6 37 1 29 41 -8 41 -15 44
-36 16z"/>
<path d="M4087 5379 c-21 -12 -14 -29 13 -29 15 0 30 18 30 36 0 7 -25 4 -43
-7z"/>
<path d="M3295 5350 c-4 -6 1 -20 10 -30 16 -18 19 -18 42 -3 13 9 20 19 16
24 -15 15 -61 21 -68 9z"/>
<path d="M3219 5334 c-9 -11 -9 -18 -1 -26 14 -14 42 -3 42 16 0 20 -27 27
-41 10z"/>
<path d="M2892 5324 c-25 -17 -31 -49 -7 -40 8 3 35 -6 60 -19 46 -26 75 -32
75 -15 0 6 -3 10 -8 10 -4 0 -25 18 -47 40 -22 21 -42 39 -45 40 -3 0 -16 -7
-28 -16z"/>
<path d="M4052 5319 c-15 -5 -22 -15 -20 -26 3 -15 15 -18 66 -19 46 -1 62 2
62 12 0 8 -6 14 -14 14 -7 0 -19 7 -26 15 -14 17 -34 18 -68 4z"/>
<path d="M3480 5300 c0 -13 7 -20 20 -20 13 0 20 7 20 20 0 13 -7 20 -20 20
-13 0 -20 -7 -20 -20z"/>
<path d="M3067 5303 c-4 -3 -7 -15 -7 -25 0 -13 8 -18 29 -18 39 0 47 15 19
34 -25 18 -32 19 -41 9z"/>
<path d="M3623 5264 c-7 -19 13 -34 45 -34 27 0 28 11 4 33 -23 21 -41 22 -49
1z"/>
<path d="M4230 5267 c0 -27 28 -41 55 -29 29 13 33 32 8 32 -10 0 -28 3 -40 6
-16 5 -23 2 -23 -9z"/>
<path d="M3333 5263 c-26 -10 -13 -33 17 -33 32 0 37 9 18 28 -13 13 -16 13
-35 5z"/>
<path d="M3916 5254 c-4 -10 -2 -22 3 -27 14 -14 43 0 39 20 -4 24 -34 28 -42
7z"/>
<path d="M3774 5227 c-9 -24 14 -69 34 -65 21 4 28 44 12 64 -15 18 -39 18
-46 1z"/>
<path d="M3502 5214 c-18 -7 -36 -13 -40 -11 -11 3 -10 -15 0 -45 11 -32 22
-29 63 20 33 40 23 56 -23 36z"/>
<path d="M4590 5205 c-7 -8 -19 -15 -27 -15 -18 0 -11 -24 8 -28 16 -3 59 33
59 48 0 15 -26 12 -40 -5z"/>
<path d="M3964 5186 c-4 -11 -19 -16 -43 -16 -44 0 -94 -35 -72 -49 10 -6 25
-4 44 5 16 9 36 13 44 9 27 -10 53 5 53 30 0 29 -18 43 -26 21z"/>
<path d="M4640 5185 c-10 -11 -10 -19 -2 -27 15 -15 44 -2 40 19 -4 23 -22 27
-38 8z"/>
<path d="M4210 5155 c-14 -17 -7 -31 20 -38 26 -7 38 17 20 38 -16 19 -24 19
-40 0z"/>
<path d="M4071 5109 c-19 -8 -21 -12 -11 -24 16 -20 39 -19 47 1 8 22 -8 33
-36 23z"/>
<path d="M3755 5059 c-10 -30 16 -47 44 -30 16 10 8 26 -19 41 -15 8 -20 6
-25 -11z"/>
<path d="M3627 5043 c-14 -13 -7 -33 11 -33 26 0 34 11 21 27 -13 14 -22 16
-32 6z"/>
<path d="M3457 5033 c-14 -13 -6 -23 18 -23 16 0 25 6 25 15 0 15 -31 21 -43
8z"/>
<path d="M3751 4986 c-9 -10 -8 -16 4 -26 19 -16 41 1 32 24 -8 20 -21 20 -36
2z"/>
<path d="M3885 4940 c-4 -7 -3 -16 3 -22 14 -14 47 -6 47 12 0 18 -40 26 -50
10z"/>
<path d="M5728 4308 c-37 -13 -35 -35 3 -43 31 -7 31 -7 27 -68 -3 -64 7 -80
35 -52 20 19 25 19 29 -1 2 -11 16 -18 41 -21 31 -3 37 -1 37 16 0 12 -9 21
-24 25 -34 8 -56 33 -56 62 0 29 9 30 54 3 33 -19 48 -49 44 -89 -1 -8 0 -27
0 -42 2 -36 33 -38 52 -3 13 25 60 36 60 15 0 -6 15 -8 38 -4 34 5 38 4 48
-24 7 -17 8 -36 3 -43 -18 -28 -10 -49 17 -49 25 0 26 2 20 35 -4 19 -3 35 2
35 5 0 22 11 38 26 23 20 36 24 64 20 19 -3 42 -6 51 -6 9 0 19 -9 22 -19 3
-13 17 -21 46 -26 32 -5 41 -11 39 -23 -2 -12 -14 -17 -38 -18 -54 -1 -60 -3
-60 -19 0 -8 12 -17 28 -20 15 -4 35 -10 44 -16 19 -9 41 7 63 46 9 16 14 16
32 4 12 -7 23 -22 25 -34 2 -15 9 -19 31 -17 15 2 27 -1 27 -7 0 -16 52 -13
78 5 31 22 27 35 -9 27 -27 -5 -44 -1 -99 27 -8 4 -26 27 -41 51 -29 50 -60
59 -69 20 l-5 -24 -30 26 c-43 39 -47 41 -85 56 -40 15 -83 15 -111 0 -13 -6
-25 -6 -38 1 -11 5 -28 10 -39 10 -10 0 -27 9 -38 21 -12 14 -25 18 -41 14
-27 -6 -56 16 -48 37 4 9 -16 18 -67 31 -40 9 -79 17 -87 17 -7 0 -26 11 -43
25 -33 28 -32 28 -70 13z m306 -178 c-6 -5 -24 21 -24 34 0 6 6 1 14 -10 8
-10 12 -21 10 -24z"/>
<path d="M5676 4224 c-7 -19 -8 -18 20 -32 11 -6 26 -7 33 -3 10 7 9 13 -5 30
-22 25 -40 27 -48 5z"/>
<path d="M818 4214 c-9 -8 29 -64 43 -64 15 0 10 18 -14 45 -12 15 -25 23 -29
19z"/>
<path d="M5233 4164 c-8 -22 10 -36 43 -32 28 3 43 33 17 33 -6 0 -15 3 -19 8
-13 12 -34 8 -41 -9z"/>
<path d="M4950 4135 c-17 -20 -4 -35 31 -35 25 0 51 23 38 34 -16 13 -58 14
-69 1z"/>
<path d="M5094 4135 c-12 -29 15 -45 45 -26 12 8 12 12 2 25 -17 20 -40 21
-47 1z"/>
<path d="M5235 4100 c-4 -6 -11 -8 -16 -5 -5 4 -9 2 -9 -4 0 -5 5 -13 12 -17
8 -5 6 -10 -8 -15 -20 -7 -21 -7 33 -24 12 -4 14 -8 5 -17 -7 -7 -12 -16 -12
-20 0 -14 39 -9 47 6 4 8 17 15 28 17 12 3 21 14 23 27 4 24 -7 29 -26 10 -9
-9 -12 -9 -12 0 0 7 -6 12 -14 12 -7 0 -16 9 -19 20 -6 21 -22 26 -32 10z"/>
<path d="M5577 4093 c-14 -13 -6 -23 18 -23 16 0 25 6 25 15 0 15 -31 21 -43
8z"/>
<path d="M5475 4080 c-10 -16 4 -30 31 -30 26 0 31 9 12 28 -15 15 -35 16 -43
2z"/>
<path d="M5081 4056 c-15 -18 12 -66 38 -66 9 0 27 -7 40 -16 31 -22 42 -7 28
39 -11 33 -37 53 -37 27 0 -18 -18 -11 -25 10 -7 23 -28 26 -44 6z"/>
<path d="M4828 4028 c-35 -12 -36 -35 -2 -50 19 -9 30 -9 44 0 14 8 20 8 22 0
4 -12 60 -14 78 -3 17 11 -7 44 -28 38 -10 -2 -24 3 -31 11 -15 18 -43 19 -83
4z"/>
<path d="M6235 4030 c-9 -15 12 -48 36 -55 28 -9 31 -4 18 33 -11 32 -41 44
-54 22z"/>
<path d="M5474 3995 c-7 -18 12 -45 32 -45 17 0 17 2 2 35 -13 28 -26 32 -34
10z"/>
<path d="M5000 3975 c0 -20 5 -25 25 -25 27 0 33 18 13 38 -20 20 -38 14 -38
-13z"/>
<path d="M5071 3976 c-16 -19 -6 -36 20 -36 15 0 20 6 17 22 -4 27 -21 33 -37
14z"/>
<path d="M5594 3976 c-18 -14 -18 -15 -1 -21 23 -9 47 1 47 20 0 19 -20 19
-46 1z"/>
<path d="M6915 3975 c-60 -7 -115 -11 -121 -8 -7 2 -22 0 -33 -7 -14 -7 -27
-8 -40 -1 -21 12 -63 -10 -43 -23 29 -18 110 -24 167 -13 33 7 113 12 177 12
107 0 118 2 118 18 0 31 -73 38 -225 22z"/>
<path d="M5813 3953 c-24 -9 -13 -28 26 -47 41 -19 76 -16 69 7 -3 6 -14 13
-26 15 -11 2 -26 10 -32 18 -13 15 -17 16 -37 7z"/>
<path d="M4760 3931 c0 -27 15 -34 42 -20 21 11 21 12 3 25 -27 20 -45 17 -45
-5z"/>
<path d="M6073 3898 c3 -52 17 -61 36 -23 15 31 6 58 -22 63 -13 3 -16 -5 -14
-40z"/>
<path d="M5240 3921 c0 -32 21 -61 44 -61 27 0 42 15 26 25 -5 3 -10 15 -10
26 0 14 -7 19 -30 19 -16 0 -30 -4 -30 -9z"/>
<path d="M5605 3900 c-4 -7 -3 -16 3 -22 14 -14 45 -2 40 15 -6 16 -34 21 -43
7z"/>
<path d="M5734 3895 c-8 -21 4 -35 32 -35 26 0 32 18 12 38 -16 16 -37 15 -44
-3z"/>
<path d="M5996 3881 c-23 -25 -20 -41 9 -41 20 0 25 5 25 24 0 33 -14 40 -34
17z"/>
<path d="M6903 3886 c-39 -12 -51 -36 -26 -54 17 -12 15 -15 -22 -48 -22 -19
-62 -56 -90 -83 -32 -31 -91 -70 -160 -106 -60 -32 -139 -73 -175 -93 -116
-63 -188 -96 -322 -146 -53 -21 -102 -44 -109 -52 -6 -8 -17 -14 -23 -14 -7 0
-27 -11 -46 -25 -19 -14 -41 -25 -51 -25 -28 0 -138 -38 -189 -66 -33 -18 -52
-36 -59 -55 -12 -34 -3 -36 30 -11 38 29 129 70 182 82 46 10 126 45 137 59 5
8 96 51 106 51 3 0 31 12 62 26 31 14 66 29 77 34 11 5 52 23 90 41 39 17 93
42 121 55 28 12 76 38 105 56 30 19 89 52 133 74 113 57 296 231 296 283 0 19
-34 27 -67 17z"/>
<path d="M7038 3855 c-11 -42 -23 -57 -88 -111 -41 -35 -88 -77 -104 -94 -16
-17 -52 -46 -81 -65 -29 -18 -80 -54 -114 -79 -35 -25 -82 -51 -104 -57 -72
-19 -191 -103 -343 -244 -36 -32 -77 -67 -92 -77 -30 -20 -110 -45 -166 -52
-54 -7 -137 -70 -169 -128 -38 -67 -24 -79 26 -22 48 54 121 104 153 104 37 0
127 32 169 61 36 24 73 55 210 176 59 52 170 120 234 144 31 11 76 36 101 55
25 19 77 55 115 81 39 25 86 62 105 82 19 20 58 55 85 76 70 56 81 69 95 121
11 39 11 47 -3 61 -15 15 -17 12 -29 -32z"/>
<path d="M6424 3875 c-26 -19 -8 -35 40 -35 42 0 78 22 62 37 -12 12 -85 11
-102 -2z"/>
<path d="M4945 3862 c-4 -4 -12 -7 -17 -7 -24 0 -18 -25 6 -31 28 -7 56 0 56
13 0 12 -37 33 -45 25z"/>
<path d="M5490 3850 c0 -15 5 -20 18 -18 9 2 17 10 17 18 0 8 -8 16 -17 18
-13 2 -18 -3 -18 -18z"/>
<path d="M5914 3855 c-4 -8 -16 -15 -29 -15 -23 0 -41 -25 -25 -35 8 -5 39 -7
70 -4 8 1 21 0 29 -2 23 -6 24 25 3 49 -22 26 -40 28 -48 7z"/>
<path d="M6591 3861 c-24 -15 -4 -38 39 -45 69 -11 82 11 22 37 -45 20 -43 19
-61 8z"/>
<path d="M5010 3845 c0 -18 48 -31 62 -17 16 16 0 32 -33 32 -19 0 -29 -5 -29
-15z"/>
<path d="M6362 3849 c-13 -5 -22 -15 -20 -21 6 -18 58 -23 58 -6 0 26 -14 36
-38 27z"/>
<path d="M5113 3834 c-7 -18 12 -34 40 -34 23 0 22 27 -2 40 -26 13 -31 13
-38 -6z"/>
<path d="M5638 3843 c-19 -5 -23 -21 -10 -39 8 -12 78 -12 89 0 9 9 -34 47
-51 45 -6 -1 -19 -3 -28 -6z"/>
<path d="M5272 3823 c2 -12 14 -19 36 -21 20 -2 32 -9 32 -18 0 -20 20 -17 50
6 21 17 23 21 10 30 -8 6 -27 8 -42 6 -16 -3 -28 -1 -28 4 0 6 -14 10 -31 10
-24 0 -30 -4 -27 -17z"/>
<path d="M4655 3820 c-10 -16 4 -30 29 -30 29 0 39 10 25 27 -13 15 -45 17
-54 3z"/>
<path d="M6502 3815 c-13 -7 -29 -18 -34 -23 -17 -17 11 -44 41 -40 22 3 26 8
28 41 1 40 -1 41 -35 22z"/>
<path d="M6287 3813 c-15 -15 -6 -33 17 -33 23 0 41 22 29 34 -8 8 -38 8 -46
-1z"/>
<path d="M5430 3786 c-10 -13 -9 -17 4 -22 22 -8 49 3 44 19 -7 18 -33 20 -48
3z"/>
<path d="M4186 3775 c-12 -32 -6 -87 15 -128 31 -60 145 -175 204 -204 28 -14
59 -33 70 -43 11 -10 45 -31 75 -46 30 -15 71 -39 90 -54 70 -54 112 -69 252
-85 74 -8 150 -20 169 -26 19 -6 62 -14 95 -19 44 -5 82 -20 130 -48 38 -22
89 -43 114 -47 25 -4 94 -25 153 -46 120 -43 160 -49 155 -23 -2 10 -26 25
-63 37 -33 11 -80 28 -105 37 -25 10 -62 21 -84 24 -61 11 -158 61 -195 100
-19 20 -42 36 -50 36 -9 0 -43 13 -76 28 -33 16 -85 35 -115 42 -76 18 -167
47 -215 69 -22 10 -60 26 -85 35 -61 22 -137 97 -151 150 -6 22 -15 46 -21 53
-7 8 -6 24 2 49 9 27 9 39 0 47 -9 9 -16 6 -31 -12 -24 -30 -24 -56 2 -136 38
-120 135 -186 384 -265 50 -15 106 -31 125 -35 43 -9 100 -36 100 -47 0 -5 -9
-4 -20 2 -28 15 -163 37 -245 39 -58 2 -80 8 -137 38 -37 19 -68 39 -68 44 0
5 -26 21 -57 35 -32 14 -74 38 -95 54 -20 16 -54 37 -77 46 -24 9 -62 40 -92
72 -90 99 -104 121 -109 181 -4 41 -9 57 -21 59 -9 2 -19 -4 -23 -13z"/>
<path d="M5720 3771 c0 -22 19 -31 66 -31 21 0 34 5 34 13 0 23 -23 37 -62 37
-31 0 -38 -4 -38 -19z"/>
<path d="M6214 3775 c-8 -20 4 -35 26 -35 23 0 32 13 24 34 -8 20 -43 21 -50
1z"/>
<path d="M5292 3768 c-21 -21 -15 -50 10 -46 27 4 32 18 16 41 -11 14 -16 15
-26 5z"/>
<path d="M5602 3763 c4 -22 34 -29 54 -12 18 15 2 29 -34 29 -17 0 -23 -5 -20
-17z"/>
<path d="M6022 3768 c-15 -15 3 -38 30 -38 11 0 26 -7 35 -15 20 -21 48 -15
48 9 0 13 -8 20 -25 23 -13 2 -28 10 -33 18 -10 18 -38 20 -55 3z"/>
<path d="M4590 3760 c-13 -9 -13 -12 3 -21 9 -5 17 -19 17 -30 0 -15 6 -20 23
-17 16 2 23 11 25 32 2 18 0 26 -7 21 -6 -3 -14 1 -17 9 -7 18 -22 20 -44 6z"/>
<path d="M5933 3715 c-3 -9 -4 -17 -2 -18 69 -38 99 -43 99 -16 0 11 -60 49
-78 49 -7 0 -15 -7 -19 -15z"/>
<path d="M6196 3691 c-21 -23 -14 -38 22 -52 33 -13 56 6 30 25 -10 7 -18 21
-18 30 0 21 -13 20 -34 -3z"/>
<path d="M5480 3686 c0 -12 10 -16 36 -16 45 0 42 24 -4 28 -24 2 -32 -1 -32
-12z"/>
<path d="M6077 3633 c-17 -16 -5 -33 22 -33 37 0 48 15 22 29 -23 13 -35 14
-44 4z"/>
<path d="M5408 3612 c-22 -4 -24 -42 -3 -42 16 0 30 23 23 38 -1 4 -11 6 -20
4z"/>
<path d="M5516 3598 c-22 -31 -20 -38 8 -38 28 0 51 24 42 45 -8 22 -32 18
-50 -7z"/>
<path d="M5231 3597 c-11 -14 -6 -27 10 -27 5 0 13 9 19 20 8 16 8 20 -3 20
-8 0 -20 -6 -26 -13z"/>
<path d="M5335 3592 c-5 -4 -16 -15 -24 -24 -12 -16 -11 -18 2 -18 17 0 47 26
47 41 0 11 -11 12 -25 1z"/>
<path d="M5636 3585 c-7 -19 32 -41 47 -26 7 7 6 15 -3 26 -16 19 -36 19 -44
0z"/>
<path d="M5787 3573 c-13 -13 -7 -32 13 -38 31 -10 44 4 24 26 -18 20 -27 23
-37 12z"/>
<path d="M5083 3559 c-24 -9 -30 -24 -14 -33 5 -3 7 -15 4 -26 -4 -14 1 -21
22 -26 32 -8 55 10 37 28 -7 7 -12 22 -12 34 0 29 -9 34 -37 23z"/>
<path d="M5900 3545 c0 -13 36 -35 56 -35 12 0 2 39 -12 44 -27 10 -44 7 -44
-9z"/>
<path d="M5431 3541 c-18 -12 -7 -41 17 -41 26 0 56 25 48 38 -8 14 -45 15
-65 3z"/>
<path d="M5498 3479 c-10 -5 -18 -18 -18 -28 0 -23 39 -35 47 -15 3 8 11 14
19 14 8 0 14 7 14 15 0 8 -4 15 -9 15 -5 0 -15 2 -23 5 -7 2 -21 0 -30 -6z"/>
<path d="M5402 3468 c-7 -7 -8 -17 -2 -28 7 -12 6 -21 -3 -28 -6 -6 -12 -28
-12 -49 0 -34 3 -38 28 -41 29 -4 37 14 15 36 -9 9 -9 15 0 24 7 7 12 20 12
30 0 10 5 18 10 18 18 0 11 29 -9 40 -24 13 -24 13 -39 -2z"/>
<path d="M5917 3473 c-17 -16 -5 -33 23 -33 19 0 30 5 30 14 0 20 -39 34 -53
19z"/>
<path d="M6061 3461 c-12 -22 -5 -31 26 -31 25 0 30 19 11 38 -17 17 -26 15
-37 -7z"/>
<path d="M5213 3444 c-10 -28 49 -59 71 -37 7 7 -41 53 -56 53 -5 0 -11 -7
-15 -16z"/>
<path d="M5597 3423 c-4 -3 -7 -15 -7 -25 0 -13 8 -18 29 -18 35 0 48 15 31
35 -13 16 -42 20 -53 8z"/>
<path d="M5500 3368 c-6 -18 -4 -27 12 -40 27 -24 37 -23 47 5 6 16 4 26 -10
40 -24 23 -38 22 -49 -5z"/>
<path d="M5632 3348 c-21 -21 -13 -37 24 -44 47 -9 65 8 39 36 -20 23 -45 26
-63 8z"/>
<path d="M5585 3290 c-3 -5 -12 -7 -19 -4 -19 7 -27 -33 -10 -47 10 -8 21 -8
44 2 32 15 37 28 18 47 -14 14 -25 15 -33 2z"/>
<path d="M917 3198 c-2 -7 -1 -22 4 -33 6 -16 8 -14 8 13 1 33 -4 41 -12 20z"/>
<path d="M840 3180 c0 -5 5 -10 10 -10 6 0 10 5 10 10 0 6 -4 10 -10 10 -5 0
-10 -4 -10 -10z"/>
<path d="M1072 3030 c0 -14 2 -19 5 -12 2 6 2 18 0 25 -3 6 -5 1 -5 -13z"/>
<path d="M1060 2990 c0 -5 5 -10 11 -10 5 0 7 5 4 10 -3 6 -8 10 -11 10 -2 0
-4 -4 -4 -10z"/>
<path d="M9190 2926 c0 -7 7 -33 15 -56 12 -33 15 -95 15 -279 1 -190 3 -232
13 -216 17 29 17 464 -1 523 -12 39 -42 60 -42 28z"/>
<path d="M4416 2898 c-11 -38 -36 -414 -36 -546 0 -93 3 -123 12 -120 9 3 12
28 10 84 -2 43 3 153 12 244 24 269 29 360 18 360 -5 0 -13 -10 -16 -22z"/>
<path d="M8840 2632 c0 -5 4 -22 10 -38 5 -16 16 -81 24 -144 l14 -115 0 105
c0 110 -14 191 -35 198 -7 2 -13 -1 -13 -6z"/>
<path d="M9100 2636 c-9 -9 15 -226 25 -227 15 0 18 27 10 117 -6 74 -22 124
-35 110z"/>
<path d="M7564 2474 c4 -87 2 -190 -4 -247 -15 -146 -20 -215 -14 -192 3 11
12 34 19 50 16 34 35 246 34 368 0 103 -10 159 -28 165 -12 4 -13 -19 -7 -144z"/>
<path d="M6190 2565 c-10 -12 -11 -50 -6 -167 3 -84 9 -154 11 -156 2 -3 8 6
13 19 9 23 8 307 -1 315 -2 3 -10 -3 -17 -11z"/>
<path d="M8940 2451 c0 -89 9 -131 27 -131 15 0 16 -4 -3 148 -9 75 -24 64
-24 -17z"/>
<path d="M8999 2516 c-10 -10 16 -189 29 -194 15 -5 15 52 -1 130 -12 56 -19
72 -28 64z"/>
<path d="M8694 2425 c4 -49 7 -127 7 -172 0 -46 4 -83 9 -83 17 0 22 112 11
217 -14 137 -36 168 -27 38z"/>
<path d="M4115 2449 c-4 -24 -3 -45 3 -51 6 -6 11 6 14 37 4 59 -8 69 -17 14z"/>
<path d="M8209 2478 c-5 -64 -2 -508 3 -508 14 0 18 67 21 293 1 176 -1 227
-10 227 -7 0 -13 -6 -14 -12z"/>
<path d="M7720 2458 c-2 -65 -12 -174 -26 -263 -8 -55 -17 -118 -20 -140 -12
-90 -23 -115 -50 -115 -14 0 -38 7 -55 16 -32 16 -69 11 -69 -10 0 -13 28 -27
75 -40 43 -12 140 -17 385 -21 140 -3 264 -6 275 -9 35 -6 287 23 370 44 44
10 129 31 188 45 59 14 127 34 150 44 23 11 69 31 102 46 77 34 154 105 113
105 -6 0 -19 -6 -27 -13 -28 -23 -224 -106 -291 -122 -36 -9 -72 -20 -81 -25
-9 -5 -38 -12 -65 -16 -27 -3 -59 -10 -71 -15 -12 -5 -81 -18 -152 -29 -99
-16 -161 -20 -270 -17 -77 2 -142 5 -145 8 -2 2 -1 42 4 89 10 119 -1 402 -17
407 -9 3 -11 -46 -8 -214 2 -120 0 -232 -5 -248 -9 -29 -13 -31 -61 -33 l-52
-2 8 52 c21 154 24 189 25 256 0 76 -18 212 -29 212 -3 0 -5 -66 -3 -147 3
-143 -12 -286 -38 -350 -11 -26 -40 -31 -40 -8 0 8 -4 15 -10 15 -5 0 -10 -7
-10 -15 0 -16 -35 -20 -64 -9 -14 5 -13 10 7 28 17 16 29 45 40 97 32 148 43
286 24 306 -3 2 -8 -27 -12 -64 -12 -122 -54 -295 -76 -319 -12 -13 -18 -27
-14 -33 3 -7 -2 -11 -15 -11 -18 0 -20 5 -15 38 35 244 54 502 37 502 -7 0
-12 -10 -12 -22z"/>
<path d="M5877 2423 c-3 -16 -3 -149 -1 -298 3 -148 4 -281 4 -294 0 -40 13
-14 17 32 2 23 5 165 7 315 2 208 0 272 -9 272 -7 0 -15 -12 -18 -27z"/>
<path d="M4236 2433 c-3 -3 -5 -34 -5 -67 l1 -61 8 51 c4 29 10 57 14 62 7 12
-8 25 -18 15z"/>
<path d="M3325 2411 c-3 -6 1 -92 10 -193 25 -303 28 -318 45 -318 17 0 21 20
11 57 -9 37 -15 111 -27 318 -3 55 -7 110 -10 123 -5 23 -18 29 -29 13z"/>
<path d="M7486 2401 c-10 -15 -16 -301 -7 -301 17 0 31 92 30 200 -1 99 -7
127 -23 101z"/>
<path d="M8525 2349 c5 -35 7 -88 7 -116 -1 -29 2 -63 7 -75 6 -17 9 -12 13
28 8 78 -5 217 -21 222 -11 4 -12 -8 -6 -59z"/>
<path d="M4106 2371 c-6 -9 4 -134 10 -128 2 2 6 31 8 65 4 56 -4 86 -18 63z"/>
<path d="M8437 2366 c-3 -7 -6 -71 -6 -141 -1 -113 1 -126 14 -115 12 10 15
38 15 136 0 111 -9 157 -23 120z"/>
<path d="M7394 2349 c-15 -16 -18 -35 -17 -96 1 -41 4 -78 7 -81 12 -11 18 7
23 65 2 32 8 73 13 90 10 40 -1 50 -26 22z"/>
<path d="M3210 2311 c0 -10 9 -76 19 -147 11 -71 23 -161 26 -201 7 -77 25
-116 45 -97 8 8 9 17 1 30 -8 14 -61 387 -61 428 0 3 -7 6 -15 6 -8 0 -15 -8
-15 -19z"/>
<path d="M1381 2263 c-6 -21 -13 -56 -16 -78 -3 -22 -10 -51 -15 -65 -13 -34
-41 -183 -35 -188 2 -2 7 9 11 24 4 16 15 61 26 99 10 39 25 97 32 130 8 33
17 72 21 88 5 17 3 27 -4 27 -5 0 -15 -17 -20 -37z"/>
<path d="M3396 2169 c9 -163 14 -193 38 -197 15 -3 17 0 12 14 -4 10 -9 70
-12 133 -6 151 -11 181 -30 181 -13 0 -14 -17 -8 -131z"/>
<path d="M3767 2293 c-4 -3 -7 -20 -7 -37 0 -37 47 -316 54 -324 17 -16 15 44
-3 174 -12 80 -21 157 -21 170 0 23 -10 31 -23 17z"/>
<path d="M7442 2263 c-6 -10 -13 -37 -17 -60 -5 -35 -4 -43 8 -43 18 0 24 19
25 78 1 46 -2 51 -16 25z"/>
<path d="M3443 2255 c-3 -9 -3 -44 1 -78 3 -34 9 -95 13 -134 6 -77 24 -109
41 -76 11 20 7 60 -8 78 -5 6 -10 51 -11 100 -1 50 -4 98 -6 108 -5 21 -22 22
-30 2z"/>
<path d="M1419 2233 c-5 -16 -12 -35 -15 -43 -3 -8 -8 -44 -11 -80 -2 -36 -13
-101 -23 -145 -25 -113 -33 -161 -25 -153 10 9 40 155 60 287 9 58 23 117 31
133 9 17 10 28 4 28 -6 0 -15 -12 -21 -27z"/>
<path d="M1496 2242 c-10 -16 -87 -414 -82 -420 6 -5 5 -7 41 173 14 72 33
153 41 182 16 51 16 90 0 65z"/>
<path d="M3686 2242 c-3 -6 1 -39 9 -74 8 -34 18 -90 22 -122 5 -34 14 -61 21
-64 10 -3 12 12 6 74 -13 148 -36 221 -58 186z"/>
<path d="M3507 2215 c-4 -8 -2 -40 3 -72 6 -32 10 -76 10 -99 0 -48 24 -88 39
-65 5 8 6 22 1 30 -4 9 -11 50 -14 91 -9 96 -16 130 -26 130 -4 0 -10 -7 -13
-15z"/>
<path d="M3600 2215 c-7 -9 -10 -29 -6 -52 3 -21 8 -58 11 -83 8 -65 25 -114
37 -102 6 6 6 30 -1 68 -6 32 -11 84 -11 115 0 61 -10 78 -30 54z"/>
<path d="M3100 2184 c0 -35 41 -281 51 -306 12 -30 39 -38 39 -13 0 8 -4 15
-9 15 -5 0 -13 26 -16 58 -4 31 -13 91 -21 133 -9 42 -14 80 -13 85 1 5 1 17
0 27 -1 21 -31 23 -31 1z"/>
<path d="M1555 2158 c-15 -90 -34 -233 -30 -236 3 -3 9 23 36 163 6 33 13 70
16 83 3 12 1 22 -5 22 -6 0 -14 -15 -17 -32z"/>
<path d="M2840 2167 c0 -9 -5 -17 -12 -19 -8 -3 -12 -58 -14 -193 -2 -182 -2
-189 19 -206 12 -10 24 -18 27 -19 3 0 5 100 5 222 0 168 -3 222 -12 225 -7 3
-13 -2 -13 -10z"/>
<path d="M734 2145 c-4 -10 -20 -15 -45 -15 -46 0 -113 -40 -134 -79 -21 -38
-187 -210 -180 -186 6 19 5 19 -7 2 -7 -10 -23 -31 -35 -45 -22 -26 -31 -72
-15 -72 5 0 34 24 65 53 31 29 58 48 60 43 4 -12 38 9 82 49 133 124 219 212
217 222 -1 6 2 14 8 18 5 3 10 10 10 16 0 15 -20 10 -26 -6z m-138 -142 c-79
-75 -106 -95 -106 -76 0 14 185 181 189 170 2 -6 -35 -48 -83 -94z"/>
<path d="M1276 2132 c-18 -34 -56 -168 -56 -195 0 -30 17 -10 24 28 4 20 18
70 32 111 27 79 27 107 0 56z"/>
<path d="M2681 2119 c-1 -23 -2 -45 -3 -48 -1 -3 2 -13 5 -21 4 -8 11 -89 16
-179 9 -142 19 -197 35 -180 2 2 0 27 -4 54 -4 28 -11 120 -14 205 -7 162 -13
210 -25 210 -4 0 -8 -19 -10 -41z"/>
<path d="M2910 2145 c-9 -11 -10 -37 -5 -102 4 -49 9 -136 10 -194 2 -104 7
-129 25 -129 14 0 23 40 11 54 -6 7 -12 88 -14 194 -2 100 -6 184 -9 187 -3 3
-11 -1 -18 -10z"/>
<path d="M3025 2140 c-3 -5 -3 -31 0 -57 3 -26 10 -106 15 -177 5 -70 11 -131
15 -134 9 -9 34 32 25 43 -4 5 -11 71 -15 145 -3 74 -9 147 -11 163 -6 27 -18
35 -29 17z"/>
<path d="M755 2093 c-22 -27 -81 -91 -131 -143 -106 -111 -158 -170 -150 -170
29 0 354 339 339 353 -12 12 -18 8 -58 -40z"/>
<path d="M2184 2068 c3 -29 9 -114 13 -188 5 -104 9 -126 14 -95 12 60 9 255
-3 298 -17 55 -32 46 -24 -15z"/>
<path d="M1656 2093 c-7 -21 -46 -287 -46 -310 0 -44 12 6 29 128 11 74 23
149 27 167 7 34 -1 45 -10 15z"/>
<path d="M1905 2100 c-18 -30 -2 -300 18 -300 5 0 -1 301 -6 306 -3 3 -8 0
-12 -6z"/>
<path d="M2964 2095 c-8 -19 11 -291 21 -318 4 -10 13 -16 19 -14 15 5 21 38
8 46 -6 4 -14 69 -18 149 -7 134 -16 175 -30 137z"/>
<path d="M920 2072 c0 -7 -6 -12 -12 -12 -34 -1 -125 -115 -200 -250 -20 -36
-48 -80 -62 -99 -14 -19 -26 -39 -26 -44 0 -22 37 25 122 152 49 74 112 160
140 193 28 32 48 61 45 65 -4 3 -7 1 -7 -5z"/>
<path d="M930 2048 c-32 -34 -54 -62 -142 -183 -46 -64 -111 -185 -103 -194 9
-8 27 14 51 62 15 29 39 68 55 88 76 97 185 259 174 259 -2 0 -18 -15 -35 -32z"/>
<path d="M1181 2035 c-32 -44 -71 -142 -71 -177 0 -30 30 -20 45 14 10 25 10
35 2 40 -9 6 0 30 27 83 22 41 37 77 34 80 -2 3 -19 -15 -37 -40z"/>
<path d="M1735 2040 c-4 -17 -5 -34 -2 -36 3 -3 8 9 12 26 4 17 5 34 2 36 -3
3 -8 -9 -12 -26z"/>
<path d="M2547 2064 c-10 -10 -9 -74 2 -74 8 0 21 -72 37 -200 8 -67 20 -100
35 -100 7 0 9 10 4 28 -3 15 -12 70 -19 122 -25 178 -42 241 -59 224z"/>
<path d="M1051 2039 c-5 -13 -21 -35 -35 -48 -14 -14 -26 -28 -26 -33 0 -4
-18 -45 -39 -90 -21 -46 -49 -105 -61 -133 -12 -27 -31 -63 -42 -78 -22 -30
-18 -48 6 -28 8 6 49 82 91 169 43 86 91 176 108 200 23 32 28 45 19 54 -8 8
-14 5 -21 -13z"/>
<path d="M1103 2033 c-36 -49 -103 -195 -103 -225 0 -42 14 -34 28 16 12 47
65 162 96 209 10 15 14 27 9 27 -5 0 -18 -12 -30 -27z"/>
<path d="M1996 2048 c-9 -27 -1 -203 9 -206 14 -3 19 205 5 213 -6 3 -12 0
-14 -7z"/>
<path d="M2465 2050 c-12 -18 -8 -281 4 -293 16 -16 18 8 12 158 -4 104 -9
145 -16 135z"/>
<path d="M2320 1849 c0 -117 3 -178 10 -174 6 4 10 75 10 181 0 109 -4 174
-10 174 -6 0 -10 -67 -10 -181z"/>
<path d="M2406 2008 c-13 -48 -19 -265 -7 -272 16 -11 19 4 25 157 5 126 -2
170 -18 115z"/>
<path d="M782 2003 c-22 -10 -51 -43 -81 -87 -26 -39 -64 -87 -84 -107 -40
-40 -47 -59 -19 -59 10 0 40 31 72 73 29 39 72 95 95 122 41 49 59 75 53 75
-2 0 -18 -8 -36 -17z"/>
<path d="M942 1958 c-34 -46 -112 -209 -112 -233 0 -19 25 15 53 73 17 37 49
96 70 130 49 83 43 102 -11 30z"/>
<path d="M1796 2001 c-11 -18 -24 -236 -15 -251 11 -19 10 -24 15 95 2 55 8
114 13 132 9 30 0 45 -13 24z"/>
<path d="M4126 1979 c-5 -13 -4 -68 3 -169 2 -29 4 -31 11 -15 8 20 4 184 -5
193 -2 3 -7 -1 -9 -9z"/>
<path d="M4206 1963 c-7 -33 -13 -98 -22 -247 -5 -82 -4 -107 4 -102 7 4 12
22 13 39 1 18 5 43 10 57 6 17 7 1 4 -49 -4 -64 -2 -72 9 -55 14 19 21 72 31
224 4 55 1 83 -10 104 -8 15 -15 35 -15 42 0 25 -18 15 -24 -13z"/>
<path d="M1717 1945 c-4 -22 -6 -53 -6 -70 1 -16 5 -3 10 30 10 67 6 102 -4
40z"/>
<path d="M1510 1850 c0 -16 2 -30 4 -30 2 0 6 14 8 30 3 17 1 30 -4 30 -4 0
-8 -13 -8 -30z"/>
<path d="M4300 1863 c0 -10 -2 -85 -5 -166 -3 -108 -1 -147 7 -145 16 6 18 24
21 182 1 104 -1 140 -10 143 -8 3 -13 -3 -13 -14z"/>
<path d="M7220 1827 c0 -18 14 -60 31 -95 16 -34 37 -81 45 -104 20 -57 77
-155 115 -198 l31 -35 -17 40 c-9 22 -27 58 -40 81 -13 22 -35 70 -48 105 -14
35 -38 93 -55 129 -16 36 -33 75 -37 88 -10 33 -25 27 -25 -11z"/>
<path d="M4367 1843 c-5 -8 -11 -319 -7 -358 1 -15 4 -13 11 10 15 46 24 355
11 355 -6 0 -13 -3 -15 -7z"/>
<path d="M7122 1834 c-10 -18 0 -101 24 -189 42 -158 50 -183 78 -229 31 -52
49 -49 21 3 -23 46 -95 337 -95 387 0 45 -12 57 -28 28z"/>
<path d="M1703 1780 c0 -36 2 -50 4 -32 2 17 2 47 0 65 -2 17 -4 3 -4 -33z"/>
<path d="M1407 1803 c-10 -9 -9 -73 1 -73 4 0 8 18 8 40 1 42 1 44 -9 33z"/>
<path d="M1502 1785 c0 -16 2 -22 5 -12 2 9 2 23 0 30 -3 6 -5 -1 -5 -18z"/>
<path d="M4447 1653 c-5 -139 2 -194 18 -143 11 36 10 283 -2 287 -6 2 -12
-51 -16 -144z"/>
<path d="M5050 1750 c-5 -24 -4 -340 1 -340 29 0 41 290 14 326 -8 10 -15 17
-15 14z"/>
<path d="M4562 1703 c-14 -47 -4 -271 10 -232 10 24 14 256 6 264 -3 3 -10
-12 -16 -32z"/>
<path d="M5137 1722 c-3 -4 -6 -78 -7 -163 -2 -201 -2 -205 10 -193 23 23 35
354 13 361 -6 2 -14 0 -16 -5z"/>
<path d="M4835 1540 c0 -165 5 -209 19 -162 10 33 18 251 12 296 -4 25 -13 46
-19 46 -9 0 -12 -48 -12 -180z"/>
<path d="M1480 1700 c0 -5 5 -10 10 -10 6 0 10 5 10 10 0 6 -4 10 -10 10 -5 0
-10 -4 -10 -10z"/>
<path d="M4935 1525 c0 -102 3 -185 6 -185 14 0 21 39 26 156 6 131 -1 214
-20 214 -9 0 -12 -49 -12 -185z"/>
<path d="M6426 1702 c-11 -18 6 -443 18 -439 25 8 25 436 -1 444 -6 2 -14 0
-17 -5z"/>
<path d="M4656 1677 c-3 -12 -6 -71 -6 -132 1 -100 2 -108 16 -90 11 15 14 45
13 128 -2 105 -10 140 -23 94z"/>
<path d="M5237 1694 c-11 -11 -8 -332 2 -339 18 -11 22 16 23 170 1 143 -6
188 -25 169z"/>
<path d="M7002 1687 c-7 -9 -7 -35 2 -87 8 -41 17 -112 21 -158 5 -55 11 -82
19 -79 18 6 18 89 2 187 -9 49 -16 104 -16 120 0 32 -11 38 -28 17z"/>
<path d="M4765 1680 c-8 -12 -7 -311 0 -319 14 -14 20 26 23 169 3 109 1 160
-6 160 -6 0 -14 -5 -17 -10z"/>
<path d="M5358 1524 c-6 -163 -3 -197 16 -191 15 5 16 339 0 344 -8 3 -13 -45
-16 -153z"/>
<path d="M5530 1645 c-9 -11 -11 -40 -6 -108 4 -55 2 -116 -4 -151 -12 -63 -2
-92 22 -68 14 14 20 330 7 338 -4 2 -12 -3 -19 -11z"/>
<path d="M7497 1643 c-10 -17 24 -68 64 -96 23 -16 44 -26 47 -23 3 3 -19 32
-48 63 -30 32 -55 59 -56 61 -1 2 -4 -1 -7 -5z"/>
<path d="M6255 1600 c-3 -6 -3 -25 1 -43 4 -17 6 -101 5 -185 -1 -121 1 -153
11 -150 20 7 33 179 22 289 -8 86 -22 117 -39 89z"/>
<path d="M6902 1578 c-13 -13 -17 -203 -6 -232 3 -9 12 -16 20 -16 11 0 14 25
14 124 0 123 -5 147 -28 124z"/>
<path d="M6686 1571 c-3 -5 -6 -67 -5 -138 0 -72 -1 -135 -3 -140 -2 -6 2 -12
7 -13 17 -2 23 40 24 167 1 109 -7 151 -23 124z"/>
<path d="M415 1540 c-6 -9 33 -30 57 -30 22 0 84 -25 155 -62 71 -38 73 -38
187 -38 91 0 116 3 116 14 0 13 -83 26 -170 26 -20 0 -68 16 -110 36 -41 20
-93 42 -115 50 -47 16 -111 18 -120 4z"/>
<path d="M6807 1543 c-2 -4 -2 -59 1 -120 4 -92 7 -113 20 -113 12 0 14 17 10
110 -4 98 -16 148 -31 123z"/>
<path d="M6076 1498 c-10 -38 -7 -246 4 -253 17 -11 30 43 30 129 0 123 -17
185 -34 124z"/>
<path d="M6159 1518 c-1 -2 -3 -68 -5 -146 -4 -114 -2 -143 8 -140 9 3 16 40
21 112 9 109 4 176 -13 176 -6 0 -10 -1 -11 -2z"/>
<path d="M3863 1493 c-23 -8 -13 -37 30 -85 34 -39 51 -50 90 -57 26 -5 56
-16 66 -25 9 -9 49 -25 87 -37 38 -11 91 -29 117 -40 26 -11 51 -17 56 -15 15
10 105 -26 146 -58 94 -74 217 -112 382 -121 48 -2 95 -11 114 -20 17 -9 57
-18 88 -20 31 -2 86 -9 122 -17 35 -7 116 -13 179 -13 63 -1 135 -6 160 -13
144 -36 220 -43 525 -46 216 -3 320 -8 344 -16 24 -9 60 -11 130 -5 53 4 114
7 136 6 73 -2 347 50 465 89 125 41 327 100 430 125 101 25 179 66 233 123 42
46 62 92 39 92 -5 0 -35 -24 -67 -54 -32 -29 -81 -65 -109 -79 -73 -37 -301
-93 -516 -128 -41 -6 -97 -16 -125 -21 -27 -5 -138 -11 -245 -13 -107 -3 -208
-7 -225 -10 -16 -3 -52 -1 -80 4 -27 6 -93 15 -145 21 -188 21 -345 42 -351
46 -7 4 -214 27 -484 54 -49 5 -137 16 -195 24 -58 9 -154 23 -215 31 -206 29
-354 58 -380 75 -5 4 -49 10 -97 13 -50 3 -100 13 -119 22 -17 9 -57 18 -88
20 -144 8 -333 56 -401 101 -19 13 -41 24 -49 24 -7 0 -19 6 -25 14 -6 7 -17
12 -23 9z m462 -182 c44 -4 89 -12 100 -18 26 -14 112 -28 148 -24 16 1 52 -6
80 -17 58 -22 214 -53 382 -76 61 -8 162 -23 225 -32 63 -9 144 -18 180 -20
36 -2 96 -8 135 -14 38 -6 117 -15 175 -20 58 -5 150 -16 205 -25 55 -8 168
-22 250 -31 83 -8 175 -21 205 -28 30 -7 82 -12 115 -10 33 2 146 6 250 9 105
3 210 9 235 14 127 25 118 24 90 8 -22 -12 -71 -25 -270 -67 -108 -22 -338
-33 -468 -22 -70 6 -253 16 -407 21 -154 6 -302 15 -330 21 -171 37 -193 40
-261 34 -47 -4 -100 -1 -160 9 -49 9 -116 21 -149 26 -33 6 -89 15 -125 22
-36 6 -105 17 -155 25 -175 28 -179 30 -284 98 -46 30 -92 51 -133 60 -35 8
-99 28 -143 45 l-80 32 55 -6 c30 -4 91 -10 135 -14z"/>
<path d="M5910 1360 c0 -108 3 -141 12 -138 7 3 16 26 21 52 10 62 -4 218 -20
224 -10 3 -13 -29 -13 -138z"/>
</g>
</svg>
