<svg xmlns="http://www.w3.org/2000/svg" version="1.0" preserveAspectRatio="xMidYMid meet" viewBox="102.62 65 550.75 710.6">

<g transform="translate(0.000000,885.000000) scale(0.100000,-0.100000)" fill="hsla(157, 14%, 25%, 0.6)" stroke="none">
<path d="M5117 8173 c-15 -30 -35 -87 -41 -119 -2 -10 -11 -37 -19 -59 -8 -22 -19 -67 -23 -100 -20 -170 1 -256 88 -348 28 -30 41 -64 27 -73 -5 -3 -9 1 -9 9 0 26 -37 62 -125 122 -48 32 -117 90 -154 128 -138 144 -214 213 -264 239 -48 26 -52 26 -69 11 -15 -13 -18 -26 -13 -62 19 -155 30 -210 47 -245 11 -21 26 -57 34 -80 16 -43 38 -79 117 -185 26 -35 46 -66 44 -68 -7 -6 -37 9 -37 17 0 5 -29 38 -65 73 -84 84 -185 137 -261 139 -30 1 -57 5 -60 10 -7 12 -79 10 -107 -3 -13 -6 -39 -36 -58 -67 -42 -70 -45 -128 -10 -220 18 -49 32 -69 63 -90 22 -15 54 -39 72 -54 17 -14 50 -29 71 -33 42 -7 108 -28 160 -50 17 -7 50 -16 75 -20 25 -4 71 -13 103 -21 32 -8 89 -17 125 -19 37 -2 82 -9 101 -15 33 -13 33 -14 27 -58 -3 -25 -10 -50 -15 -56 -5 -6 -11 -24 -14 -41 -11 -59 -59 -205 -68 -205 -3 0 -16 19 -29 42 -28 49 -227 258 -246 258 -8 0 -14 6 -14 13 0 14 -91 77 -112 77 -7 0 -26 7 -43 16 -16 9 -48 16 -70 16 -42 1 -145 -40 -180 -72 -42 -38 -137 -80 -180 -80 -25 0 -48 -6 -55 -15 -14 -17 -6 -62 15 -85 7 -8 25 -38 39 -67 15 -29 47 -72 72 -97 44 -44 48 -46 107 -48 34 0 69 -1 77 0 8 1 38 2 65 3 28 0 83 12 124 25 120 39 208 48 289 29 13 -3 40 -23 61 -44 21 -21 43 -40 49 -42 21 -7 -27 -201 -64 -257 l-15 -23 -23 33 c-49 72 -167 178 -197 178 -7 0 -20 6 -28 14 -9 7 -41 21 -71 31 -30 10 -61 22 -68 28 -14 11 -254 3 -274 -10 -7 -4 -22 -9 -33 -10 -35 -6 -119 -51 -152 -82 -32 -30 -90 -133 -114 -204 -10 -28 -17 -36 -29 -31 -8 4 -33 13 -55 21 -51 18 -61 28 -46 46 6 8 25 51 41 95 25 69 28 85 18 118 -15 57 -35 92 -63 110 -72 47 -257 -69 -335 -211 -18 -33 -40 -68 -48 -77 -8 -10 -12 -24 -9 -33 7 -18 -32 -22 -50 -4 -32 32 -155 87 -213 95 -28 4 -50 10 -50 14 0 15 104 66 180 90 41 12 86 30 100 40 14 10 49 28 79 41 53 22 167 124 202 179 28 45 42 114 40 200 -1 77 -4 87 -29 113 -55 58 -165 88 -246 66 -53 -14 -93 -49 -135 -118 -18 -31 -44 -69 -57 -84 -13 -15 -32 -48 -43 -72 -25 -56 -67 -119 -74 -108 -2 4 -8 24 -12 43 -4 19 -23 67 -41 107 -19 39 -34 74 -34 77 0 20 -67 106 -141 183 -117 120 -182 173 -213 173 -26 0 -33 -17 -35 -90 -1 -19 -7 -62 -14 -96 -15 -71 -14 -159 2 -232 6 -29 16 -76 22 -104 6 -29 17 -64 24 -78 16 -31 65 -163 65 -173 0 -5 -7 -1 -16 7 -44 45 -204 106 -274 106 -10 0 -20 3 -22 8 -5 12 -81 53 -163 88 -16 7 -49 21 -73 32 -58 27 -91 18 -116 -32 -37 -74 -18 -182 43 -251 16 -19 32 -43 36 -54 6 -20 28 -35 145 -98 30 -17 73 -41 95 -54 39 -23 46 -24 213 -21 165 2 173 2 203 -20 42 -32 37 -58 -37 -196 l-12 -24 -14 29 c-10 22 -29 34 -93 56 -131 47 -171 56 -278 62 -129 7 -125 5 -266 71 -73 34 -92 39 -156 39 -92 0 -108 -12 -103 -75 l3 -46 -61 4 c-43 3 -70 -1 -93 -12 -32 -17 -57 -59 -45 -77 3 -5 7 -76 9 -157 3 -119 7 -156 23 -192 25 -58 123 -159 187 -196 66 -37 126 -85 122 -98 -2 -5 -23 -9 -48 -8 -66 2 -152 9 -169 14 -8 3 -32 11 -52 17 -21 7 -43 9 -48 6 -6 -4 -16 -2 -23 3 -28 21 -75 21 -118 -1 l-44 -22 1 -90 c0 -75 4 -98 24 -135 28 -54 165 -197 196 -204 16 -4 25 -20 38 -64 23 -83 102 -147 229 -187 52 -16 147 -17 219 -3 7 2 11 -4 9 -12 -8 -33 -21 -221 -22 -333 -1 -65 -7 -141 -15 -169 -9 -37 -10 -57 -2 -71 8 -17 6 -23 -13 -38 -13 -10 -32 -19 -41 -19 -9 0 -30 -12 -45 -26 -15 -14 -40 -32 -55 -40 -15 -8 -40 -26 -55 -40 -25 -24 -154 -90 -305 -157 -55 -24 -92 -50 -182 -124 -22 -18 -43 -33 -48 -33 -8 0 -92 -60 -188 -136 -47 -37 -77 -89 -58 -100 5 -4 22 3 36 15 15 12 35 24 44 28 10 3 18 9 18 14 0 5 7 9 15 9 8 0 15 4 15 8 0 5 15 16 33 26 32 17 114 71 152 100 50 39 190 139 190 137 0 -7 62 13 83 26 50 31 41 5 -12 -36 -31 -24 -56 -46 -56 -50 0 -3 -32 -31 -70 -61 -39 -30 -89 -70 -113 -89 -23 -18 -62 -59 -87 -89 -36 -45 -62 -64 -133 -99 -48 -24 -87 -50 -87 -57 0 -8 -7 -16 -15 -20 -17 -6 -9 -36 10 -36 7 0 18 6 24 14 6 7 36 21 66 31 30 9 55 20 55 25 0 12 39 20 46 9 9 -15 22 -10 36 15 23 41 77 109 101 125 12 8 28 23 35 33 7 10 19 18 27 18 7 0 49 33 92 73 86 79 127 111 160 121 12 4 38 26 58 49 105 121 135 136 179 93 23 -24 32 -26 118 -27 61 0 86 -3 73 -9 -11 -5 -38 -9 -60 -9 -57 -2 -137 -47 -185 -106 -22 -27 -40 -57 -40 -66 0 -26 29 -101 46 -120 14 -15 13 -18 -3 -30 -71 -52 -85 -156 -33 -241 36 -57 36 -58 9 -58 -52 0 -127 -75 -192 -194 -31 -57 -33 -84 -10 -134 19 -39 146 -168 176 -178 26 -8 21 -27 -11 -41 -25 -11 -141 -146 -151 -176 -2 -7 -14 -25 -26 -42 -64 -86 -68 -173 -13 -282 39 -77 62 -91 109 -68 36 19 111 82 118 99 5 13 4 12 106 102 116 102 199 164 207 156 4 -4 1 -25 -7 -47 -8 -22 -14 -64 -15 -93 0 -48 3 -57 33 -83 95 -88 105 -101 111 -142 4 -23 7 -50 7 -59 0 -10 4 -20 10 -23 12 -8 12 -157 0 -187 -5 -13 -14 -43 -21 -67 -9 -33 -27 -58 -73 -102 -34 -32 -66 -59 -70 -59 -4 0 -32 16 -62 35 -49 31 -56 40 -71 92 -29 98 3 283 68 390 18 30 32 60 30 65 -2 6 4 8 12 5 9 -4 18 -2 21 2 2 5 -7 12 -22 16 -22 5 -31 2 -46 -17 -10 -13 -27 -33 -37 -45 -33 -38 -76 -145 -90 -220 -14 -75 -9 -198 9 -246 14 -37 77 -94 135 -124 61 -31 70 -28 170 67 95 90 118 144 120 270 1 86 -6 169 -16 186 -3 5 -9 27 -12 50 -8 44 -32 75 -89 114 -49 33 -54 71 -27 187 12 50 27 99 35 109 13 18 14 18 21 -1 3 -11 17 -42 29 -70 42 -92 53 -122 60 -166 10 -64 38 -103 150 -211 90 -88 104 -97 138 -98 81 0 159 131 142 239 -4 25 -8 54 -9 63 -1 9 -21 44 -45 77 -48 69 -44 77 36 68 44 -5 49 -3 95 41 68 63 82 97 74 174 -9 76 -47 172 -87 221 -17 20 -54 49 -82 63 -29 14 -68 34 -87 45 -26 14 -48 18 -87 14 -53 -5 -168 -40 -191 -58 -7 -5 -15 -8 -17 -5 -6 6 17 67 44 118 11 19 24 61 31 93 13 64 17 65 40 5 21 -58 68 -80 168 -81 73 0 122 14 250 70 9 4 12 -12 12 -61 0 -54 4 -69 20 -83 11 -10 20 -25 20 -35 0 -29 23 -108 32 -108 4 0 16 -17 27 -38 28 -55 61 -72 175 -94 56 -10 121 -23 146 -28 187 -41 283 -35 368 21 52 35 56 36 41 7 -15 -27 -15 -123 0 -160 5 -15 19 -36 30 -47 17 -17 25 -19 47 -11 15 6 29 9 31 6 2 -2 5 -46 7 -97 4 -128 29 -182 94 -211 33 -14 61 -18 94 -15 l46 4 7 -93 c6 -78 11 -98 31 -119 30 -33 45 -32 103 10 49 35 79 46 65 23 -5 -7 -9 -19 -10 -28 -2 -8 -7 -35 -13 -61 -5 -25 -7 -63 -4 -85 8 -61 9 -424 1 -469 -7 -41 10 -85 34 -85 6 0 34 17 62 39 28 21 71 49 96 62 25 13 74 52 110 86 36 35 83 72 105 84 22 12 60 37 84 57 l43 35 -5 -29 c-16 -81 -19 -146 -7 -177 16 -40 55 -82 100 -109 19 -11 44 -31 55 -43 52 -58 254 -98 263 -52 2 9 6 17 10 17 9 0 71 -70 104 -117 28 -41 79 -78 91 -67 3 3 38 6 78 5 l72 -1 68 61 c37 33 71 69 74 80 8 24 20 24 53 0 29 -20 121 -72 186 -104 32 -15 51 -18 105 -13 36 4 78 12 93 18 24 9 28 16 26 48 -1 30 -8 43 -29 59 -16 12 -32 21 -36 21 -4 0 -23 18 -42 40 -19 22 -39 40 -45 40 -23 0 -106 91 -131 143 -14 29 -16 45 -8 70 8 28 13 32 38 29 16 -2 54 -18 85 -36 88 -52 143 -61 275 -46 80 8 122 9 149 1 29 -8 41 -7 51 3 18 18 7 62 -24 95 -54 57 -78 88 -136 174 -33 49 -79 105 -103 125 -24 20 -58 49 -76 63 -17 15 -40 28 -50 30 -26 5 -23 19 6 35 95 51 197 84 266 84 44 0 62 16 46 42 -5 7 -7 21 -6 31 2 9 -2 17 -8 17 -6 0 -30 20 -53 44 -44 45 -135 96 -172 96 -12 0 -47 9 -78 19 -30 11 -68 18 -84 16 -15 -1 -32 0 -37 3 -18 10 -110 1 -161 -16 -30 -10 -66 -34 -91 -59 -50 -50 -47 -54 -64 103 -6 54 -15 117 -20 139 -5 22 -10 58 -10 80 l0 40 43 -47 c29 -32 69 -59 122 -85 69 -32 89 -37 158 -38 103 -2 244 18 287 40 78 40 170 108 190 140 19 30 19 37 8 75 -9 30 -24 49 -48 65 -19 13 -59 44 -88 69 -29 25 -66 53 -83 63 -29 18 -38 33 -18 33 6 0 25 10 42 22 17 12 51 27 76 33 35 9 49 19 63 46 18 34 23 85 12 127 -8 27 -52 52 -93 52 -32 0 -120 47 -195 104 -24 19 -57 42 -73 51 -15 8 -44 25 -63 37 -31 18 -49 20 -155 19 -66 -1 -155 -7 -197 -13 -43 -6 -80 -10 -82 -7 -2 2 -6 20 -9 39 -3 19 -10 48 -16 63 -21 54 -6 82 17 32 25 -54 164 -93 235 -66 13 5 78 19 143 31 145 25 253 56 277 80 10 9 22 34 27 56 8 35 6 41 -20 64 -15 14 -36 40 -46 57 -18 32 -18 33 4 53 20 19 22 32 23 118 2 162 1 174 -27 251 -53 150 -104 220 -198 270 -70 37 -132 41 -215 12 -31 -10 -76 -22 -101 -26 -25 -3 -64 -15 -87 -26 -24 -10 -63 -28 -87 -39 -24 -11 -47 -20 -51 -20 -5 0 -16 -6 -24 -14 -9 -7 -29 -16 -46 -19 l-30 -5 -18 86 c-25 115 -39 240 -32 278 l6 32 121 1 c67 1 125 4 129 7 4 2 41 9 81 14 60 7 93 20 188 70 63 33 154 80 202 103 89 43 123 76 100 99 -8 8 -24 6 -63 -10 -28 -12 -59 -22 -68 -22 -9 0 -45 -18 -81 -40 -36 -21 -94 -53 -130 -71 -36 -17 -73 -38 -82 -47 -10 -8 -37 -16 -60 -17 -24 -1 -74 -8 -111 -15 -62 -11 -89 -9 -75 6 4 3 40 14 81 24 49 12 93 31 125 55 27 19 56 35 63 35 8 0 30 11 49 24 35 24 152 74 224 97 45 13 148 16 189 4 25 -7 27 -5 27 19 0 44 -31 51 -161 36 -80 -9 -131 -20 -180 -41 -37 -16 -74 -29 -82 -29 -8 0 -22 -9 -32 -20 -10 -11 -27 -22 -39 -26 -11 -3 -46 -21 -77 -40 -56 -34 -176 -79 -302 -114 -54 -15 -88 -18 -160 -14 -51 3 -110 6 -132 7 -82 5 -115 43 -115 133 0 37 10 43 30 19 19 -22 49 -18 107 15 65 37 105 105 114 195 6 53 3 66 -22 116 -35 71 -133 160 -204 187 -29 11 -94 54 -146 96 -52 42 -101 75 -109 75 -36 -3 -42 1 -36 24 4 12 13 54 21 92 22 102 24 105 42 70 8 -16 30 -52 48 -80 18 -27 35 -60 39 -72 4 -12 18 -31 31 -41 13 -11 30 -31 36 -46 7 -15 27 -35 44 -46 47 -29 153 -67 223 -80 34 -6 90 -24 125 -40 34 -17 67 -30 73 -30 6 0 16 17 22 38 33 110 32 240 -1 313 -12 27 -28 49 -34 49 -7 0 -13 5 -13 10 0 13 -62 69 -77 70 -6 0 -18 6 -25 13 -17 18 -141 77 -159 77 -8 0 -19 4 -24 9 -9 8 -127 41 -222 63 -53 12 -54 22 -14 133 49 140 69 199 81 248 15 55 26 60 35 15 8 -39 43 -145 58 -173 22 -42 114 -138 167 -174 77 -51 104 -62 184 -68 56 -5 82 -13 126 -40 30 -18 60 -33 65 -33 6 0 44 -25 85 -56 85 -63 127 -87 139 -80 12 8 21 59 12 71 -9 12 -35 113 -56 220 -9 44 -21 83 -28 87 -7 4 -12 11 -12 15 -2 27 -129 201 -154 210 -9 4 -27 14 -41 23 -14 9 -45 22 -70 29 -25 7 -58 19 -75 26 -49 22 -117 38 -175 40 -61 2 -92 9 -162 33 -43 14 -47 18 -41 41 3 14 10 34 14 43 5 9 9 26 9 36 0 32 40 152 50 152 6 0 10 -9 10 -20 0 -34 23 -70 59 -93 31 -19 49 -22 126 -20 87 1 92 3 205 58 140 68 135 66 240 98 47 15 99 26 115 25 33 -1 143 10 161 17 6 2 14 18 16 35 4 24 -1 38 -23 61 -15 16 -36 29 -47 29 -12 0 -47 11 -79 24 -32 13 -81 31 -110 40 -55 17 -123 53 -123 65 0 4 21 14 47 22 37 11 48 20 54 42 9 34 -11 57 -52 57 -41 0 -95 24 -108 49 -7 12 -34 27 -66 37 -61 20 -69 31 -27 39 15 3 55 19 89 36 55 26 64 35 79 76 20 53 13 97 -31 174 -29 53 -113 142 -153 163 -37 19 -132 149 -132 180 0 8 -7 19 -15 26 -8 7 -15 19 -15 27 0 21 -50 63 -76 63 -16 0 -28 -9 -37 -27z m117 -167 c64 -122 96 -166 123 -166 48 0 169 -175 161 -232 -4 -31 -75 -76 -153 -97 -36 -10 -67 -16 -69 -12 -2 3 -2 24 -1 46 4 63 -20 173 -55 255 -18 41 -35 80 -39 85 -23 33 -55 179 -46 212 8 35 20 22 79 -91z m-62 -209 c37 -88 51 -136 55 -187 3 -39 2 -70 -3 -70 -20 0 -92 78 -111 120 -30 65 -36 119 -23 191 16 84 21 99 28 79 2 -8 27 -68 54 -133z m-493 32 c44 -38 81 -73 81 -77 1 -18 141 -153 193 -186 94 -60 127 -98 126 -143 0 -21 -3 -46 -7 -55 -9 -21 -26 -9 -73 52 -19 25 -52 64 -74 87 -73 77 -120 128 -150 168 -69 90 -81 100 -105 89 l-21 -9 23 -30 c12 -16 30 -41 38 -56 8 -15 67 -82 130 -149 63 -67 120 -132 127 -144 7 -13 24 -31 37 -40 14 -9 33 -27 42 -40 14 -22 14 -27 -1 -56 -9 -17 -19 -30 -23 -28 -41 18 -158 108 -188 144 -100 118 -164 206 -164 224 0 6 -15 44 -34 83 -41 84 -71 237 -47 237 4 0 45 -32 90 -71z m-294 -325 c54 -5 126 -36 179 -76 40 -31 186 -177 186 -186 0 -2 -42 -1 -92 2 -100 6 -213 37 -286 79 -40 22 -142 135 -142 156 0 22 45 42 79 36 19 -4 54 -8 76 -11z m-145 -120 c0 -21 109 -124 139 -130 14 -3 64 -18 111 -34 99 -33 86 -31 220 -35 84 -2 116 -7 155 -25 61 -28 95 -57 95 -82 0 -18 -6 -19 -97 -12 -124 8 -314 46 -390 77 -32 13 -79 31 -104 41 -64 23 -113 71 -144 138 -28 61 -27 111 1 87 8 -6 14 -18 14 -25z m1080 -3 c64 -18 65 -18 31 -26 -32 -7 -97 -61 -117 -97 -5 -9 -35 -46 -68 -83 -41 -46 -62 -63 -69 -56 -7 7 -7 17 1 33 6 13 23 53 36 91 28 74 69 135 100 147 12 5 21 9 21 9 0 0 29 -8 65 -18z m201 -78 l34 -18 -45 -5 c-25 -3 -54 -11 -65 -17 -28 -15 -127 -23 -122 -10 10 31 70 56 153 66 6 0 26 -7 45 -16z m-2810 -205 c54 -57 103 -116 109 -133 6 -16 23 -54 36 -84 51 -109 57 -139 51 -247 -2 -56 -10 -112 -17 -125 -20 -36 -80 -88 -95 -83 -25 10 -45 53 -45 97 0 24 -6 66 -14 93 -7 27 -21 85 -30 129 -9 44 -24 100 -32 125 -9 25 -24 81 -34 125 -16 73 -33 143 -46 188 -11 38 23 13 117 -85z m2855 32 c54 -28 55 -29 27 -35 -15 -3 -41 -10 -57 -15 -16 -5 -32 -7 -37 -5 -4 3 -48 -9 -99 -25 -72 -25 -100 -30 -135 -24 -43 6 -75 27 -58 37 34 21 164 86 179 90 58 15 126 6 180 -23z m-2985 -185 c6 -22 17 -56 25 -75 7 -19 27 -93 43 -165 16 -71 33 -138 36 -147 4 -10 3 -18 -3 -18 -23 0 -123 274 -141 390 -21 130 -7 225 16 113 7 -32 18 -76 24 -98z m3178 114 c23 -7 46 -18 52 -25 12 -14 3 -17 -81 -29 -24 -3 -49 -9 -55 -14 -5 -4 -35 -13 -65 -20 -30 -7 -68 -19 -85 -27 -16 -7 -46 -20 -65 -28 -19 -9 -42 -20 -50 -25 -73 -47 -201 -79 -266 -67 -68 13 -101 116 -47 152 32 20 25 21 132 -4 92 -21 97 -21 236 28 77 27 118 35 208 39 10 1 17 9 17 22 0 14 5 19 14 16 8 -3 32 -11 55 -18z m-2329 -15 c71 -25 73 -28 67 -115 -9 -119 -25 -152 -108 -228 -87 -80 -117 -101 -145 -101 -12 0 -38 -11 -58 -25 -20 -14 -43 -25 -50 -25 -8 0 -47 -11 -88 -25 -40 -14 -74 -25 -75 -25 -9 0 -1 56 11 78 8 15 24 54 36 86 11 33 30 71 40 86 11 15 29 47 40 71 11 24 42 78 68 119 37 58 58 80 93 97 52 26 107 29 169 7z m988 -92 c72 -30 209 -137 245 -192 l16 -25 -87 2 c-58 2 -105 10 -142 23 -123 47 -145 52 -188 47 -51 -6 -92 -39 -92 -75 l0 -24 31 26 c27 23 36 25 92 20 35 -3 85 -16 117 -30 l55 -26 -60 -20 c-43 -14 -90 -20 -167 -21 -106 -2 -107 -2 -139 28 -17 17 -41 50 -51 74 l-20 44 23 19 c13 10 35 21 49 24 14 4 34 15 45 24 11 10 34 25 50 34 17 10 48 28 70 41 47 29 93 31 153 7z m-2310 -252 c34 -16 63 -30 67 -30 3 0 23 -11 45 -25 22 -14 88 -36 150 -51 l110 -26 85 -83 c54 -52 85 -90 85 -104 0 -24 1 -24 -75 -10 -36 7 -81 25 -120 50 -34 21 -84 48 -111 59 -27 12 -58 25 -69 30 -11 5 -42 16 -69 25 -96 31 -126 63 -161 174 -8 27 -9 27 63 -9z m-113 -32 c6 -34 18 -66 40 -108 13 -23 63 -49 190 -97 22 -9 49 -19 60 -23 60 -23 80 -33 111 -57 44 -33 31 -43 -41 -31 -91 14 -325 152 -325 191 0 5 -8 16 -19 25 -21 19 -41 72 -41 108 0 35 17 29 25 -8z m1642 -129 c19 -10 23 -21 23 -65 0 -29 -3 -54 -7 -56 -5 -1 -26 -38 -48 -80 l-40 -77 -66 -21 c-37 -11 -74 -29 -84 -40 -26 -29 -36 -25 -79 26 l-38 45 29 42 c58 86 93 128 140 168 26 23 51 47 55 53 9 16 89 19 115 5z m1515 -24 c54 -4 192 -52 285 -97 54 -27 133 -124 168 -207 23 -56 60 -209 52 -217 -1 -2 -14 3 -27 11 -14 8 -63 33 -109 55 -46 23 -82 43 -80 45 11 10 149 -41 149 -55 0 -4 9 -10 21 -13 15 -4 19 -2 15 10 -3 8 -6 21 -6 29 0 22 -49 64 -74 64 -12 0 -26 4 -32 9 -5 5 -27 14 -49 21 -130 38 -145 48 -285 190 -177 178 -170 169 -123 164 21 -2 64 -6 95 -9z m-814 -30 c89 -15 190 -56 218 -86 25 -27 10 -34 -30 -15 -71 33 -120 46 -180 46 -84 0 -285 -26 -321 -41 -45 -19 -95 -70 -95 -96 0 -30 6 -29 70 13 43 28 72 38 140 49 178 28 223 29 302 5 92 -27 122 -39 115 -47 -3 -3 -66 -5 -139 -4 -132 2 -226 -9 -303 -34 -54 -18 -232 -29 -240 -15 -4 6 11 42 32 81 33 60 48 76 92 100 54 30 75 36 181 49 36 4 67 8 70 9 3 0 42 -6 88 -14z m773 -137 c21 -21 41 -43 46 -50 18 -29 150 -141 176 -150 48 -17 16 -27 -46 -14 -67 14 -145 71 -223 161 -39 46 -84 137 -84 169 0 9 38 -25 131 -116z m-2357 -31 c-9 -24 -21 -21 -29 6 -19 64 -19 64 9 36 18 -16 25 -31 20 -42z m316 -6 c19 -11 76 -40 125 -66 128 -66 148 -88 34 -37 -35 16 -86 35 -114 41 -27 7 -88 25 -135 39 l-85 27 50 6 c84 10 89 10 125 -10z m1585 -21 c3 -5 1 -10 -4 -10 -6 0 -11 5 -11 10 0 6 2 10 4 10 3 0 8 -4 11 -10z m-2754 -61 c24 -11 64 -31 89 -45 25 -13 50 -24 56 -24 7 0 23 -6 38 -14 16 -8 65 -14 128 -15 117 -2 132 -4 213 -35 33 -13 74 -27 90 -32 22 -7 31 -16 33 -36 3 -22 -2 -27 -30 -34 -50 -11 -177 -5 -229 12 -50 16 -127 31 -199 39 -121 14 -160 27 -204 70 -24 23 -58 52 -75 64 -37 26 -41 58 -8 64 43 8 55 7 98 -14z m2754 -5 c66 -34 69 -52 31 -176 -17 -59 -35 -110 -38 -114 -4 -3 -24 8 -45 25 -21 17 -41 31 -45 31 -5 0 -26 11 -47 24 -21 14 -76 38 -122 54 -46 16 -109 39 -139 49 -30 11 -91 27 -134 35 l-79 16 -74 -39 -74 -39 -11 28 c-7 15 -18 34 -25 43 -12 15 -10 17 24 24 21 4 79 7 128 6 73 -1 97 2 127 19 21 11 53 20 70 21 18 0 42 4 53 9 11 5 97 8 190 7 151 -2 175 -4 210 -23z m-1755 -29 c27 -2 157 -42 177 -53 7 -4 43 -28 82 -54 68 -47 91 -57 91 -39 0 13 -80 96 -105 109 -20 11 -20 11 2 12 19 0 86 -26 123 -49 8 -5 36 -17 62 -26 36 -12 49 -23 57 -47 17 -48 14 -56 -30 -79 -35 -17 -51 -20 -102 -14 -33 4 -74 11 -91 16 -17 5 -72 14 -122 18 -64 7 -106 17 -140 34 -60 31 -134 100 -134 126 0 22 66 61 90 53 8 -2 26 -6 40 -7z m815 -29 c28 -11 60 -28 72 -36 32 -23 66 -95 57 -122 -9 -30 -131 -148 -175 -170 -35 -18 -279 -88 -279 -81 0 2 21 40 46 84 48 83 70 101 137 113 42 8 44 12 20 38 -19 22 -52 23 -98 4 -37 -16 -52 -7 -36 21 5 10 7 30 4 45 -4 20 0 28 16 33 12 3 47 28 79 55 63 54 67 54 157 16z m-1968 -76 c43 -22 91 -53 108 -69 56 -53 115 -89 167 -101 76 -19 162 -55 201 -84 19 -14 37 -26 42 -26 4 0 31 -21 59 -47 48 -46 50 -50 51 -103 1 -30 4 -64 8 -76 4 -11 1 -28 -6 -38 -13 -17 -17 -18 -68 -3 -64 19 -203 120 -294 214 -66 69 -78 75 -179 98 -38 9 -84 24 -101 35 -43 27 -90 95 -109 160 -15 51 -15 56 1 67 25 19 35 17 120 -27z m2428 -25 c44 -9 97 -25 118 -35 22 -11 64 -26 94 -35 126 -37 274 -169 223 -200 -5 -3 -27 5 -48 19 -22 13 -57 29 -78 35 -21 6 -52 19 -69 29 -49 30 -96 43 -170 48 -38 3 -84 11 -101 19 -78 36 -174 49 -174 24 0 -5 -7 -9 -16 -9 -10 0 -14 -7 -12 -22 2 -18 9 -22 28 -20 57 6 124 -8 179 -38 10 -5 43 -10 75 -11 31 -1 59 -6 62 -11 3 -4 -5 -7 -18 -7 -13 1 -57 -4 -98 -11 -82 -14 -235 -6 -258 12 -16 13 -7 108 13 148 20 38 60 71 97 80 37 10 42 9 153 -15z m-1401 -29 c68 -58 142 -94 207 -101 129 -14 215 -28 227 -38 8 -6 12 -46 12 -131 l0 -121 -19 35 c-14 26 -38 45 -100 78 -45 23 -94 43 -109 43 -15 1 -63 8 -107 15 -44 8 -105 14 -135 14 -100 1 -150 14 -150 40 0 10 7 23 16 31 18 15 43 60 47 87 3 19 47 92 56 92 2 0 27 -20 55 -44z m2072 -21 c27 -8 57 -15 66 -15 9 0 29 -5 45 -12 15 -6 30 -12 33 -12 61 -12 280 -130 280 -151 0 -3 7 -13 15 -21 32 -33 53 -143 39 -213 -6 -28 -10 -31 -44 -31 -33 0 -45 7 -91 57 -30 31 -98 100 -151 153 -54 53 -98 102 -98 108 0 13 -37 69 -65 99 -15 16 -25 19 -42 12 -13 -5 -23 -13 -23 -18 0 -9 6 -16 42 -47 7 -6 30 -38 50 -70 21 -33 44 -68 50 -78 7 -11 29 -33 48 -50 46 -40 140 -140 136 -144 -2 -2 -40 9 -85 24 -68 22 -84 32 -102 60 -11 19 -24 34 -28 34 -4 0 -34 48 -68 108 -48 84 -62 119 -67 165 -3 31 -2 57 2 57 5 0 31 -7 58 -15z m-2581 -66 c65 -17 96 -19 166 -14 107 9 116 1 93 -71 -22 -68 -73 -174 -83 -174 -5 0 -12 16 -16 37 -7 40 -80 114 -141 144 -18 9 -46 26 -62 38 -17 11 -35 21 -41 21 -6 0 -19 4 -29 9 -9 5 -35 17 -57 26 l-40 16 65 -6 c36 -4 101 -15 145 -26z m-656 -86 c17 -27 42 -64 55 -83 43 -63 120 -134 191 -175 76 -44 243 -96 323 -100 47 -3 152 -40 152 -55 0 -4 -9 -15 -20 -25 -11 -10 -20 -22 -20 -28 0 -5 -9 -25 -21 -44 -19 -30 -22 -32 -33 -17 -9 11 -19 14 -34 10 -23 -8 -31 -36 -9 -36 25 0 39 -17 32 -39 -9 -30 -19 -26 -48 18 -14 21 -40 45 -56 52 -17 8 -33 19 -36 26 -6 17 10 16 24 -1 14 -17 51 -28 51 -15 0 5 7 9 15 9 28 0 3 28 -48 53 -92 45 -149 67 -174 67 -27 0 -64 23 -132 82 -25 22 -60 46 -79 55 -49 23 -116 90 -143 142 -20 39 -40 151 -26 151 3 0 19 -21 36 -47z m1755 -25 c-19 -35 -44 -74 -55 -88 l-19 -25 2 80 3 79 39 3 c21 1 41 4 44 8 3 3 9 5 13 5 4 0 -8 -28 -27 -62z m461 12 c-12 -20 17 -49 63 -64 l47 -14 -90 0 c-49 0 -103 -3 -120 -6 -27 -6 -28 -5 -11 6 11 7 38 30 60 50 39 36 64 50 51 28z m-1946 -57 c20 -9 72 -50 116 -92 44 -42 92 -83 108 -91 15 -7 27 -17 27 -22 0 -11 -43 -10 -72 1 -13 5 -41 14 -63 21 -83 26 -123 51 -198 123 -42 40 -77 76 -77 78 0 11 126 -4 159 -18z m2607 -28 c71 -30 73 -38 8 -51 -33 -6 -92 -19 -132 -28 -40 -9 -95 -16 -122 -16 -27 0 -52 -5 -55 -10 -5 -8 -11 -8 -20 0 -9 8 -17 7 -28 -5 -9 -8 -21 -13 -29 -10 -19 8 -115 -80 -134 -123 -8 -20 -21 -46 -27 -57 -37 -67 -57 -112 -57 -128 0 -31 -23 -13 -38 29 l-15 40 36 35 c20 19 44 41 55 50 29 24 64 124 70 195 4 61 4 61 -27 72 -17 6 -31 13 -31 15 0 2 62 4 138 4 75 1 162 5 192 10 65 10 163 0 216 -22z m-1641 -1 c39 -3 77 -10 85 -14 8 -4 33 -9 55 -11 22 -2 51 -11 64 -21 13 -10 28 -18 33 -18 27 0 70 -48 83 -94 8 -27 15 -51 15 -53 0 -2 -14 4 -31 12 -20 11 -52 16 -97 14 -68 -2 -132 19 -232 75 -98 55 -123 66 -150 66 -16 0 -41 5 -56 10 -26 10 -26 11 -9 30 19 21 43 22 240 4z m805 -18 c0 -2 -11 -6 -25 -8 -13 -3 -22 -1 -19 3 5 9 44 13 44 5z m-75 -23 c-10 -3 -29 -12 -41 -19 -28 -19 -76 -33 -141 -43 -64 -9 -69 1 -10 18 23 7 56 17 72 23 52 17 89 26 115 26 20 0 21 -1 5 -5z m347 -29 c14 -9 8 -68 -11 -109 -40 -87 -190 -195 -272 -195 -61 0 -165 64 -256 159 -30 31 -17 48 45 57 26 4 59 13 73 20 15 7 29 11 32 8 3 -3 23 3 44 14 39 21 118 48 163 55 29 5 171 -2 182 -9z m-1396 -38 c-4 -15 0 -28 9 -36 8 -7 15 -18 15 -25 0 -39 167 -137 253 -148 26 -4 82 -18 124 -32 45 -15 112 -29 161 -32 68 -5 82 -9 77 -21 -6 -17 21 -52 40 -52 15 0 25 63 14 83 -4 7 1 24 11 37 15 19 20 22 24 10 2 -8 14 -44 25 -79 28 -86 27 -95 -4 -87 -33 8 -132 -21 -171 -50 -38 -30 -40 -30 -48 0 -12 48 -59 105 -103 126 -23 11 -43 23 -43 28 0 7 -52 33 -80 40 -39 8 -248 17 -270 11 -48 -13 -170 -32 -175 -27 -3 3 10 24 30 48 19 23 35 47 36 53 2 30 10 52 38 112 32 66 48 84 37 41z m238 -35 c190 -92 197 -94 277 -100 42 -4 83 -12 92 -19 13 -11 18 -10 30 8 19 27 33 9 17 -21 -14 -26 -68 -49 -114 -49 -20 0 -72 14 -118 30 -45 17 -112 37 -148 46 -82 21 -106 33 -158 82 -47 44 -56 82 -20 82 12 0 76 -26 142 -59z m1858 13 c65 -21 116 -80 155 -179 51 -129 63 -189 89 -445 9 -93 16 -422 10 -473 -10 -79 -24 -90 -105 -84 -125 10 -162 21 -231 67 -14 9 -63 42 -110 73 -145 97 -374 336 -433 454 -76 148 -69 241 26 391 31 48 45 56 22 12 -23 -44 -47 -159 -40 -190 3 -15 8 -51 10 -81 2 -33 15 -73 32 -105 32 -60 250 -295 303 -327 19 -11 48 -31 63 -44 39 -32 83 -31 89 2 7 35 -19 72 -99 143 -38 34 -76 74 -84 89 -7 16 -28 53 -45 83 -52 89 -74 171 -74 270 0 107 20 178 64 226 l34 37 68 -6 c138 -11 229 -73 289 -198 38 -77 65 -101 65 -57 0 12 -8 40 -18 62 -10 23 -26 59 -36 80 -33 76 -125 146 -236 182 -22 6 -18 9 30 19 76 16 108 16 162 -1z m-1254 -158 c10 -6 31 -22 47 -38 25 -23 27 -28 12 -28 -11 0 -32 -9 -48 -21 -28 -19 -29 -20 -36 -2 -3 10 -17 45 -29 77 -35 86 -32 109 7 60 17 -22 38 -43 47 -48z m1565 -10 c26 -14 59 -33 72 -42 34 -22 111 -134 113 -163 2 -40 -56 -150 -88 -166 -57 -29 -110 -13 -110 35 0 15 -5 52 -11 82 -6 29 -15 78 -21 108 -6 30 -21 78 -33 105 -12 28 -25 63 -29 79 l-7 28 33 -20 c18 -11 55 -31 81 -46z m-3325 -57 c43 -15 91 -21 197 -24 77 -2 149 -7 160 -11 29 -11 105 -66 105 -76 0 -5 -4 -7 -8 -4 -5 3 -23 -4 -40 -15 -18 -10 -45 -19 -61 -19 -16 0 -46 -6 -67 -14 -32 -10 -55 -11 -124 -1 -88 11 -109 22 -220 105 -19 15 -57 32 -85 39 -61 15 -65 19 -40 37 24 18 103 11 183 -17z m1193 -52 c90 -27 213 -127 194 -157 -3 -4 -35 -1 -72 7 -38 8 -97 13 -133 10 -46 -3 -78 1 -111 14 -114 44 -203 69 -244 69 -25 0 -45 3 -45 8 0 17 75 46 138 52 115 12 227 11 273 -3z m575 -24 c-7 -7 -26 7 -26 19 0 6 6 6 15 -2 9 -7 13 -15 11 -17z m441 -34 c13 -27 28 -44 39 -44 15 0 18 -10 19 -75 1 -73 0 -76 -38 -122 -46 -57 -70 -61 -145 -23 -28 14 -56 25 -63 25 -37 0 -169 105 -205 162 -13 21 -24 40 -24 43 0 8 52 -6 75 -21 11 -6 30 -15 43 -19 13 -4 50 -25 83 -47 47 -31 63 -37 74 -28 11 9 11 17 3 36 -6 13 -14 24 -17 24 -4 0 -30 16 -60 35 -29 19 -56 33 -60 30 -5 -2 -30 10 -57 27 -44 29 -47 33 -26 36 13 2 46 -6 72 -17 69 -30 148 -24 185 12 8 8 29 14 47 13 28 -2 36 -9 55 -47z m-2341 23 c22 -10 64 -34 94 -53 75 -49 113 -65 192 -83 76 -18 100 -15 268 32 87 25 142 21 88 -6 -44 -21 -121 -52 -130 -52 -5 0 -44 -14 -86 -31 -131 -53 -181 -61 -259 -43 -62 14 -72 20 -130 81 -64 68 -93 115 -93 152 0 26 7 26 56 3z m954 -197 c19 -12 80 -38 135 -59 104 -38 115 -42 178 -70 21 -9 77 -19 125 -22 76 -5 91 -3 119 15 33 21 73 85 73 118 1 37 164 112 216 99 l29 -8 -61 -56 c-92 -86 -148 -131 -161 -132 -15 0 -18 -26 -5 -34 15 -9 81 14 94 32 7 10 27 26 43 36 17 10 51 40 77 67 25 27 51 49 55 49 5 0 17 -17 26 -38 17 -38 16 -40 -9 -93 -25 -51 -148 -209 -163 -209 -3 0 -22 -15 -42 -34 -42 -41 -104 -75 -151 -83 -35 -5 -35 -5 -77 71 -28 52 -55 86 -84 107 -77 56 -193 96 -320 109 -92 9 -100 9 -148 -14 -49 -22 -62 -36 -93 -103 -15 -34 -39 -37 -50 -7 -3 8 -22 22 -41 30 -35 14 -44 28 -25 39 5 3 12 32 16 65 4 33 10 60 13 60 4 0 13 21 20 48 8 26 27 66 43 89 15 23 28 47 28 53 0 6 23 -14 52 -45 29 -32 68 -67 88 -80z m65 114 c11 -5 47 -17 80 -28 33 -11 79 -26 102 -35 23 -8 70 -15 105 -15 34 1 76 -4 93 -11 16 -6 47 -12 68 -12 l39 0 -6 -42 c-14 -91 -106 -99 -271 -22 -38 18 -106 47 -150 65 -73 29 -118 59 -153 103 -12 15 -9 16 30 11 24 -2 52 -9 63 -14z m-335 -110 c0 -18 -62 -203 -72 -216 -7 -9 -14 -7 -28 7 -10 10 -47 32 -83 49 -69 33 -110 77 -86 92 8 5 43 20 79 35 36 14 74 30 85 34 30 13 105 12 105 -1z m1347 -76 c17 -16 52 -34 79 -42 27 -8 64 -21 82 -30 l33 -17 -46 -32 c-27 -19 -45 -39 -45 -51 0 -11 -4 -22 -9 -25 -10 -7 -65 75 -76 114 -5 14 -19 42 -31 62 -36 57 -32 63 13 21z m-1646 -70 c11 -20 36 -37 85 -57 38 -16 78 -37 88 -47 19 -18 19 -18 -9 -29 -92 -35 -200 -19 -282 43 -45 33 -93 93 -93 115 0 4 32 8 71 9 38 2 78 7 87 12 18 11 24 6 53 -46z m2078 14 c11 -23 50 -75 87 -115 l67 -73 -19 -35 c-24 -45 -103 -112 -141 -120 -53 -11 -208 60 -201 93 2 8 23 26 48 39 34 19 60 24 112 24 71 0 77 4 54 35 -21 30 -155 27 -196 -4 -40 -29 -78 -43 -85 -31 -4 6 -17 10 -31 10 -13 0 -24 4 -24 10 0 5 6 7 14 4 8 -3 17 3 20 14 4 10 25 27 49 36 23 10 55 24 71 32 16 8 49 18 73 21 48 6 63 24 43 48 -10 13 -9 19 5 35 25 28 30 26 54 -23z m-418 -151 c5 -6 9 -15 9 -22 0 -8 -15 -8 -57 2 -76 18 -117 17 -154 -1 l-29 -16 17 28 c10 16 42 60 72 100 l54 72 39 -77 c22 -42 43 -81 49 -86z m-941 75 c72 -6 97 -14 155 -46 39 -20 76 -42 84 -49 49 -39 98 -175 80 -223 -19 -50 -155 -77 -249 -48 -85 25 -112 42 -219 131 -110 92 -119 103 -101 114 16 10 107 -12 145 -36 11 -6 37 -15 59 -19 21 -3 55 -15 75 -26 20 -10 43 -19 51 -19 8 0 32 -9 53 -20 20 -11 45 -20 54 -20 10 0 33 -9 51 -20 37 -23 62 -14 62 21 0 20 -65 59 -99 59 -11 0 -22 4 -25 9 -3 5 -23 12 -43 16 -21 4 -60 19 -88 35 -28 16 -72 31 -100 34 -27 3 -69 14 -92 26 -23 11 -47 20 -53 20 -16 0 -12 25 8 43 25 23 64 37 87 31 11 -3 58 -8 105 -13z m-349 -153 c47 -37 132 -105 158 -129 49 -44 116 -91 164 -116 64 -32 173 -48 236 -34 25 5 66 13 91 16 67 9 85 27 85 83 1 44 2 47 26 44 40 -5 110 26 174 75 93 72 90 70 80 53 -5 -8 -18 -28 -31 -45 -12 -16 -28 -46 -37 -65 -39 -91 -57 -140 -57 -153 0 -8 -13 -41 -30 -72 -16 -31 -30 -65 -30 -75 0 -10 -8 -21 -17 -25 -30 -13 -157 -24 -398 -35 -126 -6 -273 -17 -326 -25 -53 -8 -116 -15 -140 -15 -25 0 -55 -7 -67 -16 -26 -18 -24 -26 -22 111 3 127 23 374 35 423 4 18 12 22 41 22 22 0 47 -9 65 -22z m2884 18 c19 -5 20 -15 23 -148 3 -166 7 -262 17 -370 8 -77 8 -78 -16 -79 -13 -1 -28 0 -34 1 -15 3 -113 1 -175 -3 -102 -8 -222 -96 -269 -197 -22 -49 -39 -59 -92 -60 -52 0 -99 -18 -177 -69 -45 -29 -64 -34 -141 -40 -63 -6 -98 -14 -117 -27 -15 -10 -34 -24 -43 -29 -37 -23 -73 -65 -68 -79 12 -32 -14 -25 -45 10 -18 21 -40 45 -49 53 -9 9 -24 30 -32 46 -9 17 -32 47 -52 69 -20 21 -35 40 -33 41 2 2 28 -1 58 -6 35 -6 89 -5 148 2 154 18 223 50 332 154 41 39 106 95 143 124 64 50 68 56 65 89 l-3 36 -125 1 c-72 1 -152 8 -190 17 -64 14 -65 15 -30 23 19 4 77 28 130 52 100 48 165 57 213 31 30 -16 210 -48 273 -48 40 0 55 5 72 23 30 31 52 151 52 277 l0 99 33 3 c74 7 113 8 132 4z m-1650 -17 c25 -6 50 -18 57 -26 15 -18 -5 -34 -132 -106 -101 -58 -113 -68 -104 -90 12 -33 58 -16 165 60 26 18 50 33 53 33 4 0 23 12 41 26 43 33 69 29 73 -12 8 -77 -82 -183 -155 -184 -26 0 -66 -17 -111 -47 -29 -19 -173 -73 -196 -73 -4 0 -5 15 -2 33 4 17 8 42 10 54 1 12 10 37 19 55 9 18 30 69 47 113 33 83 63 124 115 156 35 22 59 23 120 8z m1762 -21 c1 -13 4 -57 6 -98 3 -41 16 -113 30 -160 14 -47 33 -123 42 -170 9 -47 24 -110 32 -140 39 -141 48 -200 34 -221 -11 -18 -10 -24 9 -44 32 -34 88 -211 135 -420 24 -108 56 -479 40 -463 -7 6 -23 77 -45 188 -11 61 -23 102 -53 190 -45 136 -107 345 -107 365 0 26 -44 192 -72 270 -11 33 -20 69 -20 79 1 11 -4 28 -10 39 -17 32 -27 126 -37 352 -9 197 -8 255 8 255 3 0 7 -10 8 -22z m-1642 2 c3 -5 -1 -10 -9 -10 -9 0 -16 5 -16 10 0 6 4 10 9 10 6 0 13 -4 16 -10z m609 -59 l59 -60 -39 -7 c-21 -4 -61 -15 -89 -25 -27 -9 -77 -23 -110 -29 -61 -12 -136 -37 -190 -63 -50 -25 -77 -30 -74 -15 5 21 -10 70 -39 125 -25 49 -24 87 2 51 22 -29 127 -70 197 -75 56 -5 69 -3 85 14 10 10 32 27 47 37 16 9 40 37 55 62 15 24 29 44 32 44 3 0 32 -27 64 -59z m-504 -141 c0 -11 9 -25 20 -32 32 -21 24 -45 -22 -66 -24 -11 -75 -34 -114 -52 -64 -29 -94 -33 -94 -12 0 4 28 22 63 40 51 26 70 43 98 87 36 58 49 67 49 35z m685 -6 c23 -20 27 -27 15 -32 -8 -3 -46 -22 -85 -42 -77 -40 -166 -70 -205 -69 -39 2 -227 -37 -371 -75 -129 -34 -171 -37 -149 -11 6 7 22 16 37 19 14 4 44 15 67 25 139 62 236 100 269 106 20 4 40 11 43 16 3 5 23 9 44 9 21 0 42 5 45 10 3 6 17 10 29 10 13 0 50 12 82 26 49 22 64 24 87 16 22 -9 29 -8 34 4 8 20 24 17 58 -12z m1583 -83 c56 -29 107 -85 127 -138 10 -26 24 -57 31 -68 28 -45 36 -107 28 -237 l-7 -129 -18 28 c-11 15 -26 52 -35 82 -13 45 -28 65 -91 126 -63 61 -83 74 -118 80 -24 3 -62 15 -86 27 -64 31 -182 22 -266 -21 -34 -17 -66 -31 -71 -31 -5 0 -15 -7 -22 -15 -19 -23 -29 -18 -36 19 -5 31 -2 38 31 68 58 51 59 51 181 38 93 -11 116 -11 129 0 31 26 13 43 -50 46 -33 2 -82 10 -110 18 -41 11 -46 15 -30 21 11 5 28 15 39 24 10 9 21 15 25 14 7 -3 88 19 171 47 72 24 132 25 178 1z m-2498 -71 c0 -5 -4 -10 -10 -10 -5 0 -10 5 -10 10 0 6 5 10 10 10 6 0 10 -4 10 -10z m1922 -92 c-7 -7 -12 -8 -12 -2 0 14 12 26 19 19 2 -3 -1 -11 -7 -17z m-1432 -6 c-44 -20 -68 -46 -74 -77 -7 -34 -119 -170 -141 -170 -8 0 -123 161 -124 175 -2 10 57 27 179 52 124 25 190 34 160 20z m338 -45 c15 -8 50 -15 77 -16 56 -2 76 -14 49 -29 -11 -6 -46 -36 -80 -69 -90 -86 -123 -111 -181 -133 -109 -41 -283 -53 -334 -23 -28 17 -40 43 -19 43 5 0 24 16 42 37 18 20 41 43 50 52 9 9 19 28 23 43 11 42 50 70 123 89 81 22 212 24 250 6z m-768 -59 c19 -35 41 -74 50 -88 9 -14 34 -51 55 -82 21 -31 48 -67 61 -79 13 -12 24 -26 24 -31 0 -5 5 -14 10 -21 6 -7 37 -46 70 -87 33 -41 82 -102 110 -135 27 -32 57 -74 65 -91 8 -17 33 -53 55 -80 22 -27 57 -78 78 -113 20 -35 53 -82 73 -105 42 -48 64 -86 50 -86 -5 0 -32 21 -59 48 -26 26 -62 54 -78 62 -16 8 -41 23 -56 34 -14 10 -50 27 -80 36 l-53 18 -23 84 c-32 115 -57 168 -108 224 -24 27 -44 54 -44 59 0 6 -28 40 -63 77 -97 103 -141 159 -159 203 -17 40 -33 113 -29 129 3 13 -20 36 -36 36 -7 0 -18 -10 -23 -22 -8 -22 -9 -21 -15 9 -4 18 -7 36 -7 40 1 7 34 15 88 22 6 0 26 -27 44 -61z m-201 -25 c5 -38 13 -93 16 -123 3 -30 8 -69 11 -86 5 -29 3 -32 -33 -47 -40 -16 -138 -106 -186 -170 -33 -44 -48 -44 -59 2 -9 34 -71 126 -94 139 -10 6 3 25 51 75 84 88 105 146 82 225 l-16 52 109 0 108 0 11 -67z m-674 47 c-28 -12 -73 -12 -80 0 -4 6 14 10 47 9 39 0 48 -3 33 -9z m-265 -14 c0 -11 -19 -15 -25 -6 -3 5 1 10 9 10 9 0 16 -2 16 -4z m648 -11 c2 -2 6 -21 9 -43 10 -73 -46 -156 -136 -201 -33 -18 -53 -20 -116 -16 -42 3 -84 9 -93 14 -22 11 -130 -5 -160 -25 -12 -8 -28 -29 -36 -47 l-13 -32 1 30 c1 18 12 41 29 57 15 15 27 33 27 41 0 14 52 65 88 85 13 7 65 34 115 58 51 25 101 50 112 56 40 23 101 37 135 32 19 -3 37 -7 38 -9z m-703 -5 c-3 -5 -12 -10 -18 -10 -7 0 -6 4 3 10 19 12 23 12 15 0z m3459 -9 c17 -5 51 -15 76 -22 34 -9 59 -27 102 -73 32 -33 60 -72 63 -88 4 -15 11 -30 16 -33 5 -4 9 -13 9 -21 0 -23 72 -166 97 -194 41 -44 31 -56 -79 -91 -34 -10 -63 -18 -65 -15 -2 2 8 25 21 53 30 60 49 134 36 147 -14 14 -40 -13 -66 -71 -22 -50 -54 -79 -61 -56 -11 32 -170 173 -195 173 -5 0 -29 16 -52 35 -57 47 -118 68 -187 66 l-57 -2 -6 37 c-6 30 -3 41 16 61 30 33 120 90 149 96 45 8 153 7 183 -2z m-3154 -40 c0 -5 -9 -12 -20 -16 -10 -3 -40 -24 -66 -45 -26 -21 -51 -37 -56 -34 -5 4 -8 25 -6 47 l4 42 64 6 c36 3 68 6 73 7 4 1 7 -2 7 -7z m2548 -30 c2 -6 -1 -11 -8 -11 -6 0 -22 -24 -35 -53 -26 -56 -44 -76 -112 -121 -81 -54 -217 -85 -229 -51 -3 8 -22 19 -42 26 -61 19 -64 25 -34 73 15 23 36 53 47 66 22 28 104 70 150 77 17 3 32 7 35 10 10 10 224 -4 228 -16z m-2771 -5 c4 -8 6 -37 5 -65 -4 -49 -4 -50 -32 -44 -16 3 -64 -2 -107 -10 -109 -21 -278 -21 -295 0 -10 13 -10 17 0 20 6 3 12 9 12 15 0 28 71 61 85 39 3 -6 36 1 78 15 39 14 99 28 132 31 33 3 62 7 64 9 11 10 51 3 58 -10z m1068 -141 c48 -75 127 -172 154 -189 16 -11 37 -34 46 -50 10 -17 36 -55 57 -84 22 -30 37 -56 33 -60 -8 -8 -82 71 -149 159 -27 35 -53 65 -57 67 -5 2 -31 21 -58 43 -41 33 -53 49 -65 93 -9 30 -16 69 -15 88 l1 33 17 -35 c9 -19 26 -49 36 -65z m1699 -30 c-33 -25 -50 -18 -24 10 16 17 27 22 34 15 7 -7 4 -15 -10 -25z m-2782 -17 c-7 -7 -12 -22 -12 -35 0 -28 -7 -28 -40 -3 -16 13 -41 20 -69 20 -53 0 -49 7 10 19 70 14 125 13 111 -1z m3212 -8 c20 -10 44 -28 54 -38 10 -10 39 -29 65 -41 45 -22 148 -115 168 -153 8 -15 5 -20 -18 -28 -15 -6 -35 -15 -43 -20 -36 -24 -68 -31 -112 -26 -63 7 -82 20 -135 96 -26 36 -59 80 -75 98 -15 18 -28 38 -28 45 0 7 -7 25 -15 41 -13 24 -13 31 -3 38 24 15 106 9 142 -12z m-3414 -10 c0 -5 -5 -10 -11 -10 -5 0 -7 5 -4 10 3 6 8 10 11 10 2 0 4 -4 4 -10z m375 -75 c-60 -55 -74 -57 -75 -9 0 25 56 58 105 62 27 2 26 0 -30 -53z m-155 35 c0 -5 -5 -10 -11 -10 -5 0 -7 5 -4 10 3 6 8 10 11 10 2 0 4 -4 4 -10z m2255 -5 c43 -10 68 -23 88 -45 53 -59 34 -82 -158 -190 -126 -72 -214 -104 -255 -93 -27 7 -25 19 8 40 15 9 47 35 72 59 25 23 62 47 82 53 20 7 53 23 73 37 20 13 39 24 44 24 15 0 43 39 36 49 -11 19 -63 12 -101 -14 -20 -14 -54 -30 -75 -36 -20 -7 -54 -29 -73 -49 -20 -21 -55 -50 -79 -66 -24 -15 -54 -42 -67 -60 -17 -25 -30 -34 -51 -34 -16 0 -29 4 -29 8 0 12 86 92 99 92 6 0 18 12 28 28 9 15 26 39 38 53 11 14 27 36 35 48 22 32 79 68 141 91 65 23 68 23 144 5z m-1787 -14 c51 -10 81 -36 113 -97 19 -34 21 -46 11 -56 -16 -16 -173 -39 -192 -27 -13 7 -13 9 0 10 8 1 20 1 26 0 13 -2 84 64 84 78 0 5 -7 14 -15 21 -11 10 -21 7 -47 -12 -29 -20 -46 -23 -136 -25 -57 -2 -120 -7 -140 -13 -20 -5 -38 -7 -41 -4 -8 8 90 102 123 118 34 17 144 20 214 7z m2348 -23 c45 -87 -6 -315 -88 -398 -41 -40 -146 -91 -202 -97 -47 -6 -122 20 -111 37 11 18 -16 42 -41 36 -20 -5 -24 -2 -28 26 -2 18 -4 42 -4 53 0 11 -3 36 -7 55 -10 54 30 107 138 183 49 34 103 72 121 84 17 13 47 25 66 29 l35 7 -56 -59 c-79 -83 -99 -107 -99 -116 0 -4 -13 -20 -29 -35 -15 -16 -33 -38 -40 -50 -6 -13 -18 -23 -26 -23 -21 0 -18 -37 4 -49 21 -11 36 3 114 104 54 71 96 116 160 170 26 22 50 48 53 57 8 27 22 22 40 -14z m-2893 -13 c17 -12 10 -16 -60 -38 -43 -14 -111 -37 -152 -52 -42 -14 -84 -24 -97 -21 -13 4 -31 -1 -45 -13 l-24 -19 40 -17 40 -18 -39 -9 c-34 -7 -43 -5 -63 14 -34 32 -30 69 15 121 41 50 54 55 162 63 41 4 77 8 80 11 9 8 125 -9 143 -22z m1123 -4 c85 -65 94 -73 94 -86 0 -7 35 -51 78 -97 42 -46 87 -96 99 -111 23 -27 73 -116 73 -129 0 -4 13 -36 29 -70 45 -101 52 -130 46 -204 -9 -119 -16 -149 -43 -181 -15 -17 -37 -43 -50 -58 -36 -42 -37 -23 -1 36 38 60 47 141 18 147 -11 2 -22 -14 -38 -55 -25 -68 -49 -98 -121 -147 -39 -27 -62 -36 -87 -34 -31 2 -33 3 -16 15 39 27 95 90 114 126 29 56 36 129 14 150 -23 23 -32 15 -40 -36 -6 -35 -19 -54 -75 -109 -38 -38 -76 -68 -86 -68 -17 0 -71 51 -117 112 -36 49 -68 123 -74 173 -2 22 -8 54 -12 70 -8 29 -6 53 18 215 9 63 8 66 -17 88 l-26 23 -24 -25 c-51 -50 -76 -172 -73 -357 0 -67 5 -85 35 -143 19 -36 50 -85 70 -109 20 -24 36 -49 36 -56 0 -6 5 -11 10 -11 6 0 10 -6 10 -14 0 -26 -81 15 -131 66 -95 99 -134 215 -124 371 18 273 100 414 295 509 30 14 60 27 66 27 6 1 29 -12 50 -28z m-1036 -50 c19 -48 10 -63 -61 -97 -88 -43 -210 -62 -244 -40 -13 9 -32 16 -42 17 -14 0 -15 2 -3 6 8 2 29 11 47 19 17 8 36 14 42 14 7 0 31 9 53 20 46 22 118 26 136 8 20 -20 44 10 40 49 -5 42 15 44 32 4z m1880 14 c0 -22 -93 -125 -132 -146 -10 -5 -26 -25 -36 -45 l-18 -34 -33 34 c-31 31 -33 37 -23 65 15 43 53 78 115 106 45 21 127 34 127 20z m-1530 -105 c10 -7 -7 -10 -57 -10 -42 0 -73 4 -73 10 0 13 110 13 130 0z m2555 -32 c10 -37 46 -159 65 -218 10 -30 21 -71 25 -90 4 -19 11 -40 16 -46 5 -6 14 -42 20 -80 6 -38 13 -83 16 -99 3 -22 -1 -35 -16 -49 -31 -28 -62 -14 -125 58 -36 42 -69 69 -92 76 -51 17 -209 8 -232 -13 -10 -9 -34 -23 -54 -31 -32 -14 -42 -14 -77 -1 -22 7 -48 14 -58 14 -34 0 -83 8 -90 15 -11 11 -146 6 -213 -9 -36 -8 -85 -14 -110 -14 l-45 0 -53 81 c-53 81 -58 97 -25 83 60 -27 158 -41 278 -41 114 1 135 4 171 23 l40 21 34 -21 c38 -24 131 -29 205 -10 64 15 163 73 200 116 35 40 80 149 91 217 7 44 19 52 29 18z m-2285 -1 c0 -2 -9 -22 -20 -45 -11 -22 -20 -49 -21 -59 0 -10 -6 -32 -12 -50 l-12 -32 -43 29 c-44 29 -138 50 -163 35 -7 -5 -22 -9 -33 -11 -40 -4 -151 -61 -181 -92 -16 -17 -33 -32 -36 -32 -7 0 -5 218 3 225 2 3 35 1 73 -4 94 -11 369 5 403 24 26 14 42 18 42 12z m-599 -49 c6 -84 3 -158 -6 -158 -13 0 -137 121 -131 127 11 12 102 51 119 52 11 1 17 -7 18 -21z m2219 -15 c0 -10 7 -31 15 -46 10 -19 14 -53 12 -102 l-2 -74 -40 -10 c-92 -23 -313 7 -377 51 -25 18 -27 18 -37 1 -5 -10 -11 -16 -13 -13 -14 22 -50 101 -47 104 2 2 29 0 59 -5 121 -20 276 15 380 86 43 29 50 30 50 8z m-2526 -39 c60 7 88 -7 180 -88 l69 -61 -69 -5 c-71 -5 -123 5 -183 36 -73 37 -163 63 -188 53 -39 -14 -14 -42 63 -68 37 -12 92 -36 123 -53 46 -25 70 -31 141 -34 112 -6 134 -1 126 32 -7 25 -6 25 19 8 32 -21 32 -25 -6 -53 -20 -15 -38 -21 -54 -17 -12 3 -58 -3 -100 -14 -43 -11 -100 -20 -126 -20 -68 0 -209 55 -209 81 0 5 -9 18 -20 29 -27 27 -27 98 0 133 34 43 67 54 130 44 30 -5 77 -6 104 -3z m752 -111 c24 -16 42 -32 40 -38 -5 -19 -69 -55 -96 -55 -15 0 -47 -7 -71 -16 -24 -8 -66 -21 -94 -29 -27 -8 -59 -17 -70 -20 -17 -5 -20 -1 -20 29 0 19 6 41 13 47 6 7 12 19 12 26 0 20 78 56 150 69 90 17 88 17 136 -13z m3147 -30 c39 -26 86 -60 103 -75 18 -16 52 -37 77 -48 26 -11 49 -25 52 -30 3 -5 30 -14 60 -20 43 -9 55 -16 55 -30 0 -28 -11 -50 -24 -50 -7 0 -39 -16 -72 -36 -81 -49 -104 -52 -139 -20 -15 14 -33 26 -39 26 -19 0 -120 51 -142 71 -11 10 -56 37 -100 60 -85 44 -253 150 -254 160 0 15 102 27 319 37 25 2 52 -10 104 -45z m-358 -109 c20 -11 105 -62 166 -99 93 -57 129 -77 177 -102 28 -15 52 -30 52 -34 0 -3 -23 -9 -51 -13 -61 -8 -126 12 -269 84 -71 36 -155 135 -158 187 l-3 35 33 -24 c18 -12 42 -28 53 -34z m-1687 15 c87 -47 164 -110 175 -142 15 -43 67 -26 67 22 l1 26 15 -28 c11 -20 12 -32 4 -47 -6 -11 -15 -18 -21 -15 -5 4 -27 -13 -48 -37 -21 -24 -64 -72 -96 -108 -31 -36 -71 -92 -87 -125 -17 -33 -41 -72 -53 -87 -13 -15 -26 -41 -30 -57 -6 -30 -46 -81 -63 -81 -5 0 -10 27 -11 59 -1 50 2 62 19 74 16 11 19 21 14 42 -5 22 -11 26 -31 22 -23 -4 -23 -3 10 32 42 43 51 61 66 126 24 103 30 203 15 258 -15 55 -18 97 -8 97 3 0 31 -14 62 -31z m-1018 -9 c0 -20 -5 -30 -15 -30 -9 0 -39 -12 -67 -26 -62 -31 -155 -63 -184 -64 -28 0 -84 20 -84 30 0 5 15 11 33 15 17 3 41 10 52 14 49 20 94 31 124 31 32 0 104 31 116 50 12 20 25 10 25 -20z m-553 -94 c-6 -36 -63 -166 -74 -166 -9 0 -153 143 -153 151 0 5 17 11 38 14 20 4 55 13 77 20 22 7 57 14 79 14 38 1 39 1 33 -33z m-442 -20 c44 -14 98 -30 120 -35 22 -6 56 -24 75 -40 l35 -29 -80 5 c-72 4 -89 1 -179 -30 -76 -27 -105 -33 -123 -26 -40 15 -53 11 -53 -15 0 -44 71 -72 118 -46 9 5 51 21 92 36 85 30 179 34 245 11 43 -15 58 -43 28 -54 -10 -4 -36 -18 -58 -32 -22 -14 -44 -28 -50 -31 -5 -3 -28 -17 -50 -30 -43 -27 -107 -48 -167 -57 -31 -4 -47 1 -88 27 -67 43 -118 98 -130 138 -10 39 14 105 58 157 15 18 35 42 44 54 24 28 64 27 163 -3z m3242 -57 c18 -6 42 -24 54 -40 l20 -29 -83 -1 c-97 -1 -222 2 -226 6 -1 1 2 13 7 27 19 51 127 68 228 37z m-462 -9 c17 -4 43 -11 59 -15 l30 -6 -30 -24 c-16 -13 -33 -24 -38 -25 -6 0 -20 -10 -33 -22 -19 -18 -23 -19 -23 -5 0 14 -10 17 -52 16 -78 -2 -231 31 -254 53 -9 10 72 29 151 37 79 7 145 4 190 -9z m912 -15 c21 -19 51 -40 68 -46 16 -6 46 -20 66 -30 20 -10 44 -19 53 -19 9 0 24 -4 34 -9 9 -5 28 -14 42 -19 l25 -11 -22 -7 c-13 -3 -23 -10 -23 -15 0 -5 -14 -9 -30 -9 -17 0 -42 -7 -55 -16 -14 -9 -33 -13 -44 -9 -21 6 -58 -12 -102 -53 l-27 -23 -11 48 c-10 42 -31 205 -31 241 0 20 17 14 57 -23z m-712 -45 c4 -6 -5 -10 -20 -10 -15 0 -24 4 -20 10 3 6 12 10 20 10 8 0 17 -4 20 -10z m-695 -5 c0 -3 -14 -33 -31 -68 -18 -34 -40 -98 -49 -142 -10 -44 -27 -107 -39 -139 -25 -70 -28 -148 -6 -166 27 -23 42 -4 49 62 4 34 13 83 21 108 8 25 25 87 38 139 13 52 28 96 35 99 15 5 25 -76 20 -163 -4 -63 -11 -82 -50 -151 -40 -70 -88 -167 -120 -244 -24 -58 -38 -75 -62 -78 -73 -9 -105 58 -106 217 0 124 -3 114 93 291 56 103 207 274 207 235z m118 -36 c9 -16 39 -60 65 -97 l49 -67 -34 -28 c-45 -38 -79 -52 -90 -35 -4 7 -5 36 -2 63 5 47 -5 136 -21 178 -12 30 15 19 33 -14z m235 -33 c78 -11 78 -12 58 -30 -47 -43 -9 -161 60 -190 24 -10 44 -9 112 6 190 43 212 47 220 39 21 -21 -41 -46 -198 -81 -58 -13 -115 -1 -158 33 -21 16 -48 30 -60 31 -16 1 -28 14 -44 49 -13 26 -29 47 -37 47 -18 0 -89 98 -80 111 3 5 15 7 27 3 12 -4 57 -12 100 -18z m732 1 c58 -5 59 -6 45 -22 -15 -18 -96 -43 -165 -49 -27 -3 -70 -10 -95 -16 -25 -6 -73 -15 -106 -19 -34 -5 -66 -11 -71 -14 -6 -4 -44 -11 -84 -17 -41 -6 -81 -13 -90 -15 -18 -6 -59 29 -59 50 0 16 85 105 100 105 6 0 19 -5 29 -12 14 -9 27 -8 57 5 32 13 72 15 219 12 99 -3 198 -6 220 -8z m-2608 -30 c59 -31 123 -95 123 -123 0 -18 -14 -18 -29 -1 -6 8 -43 20 -83 27 -40 7 -82 17 -93 23 -10 5 -40 9 -65 9 -47 -2 -122 19 -127 35 -5 13 142 62 182 63 17 0 58 -15 92 -33z m2781 15 c2 -7 -3 -12 -12 -12 -9 0 -16 7 -16 16 0 17 22 14 28 -4z m-2454 -7 c3 -8 1 -15 -3 -15 -5 0 -11 7 -15 15 -3 8 -1 15 3 15 5 0 11 -7 15 -15z m2462 -72 c3 -32 13 -74 20 -93 17 -45 33 -140 24 -140 -4 0 -15 9 -25 20 -10 11 -27 20 -37 20 -11 0 -28 5 -38 10 -11 6 -39 11 -62 11 -52 2 -175 -8 -186 -14 -4 -3 -36 -8 -72 -11 -35 -4 -67 -11 -71 -17 -11 -19 -118 -75 -159 -84 -17 -4 -32 -11 -35 -16 -12 -19 -34 -8 -55 28 -19 33 -20 38 -6 48 8 7 56 17 105 23 104 13 146 31 169 75 10 17 32 45 51 63 32 30 41 33 125 39 77 6 98 12 134 36 24 16 49 29 56 29 8 0 19 7 26 15 21 26 28 17 36 -42z m704 37 c14 -11 28 -20 32 -20 3 0 26 -18 49 -40 24 -22 47 -40 51 -40 4 0 8 -7 8 -15 0 -9 6 -18 14 -21 25 -10 26 -32 2 -56 -111 -115 -164 -135 -348 -134 -122 1 -137 3 -178 26 -39 22 -145 119 -137 126 1 1 45 -4 97 -12 142 -21 207 -18 319 13 11 3 10 8 -5 24 -18 20 -26 21 -126 15 -137 -7 -248 12 -248 43 0 7 29 16 250 79 126 36 185 39 220 12z m-3111 -31 c22 -26 28 -39 18 -39 -13 0 -67 60 -67 74 0 14 17 1 49 -35z m-846 -69 c-9 -25 -18 -47 -20 -50 -7 -8 -73 33 -73 46 0 16 92 65 102 55 5 -4 0 -27 -9 -51z m112 19 c-5 -37 -9 -43 -29 -36 -16 6 -13 29 7 55 17 21 26 13 22 -19z m101 5 c15 -10 60 -20 110 -25 47 -4 90 -12 97 -17 7 -6 30 -13 52 -18 42 -7 135 -51 147 -68 4 -6 8 -28 8 -49 0 -29 -8 -46 -34 -75 -33 -36 -37 -37 -99 -36 l-65 0 -117 110 c-113 105 -135 134 -135 175 0 23 4 24 36 3z m1024 -41 c0 -14 -30 -17 -67 -7 -34 9 -20 19 26 19 27 1 41 -3 41 -12z m1040 -45 c5 -13 19 -68 31 -123 19 -88 20 -105 9 -150 -19 -75 -42 -115 -102 -171 -29 -28 -77 -76 -107 -108 -54 -58 -119 -106 -144 -106 -19 0 -38 86 -33 142 5 48 28 103 44 110 5 1 12 13 16 25 7 21 5 22 -23 17 -46 -9 -41 12 34 141 36 61 65 117 65 124 0 9 8 11 24 7 19 -5 29 0 46 21 22 28 107 93 122 93 5 0 13 -10 18 -22z m-2361 -42 c20 -24 0 -74 -53 -128 -28 -29 -92 -90 -141 -136 -50 -46 -119 -111 -155 -146 -36 -35 -80 -71 -98 -80 -32 -16 -33 -16 -57 8 -25 26 -32 50 -16 60 5 3 11 17 15 30 9 37 74 128 101 142 13 7 37 24 52 38 15 15 37 29 48 32 11 4 47 27 79 52 33 25 83 55 112 68 29 13 61 34 71 48 21 29 26 31 42 12z m249 -13 c83 -61 199 -190 252 -278 53 -89 54 -91 55 -172 0 -68 -4 -86 -21 -110 -43 -57 -72 -43 -199 98 -61 68 -74 88 -85 137 -7 31 -19 71 -25 87 -21 49 -45 115 -45 121 0 15 24 -14 56 -69 32 -56 68 -102 123 -162 11 -11 28 -39 39 -61 20 -39 73 -94 92 -94 4 0 15 11 24 25 17 25 16 26 -20 58 -20 18 -52 57 -71 87 -19 30 -46 65 -58 77 -28 27 -115 147 -115 159 0 4 -19 26 -42 49 -24 22 -49 48 -57 58 -24 30 53 23 97 -10z m-430 9 c-7 -17 -86 -82 -100 -82 -8 0 -25 -12 -39 -26 -13 -14 -48 -39 -79 -56 -30 -18 -58 -36 -62 -42 -5 -7 -8 -7 -8 2 0 16 52 84 100 130 38 36 60 48 130 68 55 15 63 16 58 6z m3462 -87 c28 -9 41 -23 64 -67 39 -75 32 -99 -35 -127 -42 -18 -63 -22 -118 -17 -112 9 -207 23 -227 34 -21 12 -30 6 86 51 31 11 69 21 85 21 52 0 75 11 75 34 0 37 -15 49 -46 41 -16 -4 -41 -9 -57 -11 -15 -2 -44 -12 -65 -23 -20 -10 -53 -22 -72 -26 -19 -4 -46 -16 -60 -26 -21 -16 -36 -18 -97 -12 -40 3 -73 9 -73 13 0 4 26 19 58 34 31 14 77 37 102 51 31 17 78 28 155 38 113 15 163 13 225 -8z m-780 -27 c35 -47 90 -132 90 -138 0 -3 -31 -6 -69 -7 l-69 -3 10 37 c6 21 8 61 6 90 -3 29 -2 53 2 53 3 0 17 -15 30 -32z m274 -177 c3 -5 20 -11 38 -14 18 -2 87 -14 153 -26 176 -31 312 -37 350 -17 17 9 47 16 67 16 l37 0 0 -154 c0 -160 14 -267 37 -287 8 -6 14 -18 14 -25 0 -9 12 -14 35 -14 36 0 94 -27 132 -62 25 -24 53 -98 53 -142 0 -32 -34 -165 -52 -201 -33 -69 -116 -179 -191 -256 -35 -36 -92 -56 -111 -39 -5 5 0 46 12 97 31 132 41 190 47 273 3 41 10 95 15 120 6 25 12 63 15 84 2 21 7 47 10 56 3 9 -4 28 -15 43 -11 14 -20 30 -20 36 0 6 -6 11 -14 11 -15 0 -26 30 -26 75 -1 86 -120 208 -239 244 -39 12 -73 26 -76 31 -10 16 -78 48 -162 75 -65 22 -153 68 -153 81 0 8 39 4 44 -5z m-234 -26 c0 -3 -12 -16 -26 -29 -24 -20 -28 -33 -35 -107 -7 -80 -25 -155 -48 -197 -5 -10 -14 -53 -20 -95 -8 -65 -15 -86 -50 -137 -42 -61 -49 -84 -31 -95 31 -19 124 123 135 205 2 19 20 83 40 142 20 61 35 127 35 154 0 30 7 59 22 82 17 28 19 38 10 53 -15 23 -6 24 33 3 17 -9 43 -16 58 -16 23 1 28 -3 24 -18 -2 -10 6 -30 19 -46 20 -25 23 -40 24 -111 0 -45 -4 -92 -9 -105 -5 -13 -15 -50 -22 -83 -15 -75 -66 -209 -95 -253 -12 -19 -34 -40 -48 -48 -14 -8 -36 -20 -49 -26 -35 -20 -70 -50 -95 -83 -26 -33 -138 -115 -158 -115 -6 0 -17 -7 -24 -15 -7 -8 -19 -15 -27 -15 -13 0 -15 28 -12 188 1 103 -1 219 -5 257 -6 64 -4 77 26 155 26 67 39 88 61 98 27 13 27 15 12 32 -15 17 -12 22 52 86 38 38 75 83 82 101 13 32 26 38 94 42 15 0 27 -1 27 -4z m1427 -76 c23 -11 48 -19 55 -18 37 5 59 -4 92 -38 20 -21 36 -43 36 -49 0 -14 -72 -43 -144 -59 -16 -3 -41 -15 -54 -26 -14 -10 -31 -19 -38 -19 -7 0 -28 -13 -46 -29 -54 -47 -91 -60 -194 -70 -55 -5 -107 -12 -116 -16 -36 -14 -18 22 33 66 28 24 67 59 88 78 44 41 145 91 183 91 35 0 49 27 23 46 -40 30 -179 -25 -266 -106 -35 -32 -65 -54 -67 -49 -2 5 2 26 9 46 7 21 12 43 11 50 -7 32 150 145 177 129 4 -3 29 -2 57 3 54 8 97 0 161 -30z m-1089 -35 c42 -15 107 -47 143 -71 37 -25 72 -42 78 -39 14 9 82 -27 126 -66 46 -40 61 -70 70 -139 l7 -56 -46 -6 c-71 -10 -141 -51 -181 -105 -19 -26 -35 -53 -35 -59 0 -18 -17 -16 -24 2 -4 12 -19 14 -78 9 -68 -6 -74 -5 -93 17 -45 52 -58 119 -51 267 3 74 8 138 11 140 3 3 59 -77 110 -160 31 -49 73 -98 93 -107 37 -17 52 -13 52 13 0 24 -13 43 -48 68 -10 7 -31 33 -48 58 -17 25 -46 68 -65 95 -55 79 -109 165 -103 165 3 0 40 -12 82 -26z m614 -140 l-7 -59 -5 60 c-6 69 -2 96 11 73 4 -8 5 -41 1 -74z m447 -193 c46 -24 138 -113 182 -178 18 -26 41 -57 51 -67 26 -29 20 -51 -7 -28 -17 15 -91 32 -138 32 -25 0 -58 7 -74 15 -15 8 -62 30 -103 49 -68 31 -203 137 -190 149 9 7 184 45 213 46 15 0 45 -8 66 -18z m-549 -80 c-5 -11 -10 -29 -10 -41 0 -11 -9 -48 -21 -82 -12 -37 -22 -98 -25 -151 -2 -48 -11 -120 -20 -160 -8 -40 -20 -107 -26 -150 -12 -89 -26 -97 -66 -37 -13 19 -47 61 -76 92 -67 73 -81 117 -73 238 6 100 22 142 76 199 39 42 124 81 176 81 18 0 38 7 45 15 18 22 33 19 20 -4z m-646 -34 c-3 -9 -10 -17 -15 -17 -11 0 -12 34 -2 44 11 11 24 -9 17 -27z m128 -136 c29 -6 74 -12 101 -13 55 -2 54 0 36 -133 -11 -80 -11 -80 22 -150 19 -38 35 -74 38 -79 2 -5 -4 -6 -15 -1 -11 4 -40 8 -66 10 -37 2 -67 14 -140 58 -121 73 -148 106 -148 185 0 56 12 94 48 160 l13 23 29 -25 c17 -13 53 -29 82 -35z m987 0 c30 -12 67 -31 83 -43 21 -14 48 -21 91 -23 59 -2 117 -20 117 -35 0 -6 -77 -13 -135 -13 -12 1 -69 24 -128 53 -88 43 -110 50 -122 40 -13 -11 -15 -8 -15 17 0 37 7 44 34 33 11 -4 45 -18 75 -29z m-149 -241 c0 -5 50 -60 111 -120 61 -61 110 -112 108 -114 -2 -2 -15 -9 -28 -16 -21 -11 -36 -6 -147 51 -68 35 -124 69 -124 75 0 6 7 17 15 24 8 7 15 20 15 30 0 10 7 23 15 30 8 7 15 21 15 31 0 11 5 19 10 19 6 0 10 -4 10 -10z"/>
</g>
</svg>