<?xml version="1.0" standalone="no"?>
<!DOCTYPE svg PUBLIC "-//W3C//DTD SVG 20010904//EN"
 "http://www.w3.org/TR/2001/REC-SVG-20010904/DTD/svg10.dtd">
<svg version="1.0" xmlns="http://www.w3.org/2000/svg"
 width="874.000000pt" height="876.000000pt" viewBox="0 0 874.000000 876.000000"
 preserveAspectRatio="xMidYMid meet">

<g transform="translate(0.000000,876.000000) scale(0.100000,-0.100000)"
fill="hsla(80, 4%, 16%, 0.8)" stroke="none">
<path d="M4470 7505 c-30 -25 -65 -57 -77 -71 -17 -21 -29 -27 -55 -25 -99 8
-652 -6 -733 -19 -84 -13 -205 -7 -297 14 -36 8 -74 9 -118 3 -40 -5 -96 -5
-145 2 -52 6 -107 7 -155 1 -116 -14 -136 -12 -167 14 -16 14 -57 34 -90 45
l-61 21 -64 -42 c-34 -23 -73 -50 -84 -60 -23 -20 -139 -52 -155 -43 -4 3 -14
-3 -21 -15 -7 -11 -20 -20 -28 -20 -31 -1 -120 -117 -120 -157 0 -44 57 -151
89 -168 15 -7 40 -33 56 -57 32 -46 134 -149 175 -176 14 -9 48 -34 77 -55 79
-59 90 -105 101 -427 6 -140 8 -316 7 -390 -11 -498 -18 -710 -27 -815 -6 -68
-12 -404 -13 -780 -1 -363 -3 -697 -3 -743 l-2 -82 -30 -6 c-31 -7 -39 -22
-56 -116 l-6 -38 -55 0 c-50 0 -55 -2 -50 -20 4 -15 0 -20 -17 -20 -16 0 -25
10 -36 43 l-15 42 -58 0 c-44 0 -62 4 -71 18 -19 25 -49 21 -78 -10 -33 -37
-42 -62 -23 -69 29 -11 15 -75 -37 -178 -13 -25 2 -38 38 -34 21 2 35 13 52
43 21 37 22 38 16 10 -12 -56 -33 -94 -72 -135 l-40 -41 -8 38 c-4 21 -8 52
-8 68 -1 27 -6 32 -59 50 -31 11 -57 25 -57 32 0 15 32 17 46 3 6 -6 24 -14
41 -19 25 -7 33 -6 38 6 3 9 4 17 3 17 -2 1 -15 10 -30 19 -15 9 -34 17 -42
17 -15 0 -31 18 -24 26 3 2 24 -3 48 -11 59 -21 72 -19 68 7 -2 16 -12 24 -36
29 -46 9 -54 22 -12 17 29 -2 35 0 38 18 4 27 -52 54 -71 35 -25 -25 -97 4
-97 39 0 6 -18 30 -40 54 -22 24 -40 48 -40 53 0 15 -43 51 -65 55 -14 2 -21
13 -25 38 -14 96 -141 7 -176 -123 -48 -173 -74 -360 -55 -395 15 -28 45 -36
73 -20 13 7 42 13 65 13 23 1 68 13 100 27 96 42 120 48 134 32 7 -8 19 -12
27 -9 8 3 38 -1 67 -10 l52 -15 -5 -50 c-4 -45 -2 -53 22 -75 41 -38 57 -44
83 -32 19 8 32 5 75 -22 44 -27 56 -31 71 -21 15 9 24 8 42 -4 12 -8 31 -13
42 -10 14 4 23 -2 31 -21 9 -20 17 -25 33 -20 13 4 27 0 40 -11 24 -21 17 -60
-17 -91 -13 -12 -24 -29 -24 -37 0 -8 -4 -18 -10 -21 -5 -3 -10 -18 -10 -33 0
-20 8 -33 31 -46 24 -14 29 -23 24 -40 -11 -40 -29 -126 -51 -251 -9 -55 -23
-119 -30 -142 -8 -23 -21 -91 -29 -150 -9 -59 -25 -145 -36 -190 -10 -45 -24
-119 -30 -165 -14 -117 -17 -126 -38 -133 -10 -3 -35 -21 -54 -40 -35 -34 -36
-37 -30 -88 8 -73 40 -107 102 -107 61 1 122 29 156 74 22 29 26 43 22 78 -2
24 -10 57 -17 74 -8 18 -10 39 -5 50 4 10 9 42 11 70 2 29 12 87 24 130 11 43
20 91 20 107 0 16 5 48 11 71 50 192 69 279 69 315 0 17 10 45 21 60 12 16 19
34 15 39 -9 15 19 138 37 164 41 59 43 60 79 50 18 -5 58 -19 87 -31 30 -12
78 -27 105 -32 28 -5 55 -14 61 -20 7 -9 3 -10 -15 -6 -14 3 -62 9 -107 13
-45 4 -80 11 -77 15 3 5 -8 14 -23 21 -15 7 -31 17 -34 21 -13 18 -44 2 -47
-23 -2 -20 9 -33 60 -71 69 -50 135 -87 214 -118 27 -10 122 -56 210 -101 87
-44 202 -98 254 -120 52 -21 122 -53 155 -72 85 -47 190 -94 347 -156 42 -17
114 -52 159 -78 45 -25 121 -60 168 -77 47 -16 104 -36 126 -44 22 -8 47 -24
57 -36 14 -18 19 -20 43 -9 14 7 31 10 35 7 5 -3 26 3 47 13 42 21 72 29 150
42 28 5 70 18 94 29 24 12 47 21 53 21 5 0 66 31 135 68 69 38 142 75 161 82
113 44 319 155 418 227 41 29 78 53 83 53 4 0 36 20 71 44 35 24 90 56 123 71
105 47 309 148 345 171 21 13 59 24 96 28 55 5 64 3 86 -17 22 -21 26 -34 32
-128 9 -131 33 -324 51 -409 8 -36 17 -94 20 -129 4 -52 1 -68 -15 -91 -11
-16 -20 -36 -20 -47 0 -19 -32 -76 -56 -101 -8 -8 -13 -22 -10 -31 2 -9 7 -30
11 -48 13 -66 109 -121 191 -109 61 8 98 29 124 71 27 44 23 85 -15 159 -24
46 -27 65 -35 236 -10 192 -24 330 -40 390 -6 19 -10 64 -10 100 0 36 -8 96
-17 134 -15 55 -27 77 -63 115 -25 26 -63 74 -84 107 -21 32 -47 70 -56 84
-45 67 -49 111 -55 610 -2 261 -7 554 -9 650 -2 96 0 279 4 405 14 379 27
1639 20 1991 -2 119 1 158 13 185 8 19 18 44 22 57 4 15 29 33 81 57 41 19 80
35 88 35 18 0 106 79 106 95 0 16 56 65 75 65 21 0 161 108 175 136 8 14 22
24 35 24 30 0 45 19 45 58 0 44 -30 95 -91 153 -45 44 -54 47 -141 64 -118 21
-156 33 -177 54 -9 9 -49 27 -88 41 -75 25 -107 24 -198 -8 -105 -37 -149 -42
-391 -50 -321 -9 -379 -8 -554 7 -163 15 -150 15 -356 12 -92 -2 -160 1 -172
8 -10 5 -34 27 -52 48 -47 55 -119 113 -139 112 -9 0 -41 -20 -71 -44z m112
-30 c20 -14 42 -25 47 -25 6 0 11 -6 11 -13 0 -8 23 -33 52 -56 45 -36 57 -41
88 -37 106 16 425 9 589 -13 36 -5 167 -7 291 -5 422 8 420 8 583 55 64 19 71
19 122 4 30 -8 65 -26 77 -40 22 -22 83 -39 213 -59 83 -12 96 -19 142 -72 41
-49 57 -93 40 -111 -3 -3 -38 11 -76 30 -61 31 -80 36 -143 37 -40 0 -116 -7
-168 -15 -131 -22 -575 -35 -602 -19 -4 3 -30 7 -56 9 -26 1 -110 10 -186 19
-138 16 -247 21 -736 31 -140 3 -266 9 -280 12 -14 3 -29 5 -33 4 -5 -1 -74
-4 -153 -6 -80 -2 -162 -9 -182 -14 -20 -6 -50 -9 -67 -6 -51 6 -358 17 -587
20 -132 2 -230 8 -252 15 -41 13 -97 14 -381 6 -166 -4 -204 -2 -222 10 -20
12 -26 13 -45 0 -32 -19 -116 -38 -139 -31 -11 4 -25 2 -32 -3 -15 -12 -181
-31 -260 -29 -54 1 -58 3 -53 23 3 12 18 40 32 62 24 36 32 41 89 52 35 7 72
9 82 6 13 -4 27 2 44 20 13 14 47 42 76 61 47 31 56 34 98 27 26 -3 58 -16 73
-28 62 -50 73 -51 195 -31 94 15 123 16 178 6 46 -8 82 -8 119 -1 28 5 62 8
74 5 85 -19 288 -33 356 -24 41 5 183 12 315 15 132 2 269 5 305 6 36 2 84 -1
108 -5 40 -7 46 -5 76 25 65 65 116 108 129 108 7 0 29 -11 49 -25z m-1662
-459 c5 -106 0 -139 -17 -122 -3 3 -8 60 -11 127 -4 101 -2 121 9 117 11 -3
15 -34 19 -122z m45 115 c-3 -6 2 -14 12 -19 15 -9 17 -26 18 -116 0 -77 -3
-106 -12 -106 -15 0 -21 37 -27 158 -3 58 -1 92 5 92 6 0 8 -4 4 -9z m2015
-20 c95 -31 183 -34 397 -13 111 11 178 7 189 -9 3 -5 -1 -10 -8 -11 -7 0 -17
-2 -23 -3 -5 0 -32 -5 -60 -9 -41 -7 -240 -18 -310 -18 -99 0 -261 14 -272 24
-11 9 -16 9 -22 0 -9 -14 -117 -10 -133 6 -16 16 -8 22 54 43 71 24 89 24 188
-10z m-2767 -13 c9 -66 -16 -69 -49 -7 -12 25 -12 28 4 32 35 9 40 6 45 -25z
m587 -4 c0 -14 -4 -23 -10 -19 -5 3 -10 15 -10 26 0 10 5 19 10 19 6 0 10 -12
10 -26z m56 -95 c2 -74 -1 -108 -7 -102 -12 12 -22 157 -13 196 11 50 17 21
20 -94z m-107 60 c3 -24 5 -73 5 -109 1 -56 -2 -65 -18 -68 -13 -3 -17 0 -14
10 3 7 2 56 -2 108 -3 52 -5 99 -2 103 10 20 27 -4 31 -44z m317 20 c-3 -17
-6 -56 -6 -86 0 -48 -2 -54 -15 -43 -11 9 -15 33 -15 86 0 69 2 74 21 74 19 0
21 -4 15 -31z m43 -51 c-2 -79 -2 -80 -8 -28 -7 51 -4 110 5 110 2 0 3 -37 3
-82z m739 67 c140 -2 266 -9 300 -16 l57 -12 -35 -8 c-41 -9 -206 -23 -265
-22 -22 0 -85 6 -140 13 -77 9 -121 10 -190 1 -124 -16 -342 -16 -380 -1 l-30
12 35 15 c57 25 127 32 270 27 74 -3 244 -7 378 -9z m-1564 -56 c-32 -33 -38
-32 -28 6 5 20 9 23 15 13 6 -9 9 -7 9 9 0 24 23 37 28 15 2 -7 -9 -27 -24
-43z m326 -3 c0 -35 3 -85 6 -112 5 -33 3 -46 -4 -39 -13 14 -25 215 -12 215
6 0 10 -28 10 -64z m65 52 c2 -7 5 -59 8 -115 l4 -103 -25 0 c-19 0 -23 4 -17
18 4 9 7 61 6 115 -2 65 1 97 9 97 6 0 12 -6 15 -12z m-175 -85 c0 -51 -4 -83
-9 -77 -10 10 -21 150 -13 159 17 16 22 -4 22 -82z m-110 62 c7 -9 8 -15 2
-15 -5 0 -12 7 -16 15 -3 8 -4 15 -2 15 2 0 9 -7 16 -15z m54 -45 c4 -37 2
-50 -4 -40 -9 15 -15 108 -5 99 2 -3 6 -29 9 -59z m116 -20 c1 -36 1 -76 1
-90 -2 -24 -3 -24 -11 -3 -10 25 -20 160 -12 168 13 12 20 -14 22 -75z m1745
70 c-3 -5 -15 -10 -26 -10 -10 0 -19 5 -19 10 0 6 12 10 26 10 14 0 23 -4 19
-10z m142 -22 c-3 -7 -5 -2 -5 12 0 14 2 19 5 13 2 -7 2 -19 0 -25z m1724 -35
c1 -38 1 -75 0 -85 -2 -20 16 -32 53 -34 l28 -2 -7 73 c-5 61 -4 73 9 78 13 5
16 -4 17 -56 1 -34 1 -66 0 -71 -1 -4 3 -14 9 -21 8 -10 -5 -14 -61 -19 -39
-4 -73 -5 -76 -2 -7 7 -4 152 3 182 12 45 24 24 25 -43z m385 53 c6 -15 8 -78
6 -135 -2 -33 -2 -33 -44 -29 -24 3 -50 6 -58 9 -10 2 -14 -2 -12 -12 2 -12
-5 -16 -23 -16 -30 0 -30 1 -9 37 14 22 26 29 67 33 27 4 52 8 54 11 10 9 -9
46 -23 46 -8 0 -23 6 -34 13 -17 10 -22 9 -30 -3 -8 -13 -10 -13 -10 1 0 23
38 31 65 13 20 -13 35 -10 35 7 0 4 -13 10 -30 14 -16 4 -30 11 -30 16 0 15
70 11 76 -5z m142 -43 c2 -38 -1 -52 -13 -56 -12 -5 -15 4 -15 54 0 77 23 78
28 2z m85 51 c7 -8 -11 -46 -27 -56 -19 -13 -26 -9 -26 15 0 35 33 60 53 41z
m-2381 -56 c5 -58 0 -78 -13 -57 -12 19 -11 109 0 109 5 0 11 -24 13 -52z
m1274 -51 c2 -113 1 -107 19 -107 12 0 15 18 15 100 0 55 4 100 8 100 5 0 8
-42 8 -92 -1 -76 2 -93 14 -93 12 0 16 18 18 93 2 82 5 93 20 90 13 -3 18 -18
24 -71 8 -81 14 -101 29 -91 7 4 10 34 8 83 -4 72 -3 76 19 79 26 4 29 -4 35
-76 5 -57 10 -68 26 -57 7 4 9 26 4 62 -4 41 -3 54 5 49 7 -4 12 -28 13 -54 1
-59 11 -94 27 -100 9 -3 11 16 6 82 -5 59 -4 86 4 86 10 0 18 -36 24 -114 2
-16 9 -31 16 -34 11 -3 13 11 12 64 -3 86 -2 94 9 94 5 0 14 -43 21 -96 11
-85 15 -95 31 -91 11 3 19 1 19 -4 0 -5 -35 -9 -77 -10 -143 -1 -243 -8 -280
-18 -40 -11 -154 -14 -188 -5 -18 5 -20 12 -17 92 4 110 21 134 21 28 0 -45 4
-83 11 -91 20 -24 33 -5 26 38 -8 48 2 129 15 121 5 -3 6 -29 3 -59 -8 -63 1
-105 21 -105 12 0 15 19 15 107 0 58 3 103 7 99 4 -4 8 -49 9 -99z m-1049 47
c0 -41 -2 -45 -14 -28 -20 28 -16 74 7 74 4 0 7 -21 7 -46z m1694 -10 c-5 -21
-10 -34 -11 -29 -10 55 -4 93 12 77 5 -5 5 -25 -1 -48z m64 -16 c-9 -110 -31
-120 -27 -13 3 68 7 85 19 85 13 0 14 -11 8 -72z m268 -20 c9 -6 8 -11 -3 -18
-8 -5 -18 -10 -21 -10 -12 0 -15 56 -5 91 l11 34 3 -45 c2 -24 9 -48 15 -52z
m-1942 75 c1 -5 3 -38 5 -75 3 -68 -3 -81 -26 -53 -14 17 -4 135 11 135 5 0
10 -3 10 -7z m1399 -67 c-1 -71 -14 -59 -25 22 -6 45 -5 51 9 46 12 -5 16 -20
16 -68z m-3801 8 c-12 -13 -24 -22 -26 -20 -5 5 19 49 32 58 21 15 16 -14 -6
-38z m1352 9 c1 -16 2 -45 3 -65 2 -21 -1 -38 -5 -38 -4 0 -9 29 -11 65 -1 36
0 65 5 65 4 0 7 -12 8 -27z m64 17 c4 -6 8 -38 8 -70 2 -50 -1 -60 -15 -60
-13 0 -17 12 -20 66 -1 36 -1 68 1 70 8 7 20 4 26 -6z m624 -37 c-1 -41 -2
-44 -8 -18 -7 28 -4 65 5 65 2 0 3 -21 3 -47z m659 41 c21 -6 23 -11 21 -79
-1 -40 1 -78 5 -84 4 -7 0 -11 -12 -11 -21 0 -32 39 -32 116 0 22 -5 45 -12
52 -13 13 -5 15 30 6z m507 -84 c0 -91 -7 -115 -19 -60 -6 34 3 150 13 150 3
0 6 -40 6 -90z m-2340 70 c4 -6 9 -31 11 -55 4 -35 2 -45 -9 -45 -14 0 -27 40
-27 86 0 25 14 32 25 14z m385 -38 c0 -50 13 -70 34 -53 13 11 16 11 16 -3 0
-12 -10 -16 -37 -16 l-38 0 3 60 c4 64 22 74 22 12z m52 8 c2 -22 0 -40 -4
-40 -5 0 -8 18 -8 40 0 22 2 40 4 40 2 0 6 -18 8 -40z m458 -35 c0 -60 -3 -75
-15 -75 -9 0 -14 9 -14 23 1 12 -2 46 -6 75 -7 49 -6 52 14 52 20 0 21 -5 21
-75z m1190 -16 c0 -43 -4 -79 -9 -79 -12 0 -21 45 -17 88 1 17 3 44 4 58 1 14
6 22 12 19 6 -3 10 -42 10 -86z m52 28 c-2 -30 -1 -65 3 -76 7 -24 35 -29 35
-6 0 8 5 15 10 15 6 0 10 -4 10 -10 0 -5 8 -10 18 -10 28 -1 -29 -29 -59 -30
-32 0 -39 18 -39 113 0 51 3 68 13 64 8 -3 11 -21 9 -60z m149 -39 c-3 -53 -6
-66 -11 -48 -16 53 -7 184 9 137 3 -9 4 -49 2 -89z m-2089 33 c-2 -28 -8 -48
-13 -45 -10 6 -12 87 -3 97 14 14 19 -3 16 -52z m63 -23 c-4 -21 -11 -36 -16
-32 -11 6 -12 97 -2 108 13 12 24 -37 18 -76z m365 20 c0 -70 -13 -69 -29 1
-11 49 -8 61 15 61 11 0 14 -15 14 -62z m207 38 c-13 -19 -14 -30 -5 -53 15
-39 4 -71 -17 -53 -29 24 -12 130 21 130 15 0 15 -2 1 -24z m750 2 c-3 -8 -6
-5 -6 6 -1 11 2 17 5 13 3 -3 4 -12 1 -19z m104 -20 c1 -24 1 -47 0 -52 -2
-11 19 -36 30 -36 5 0 9 10 9 22 0 29 6 20 13 -20 7 -33 6 -33 -26 -30 -29 3
-32 7 -35 38 -2 19 -8 38 -14 41 -11 7 0 79 13 79 5 0 10 -19 10 -42z m234
-23 c6 -51 11 -66 26 -70 33 -11 21 -25 -21 -25 -37 0 -40 2 -30 19 6 13 7 28
1 45 -11 26 -3 96 10 96 4 0 11 -29 14 -65z m48 33 c-8 -44 -10 -45 -15 -4 -3
25 0 36 9 36 9 0 11 -10 6 -32z m56 -50 c0 -68 -2 -78 -11 -58 -15 37 -10 140
8 140 2 0 4 -37 3 -82z m161 5 c-7 -23 -8 -18 -8 27 0 45 1 50 8 28 5 -16 5
-40 0 -55z m-3010 58 c0 -5 -4 -21 -10 -35 -6 -17 -6 -26 0 -26 6 0 10 5 10
12 0 6 14 -2 31 -19 16 -18 40 -33 52 -35 26 -4 34 -35 14 -62 -13 -17 -18
-14 -86 51 l-73 70 23 26 c26 27 39 33 39 18z m896 -36 c-1 -25 -4 -45 -8 -45
-5 0 -8 6 -8 14 0 7 -3 28 -6 45 -5 23 -3 31 8 31 11 0 15 -12 14 -45z m64 -1
c0 -59 -24 -55 -28 4 -2 33 0 42 12 42 12 0 16 -11 16 -46z m190 15 c0 -17 5
-39 10 -50 9 -15 7 -19 -5 -19 -20 0 -37 44 -29 76 9 34 24 30 24 -7z m357
-34 c2 -38 0 -55 -7 -50 -5 3 -10 31 -10 62 0 71 11 63 17 -12z m63 5 c0 -33
-4 -60 -10 -60 -5 0 -10 10 -10 23 0 12 -3 39 -6 60 -5 30 -4 37 10 37 13 0
16 -11 16 -60z m379 33 c0 -25 -1 -26 -9 -8 -12 27 -12 35 0 35 6 0 10 -12 9
-27z m-49 -19 c0 -13 -4 -24 -10 -24 -5 0 -10 14 -10 31 0 17 4 28 10 24 6 -3
10 -17 10 -31z m547 -21 c-3 -10 -5 -4 -5 12 0 17 2 24 5 18 2 -7 2 -21 0 -30z
m1423 16 c0 -5 -4 -9 -10 -9 -5 0 -10 7 -10 16 0 8 5 12 10 9 6 -3 10 -10 10
-16z m-1750 -46 c0 -12 -4 -24 -9 -27 -5 -4 -7 -20 -5 -36 4 -25 2 -30 -16
-30 -11 0 -31 -7 -44 -16 -15 -9 -42 -14 -71 -13 -48 3 -68 -11 -58 -38 3 -7
1 -13 -5 -13 -13 0 -23 -38 -11 -46 5 -3 9 -10 9 -16 0 -15 -139 -5 -166 12
-18 11 -28 11 -62 -3 -23 -9 -48 -14 -57 -11 -12 5 -15 -3 -16 -42 0 -37 -3
-44 -9 -29 -6 13 -9 -20 -9 -92 -1 -61 -4 -119 -8 -129 -5 -13 -3 -16 10 -11
11 4 20 -1 27 -13 6 -11 22 -23 35 -26 25 -6 33 -28 15 -39 -5 -3 -7 -38 -3
-85 l6 -78 -49 -8 c-27 -4 -59 -13 -71 -21 -19 -13 -21 -21 -17 -66 6 -72 20
-100 57 -117 29 -14 33 -20 38 -75 4 -33 7 -98 8 -145 1 -79 28 -274 65 -480
18 -95 27 -128 50 -181 14 -34 14 -37 -2 -41 -32 -8 -104 0 -148 17 -47 18
-67 13 -62 -13 1 -10 -1 -22 -4 -28 -8 -12 21 -126 41 -162 15 -28 51 -52 78
-52 27 0 30 -17 6 -36 -16 -12 -15 -13 10 -4 42 15 207 13 208 -2 1 -7 2 -167
3 -355 l1 -343 -35 0 c-19 -1 -89 -16 -155 -34 -133 -37 -147 -35 -143 20 2
38 -7 53 -24 36 -7 -7 -23 -12 -37 -12 -14 0 -66 -13 -116 -29 -109 -34 -177
-51 -209 -51 -26 0 -34 -8 -66 -64 -19 -35 -21 -49 -15 -130 3 -50 2 -97 -3
-104 -12 -17 -61 -23 -83 -9 -12 8 -25 5 -50 -10 -19 -12 -62 -23 -99 -27 -36
-4 -87 -13 -115 -21 -167 -46 -209 -55 -259 -55 -51 0 -56 2 -58 23 -1 25 -8
619 -9 902 -1 105 1 620 4 1145 5 1052 3 1104 -48 1199 -16 28 -34 51 -41 51
-7 0 -15 4 -18 9 -8 13 85 12 101 -1 9 -7 17 -7 27 2 9 6 75 16 153 21 76 5
143 10 148 11 6 1 30 -2 55 -6 24 -5 168 -10 320 -12 151 -3 295 -6 320 -8
197 -17 221 -20 231 -33 8 -9 15 -10 24 -3 7 6 53 13 101 16 49 3 97 10 107
16 11 5 39 10 64 10 45 0 53 4 121 66 28 25 42 17 42 -25z m-1406 22 c3 -9 0
-15 -9 -15 -9 0 -12 6 -9 15 4 8 7 15 9 15 2 0 5 -7 9 -15z m1084 -21 c2 -23
-1 -33 -8 -29 -12 7 -14 65 -2 65 4 0 9 -16 10 -36z m154 4 c-4 -3 -20 -10
-36 -14 -22 -5 -28 -4 -24 7 3 8 13 13 22 11 9 -2 19 4 23 13 4 13 7 14 14 3
4 -7 5 -16 1 -20z m-1192 12 c0 -5 -5 -10 -11 -10 -5 0 -7 5 -4 10 3 6 8 10
11 10 2 0 4 -4 4 -10z m1447 -22 c-3 -7 -5 -2 -5 12 0 14 2 19 5 13 2 -7 2
-19 0 -25z m100 -4 c61 -58 122 -73 302 -75 64 0 138 -5 164 -10 31 -6 55 -5
67 1 10 6 21 7 23 3 6 -10 99 -8 149 2 20 4 95 2 166 -4 105 -9 143 -8 204 4
41 8 135 15 209 16 74 1 169 5 212 8 44 3 81 3 83 0 2 -3 -21 -12 -51 -19 -80
-19 -84 -26 -105 -180 -5 -36 -11 -78 -14 -95 -3 -16 -8 -183 -11 -370 -4
-350 -14 -655 -21 -667 -7 -11 -5 -808 1 -818 3 -5 8 -138 11 -297 2 -158 7
-319 9 -358 11 -169 25 -519 20 -523 -2 -3 -10 0 -17 6 -23 18 -119 42 -197
48 -42 3 -119 14 -173 25 -53 10 -118 19 -145 19 -26 0 -66 7 -88 15 -22 8
-61 14 -87 15 -48 0 -57 7 -38 26 38 38 -72 125 -250 198 -103 42 -321 113
-370 120 -80 12 -74 -17 -75 383 l0 358 120 1 c66 0 126 1 133 2 7 1 22 23 34
50 11 26 26 54 33 62 7 8 15 44 18 80 9 98 5 101 -132 96 -70 -3 -111 0 -111
6 0 6 22 34 49 64 36 40 57 76 82 141 l33 88 4 287 4 287 33 7 c18 3 42 3 53
0 29 -10 44 16 57 102 17 105 11 118 -60 127 -44 5 -54 9 -46 19 6 7 10 43 10
80 -1 40 4 72 12 82 11 13 14 11 26 -18 l14 -33 16 29 c19 36 41 203 36 274
-6 81 -17 102 -52 102 -18 0 -34 7 -40 18 -10 16 -12 16 -24 0 -11 -14 -23
-15 -87 -8 -41 5 -78 9 -82 10 -5 0 -8 11 -8 24 0 14 -5 28 -10 31 -6 4 -9 14
-8 23 3 14 -5 16 -44 14 -29 -2 -48 0 -48 7 0 5 -9 18 -19 28 -16 15 -27 73
-22 116 2 12 8 8 48 -29z m1665 4 c-6 -6 -14 -9 -17 -6 -3 3 -3 13 1 22 5 12
10 14 17 7 8 -8 8 -14 -1 -23z m-2113 -19 c-16 -10 -23 -4 -14 10 3 6 11 8 17
5 6 -4 5 -9 -3 -15z m2331 -5 c0 -18 -78 -94 -96 -94 -6 0 -48 -18 -93 -40
l-82 -40 -30 30 c-30 30 -31 50 -3 50 8 0 17 -7 20 -15 4 -8 16 -15 28 -15 20
0 20 1 -4 21 l-25 21 38 -6 c41 -5 46 0 20 21 -17 13 -16 14 7 8 58 -16 83
-18 76 -6 -5 7 4 11 28 11 20 0 36 4 36 10 0 5 10 9 22 7 34 -3 35 29 1 41
-27 10 -26 10 15 11 32 1 42 -3 42 -15z m-150 -14 c0 -5 -5 -10 -11 -10 -5 0
-7 5 -4 10 3 6 8 10 11 10 2 0 4 -4 4 -10z m-3897 -28 c-5 -14 -3 -15 8 -4 21
20 42 15 36 -9 -5 -20 -5 -20 13 -4 10 9 21 12 24 7 3 -5 -1 -15 -9 -22 -16
-13 -21 -40 -7 -40 4 0 12 10 17 22 12 27 40 35 61 17 12 -10 12 -16 -6 -46
-22 -37 -25 -53 -11 -53 5 0 15 14 23 30 7 17 16 30 20 30 14 0 9 -45 -7 -66
-21 -28 -18 -36 7 -23 l22 12 -22 -34 c-31 -49 -45 -47 -65 10 l-18 50 26 41
c30 47 13 55 -24 10 l-24 -28 -48 30 c-61 37 -65 43 -44 74 17 27 38 24 28 -4z
m2070 -72 c-4 -16 -14 -20 -44 -20 -22 0 -39 5 -39 11 0 7 10 9 25 6 18 -3 29
1 36 15 13 23 29 15 22 -12z m-109 -6 c25 -10 19 -22 -9 -16 -14 2 -25 8 -25
13 0 10 12 11 34 3z m1746 -29 c13 -14 32 -25 42 -25 22 0 21 7 3 -81 -8 -39
-17 -103 -20 -141 -2 -38 -7 -73 -10 -78 -7 -11 -55 -13 -79 -4 -23 9 -20 34
4 34 26 0 26 12 0 28 -26 16 -15 35 17 29 15 -3 22 0 20 7 -2 6 -14 12 -26 14
-15 2 -21 9 -18 20 3 17 9 18 40 7 10 -4 17 -3 17 4 0 7 -13 17 -30 22 -35 13
-37 22 -11 48 17 17 18 20 3 35 -15 15 -14 16 16 16 18 0 32 5 32 11 0 6 -8 8
-19 4 -14 -4 -23 1 -32 16 -10 20 -9 21 7 14 11 -4 30 -10 44 -13 22 -5 24 -3
11 11 -7 10 -22 17 -32 17 -11 0 -19 7 -19 15 0 22 13 18 40 -10z m-1510 -19
c0 -2 3 -11 6 -20 5 -12 -4 -14 -53 -12 -32 2 -93 4 -135 5 -122 2 -92 20 40
24 64 1 123 4 130 5 6 1 12 0 12 -2z m-2018 -99 c-39 -41 -43 -61 -4 -24 33
32 42 27 42 -24 0 -32 -3 -36 -19 -32 -13 3 -23 -2 -30 -16 -21 -38 -41 -26
-41 23 0 35 6 51 28 74 15 16 34 30 41 31 9 1 2 -13 -17 -32z m1766 -82 c0
-72 -10 -116 -22 -97 -4 7 -4 57 0 110 8 105 22 97 22 -13z m44 43 c4 -110 -1
-160 -15 -174 -4 -4 -6 47 -6 114 2 126 17 170 21 60z m42 -44 c-1 -16 -2 -44
-3 -63 0 -19 -4 -32 -7 -28 -8 8 -12 145 -5 177 4 21 6 19 11 -16 3 -23 5 -54
4 -70z m51 39 c-10 -111 -16 -143 -27 -143 -6 0 -8 10 -4 23 3 12 6 59 6 105
0 68 3 82 16 82 13 0 15 -10 9 -67z m-420 47 c-3 -5 -11 -10 -16 -10 -6 0 -7
5 -4 10 3 6 11 10 16 10 6 0 7 -4 4 -10z m45 -5 c0 -8 -2 -15 -4 -15 -2 0 -6
7 -10 15 -3 8 -1 15 4 15 6 0 10 -7 10 -15z m88 -90 c-2 -64 -8 -109 -16 -117
-13 -13 -13 -9 -17 147 -1 69 1 75 22 75 13 0 15 -15 11 -105z m80 86 c3 -8
-1 -12 -9 -9 -7 2 -15 10 -17 17 -3 8 1 12 9 9 7 -2 15 -10 17 -17z m295 -2
c13 -50 -17 -245 -34 -218 -4 7 -4 33 -1 58 4 25 7 76 7 114 0 43 4 67 11 67
7 0 14 -10 17 -21z m91 -66 c-3 -49 -6 -94 -7 -100 0 -7 -4 -13 -9 -13 -5 0
-7 30 -4 68 3 37 5 82 5 100 1 17 5 32 11 32 5 0 7 -34 4 -87z m-50 -23 c0
-14 -2 -43 -4 -65 l-3 -40 -6 40 c-3 22 -4 67 -2 100 4 53 5 56 11 25 3 -19 5
-46 4 -60z m90 -60 l-8 -45 -6 49 c-4 28 -2 73 4 100 l11 51 3 -55 c2 -30 0
-75 -4 -100z m91 118 c11 -65 11 -134 -1 -173 l-11 -40 -6 35 c-12 71 -18 170
-12 190 9 30 23 24 30 -12z m64 -83 c-1 -68 -7 -119 -13 -124 -8 -7 -10 19 -9
87 2 54 3 99 4 102 1 3 1 9 0 14 -3 12 7 36 14 36 4 0 5 -52 4 -115z m-717
-20 c-7 -39 -7 -39 -12 20 -3 33 -4 71 -1 85 8 41 20 -58 13 -105z m149 -58
c-13 -13 -15 43 -3 94 6 30 7 28 10 -25 2 -32 -2 -64 -7 -69z m-181 68 c0 -25
-4 -45 -10 -45 -11 0 -14 49 -4 74 10 26 14 18 14 -29z m152 -5 c-3 -18 -10
-30 -19 -30 -11 0 -14 6 -9 23 3 12 6 30 6 41 0 14 3 16 13 7 8 -6 12 -23 9
-41z m248 -5 l-7 -50 -2 46 c0 25 2 49 6 52 10 11 11 5 3 -48z m-1910 37 c0
-5 -7 -17 -15 -28 -8 -10 -15 -22 -15 -26 0 -14 40 -9 41 5 0 9 2 9 5 0 3 -7
0 -21 -6 -33 -9 -16 -8 -25 1 -37 11 -13 10 -17 -5 -28 -10 -8 -24 -11 -32 -8
-9 3 -14 -2 -14 -16 0 -16 6 -21 27 -21 32 0 20 -14 -18 -24 l-27 -6 -4 78
c-5 76 1 98 36 139 13 14 26 17 26 5z m1409 -52 l-1 -35 -8 30 c-4 17 -8 39
-9 50 -1 16 1 17 9 5 5 -8 9 -31 9 -50z m721 -74 c-11 -11 -12 42 -1 104 5 29
6 24 9 -29 2 -36 -2 -69 -8 -75z m-784 47 c-10 -10 -19 5 -10 18 6 11 8 11 12
0 2 -7 1 -15 -2 -18z m160 -55 c-4 -13 -9 -48 -12 -78 -9 -85 -23 -96 -21 -15
2 63 18 115 34 115 3 0 2 -10 -1 -22z m248 -68 c4 -47 11 -103 16 -124 9 -41
6 -56 -11 -56 -6 0 -7 5 -4 10 9 14 -14 160 -30 190 -11 20 -10 28 4 46 9 12
17 21 17 21 1 -1 4 -40 8 -87z m-211 35 c-15 -12 -18 -11 -21 1 -2 8 2 22 9
30 11 14 14 13 22 -1 6 -12 4 -20 -10 -30z m1999 -46 l3 -81 -35 -17 c-19 -10
-43 -16 -52 -13 -24 5 -23 32 1 32 25 0 51 10 51 20 0 4 -17 7 -37 6 -36 -1
-38 1 -41 31 -3 30 -1 32 35 35 44 4 43 23 -2 23 -23 0 -31 5 -33 23 -3 20 0
22 52 22 l54 0 4 -81z m-1472 51 c0 -11 5 -20 10 -20 6 0 10 -7 10 -16 0 -11
6 -14 20 -9 23 7 28 -13 5 -21 -8 -4 -25 6 -39 23 -26 28 -34 63 -16 63 6 0
10 -9 10 -20z m-238 -40 c3 -54 -4 -91 -15 -73 -14 23 -24 91 -15 107 16 29
26 17 30 -34z m-157 6 c16 -24 36 -115 39 -171 l1 -30 -95 0 -95 0 -3 29 c-7
58 9 116 40 152 17 19 37 33 44 30 7 -3 16 -1 19 4 11 17 34 11 50 -14z m340
-17 c9 -16 15 -56 15 -94 l0 -65 -55 0 c-30 0 -55 2 -55 4 0 20 33 156 41 173
14 27 35 20 54 -18z m-593 -52 c-2 -37 -8 -65 -13 -61 -10 6 -12 104 -3 129
12 31 20 0 16 -68z m-1402 33 c0 -5 -11 -17 -25 -26 -30 -20 -33 -38 -4 -29
17 6 20 3 17 -12 -2 -10 -13 -19 -26 -21 -12 -2 -22 -8 -22 -13 0 -5 -4 -9
-10 -9 -5 0 -10 22 -10 48 0 45 2 48 33 59 44 14 47 14 47 3z m1890 -10 c0 -5
-4 -10 -10 -10 -5 0 -10 5 -10 10 0 6 5 10 10 10 6 0 10 -4 10 -10z m257 -42
c-3 -7 -5 -2 -5 12 0 14 2 19 5 13 2 -7 2 -19 0 -25z m-89 -33 c-3 -3 -9 2
-12 12 -6 14 -5 15 5 6 7 -7 10 -15 7 -18z m-241 -37 c-2 -13 -4 -5 -4 17 -1
22 1 32 4 23 2 -10 2 -28 0 -40z m1707 -398 c-6 -691 -15 -1253 -19 -1261 -3
-4 -5 -75 -6 -159 0 -136 -2 -153 -20 -171 -27 -27 -59 -25 -59 5 0 18 7 25
30 30 17 3 30 11 30 17 0 7 -12 10 -30 7 -24 -4 -30 -1 -30 14 0 10 4 18 8 18
5 0 17 7 28 16 18 15 18 15 -8 11 -22 -3 -27 0 -31 21 -7 37 2 52 29 52 15 0
24 6 24 16 0 12 -7 14 -30 9 l-30 -7 0 56 0 56 36 0 c29 0 35 3 30 16 -3 9 -6
23 -6 31 0 12 -7 14 -30 10 -27 -6 -30 -4 -30 17 0 16 8 26 23 31 l22 7 -24 7
c-33 9 -38 29 -9 33 25 3 23 23 -2 23 -8 0 -16 8 -18 18 -2 12 3 17 17 17 12
0 21 5 21 10 0 6 -9 10 -21 10 -36 0 -18 33 24 45 21 6 38 15 37 20 -1 11 -23
11 -57 0 -19 -6 -23 -4 -23 14 0 14 6 21 18 21 11 0 26 8 35 18 15 16 14 17
-13 17 -35 0 -41 19 -8 23 41 6 44 22 5 22 -44 0 -48 12 -9 30 25 12 26 13 7
21 -19 8 -19 8 3 15 23 7 29 19 13 29 -5 3 -12 1 -16 -5 -14 -22 -35 -10 -35
21 0 27 3 30 27 27 16 -2 28 2 31 11 3 9 -2 11 -17 6 -23 -7 -55 11 -45 26 3
5 15 9 28 9 31 0 39 11 18 26 -15 11 -14 13 11 19 15 4 27 12 27 17 0 6 -11 7
-27 3 -46 -11 -47 -11 -51 13 -3 19 1 22 32 22 19 0 38 5 41 10 7 11 -4 13
-49 10 -37 -2 -31 24 7 28 36 4 34 22 -2 22 -30 0 -45 19 -35 44 3 8 13 12 23
9 14 -4 18 2 19 26 1 26 -3 31 -24 31 -17 0 -24 5 -24 20 0 16 7 20 36 20 45
0 41 20 -6 36 -21 7 -29 14 -21 18 9 6 9 11 1 21 -15 18 -4 35 21 35 10 0 19
5 19 11 0 7 -10 9 -26 5 -22 -6 -25 -4 -22 16 2 15 11 24 26 26 26 4 20 22 -9
22 -10 0 -19 5 -19 11 0 7 10 9 25 7 30 -6 34 7 5 15 -23 6 -27 35 -5 43 8 4
15 10 15 15 0 5 -7 9 -15 9 -31 0 -15 29 20 36 19 3 32 10 30 15 -3 4 -19 6
-35 2 -29 -5 -30 -5 -30 36 0 43 14 56 23 21 5 -21 31 -27 42 -11 11 19 -18
61 -42 61 -18 0 -24 5 -21 17 2 11 12 18 27 18 13 0 26 6 29 14 4 11 -2 13
-27 8 -24 -5 -31 -3 -28 6 2 6 10 11 18 9 21 -5 60 8 54 18 -3 6 -22 10 -41
10 -43 0 -45 18 -1 22 17 2 30 8 27 13 -3 6 -17 9 -32 7 -31 -4 -32 -3 -18 32
7 21 16 26 42 26 25 0 29 3 18 10 -8 5 -25 10 -38 10 -17 0 -22 5 -20 18 3 12
12 16 31 15 32 -2 37 14 5 19 -38 5 -30 23 19 45 44 19 49 19 55 4 3 -9 4
-198 2 -421z m-1369 401 c-3 -12 -10 -21 -15 -21 -4 0 -3 11 3 24 14 29 22 27
12 -3z m-53 -13 c-7 -7 -12 -8 -12 -2 0 14 12 26 19 19 2 -3 -1 -11 -7 -17z
m-2102 -9 c0 -11 -14 -28 -32 -39 l-33 -20 -7 32 c-8 41 -7 43 36 45 30 1 36
-2 36 -18z m1450 1 c0 -11 -7 -20 -15 -20 -18 0 -19 12 -3 28 16 16 18 15 18
-8z m533 -39 c50 -1 67 -21 18 -21 -49 0 -121 12 -116 20 2 4 15 6 27 5 13 -1
44 -3 71 -4z m-1983 -26 c0 -8 -14 -24 -32 -35 l-32 -19 27 -10 c24 -9 27 -15
21 -38 -10 -39 -13 -43 -34 -40 -30 5 -33 12 -26 70 6 43 12 56 34 70 34 21
42 21 42 2z m1670 -19 c0 -2 -7 -7 -16 -10 -8 -3 -12 -2 -9 4 6 10 25 14 25 6z
m183 -3 c-7 -2 -21 -2 -30 0 -10 3 -4 5 12 5 17 0 24 -2 18 -5z m361 -3 c35
-13 37 -60 3 -60 -12 0 -30 9 -40 20 -9 11 -27 20 -39 20 -28 0 -12 17 22 23
14 2 26 5 27 6 1 0 13 -3 27 -9z m-594 -19 c0 -4 -15 -5 -32 -2 -32 4 -32 5
-8 11 26 7 40 4 40 -9z m364 -11 c-25 -10 -125 -11 -169 -2 l-30 6 35 6 c53 8
190 0 164 -10z m161 -19 c-6 -5 -34 -11 -63 -13 -52 -5 -61 6 -12 15 46 8 84
7 75 -2z m-292 -272 c1 -167 -12 -277 -33 -264 -4 2 -8 39 -9 82 0 43 -4 137
-7 209 -6 116 -5 132 11 148 11 10 21 14 27 8 5 -5 10 -87 11 -183z m-165 166
c2 -2 4 -108 5 -236 2 -222 1 -238 -21 -301 -13 -37 -28 -71 -34 -74 -5 -3
-25 9 -44 27 -25 24 -41 55 -64 129 -31 98 -37 170 -32 387 2 70 3 72 30 76
26 4 153 -3 160 -8z m99 -22 c-3 -21 -1 -130 2 -243 4 -113 5 -224 3 -248 l-4
-43 -15 27 c-21 42 -32 522 -12 535 25 16 30 10 26 -28z m255 3 c5 -43 -8
-171 -32 -311 -10 -60 -22 -128 -25 -150 -7 -45 -39 -89 -72 -99 l-23 -7 6
153 c3 84 7 167 8 183 1 17 3 83 4 148 l2 117 64 0 64 0 4 -34z m-652 -3 c0
-22 -2 -25 -10 -13 -13 20 -13 40 0 40 6 0 10 -12 10 -27z m46 15 c5 -7 11
-94 15 -193 8 -190 23 -277 65 -377 13 -31 23 -72 23 -90 -1 -21 -3 -26 -6
-13 -3 11 -25 64 -50 119 -24 54 -46 115 -49 135 -2 20 -6 52 -9 71 -18 114
-23 227 -15 312 5 48 12 58 26 36z m694 -25 c-1 -115 -68 -431 -97 -455 -17
-13 -16 4 10 162 20 122 37 257 37 298 0 27 4 32 25 32 22 0 25 -4 25 -37z
m-2150 -28 c0 -8 -4 -15 -10 -15 -5 0 -10 -11 -10 -25 0 -18 -5 -25 -20 -25
-26 0 -28 54 -2 69 25 15 42 13 42 -4z m-5 -86 c8 -12 -23 -49 -42 -49 -7 0
-13 11 -13 26 0 14 4 23 9 19 5 -3 12 -1 16 5 8 13 22 13 30 -1z m42 -11 c-3
-8 -6 -5 -6 6 -1 11 2 17 5 13 3 -3 4 -12 1 -19z m-37 -55 c0 -20 -7 -31 -25
-40 -37 -17 -42 4 -9 38 15 16 29 29 31 29 2 0 3 -12 3 -27z m0 -90 c0 -16 -7
-40 -14 -55 -9 -16 -11 -30 -5 -33 5 -4 9 -26 9 -51 0 -32 -4 -44 -14 -44 -24
0 -30 -21 -7 -27 28 -7 29 -53 1 -71 -24 -14 -26 -32 -5 -32 18 0 20 -21 3
-38 -9 -9 -9 -15 0 -24 7 -7 12 -22 12 -35 0 -18 -6 -23 -27 -23 l-26 0 7 217
c3 119 7 217 9 218 11 8 43 24 50 25 4 0 7 -12 7 -27z m1358 -93 c0 -32 -1
-33 -8 -10 -4 14 -8 48 -8 75 l0 50 9 -40 c4 -22 8 -56 7 -75z m816 -27 c-4
-77 -12 -151 -20 -168 -12 -27 -12 -24 -8 40 3 39 10 97 15 130 5 33 9 77 9
98 0 20 2 37 5 37 3 0 3 -62 -1 -137z m-750 -125 c9 -35 21 -72 25 -83 41 -98
40 -104 -2 -39 -24 36 -36 67 -40 105 -3 30 -9 63 -13 73 -5 12 -4 17 3 13 6
-4 18 -35 27 -69z m600 -93 c-13 -39 -27 -76 -30 -84 -2 -8 -7 -11 -10 -8 -6
5 29 114 48 150 20 39 16 8 -8 -58z m-294 61 c0 -3 -4 -8 -10 -11 -5 -3 -10
-1 -10 4 0 6 5 11 10 11 6 0 10 -2 10 -4z m88 -103 c-3 -97 -5 -108 -22 -111
-14 -3 -17 0 -13 12 4 9 2 39 -3 68 -8 42 -7 54 5 68 8 9 15 29 15 43 0 15 5
27 10 27 7 0 10 -38 8 -107z m-204 -33 l7 -35 -20 35 c-11 19 -20 46 -20 60
l0 25 13 -25 c8 -14 17 -41 20 -60z m260 28 c-8 -74 -22 -93 -19 -27 3 75 4
79 15 79 5 0 7 -22 4 -52z m41 6 c-13 -89 -18 -104 -35 -104 -6 0 -6 9 -1 23
5 12 12 46 16 75 4 28 11 52 17 52 7 0 8 -17 3 -46z m43 -4 c-11 -42 -28 -54
-28 -19 0 24 17 59 29 59 5 0 4 -18 -1 -40z m130 0 c-6 -23 -12 -39 -14 -37
-6 6 9 77 16 77 4 0 3 -18 -2 -40z m-328 -31 c0 -37 -4 -58 -10 -54 -5 3 -10
31 -10 61 0 30 5 54 10 54 6 0 10 -27 10 -61z m1630 -74 c0 -69 -4 -125 -9
-125 -12 0 -18 88 -13 178 7 118 22 82 22 -53z m-1726 6 c-8 -8 -12 4 -17 59
l-6 55 14 -55 c8 -30 12 -56 9 -59z m43 36 c-2 -7 -10 0 -17 15 -7 15 -9 35
-5 45 6 15 9 12 17 -15 5 -19 7 -39 5 -45z m-266 -2 c19 -41 19 -65 0 -65 -7
0 -18 30 -37 99 -10 38 14 16 37 -34z m529 -25 c-12 -22 -40 -24 -48 -2 -2 7
2 10 11 7 7 -3 20 1 27 10 18 21 24 12 10 -15z m-2016 -11 c-20 -22 -11 -38
11 -19 16 14 18 10 15 -35 -1 -19 -11 -38 -27 -51 -28 -24 -16 -42 17 -24 18
9 20 8 20 -15 0 -16 -6 -25 -15 -25 -20 0 -19 -17 1 -28 24 -14 13 -55 -18
-70 -16 -7 -28 -17 -28 -22 0 -15 21 -23 33 -11 17 17 27 13 27 -11 -1 -25
-22 -58 -37 -58 -6 0 -16 -7 -23 -15 -10 -13 -9 -15 8 -15 12 0 24 5 28 12 10
16 26 -30 19 -53 -3 -10 -15 -21 -26 -24 -10 -4 -17 -11 -13 -16 3 -5 14 -7
25 -4 15 5 19 1 19 -17 0 -30 -11 -45 -35 -49 -28 -6 -19 -24 11 -22 21 2 24
-2 24 -33 0 -26 -8 -44 -30 -66 -33 -32 -32 -50 0 -30 27 17 30 15 30 -13 0
-19 -9 -29 -35 -42 -57 -27 -42 -43 18 -18 14 6 17 1 17 -30 0 -28 -6 -42 -25
-57 -14 -11 -25 -26 -25 -35 0 -13 3 -13 15 -3 9 7 18 10 21 7 8 -8 -15 -31
-39 -40 -10 -4 -15 -11 -12 -17 10 -16 33 -12 44 7 8 15 10 14 16 -10 10 -36
-4 -49 -46 -45 l-34 3 2 400 c1 220 5 450 9 511 l6 111 24 -5 c24 -4 24 -5 8
-23z m1975 -56 c17 -10 30 -25 28 -33 -2 -12 -21 -15 -102 -15 -55 0 -135 -4
-177 -9 -101 -11 -142 -3 -156 30 -16 33 -15 34 8 34 11 0 20 -4 20 -9 0 -4
60 -7 133 -5 157 4 183 7 193 17 11 10 19 9 53 -10z m-599 -123 c0 -13 -11
-13 -30 0 -12 8 -11 10 8 10 12 0 22 -4 22 -10z m96 -33 c7 -20 10 -37 6 -37
-17 1 -29 17 -35 48 -9 46 12 38 29 -11z m53 17 c24 -27 22 -54 -4 -54 -16 0
-19 5 -29 53 -8 34 4 35 33 1z m282 -17 c5 -35 4 -37 -15 -31 -26 8 -37 24
-31 42 3 8 5 18 5 24 0 5 8 8 17 6 12 -2 20 -16 24 -41z m49 24 c0 -11 -4 -23
-10 -26 -5 -3 -10 -2 -10 4 0 5 -3 16 -6 25 -4 11 -1 16 10 16 9 0 16 -8 16
-19z m-144 -7 c-3 -9 -6 -23 -6 -31 0 -22 -6 -14 -14 20 -5 21 -3 27 10 27 11
0 14 -5 10 -16z m212 -18 c3 -20 0 -27 -10 -24 -7 3 -14 17 -16 32 -3 20 0 27
10 24 7 -3 14 -17 16 -32z m266 18 c11 -30 6 -42 -24 -53 -24 -8 -30 -7 -30 4
0 7 -8 15 -17 17 -16 3 -15 6 5 26 26 26 57 29 66 6z m-204 -14 c0 -11 -2 -20
-4 -20 -2 0 -11 -3 -20 -6 -11 -4 -16 0 -16 13 0 23 8 33 27 33 7 0 13 -9 13
-20z m94 -5 c-6 -16 -24 -21 -24 -7 0 11 11 22 21 22 5 0 6 -7 3 -15z m-334
-26 c0 -5 -4 -9 -10 -9 -5 0 -10 7 -10 16 0 8 5 12 10 9 6 -3 10 -10 10 -16z
m1687 -56 c-3 -10 -5 -4 -5 12 0 17 2 24 5 18 2 -7 2 -21 0 -30z m-1517 7 c0
-5 -4 -10 -10 -10 -5 0 -10 5 -10 10 0 6 5 10 10 10 6 0 10 -4 10 -10z m1524
-74 c-5 -13 -9 -14 -14 -5 -11 16 0 43 12 31 5 -5 6 -17 2 -26z m-1651 -73
c-5 -67 -13 -84 -13 -27 0 21 -3 49 -6 62 -5 15 -2 22 8 22 12 0 14 -12 11
-57z m113 -10 c13 -98 8 -493 -7 -527 -5 -14 -8 19 -7 94 0 63 -3 199 -7 303
-5 130 -4 187 3 187 6 0 14 -26 18 -57z m-166 7 c0 -22 -4 -40 -9 -40 -6 0 -8
12 -7 28 2 15 4 33 5 40 3 29 11 8 11 -28z m97 -22 c-3 -8 -6 -5 -6 6 -1 11 2
17 5 13 3 -3 4 -12 1 -19z m1613 -39 c0 -11 -4 -17 -10 -14 -5 3 -10 15 -10
26 0 11 5 17 10 14 6 -3 10 -15 10 -26z m-1608 -31 c9 -111 8 -518 -1 -518
-15 0 -21 47 -21 175 0 66 0 140 -1 165 -3 110 2 230 10 230 5 0 11 -24 13
-52z m-95 -165 c11 -377 11 -388 -12 -388 -13 0 -19 6 -17 15 2 8 3 138 2 288
-1 247 2 303 17 288 3 -2 7 -94 10 -203z m1768 107 c3 -5 -1 -10 -9 -10 -9 0
-16 5 -16 10 0 6 4 10 9 10 6 0 13 -4 16 -10z m-55 -207 c0 -34 -3 -44 -10
-33 -11 18 -10 80 2 80 4 0 8 -21 8 -47z m-3 -125 c-3 -8 -6 -5 -6 6 -1 11 2
17 5 13 3 -3 4 -12 1 -19z m103 -75 c1 -10 3 -72 6 -138 4 -101 8 -576 5 -697
-1 -25 -6 -38 -15 -38 -7 0 -19 -7 -26 -15 -7 -8 -19 -15 -26 -15 -20 0 -17
27 6 50 16 16 17 20 4 20 -12 0 -14 9 -12 38 2 30 7 38 26 40 31 5 27 19 -8
27 -38 8 -38 17 0 48 30 26 30 37 -2 32 -26 -5 -24 42 2 50 28 9 25 25 -5 25
-18 0 -25 5 -25 19 0 10 7 21 15 25 21 8 19 23 -5 29 -25 6 -17 31 19 65 l26
23 -32 -6 c-32 -6 -33 -5 -33 25 0 27 3 30 20 25 12 -4 26 0 35 9 23 23 18 28
-20 20 -28 -5 -35 -3 -35 10 0 9 11 21 25 26 14 5 25 15 25 21 0 7 -9 9 -25 5
-22 -6 -25 -3 -25 20 0 19 4 25 15 20 21 -8 45 3 45 20 0 10 -9 14 -27 12 -24
-3 -28 1 -31 24 -3 23 0 27 22 25 32 -3 35 16 4 23 -18 5 -24 14 -26 43 -3 37
-2 38 37 41 24 2 24 24 0 28 -31 4 -35 25 -7 31 43 8 48 7 48 -10z m-3544 -49
c11 4 14 -4 14 -34 0 -21 -4 -42 -10 -45 -5 -3 -10 3 -10 14 0 35 -17 23 -24
-16 -15 -88 -14 -96 22 -105 27 -7 32 -13 32 -39 0 -29 -1 -30 -22 -15 -30 22
-48 20 -48 -4 0 -17 7 -20 40 -20 39 0 40 -1 40 -34 0 -36 -15 -48 -49 -39
-12 3 -21 1 -21 -6 0 -14 48 -34 61 -25 5 3 9 -11 9 -30 0 -37 -17 -57 -31
-35 -11 19 -22 5 -14 -20 3 -11 15 -23 26 -26 25 -8 15 -25 -17 -25 -29 0 -31
-15 -5 -30 14 -7 22 -7 27 1 4 8 9 8 18 -1 14 -14 -8 -30 -41 -30 -19 0 -23
-6 -23 -29 0 -33 16 -49 33 -32 15 15 37 14 37 -3 0 -8 -13 -20 -30 -28 -16
-7 -30 -17 -30 -21 0 -5 14 -6 30 -2 23 5 30 3 30 -9 0 -9 1 -19 3 -23 1 -4
-13 -11 -31 -15 -40 -11 -32 -32 9 -23 27 6 29 5 29 -24 0 -30 -13 -41 -25
-21 -9 15 -35 12 -35 -4 0 -7 7 -19 15 -26 12 -10 18 -10 30 0 13 11 15 9 15
-13 0 -27 -22 -41 -51 -32 -9 3 -20 1 -24 -5 -7 -11 39 -32 64 -28 11 2 17 -5
19 -22 3 -24 1 -25 -38 -22 -25 3 -40 0 -40 -7 0 -6 6 -12 13 -13 6 0 17 -2
22 -3 6 -2 18 -3 28 -4 11 -1 17 -9 17 -26 0 -20 -5 -25 -25 -25 -32 0 -32
-18 -1 -30 33 -12 25 -60 -11 -60 -30 0 -26 -24 5 -28 28 -4 31 -42 3 -42 -31
0 -35 -19 -6 -26 30 -7 28 -28 -3 -32 -29 -4 -30 -42 -1 -42 11 0 17 -4 14
-10 -4 -6 -15 -8 -26 -5 -27 9 -25 -19 4 -33 21 -10 20 -11 -10 -11 -34 -1
-41 -9 -22 -28 18 -18 1 -53 -26 -53 -29 0 -41 -16 -25 -35 17 -20 -4 -45 -36
-45 -19 0 -24 -5 -24 -24 0 -16 -7 -26 -22 -31 -14 -4 -18 -8 -10 -12 6 -2 12
-18 12 -34 0 -26 -4 -29 -30 -29 -37 0 -38 -12 -4 -39 29 -23 27 -51 -4 -51
-11 0 -25 -6 -31 -14 -10 -11 -8 -16 8 -21 15 -4 21 -15 21 -36 0 -35 -3 -36
-32 -7 -26 26 -39 7 -14 -21 9 -10 14 -25 11 -34 -4 -8 -2 -18 4 -22 21 -12
11 -25 -19 -25 -37 0 -38 -14 -5 -36 14 -9 25 -25 25 -35 0 -22 -32 -39 -38
-21 -5 17 -32 15 -32 -3 0 -8 11 -24 24 -37 22 -20 24 -28 17 -66 -10 -50 -17
-60 -33 -44 -7 7 -21 12 -31 12 -18 0 -18 5 -12 73 4 39 12 83 17 97 9 23 44
186 55 255 11 73 48 162 82 201 61 69 134 194 141 241 4 23 5 45 2 47 -2 3 -6
62 -8 133 -6 201 -14 334 -20 344 -4 7 -8 723 -4 757 0 1 9 -2 21 -8 11 -7 27
-9 35 -6z m56 -36 c-5 -71 -10 -77 -11 -15 0 31 2 57 7 57 4 0 6 -19 4 -42z
m1834 -5 c-10 -10 -19 5 -10 18 6 11 8 11 12 0 2 -7 1 -15 -2 -18z m-696 -48
c0 -8 -4 -15 -10 -15 -5 0 -7 7 -4 15 4 8 8 15 10 15 2 0 4 -7 4 -15z m395 5
c3 -5 17 -10 31 -10 15 0 24 -6 24 -15 0 -25 29 -17 36 10 7 30 24 33 24 6 0
-11 5 -23 10 -26 6 -4 10 5 10 19 0 22 5 26 29 26 21 0 28 -5 27 -17 0 -10 5
-17 12 -15 7 1 12 -8 12 -22 0 -13 7 -27 16 -30 26 -10 29 1 11 39 -21 43 -21
45 -2 45 8 0 21 -13 30 -30 9 -16 19 -30 24 -30 13 0 22 28 10 35 -5 4 -6 11
-3 17 4 7 10 5 15 -5 7 -12 16 -14 40 -7 29 9 49 5 165 -31 17 -5 38 -9 47 -9
10 0 17 -8 17 -20 0 -11 7 -20 15 -20 8 0 15 5 15 10 0 11 47 3 65 -10 6 -4
27 -10 48 -14 21 -4 40 -13 43 -21 3 -7 20 -16 38 -19 34 -6 130 -92 120 -107
-8 -14 -34 -10 -34 5 0 8 -12 18 -27 24 -16 5 -41 23 -58 40 -33 33 -109 70
-103 50 3 -7 20 -20 39 -31 19 -10 41 -26 49 -35 8 -9 27 -25 43 -35 32 -21
35 -37 7 -37 -11 0 -20 5 -20 10 0 6 -6 10 -12 10 -7 0 -49 34 -93 75 -78 73
-95 85 -95 66 0 -9 48 -58 85 -85 16 -12 17 -15 4 -16 -8 0 -31 16 -50 36 -35
38 -101 84 -119 84 -24 0 -8 -37 23 -52 18 -9 44 -25 57 -36 14 -12 47 -39 73
-62 50 -41 67 -49 67 -28 0 9 3 9 12 0 16 -16 4 -25 -32 -25 -18 0 -38 9 -53
24 -50 52 -112 99 -131 99 -17 0 -1 -21 37 -46 101 -69 120 -94 72 -94 -14 0
-36 11 -48 24 -12 13 -46 49 -75 80 -51 55 -82 71 -82 41 0 -8 11 -17 24 -21
19 -4 106 -102 106 -118 0 -2 -11 -6 -25 -8 -27 -6 -53 14 -90 65 -11 16 -34
37 -51 47 -17 11 -43 31 -58 45 -16 14 -31 24 -34 21 -3 -3 7 -43 21 -89 15
-46 27 -88 27 -94 0 -6 -16 -13 -35 -15 -33 -4 -46 4 -26 17 6 3 6 18 0 38 -6
17 -11 53 -13 80 -3 44 -10 66 -21 56 -2 -3 1 -37 7 -77 10 -71 6 -101 -12
-73 -4 8 -9 39 -10 70 -3 114 -5 126 -19 126 -12 0 -15 -15 -14 -70 0 -38 -3
-75 -8 -81 -5 -6 -4 -26 1 -45 13 -43 13 -41 -7 -37 -13 2 -17 15 -19 58 -1
30 -2 73 -3 95 -1 26 -10 51 -25 70 l-23 29 9 -59 c5 -33 13 -82 17 -110 11
-61 -1 -90 -29 -75 -13 7 -17 17 -13 37 13 78 14 101 4 107 -6 4 -17 4 -23 -1
-7 -4 -23 -6 -35 -4 -16 1 -23 -3 -23 -13 0 -9 8 -16 20 -16 21 0 26 -16 11
-39 -6 -9 -11 -10 -15 -2 -13 20 -26 11 -42 -29 -9 -22 -22 -40 -30 -40 -20 0
-17 21 6 50 21 27 25 40 11 40 -5 0 -14 -14 -21 -31 -13 -31 -56 -67 -67 -56
-3 3 4 22 15 42 12 19 17 35 12 35 -6 0 -10 -4 -10 -10 0 -5 -13 -23 -30 -40
-24 -24 -38 -30 -72 -30 -73 0 -77 12 -21 66 27 27 58 55 68 62 20 13 20 13 0
7 -11 -4 -26 -9 -32 -12 -7 -3 -13 2 -13 11 0 9 -3 16 -6 16 -10 0 -97 -64
-133 -98 -39 -36 -63 -45 -112 -40 l-33 3 52 53 c62 61 51 69 -17 14 -50 -42
-81 -54 -102 -41 -8 5 -9 9 -3 9 6 0 27 13 45 30 19 16 41 30 50 30 25 0 69
24 69 38 0 17 -5 16 -58 -15 -26 -14 -60 -33 -75 -42 -16 -9 -38 -22 -50 -28
-26 -15 -47 -16 -66 -4 -10 7 1 18 43 45 31 20 65 36 76 36 11 0 20 4 20 10 0
5 11 12 25 16 14 3 25 10 25 15 0 5 6 9 13 9 7 0 21 15 31 34 15 28 28 36 79
51 34 10 68 23 75 28 6 5 12 7 12 4 0 -3 24 1 53 8 65 16 124 18 132 5z m-475
-10 c-8 -5 -22 -9 -30 -9 -10 0 -8 3 5 9 27 12 43 12 25 0z m-60 -20 c-8 -5
-24 -10 -35 -10 -17 0 -17 2 -5 10 8 5 24 10 35 10 17 0 17 -2 5 -10z m-1040
-20 c0 -5 -4 -10 -9 -10 -6 0 -13 5 -16 10 -3 6 1 10 9 10 9 0 16 -4 16 -10z
m935 -15 c-16 -8 -39 -14 -50 -14 -18 0 -17 1 5 14 14 8 36 14 50 14 24 -1 24
-1 -5 -14z m120 -4 c-11 -5 -38 -11 -60 -14 l-40 -6 35 14 c19 7 46 14 60 14
22 0 23 -1 5 -8z m80 -20 c-11 -10 -58 -35 -104 -55 -46 -20 -100 -50 -120
-66 -19 -17 -39 -30 -43 -30 -5 0 -8 17 -8 39 0 36 3 39 43 55 23 9 48 16 55
16 18 0 146 42 157 52 5 4 16 8 24 8 12 0 11 -4 -4 -19z m238 -171 c-43 -46
-73 -63 -73 -41 0 16 84 91 103 91 13 0 5 -13 -30 -50z m1182 40 c3 -5 2 -10
-4 -10 -5 0 -13 5 -16 10 -3 6 -2 10 4 10 5 0 13 -4 16 -10z m-561 -52 c18
-36 20 -48 7 -48 -11 0 -41 57 -41 77 0 21 17 7 34 -29z m60 -1 c31 -40 33
-57 7 -57 -12 0 -23 11 -29 28 -5 15 -13 35 -17 45 -12 29 12 19 39 -16z
m-418 -34 c-10 -10 -19 5 -10 18 6 11 8 11 12 0 2 -7 1 -15 -2 -18z m932 10
c-2 -10 -10 -18 -18 -18 -8 0 -16 8 -18 18 -2 12 3 17 18 17 15 0 20 -5 18
-17z m-878 -8 c0 -15 -26 -32 -36 -23 -2 3 -2 13 2 22 8 20 34 21 34 1z m810
-5 c0 -25 -25 -36 -45 -20 -20 16 -19 28 3 33 34 9 42 7 42 -13z m-80 -25 c0
-18 -5 -25 -20 -25 -11 0 -20 4 -20 9 0 5 -3 16 -6 25 -5 12 0 16 20 16 21 0
26 -5 26 -25z m-1440 -14 c14 -27 13 -30 -8 -24 -10 2 -18 13 -19 24 -2 25 13
25 27 0z m1364 3 c11 -30 7 -42 -14 -37 -13 3 -20 14 -20 29 0 27 24 33 34 8z
m-1156 -29 c2 -40 -12 -45 -39 -13 -24 26 -24 35 -1 41 35 9 39 6 40 -28z m58
-10 c0 -21 -4 -34 -10 -32 -6 2 -11 10 -11 18 0 8 -4 20 -8 27 -10 15 0 33 16
26 7 -2 12 -20 13 -39z m87 -12 c8 -40 -11 -45 -43 -11 -25 27 -26 55 -2 61
23 5 38 -11 45 -50z m823 30 c-10 -10 -19 5 -10 18 6 11 8 11 12 0 2 -7 1 -15
-2 -18z m124 -6 c0 -25 -6 -37 -22 -46 -27 -14 -160 -32 -169 -22 -4 3 -9 25
-13 49 -6 41 -6 43 15 32 16 -9 20 -19 17 -41 -4 -23 -1 -29 13 -29 10 0 21 5
24 10 3 6 17 10 31 10 15 0 24 6 24 15 0 8 5 15 10 15 6 0 10 -6 10 -14 0 -22
19 -29 36 -15 10 8 12 15 4 23 -15 15 -12 46 5 46 10 0 15 -10 15 -33z m-894
-12 c5 -38 -2 -56 -18 -50 -8 3 -12 20 -12 43 2 46 2 44 15 40 7 -2 13 -17 15
-33z m78 13 c3 -13 6 -35 6 -49 0 -23 -3 -25 -30 -21 -16 2 -30 10 -30 17 0 7
-3 27 -6 44 -6 29 -5 31 24 31 22 0 31 -5 36 -22z m50 10 c3 -7 7 -30 10 -50
4 -31 2 -38 -12 -38 -13 0 -18 11 -20 50 -2 31 1 50 8 50 6 0 12 -6 14 -12z
m126 -49 c0 -48 -5 -56 -25 -41 -24 17 -9 112 16 97 5 -4 9 -28 9 -56z m400
-12 c0 -31 -3 -38 -17 -35 -24 4 -36 49 -23 84 11 28 12 28 26 10 8 -11 14
-37 14 -59z m-1272 47 c11 -9 -64 -34 -102 -34 -24 0 -65 -9 -91 -20 -26 -11
-71 -23 -101 -26 -55 -7 -74 -18 -58 -34 9 -9 64 6 156 42 26 10 63 18 83 18
20 0 56 5 80 11 63 16 76 6 27 -21 -23 -13 -42 -28 -42 -32 0 -5 -4 -6 -10 -3
-5 3 -10 -3 -10 -13 0 -24 23 -34 56 -26 29 7 30 13 7 30 -17 11 -16 13 10 23
15 6 41 21 57 33 43 31 51 12 10 -23 -35 -29 -34 -29 32 6 98 51 133 46 58 -9
-38 -28 -39 -30 -20 -43 22 -16 60 -9 60 11 0 15 42 36 71 36 11 0 22 6 25 14
4 11 12 13 31 5 13 -5 29 -7 34 -3 13 8 11 -10 -3 -25 -11 -11 -6 -12 27 -6
64 10 139 11 153 1 8 -5 44 -11 80 -13 37 -1 87 -5 112 -7 25 -3 73 -5 108 -5
48 -1 62 -4 62 -16 0 -8 7 -15 15 -15 8 0 15 6 15 14 0 20 49 26 153 20 68 -5
95 -11 105 -23 12 -15 14 -15 25 0 10 13 38 19 112 24 55 4 126 16 158 26 32
10 81 21 110 25 76 8 218 43 249 59 35 20 99 20 92 1 -3 -7 2 -16 11 -20 21
-8 38 2 29 16 -5 7 2 9 22 4 16 -4 44 -10 62 -13 26 -4 31 -9 27 -24 -9 -27
24 -38 41 -14 11 15 22 17 80 11 73 -7 122 -25 71 -26 -54 0 -17 -17 51 -23
38 -4 83 -10 100 -13 25 -5 32 -3 32 10 0 16 11 21 23 10 3 -3 26 -8 52 -10
25 -2 55 -8 66 -14 20 -11 20 -12 2 -32 -37 -41 -65 -48 -175 -42 -57 4 -119
7 -140 8 -20 0 -40 4 -44 9 -4 4 45 7 110 6 108 -1 120 1 141 21 14 13 29 19
36 15 8 -5 10 -4 5 3 -4 7 -19 12 -34 12 -20 0 -23 -3 -13 -9 33 -21 -159 -27
-214 -6 -17 6 -17 5 -5 -5 12 -9 1 -10 -50 -5 -96 11 -105 11 -110 1 -3 -5 11
-15 30 -23 l35 -13 -48 6 c-26 3 -62 11 -79 18 -23 10 -38 11 -59 2 -50 -18
-33 -32 55 -44 82 -11 201 -40 194 -48 -10 -9 -221 28 -283 50 -75 27 -105 32
-105 16 0 -5 6 -10 14 -10 7 0 20 -7 27 -16 12 -15 11 -16 -11 -9 -14 4 -36
14 -49 22 -22 14 -24 14 -18 -1 5 -12 0 -16 -18 -16 -13 0 -27 5 -30 10 -3 6
-16 10 -28 10 -17 0 -14 -4 16 -20 20 -11 48 -20 61 -20 13 0 42 -7 65 -15 30
-10 48 -11 64 -4 15 6 52 5 117 -4 l95 -13 -70 -13 c-40 -8 -149 -15 -255 -16
l-185 -1 -78 33 c-88 37 -87 37 -87 23 0 -5 24 -21 53 -35 36 -18 43 -24 22
-19 -16 3 -43 8 -58 10 -15 2 -41 13 -57 24 -38 27 -40 9 -2 -20 l27 -21 -39
5 c-22 3 -42 9 -45 14 -9 14 -52 34 -58 28 -11 -11 7 -36 26 -36 11 0 23 -4
26 -10 8 -13 -88 -9 -98 4 -5 7 -7 4 -3 -6 4 -15 -1 -18 -24 -18 -17 0 -30 5
-30 13 0 6 -5 4 -11 -5 -14 -25 -43 -22 -63 5 l-17 22 6 -22 c9 -33 -13 -29
-51 8 -18 17 -38 29 -45 27 -9 -3 -4 -12 14 -28 31 -27 34 -40 11 -40 -9 0
-33 18 -53 40 -20 22 -40 40 -44 40 -14 0 -7 -27 13 -45 25 -23 26 -45 1 -38
-10 3 -27 20 -37 39 -20 37 -52 43 -46 9 2 -11 8 -21 13 -23 5 -2 9 -11 9 -19
0 -13 -3 -13 -15 -3 -8 7 -15 18 -15 24 0 22 -32 58 -42 48 -7 -7 -1 -22 16
-45 18 -23 23 -38 16 -42 -16 -10 -39 13 -56 53 -11 27 -17 33 -26 24 -9 -9
-8 -18 2 -39 8 -16 16 -31 18 -35 2 -5 -3 -8 -11 -8 -8 0 -21 17 -29 38 -12
31 -20 38 -46 40 -28 2 -32 -1 -38 -34 -6 -33 -27 -54 -41 -41 -3 4 -1 24 5
47 14 55 -2 51 -18 -5 -13 -48 -30 -60 -31 -22 l0 22 -11 -22 c-11 -23 -38
-32 -38 -13 0 6 7 24 15 40 9 17 11 30 5 30 -5 0 -10 -6 -10 -14 0 -19 -37
-63 -45 -54 -4 4 0 21 9 39 9 18 16 37 16 43 0 18 -25 -14 -36 -47 -8 -24 -17
-33 -39 -35 -23 -3 -27 -1 -21 13 6 16 4 16 -16 3 -28 -18 -135 -23 -154 -7
-8 7 -39 12 -69 11 l-54 0 16 24 c8 13 20 24 26 24 6 0 8 3 4 6 -3 4 -24 -8
-46 -26 -30 -23 -47 -30 -63 -25 -44 12 -66 28 -61 41 8 20 -15 17 -44 -6 -31
-24 -58 -27 -49 -5 4 12 0 14 -22 9 l-27 -7 33 28 c18 15 30 30 27 33 -3 4 -9
2 -13 -3 -12 -17 -73 -57 -79 -52 -8 9 7 27 41 48 17 10 27 19 21 19 -5 0 -30
-14 -55 -30 -25 -16 -52 -30 -60 -30 -8 0 3 12 23 26 21 14 36 29 32 32 -3 4
-9 2 -13 -4 -10 -15 -81 -54 -98 -54 -8 0 -14 4 -14 9 0 6 -12 4 -26 -4 -15
-7 -33 -11 -41 -8 -12 5 -11 10 8 24 29 23 12 25 -19 3 -12 -8 -32 -14 -43
-12 -17 2 -13 8 22 31 52 33 45 35 -13 5 -32 -17 -58 -23 -101 -21 -33 1 -61
4 -64 7 -12 11 74 70 94 64 4 -1 19 4 32 11 12 7 32 11 42 8 10 -3 19 0 19 5
0 16 -190 1 -300 -24 -9 -2 -16 6 -18 19 -4 25 6 29 93 38 60 6 160 27 224 47
18 5 65 14 103 19 40 5 85 18 104 30 18 11 38 18 44 14 5 -3 18 -2 27 4 15 8
59 5 71 -5z m812 -28 c0 -25 -4 -47 -9 -51 -13 -7 -17 2 -26 53 -6 38 -5 42
14 42 18 0 21 -6 21 -44z m164 29 c8 -22 -5 -76 -18 -72 -14 5 -19 32 -12 63
7 27 21 31 30 9z m61 4 c11 -17 -5 -81 -18 -76 -7 2 -13 22 -15 45 -2 32 1 42
12 42 8 0 18 -5 21 -11z m95 -34 c0 -44 -12 -60 -24 -30 -7 20 4 75 15 75 5 0
9 -20 9 -45z m61 -3 c5 -43 3 -47 -17 -34 -12 7 -17 31 -15 65 2 34 26 11 32
-31z m-926 28 c-3 -5 -10 -10 -16 -10 -5 0 -9 5 -9 10 0 6 7 10 16 10 8 0 12
-4 9 -10z m652 -30 c1 -28 -3 -40 -13 -40 -16 0 -17 5 -8 49 9 43 19 39 21 -9z
m-837 26 c0 -3 -4 -8 -10 -11 -5 -3 -10 -1 -10 4 0 6 5 11 10 11 6 0 10 -2 10
-4z m997 -53 c-4 -17 -4 -17 -12 0 -4 9 -4 25 0 35 8 16 8 16 12 0 3 -10 3
-26 0 -35z m-852 -8 c-31 -26 -45 -31 -45 -16 0 8 57 41 70 40 3 0 -8 -11 -25
-24z m2150 5 c3 -5 -1 -10 -9 -10 -9 0 -16 5 -16 10 0 6 4 10 9 10 6 0 13 -4
16 -10z m-4212 -115 c-14 -125 -56 -261 -94 -300 -18 -18 -9 67 22 203 32 138
56 193 70 155 3 -10 4 -36 2 -58z m1077 57 c0 -13 -12 -22 -22 -16 -10 6 -1
24 13 24 5 0 9 -4 9 -8z m-938 -53 c6 -17 27 -41 49 -55 41 -26 53 -63 22 -65
-88 -7 -113 -4 -113 12 0 22 16 28 56 22 37 -6 55 13 22 22 -55 15 -68 27 -65
62 3 41 15 42 29 2z m1208 4 c-8 -3 -23 -12 -32 -21 -28 -24 -139 -20 -115 5
4 3 24 9 44 13 45 9 125 11 103 3z m2850 -23 c34 -1 40 -3 25 -9 -17 -7 -56
-8 -137 -2 -10 0 -18 5 -18 10 0 5 19 8 43 6 23 -2 62 -5 87 -5z m262 -47 c10
-13 3 -33 -12 -33 -13 0 -24 66 -14 82 7 9 10 6 12 -12 2 -14 8 -30 14 -37z
m-60 -23 c3 -22 -1 -25 -34 -28 -28 -2 -38 1 -38 12 0 8 -3 21 -6 30 -3 9 -2
16 4 16 5 0 12 -9 15 -21 9 -34 43 -20 39 16 -3 36 14 14 20 -25z m-3202 -27
c0 -27 -4 -43 -9 -37 -8 8 -4 84 5 84 2 0 4 -21 4 -47z m3088 10 c2 -28 0 -29
-40 -31 -42 -3 -43 -2 -43 28 0 17 5 30 13 30 6 0 12 -9 12 -21 0 -28 34 -21
38 9 5 30 17 20 20 -15z m-3730 6 c18 -29 29 -149 13 -149 -7 0 -9 5 -6 11 4
6 -2 13 -13 16 -15 4 -20 13 -19 40 1 23 -5 40 -16 48 -20 14 -21 27 -5 43 17
17 31 15 46 -9z m693 -41 c-9 -32 -9 -31 -10 17 0 38 2 46 10 33 6 -11 6 -29
0 -50z m62 15 c-2 -18 4 -36 12 -43 16 -13 21 -6 27 38 5 42 23 28 26 -21 3
-48 3 -48 -25 -41 -64 14 -63 13 -63 61 0 31 4 43 13 40 7 -2 11 -17 10 -34z
m2847 25 c0 -6 7 -20 17 -30 15 -17 14 -18 -20 -18 -34 0 -37 2 -37 28 0 21 5
28 20 29 11 1 20 -3 20 -9z m-3484 -23 c3 -14 1 -31 -5 -38 -7 -10 -7 -17 0
-24 8 -8 9 -31 5 -66 -7 -57 -22 -73 -56 -62 -15 5 -16 12 -9 48 4 23 8 61 9
85 0 23 5 42 10 42 6 0 10 9 10 20 0 29 28 25 36 -5z m3325 -18 c6 -22 4 -27
-11 -27 -11 0 -19 9 -22 25 -9 45 21 47 33 2z m73 16 c4 -9 2 -21 -4 -27 -12
-12 -15 -8 -24 22 -9 27 18 32 28 5z m-2596 -34 c-8 -29 -8 -43 1 -52 14 -14
31 6 31 38 0 11 5 27 10 35 7 11 9 3 4 -25 -4 -31 -2 -44 10 -54 16 -13 21 -3
28 58 5 41 25 36 24 -6 -1 -28 3 -38 17 -41 13 -3 17 3 17 27 0 17 4 31 9 31
6 0 9 -19 8 -42 -2 -33 2 -43 16 -46 14 -3 17 4 17 36 0 45 8 72 21 72 5 0 9
-27 9 -60 0 -41 4 -60 13 -60 6 0 22 -3 35 -6 20 -6 22 -3 22 35 0 47 16 85
31 75 6 -3 7 -24 3 -50 -5 -36 -3 -45 11 -50 10 -4 21 -1 26 7 8 12 11 12 19
-1 9 -13 11 -13 20 0 5 8 10 30 10 48 0 26 4 33 17 30 15 -3 18 -14 18 -62 l0
-58 -95 5 c-52 3 -120 8 -150 11 -70 6 -221 39 -220 49 0 4 0 27 0 52 0 32 4
45 14 45 11 0 12 -8 4 -41z m1082 14 c0 -19 -3 -24 -10 -17 -6 6 -8 18 -4 27
9 24 14 21 14 -10z m40 -9 c0 -8 -4 -12 -10 -9 -5 3 -10 13 -10 21 0 8 5 12
10 9 6 -3 10 -13 10 -21z m1210 0 c12 -31 6 -44 -21 -44 -14 0 -19 7 -19 28 0
48 24 58 40 16z m120 1 c0 -14 -4 -25 -9 -25 -5 0 -11 11 -13 25 -4 17 -1 25
8 25 8 0 14 -11 14 -25z m-2946 -252 l1 -248 -34 -53 c-48 -75 -64 -71 -36 9
17 46 32 263 18 242 -5 -7 -9 53 -9 141 1 144 2 154 21 163 11 5 24 6 29 2 5
-5 9 -120 10 -256z m2484 236 c6 -45 11 -53 27 -39 9 8 13 21 10 31 -4 11 -2
19 3 19 5 0 12 -9 15 -20 3 -11 13 -20 22 -20 13 0 16 7 13 30 -5 32 7 42 15
13 19 -70 19 -72 -15 -77 -106 -16 -100 -20 -113 58 -5 29 -3 37 7 34 7 -3 14
-15 16 -29z m177 -15 c0 -27 -5 -40 -15 -42 -12 -2 -14 7 -12 43 5 57 27 56
27 -1z m83 9 c-2 -27 -8 -39 -20 -41 -14 -3 -18 4 -18 31 0 37 6 47 27 47 10
0 13 -11 11 -37z m142 16 c0 -11 -4 -17 -10 -14 -5 3 -10 13 -10 21 0 8 5 14
10 14 6 0 10 -9 10 -21z m-539 -16 c0 -16 3 -40 5 -55 4 -22 1 -25 -16 -21
-11 3 -20 10 -21 17 -2 20 3 71 8 79 10 16 23 5 24 -20z m-150 5 c0 -7 3 -32
5 -55 3 -25 0 -44 -6 -48 -20 -12 -33 13 -34 65 -1 41 2 50 17 50 9 0 17 -6
18 -12z m-179 -28 c-6 -43 6 -80 26 -81 22 -1 -24 -17 -54 -18 -18 -1 -22 6
-28 50 -6 40 -10 50 -24 47 -18 -4 -20 -22 -8 -75 7 -29 5 -33 -13 -33 -18 0
-21 6 -21 48 0 63 10 75 67 83 26 3 51 7 54 8 3 0 4 -12 1 -29z m104 3 c-2
-16 -5 -40 -5 -55 -2 -53 -21 -28 -21 27 0 43 3 55 15 55 12 0 14 -7 11 -27z
m139 -2 c-3 -17 -2 -32 4 -36 6 -3 16 -15 21 -26 10 -17 7 -19 -20 -19 -29 0
-30 1 -30 49 0 43 5 55 28 60 2 1 1 -12 -3 -28z m-397 -21 c-10 -30 -28 -32
-28 -4 0 8 -7 14 -16 14 -11 0 -14 -8 -12 -32 2 -26 8 -34 26 -36 35 -5 20
-27 -20 -30 -32 -3 -36 0 -41 27 -11 54 19 99 57 85 8 -3 17 0 21 5 13 22 24
0 13 -29z m1638 -154 c-4 -140 -10 -202 -21 -223 -13 -27 -13 -35 -1 -71 8
-23 33 -69 56 -102 l41 -60 -25 -10 c-71 -27 -264 -39 -546 -33 -420 8 -459 7
-530 -6 -36 -7 -76 -14 -90 -15 -14 -2 -55 -11 -91 -19 -46 -11 -95 -15 -165
-11 -163 7 -345 5 -604 -8 -135 -7 -285 -13 -333 -12 -83 1 -284 24 -392 45
-27 5 -69 11 -91 13 -69 7 -206 26 -254 36 -25 4 -76 9 -115 9 -73 1 -147 19
-203 49 l-34 18 25 30 c18 22 26 45 30 94 4 36 11 99 16 140 6 41 7 116 4 166
-3 50 -3 104 1 118 6 26 9 27 54 21 26 -4 104 -22 173 -41 156 -43 214 -53
354 -60 61 -3 137 -9 170 -13 33 -5 71 -9 85 -9 66 0 614 -13 757 -17 93 -3
173 -1 188 5 13 5 112 12 217 15 106 3 209 10 228 15 34 8 100 16 330 40 58 6
177 11 265 12 88 0 174 4 190 9 17 4 50 10 75 13 42 5 116 22 185 45 61 19 59
29 51 -183z m-4255 162 c-6 -18 -24 -27 -76 -40 -38 -10 -71 -16 -73 -13 -13
12 24 34 68 40 27 4 57 13 67 21 24 18 24 18 14 -8z m1849 0 c0 -30 15 -52 28
-44 6 4 16 -3 22 -14 10 -19 8 -20 -80 -20 -69 0 -90 3 -90 13 0 9 12 14 30
15 17 0 30 -4 30 -9 0 -5 7 -9 16 -9 14 0 15 7 10 45 -7 41 -5 45 13 45 15 0
21 -6 21 -22z m114 -47 c15 -24 31 -4 28 33 -3 29 0 37 10 34 15 -6 19 -108 3
-108 -5 0 -27 3 -48 6 -29 5 -35 10 -27 19 6 7 8 25 4 38 -3 14 -2 32 2 39 6
9 10 3 15 -18 3 -17 9 -36 13 -43z m112 -27 c-3 -8 -12 -11 -19 -8 -10 4 -12
15 -7 43 11 62 25 72 28 22 2 -24 1 -49 -2 -57z m-339 49 c-3 -10 -5 -4 -5 12
0 17 2 24 5 18 2 -7 2 -21 0 -30z m471 31 c14 -4 21 -12 18 -20 -3 -8 -1 -25
4 -39 14 -36 44 -22 36 16 -3 16 -1 31 4 34 6 3 10 -6 10 -20 0 -15 5 -35 10
-46 10 -18 7 -19 -50 -19 -53 0 -60 2 -61 20 -1 11 -3 25 -4 30 -1 6 -3 15 -4
20 0 6 -8 10 -16 10 -10 0 -15 -11 -15 -35 0 -19 -4 -35 -9 -35 -10 0 -23 69
-15 82 6 9 59 11 92 2z m-1699 -36 c-26 -81 -38 -135 -45 -185 -3 -30 -11 -52
-16 -51 -14 5 -13 7 12 131 28 141 27 137 44 137 12 0 13 -6 5 -32z m1846 13
c-3 -10 -1 -30 4 -45 10 -24 9 -26 -20 -26 -25 0 -28 3 -20 18 5 9 7 30 4 45
-5 23 -2 27 17 27 16 0 20 -4 15 -19z m90 -58 c5 2 11 20 13 40 2 26 8 37 19
37 11 0 14 -6 9 -22 -3 -13 -6 -35 -6 -50 0 -24 -4 -28 -27 -27 -44 1 -58 11
-57 44 1 57 6 60 22 17 9 -23 21 -41 27 -39z m-1855 41 c0 -14 -11 -50 -25
-80 -14 -30 -25 -63 -25 -74 0 -10 -5 -22 -11 -26 -8 -4 -9 3 -6 22 3 16 9 61
12 99 8 81 10 85 36 85 14 0 19 -7 19 -26z m3790 -3 c0 -25 -5 -30 -40 -39
-55 -14 -55 13 0 51 34 23 40 22 40 -12z m-1190 9 c0 -5 -4 -10 -10 -10 -5 0
-10 5 -10 10 0 6 5 10 10 10 6 0 10 -4 10 -10z m-3223 -36 c-16 -8 -34 -13
-40 -11 -7 3 -1 9 13 15 38 16 59 13 27 -4z m4415 -171 c-1 -138 1 -152 24
-198 28 -58 83 -148 113 -187 27 -34 26 -42 -6 -57 -18 -9 -28 -9 -33 -1 -4 6
-14 8 -23 4 -14 -5 -16 -1 -11 24 6 29 -9 52 -21 32 -3 -5 -13 -10 -22 -10
-15 0 -15 10 2 55 7 16 6 18 -6 8 -14 -14 -49 -18 -49 -6 0 4 17 24 37 45 42
43 40 63 -2 24 -29 -27 -59 -33 -71 -15 -3 6 -1 15 6 19 7 4 14 19 15 33 2 14
10 36 19 49 21 30 20 41 -4 35 -28 -7 -35 10 -15 33 16 18 16 20 1 26 -24 9
-19 33 9 46 29 13 36 44 8 33 -33 -12 -38 -10 -38 15 0 18 6 26 23 28 12 2 22
10 22 17 0 7 -10 15 -22 17 -37 5 -35 42 4 65 18 11 35 19 37 17 1 -1 3 -69 3
-151z m-4562 127 c0 -5 -5 -10 -11 -10 -5 0 -7 5 -4 10 3 6 8 10 11 10 2 0 4
-4 4 -10z m801 -173 c-17 -17 -20 -6 -13 43 l6 45 9 -38 c6 -27 6 -42 -2 -50z
m-319 11 c-7 -7 -12 -8 -12 -2 0 14 12 26 19 19 2 -3 -1 -11 -7 -17z m313 -68
c4 -6 -5 -10 -20 -10 -15 0 -24 4 -20 10 3 6 12 10 20 10 8 0 17 -4 20 -10z
m51 -98 c-9 -33 -16 -70 -16 -83 0 -17 -3 -20 -11 -12 -8 8 -7 26 4 65 8 29
18 67 22 83 4 17 9 25 12 18 2 -6 -3 -38 -11 -71z m3621 16 c-3 -7 -5 -2 -5
12 0 14 2 19 5 13 2 -7 2 -19 0 -25z m-3427 -178 c0 -16 43 -39 85 -45 22 -3
47 -9 55 -12 8 -3 53 -7 100 -8 47 -1 115 -10 152 -20 40 -10 115 -17 180 -19
62 -1 119 -5 125 -9 7 -4 36 -10 64 -13 102 -11 97 -25 -6 -18 -55 3 -185 9
-290 13 -132 6 -219 15 -287 30 -103 22 -188 54 -188 70 0 5 -3 16 -6 25 -3 9
-1 16 5 16 6 0 11 -4 11 -10z m3500 -75 c0 -15 -67 -38 -83 -28 -6 3 10 14 34
23 24 10 45 18 47 19 1 1 2 -6 2 -14z m-671 -21 c101 -2 188 -7 193 -12 9 -9
-119 -17 -417 -29 -77 -2 -160 -5 -185 -5 -145 1 -190 3 -190 10 0 22 220 52
330 45 47 -3 168 -7 269 -9z m903 -4 c29 -22 42 -66 56 -190 6 -47 19 -141 30
-210 12 -74 22 -208 26 -330 7 -200 7 -205 31 -230 34 -35 34 -89 0 -127 -13
-15 -25 -22 -25 -15 0 6 -9 12 -20 12 -11 0 -24 8 -27 18 -4 9 -11 20 -17 24
-6 4 -5 12 4 22 11 14 10 16 -4 10 -9 -3 -16 -2 -16 4 0 6 5 12 11 14 8 3 7
13 -4 35 -16 30 -16 31 9 48 34 22 27 26 -26 17 -39 -7 -42 -9 -28 -23 15 -14
13 -18 -17 -42 -36 -28 -48 -67 -34 -106 l9 -26 -20 24 c-21 24 -27 85 -11 96
13 8 41 65 41 84 0 9 4 22 9 30 8 12 12 12 24 3 12 -10 22 -9 51 5 36 17 52
42 19 28 -32 -13 -63 -18 -64 -9 0 5 -2 17 -4 27 -2 9 3 17 10 17 22 0 65 22
60 31 -3 4 -14 5 -25 2 -11 -3 -27 -2 -36 1 -14 5 -14 9 -3 22 7 9 24 20 37
25 31 12 20 27 -16 21 -29 -4 -30 -3 -42 65 -6 37 -14 76 -17 86 -3 12 1 17
16 17 25 0 27 15 5 28 -14 8 -11 11 15 20 42 15 39 26 -4 18 -31 -6 -36 -4
-45 19 -14 37 -12 55 4 55 8 0 28 11 43 24 28 24 28 25 8 40 -11 9 -30 15 -42
13 -26 -5 -30 6 -39 129 l-7 90 32 14 c32 13 56 42 44 53 -3 4 -19 -5 -35 -18
-35 -30 -44 -31 -53 -8 -4 12 2 25 20 40 32 28 36 28 67 3z m-102 -10 c0 -5
-2 -10 -4 -10 -3 0 -8 5 -11 10 -3 6 -1 10 4 10 6 0 11 -4 11 -10z m-1431 -60
c146 -5 272 -8 281 -5 9 3 98 7 198 9 100 3 186 7 191 10 5 4 12 2 15 -3 5 -7
-19 -13 -129 -28 -73 -9 -224 -15 -525 -18 -326 -3 -351 -4 -455 -28 -89 -20
-125 -24 -190 -19 -44 3 -120 4 -170 2 -288 -13 -493 5 -509 45 -8 21 21 26
132 21 59 -3 104 -1 107 4 4 6 39 10 78 11 40 1 99 4 132 8 83 8 527 4 844 -9z
m1131 10 c12 6 29 10 38 8 11 -3 -1 -13 -35 -31 -29 -15 -53 -23 -53 -17 0 5
5 10 10 10 6 0 10 5 10 11 0 5 -21 -8 -47 -29 -27 -22 -66 -48 -88 -57 -22
-10 -44 -21 -50 -24 -30 -16 28 37 72 66 28 18 55 38 59 44 8 13 1 10 -56 -29
-19 -13 -49 -36 -66 -52 -17 -15 -47 -36 -65 -46 -19 -9 -68 -40 -109 -68 -41
-28 -87 -56 -102 -63 -15 -6 -51 -30 -80 -51 -72 -54 -240 -144 -326 -176 -39
-14 -91 -38 -114 -52 -46 -29 -183 -83 -233 -91 l-30 -6 20 23 20 23 -22 -12
c-13 -6 -23 -16 -23 -21 0 -5 -9 -14 -20 -20 -17 -9 -22 -7 -30 15 -8 22 -13
24 -29 15 -11 -5 -23 -15 -26 -21 -4 -5 -19 -7 -35 -4 -22 5 -33 0 -56 -23
-34 -34 -74 -57 -74 -43 0 5 4 12 9 16 11 6 41 63 41 77 0 6 -18 -13 -40 -41
-41 -52 -58 -65 -42 -33 5 9 12 29 16 44 5 22 3 26 -9 22 -12 -5 -15 2 -15 33
0 36 -13 63 -31 63 -4 0 -3 -15 2 -32 15 -53 11 -106 -8 -117 -15 -9 -15 -12
-4 -20 9 -6 10 -11 2 -15 -7 -5 -14 4 -17 23 -4 17 -11 29 -17 28 -6 -1 -12 9
-12 23 -1 36 -25 91 -37 84 -5 -3 -5 -10 0 -17 5 -7 12 -30 15 -52 l7 -40 -25
30 c-14 17 -23 38 -21 47 3 15 -21 34 -30 25 -2 -2 7 -25 21 -52 14 -26 24
-50 21 -52 -4 -4 -26 29 -62 92 -6 10 -17 21 -24 23 -11 4 -10 -1 3 -21 9 -14
13 -29 8 -32 -5 -3 -12 -1 -16 5 -10 16 -28 12 -21 -5 4 -13 2 -13 -14 -5 -10
5 -22 15 -25 20 -10 16 -28 12 -21 -5 5 -13 2 -13 -19 1 -14 9 -33 13 -44 9
-11 -3 -34 1 -51 10 -17 9 -36 15 -43 14 -42 -7 -170 23 -247 58 -30 14 -66
30 -80 36 -43 17 -104 49 -121 63 -8 8 -23 14 -32 14 -9 0 -19 5 -22 11 -8 12
-111 59 -131 59 -8 0 -22 4 -32 9 -9 5 -73 38 -142 72 -69 34 -136 67 -150 74
-29 15 -69 32 -162 70 -38 16 -65 32 -61 38 3 6 1 7 -5 3 -6 -3 -17 1 -25 9
-9 8 -20 15 -26 15 -6 0 -11 5 -11 10 0 16 43 12 82 -9 21 -10 38 -15 40 -11
2 4 44 3 93 -2 69 -7 103 -16 149 -39 72 -38 218 -100 223 -95 5 5 -36 29 -87
51 -25 10 -49 22 -55 27 -16 14 58 -3 85 -20 l25 -15 -20 23 -20 23 25 -8 c36
-11 73 -47 58 -56 -8 -5 -2 -10 15 -14 15 -4 27 -13 27 -20 0 -7 13 -18 28
-23 16 -5 62 -35 102 -66 39 -31 75 -56 79 -56 3 0 -2 7 -12 14 -13 11 -15 15
-5 19 16 6 -31 48 -81 73 -39 19 -127 84 -114 84 5 0 14 -5 21 -12 8 -8 12 -8
12 -1 0 6 -10 18 -22 27 -23 17 -23 17 10 12 35 -6 99 -51 107 -77 3 -8 20
-23 38 -31 43 -22 137 -106 137 -124 0 -8 7 -14 15 -14 8 0 15 -7 15 -16 0 -8
5 -12 10 -9 17 11 11 26 -21 56 -17 16 -26 29 -19 29 6 0 8 5 5 10 -3 6 -11
10 -16 10 -6 0 -7 -5 -3 -11 4 -7 1 -10 -7 -7 -8 3 -13 10 -12 15 1 5 -26 27
-60 50 -74 50 -138 113 -115 113 8 0 21 -7 29 -16 11 -14 13 -14 21 1 14 25
46 9 101 -51 27 -30 54 -54 60 -54 6 0 -10 22 -37 49 -27 27 -45 54 -42 60 10
16 47 13 67 -5 16 -15 17 -14 12 5 -10 38 36 19 83 -35 48 -54 58 -56 19 -4
-14 19 -25 37 -25 40 0 11 234 0 241 -11 4 -7 8 -5 12 5 5 12 20 16 56 16 l50
0 7 -46 c5 -34 9 -43 15 -31 6 9 5 26 -1 42 -5 14 -10 28 -10 31 0 7 40 4 40
-3 2 -56 22 -139 38 -153 15 -15 21 -38 26 -118 5 -65 13 -107 22 -119 14 -17
15 -16 9 10 -3 16 -8 59 -11 95 -3 37 -7 81 -9 97 -1 17 -3 45 -4 63 -1 34
-21 46 -21 12 0 -11 -5 -20 -11 -20 -8 0 -9 11 -5 31 3 18 2 37 -3 43 -4 6
-11 23 -13 39 -4 22 -2 27 16 27 23 0 60 -20 39 -20 -7 0 -13 -10 -12 -22 0
-22 1 -22 8 -3 7 17 11 14 30 -25 12 -25 25 -64 28 -87 3 -24 9 -43 13 -43 10
0 -6 85 -25 133 -22 55 -20 59 28 56 23 -1 49 1 57 5 8 3 48 13 89 21 40 8 77
18 82 21 5 3 12 -2 15 -11 5 -12 9 -14 14 -4 11 18 212 26 503 21 l148 -2 -6
-22 -7 -23 17 23 c20 27 71 32 61 5 -6 -15 -5 -16 11 -1 10 8 38 16 63 17 83
3 139 10 157 19 10 5 38 12 63 15 25 3 54 9 63 13 27 10 20 -10 -10 -28 -16
-10 -23 -18 -17 -18 6 0 22 8 35 18 23 17 74 42 86 42 3 0 -2 -9 -12 -20 -24
-27 -16 -25 25 5 19 14 38 25 44 25 5 0 -1 -11 -14 -25 -32 -34 -21 -32 25 5
42 34 98 43 74 13 -9 -11 -2 -9 16 5 19 15 37 21 51 18 13 -4 26 -1 29 4 5 8
11 8 20 0 10 -8 19 -8 35 0z m-2879 -32 c13 -25 3 -36 -19 -21 -10 6 -38 14
-62 18 -79 13 -80 25 -2 24 61 -2 74 -5 83 -21z m282 -20 c37 -11 70 -24 73
-29 7 -12 -16 -11 -54 2 -20 7 -42 7 -65 1 -25 -7 -49 -6 -88 6 -30 8 -67 16
-84 18 -16 1 -33 3 -36 3 -4 1 -10 8 -13 17 -6 14 5 15 96 9 57 -4 133 -16
171 -27z m152 11 c5 -5 1 -9 -12 -9 -37 0 -83 12 -83 22 0 12 80 0 95 -13z
m2825 -241 c0 -13 -23 -5 -28 10 -2 7 2 10 12 6 9 -3 16 -11 16 -16z m-4016
-298 c5 -5 5 -29 2 -54 -7 -44 -8 -45 -37 -39 -22 4 -29 2 -29 -11 0 -8 11
-18 23 -21 22 -6 23 -9 13 -46 -9 -34 -14 -39 -38 -39 -35 0 -36 -17 -2 -32
21 -10 24 -16 18 -37 -4 -14 -10 -43 -14 -64 -9 -47 -12 -49 -41 -39 -21 8
-23 14 -21 63 2 30 10 89 18 131 8 42 16 87 18 100 1 13 8 43 15 66 11 41 14
43 39 37 15 -3 31 -10 36 -15z m1616 -21 c0 -5 15 -16 34 -24 19 -8 37 -19 41
-25 11 -19 -10 -10 -65 25 -43 27 -50 35 -32 35 12 0 22 -5 22 -11z m690 -69
c0 -5 -4 -10 -10 -10 -5 0 -10 5 -10 10 0 6 5 10 10 10 6 0 10 -4 10 -10z
m-2414 -355 c8 -57 -9 -100 -48 -119 -36 -18 -53 -13 -68 24 -21 52 -10 82 40
108 25 12 47 27 48 32 7 21 21 -2 28 -45z"/>
<path d="M6178 6273 c-21 -5 -24 -23 -5 -23 7 0 22 7 33 15 20 15 9 18 -28 8z"/>
<path d="M6155 5680 c-3 -5 1 -10 10 -10 9 0 13 5 10 10 -3 6 -8 10 -10 10 -2
0 -7 -4 -10 -10z"/>
<path d="M6132 4418 c3 -7 13 -15 22 -16 12 -3 17 1 14 10 -3 7 -13 15 -22 16
-12 3 -17 -1 -14 -10z"/>
<path d="M4200 3940 c-11 -7 -12 -12 -3 -21 15 -15 43 -5 43 16 0 17 -18 19
-40 5z"/>
<path d="M4105 3930 c-8 -14 3 -30 21 -30 16 0 16 2 8 24 -7 18 -20 21 -29 6z"/>
<path d="M4636 3921 c-8 -13 3 -19 37 -19 16 0 26 5 24 12 -5 14 -53 20 -61 7z"/>
<path d="M4228 3903 c-10 -2 -18 -11 -18 -19 0 -23 57 -18 70 6 9 17 8 20 -12
19 -13 -1 -31 -3 -40 -6z"/>
<path d="M4340 3895 c0 -8 9 -15 20 -15 13 0 18 5 14 15 -4 8 -12 15 -20 15
-8 0 -14 -7 -14 -15z"/>
<path d="M4000 3875 c0 -8 7 -15 15 -15 8 0 15 7 15 15 0 8 -7 15 -15 15 -8 0
-15 -7 -15 -15z"/>
<path d="M4721 3876 c-9 -10 -9 -16 -1 -21 17 -10 37 12 24 25 -8 8 -15 6 -23
-4z"/>
<path d="M3937 3873 c-4 -3 -7 -12 -7 -20 0 -11 4 -11 20 -1 11 7 20 16 20 20
0 10 -24 10 -33 1z"/>
<path d="M4610 3870 c0 -5 9 -10 20 -10 11 0 20 5 20 10 0 6 -9 10 -20 10 -11
0 -20 -4 -20 -10z"/>
<path d="M4110 3845 c0 -8 9 -15 20 -15 24 0 27 15 4 24 -22 9 -24 8 -24 -9z"/>
<path d="M4677 3853 c-12 -11 -8 -23 8 -23 8 0 15 7 15 15 0 16 -12 20 -23 8z"/>
<path d="M4340 3830 c0 -13 5 -20 13 -17 6 2 12 10 12 17 0 7 -6 15 -12 18 -8
2 -13 -5 -13 -18z"/>
<path d="M4165 3829 c-10 -15 3 -25 16 -12 7 7 7 13 1 17 -6 3 -14 1 -17 -5z"/>
<path d="M4199 3780 c-24 -28 -51 -52 -60 -55 -19 -6 -64 -65 -49 -65 17 0
117 98 139 136 11 19 19 34 17 34 -2 0 -23 -23 -47 -50z"/>
<path d="M4020 3801 c0 -19 22 -23 38 -7 15 15 14 16 -11 16 -15 0 -27 -4 -27
-9z"/>
<path d="M4247 3770 c-16 -22 -24 -40 -19 -40 5 0 14 11 20 25 7 14 19 28 27
31 8 4 15 10 15 15 0 19 -16 7 -43 -31z"/>
<path d="M3936 3771 c-3 -5 3 -11 14 -14 21 -5 32 1 24 14 -7 12 -31 11 -38 0z"/>
<path d="M5247 3553 c-13 -12 -7 -22 25 -37 64 -32 92 -10 32 25 -32 19 -47
22 -57 12z"/>
<path d="M5070 3504 c0 -9 5 -14 12 -12 18 6 21 28 4 28 -9 0 -16 -7 -16 -16z"/>
<path d="M5396 3511 c-3 -5 0 -14 7 -20 20 -16 59 -18 64 -3 3 7 -4 12 -16 12
-11 0 -23 5 -26 10 -8 12 -22 13 -29 1z"/>
<path d="M5645 3510 c3 -5 8 -10 11 -10 2 0 4 5 4 10 0 6 -5 10 -11 10 -5 0
-7 -4 -4 -10z"/>
<path d="M5130 3480 c0 -5 7 -10 15 -10 8 0 18 0 22 -1 4 0 9 4 11 10 2 6 -8
11 -22 11 -14 0 -26 -4 -26 -10z"/>
<path d="M5492 3474 c4 -21 22 -23 26 -1 2 10 -3 17 -13 17 -10 0 -15 -6 -13
-16z"/>
<path d="M4977 3473 c-13 -13 -7 -20 18 -20 28 0 33 12 9 21 -19 7 -19 7 -27
-1z"/>
<path d="M3512 3458 c-41 -11 -37 -34 4 -30 34 4 37 6 32 24 -2 11 -11 13 -36
6z"/>
<path d="M3728 3459 c-27 -15 -21 -29 13 -29 23 0 30 4 27 17 -4 21 -18 25
-40 12z"/>
<path d="M5051 3460 c-17 -10 -4 -32 17 -28 10 1 23 -1 30 -5 6 -5 16 -6 22
-2 14 9 0 36 -19 33 -9 -1 -21 0 -26 4 -6 4 -17 3 -24 -2z"/>
<path d="M4097 3454 c-13 -13 -7 -24 14 -24 11 0 19 5 17 12 -5 14 -22 21 -31
12z"/>
<path d="M4790 3450 c0 -5 9 -10 21 -10 11 0 17 5 14 10 -3 6 -13 10 -21 10
-8 0 -14 -4 -14 -10z"/>
<path d="M3907 3444 c-3 -3 -3 -12 0 -20 4 -10 9 -11 24 -1 10 6 19 15 19 19
0 9 -34 11 -43 2z"/>
<path d="M4530 3435 c0 -8 7 -15 15 -15 8 0 15 7 15 15 0 8 -7 15 -15 15 -8 0
-15 -7 -15 -15z"/>
<path d="M5968 3443 c7 -3 16 -2 19 1 4 3 -2 6 -13 5 -11 0 -14 -3 -6 -6z"/>
<path d="M3332 3432 c-17 -5 -15 -19 4 -26 19 -7 54 1 54 14 0 9 -41 18 -58
12z"/>
<path d="M4289 3418 c-1 -7 -1 -16 0 -20 0 -5 -6 -8 -14 -8 -8 0 -15 -7 -15
-15 0 -8 6 -15 13 -15 16 1 50 48 42 60 -9 14 -25 12 -26 -2z"/>
<path d="M4040 3405 c0 -8 9 -15 20 -15 11 0 20 7 20 15 0 8 -9 15 -20 15 -11
0 -20 -7 -20 -15z"/>
<path d="M4500 3401 c0 -11 4 -22 9 -25 11 -7 23 22 15 35 -9 16 -24 10 -24
-10z"/>
<path d="M3660 3395 c0 -21 27 -30 45 -15 19 16 10 30 -21 30 -15 0 -24 -6
-24 -15z"/>
<path d="M3840 3389 c-7 -12 -7 -20 0 -24 8 -5 7 -12 -2 -23 -7 -9 4 -3 24 13
21 17 38 35 38 41 0 19 -50 13 -60 -7z"/>
<path d="M4750 3395 c-10 -12 -10 -15 4 -15 9 0 16 7 16 15 0 8 -2 15 -4 15
-2 0 -9 -7 -16 -15z"/>
<path d="M3438 3393 c7 -3 16 -2 19 1 4 3 -2 6 -13 5 -11 0 -14 -3 -6 -6z"/>
<path d="M4855 3390 c-3 -6 1 -13 10 -16 19 -8 30 0 20 15 -8 14 -22 14 -30 1z"/>
<path d="M3548 3373 c-24 -15 -56 -63 -41 -63 3 0 23 18 44 40 41 43 40 49 -3
23z"/>
<path d="M5070 3381 c0 -5 15 -14 33 -19 46 -14 121 -22 111 -12 -5 5 -26 11
-47 13 -21 2 -43 9 -49 15 -14 14 -48 16 -48 3z"/>
<path d="M4000 3370 c0 -5 7 -10 15 -10 8 0 15 5 15 10 0 6 -7 10 -15 10 -8 0
-15 -4 -15 -10z"/>
<path d="M4990 3372 c0 -5 12 -14 28 -19 58 -21 99 -33 113 -33 14 1 -37 26
-81 40 -14 4 -33 11 -42 15 -10 4 -18 3 -18 -3z"/>
<path d="M3742 3363 c-18 -7 -97 -83 -86 -83 5 1 31 21 59 45 27 25 47 45 45
44 -3 0 -11 -3 -18 -6z"/>
<path d="M3766 3328 c-51 -59 -45 -69 9 -14 25 26 45 49 45 51 0 15 -23 0 -54
-37z"/>
<path d="M4050 3319 c0 -11 5 -17 10 -14 6 3 10 13 10 21 0 8 -4 14 -10 14 -5
0 -10 -9 -10 -21z"/>
<path d="M2886 3135 c-3 -8 -12 -15 -21 -15 -8 0 -15 -4 -15 -10 0 -5 -7 -10
-15 -10 -18 0 -19 -13 -4 -60 5 -19 11 -71 11 -115 l1 -80 10 58 c6 37 6 76 0
107 -8 39 -7 53 6 74 18 30 31 33 32 9 0 -10 3 -27 5 -38 3 -11 6 -62 7 -112
1 -51 6 -93 11 -93 5 0 6 57 3 133 -4 72 -7 140 -7 150 0 21 -16 23 -24 2z"/>
<path d="M5870 3129 c0 -5 5 -7 10 -4 6 3 10 8 10 11 0 2 -4 4 -10 4 -5 0 -10
-5 -10 -11z"/>
<path d="M5950 3043 c1 -179 41 -360 85 -377 28 -10 29 0 3 29 -13 14 -27 43
-31 63 -4 20 -13 57 -18 82 -6 25 -12 99 -14 165 -2 66 -4 123 -4 128 -1 4 -5
7 -11 7 -6 0 -10 -39 -10 -97z"/>
<path d="M6058 3086 c-1 -29 0 -66 3 -82 4 -17 7 4 8 54 1 92 -5 110 -11 28z"/>
<path d="M5825 3090 c-16 -17 -17 -31 -12 -107 4 -49 12 -104 17 -123 6 -19
13 -44 15 -55 9 -41 39 -115 47 -115 11 0 11 1 -10 46 -34 71 -65 255 -55 322
4 26 9 31 24 27 13 -4 19 -1 19 9 0 22 -23 20 -45 -4z"/>
<path d="M6005 3098 c-7 -17 10 -172 21 -203 4 -8 12 -15 19 -15 10 0 10 7 -1
38 -7 20 -14 62 -15 92 0 30 -4 66 -9 80 -6 21 -8 22 -15 8z"/>
<path d="M5647 3062 c-4 -21 -4 -85 -1 -143 7 -131 34 -219 67 -219 5 0 3 8
-7 19 -28 31 -38 81 -43 231 -3 80 -6 146 -8 148 -1 1 -5 -15 -8 -36z"/>
<path d="M5568 3045 c-10 -13 -18 -27 -18 -32 0 -4 7 1 15 11 8 11 15 18 16
15 11 -64 19 -77 19 -28 0 50 -12 61 -32 34z"/>
<path d="M5852 3050 c0 -14 2 -19 5 -12 2 6 2 18 0 25 -3 6 -5 1 -5 -13z"/>
<path d="M3001 2972 c-1 -85 -15 -215 -27 -247 -4 -13 -4 -16 3 -10 15 16 32
102 38 195 4 49 11 88 18 92 9 6 9 8 -1 8 -7 0 -12 7 -10 16 2 10 -2 19 -8 21
-8 3 -12 -21 -13 -75z"/>
<path d="M2960 3020 c-1 -14 -1 -47 0 -75 0 -27 -6 -72 -14 -100 -20 -62 -20
-91 -1 -47 21 47 37 181 26 217 -9 29 -9 29 -11 5z"/>
<path d="M5852 2995 c0 -16 2 -22 5 -12 2 9 2 23 0 30 -3 6 -5 -1 -5 -18z"/>
<path d="M5901 2944 c4 -42 12 -88 17 -103 6 -14 16 -54 22 -88 7 -35 17 -63
21 -63 12 0 11 23 0 52 -11 27 -38 163 -46 231 -10 78 -22 53 -14 -29z"/>
<path d="M5770 2897 c0 -59 3 -107 8 -107 7 0 5 201 -3 209 -3 2 -5 -44 -5
-102z"/>
<path d="M5481 2974 c0 -11 3 -14 6 -6 3 7 2 16 -1 19 -3 4 -6 -2 -5 -13z"/>
<path d="M4320 2977 c-1 -4 -1 -50 -1 -102 0 -185 1 -208 8 -201 8 8 7 295 -1
304 -3 3 -6 2 -6 -1z"/>
<path d="M5425 2950 c-8 -33 -7 -101 1 -145 11 -58 16 -75 25 -75 12 0 12 27
0 32 -15 5 -18 113 -3 111 6 -2 12 -2 12 0 -1 1 -7 27 -14 57 l-13 55 -8 -35z"/>
<path d="M3080 2953 c0 -13 5 -23 10 -23 13 0 13 11 0 30 -8 12 -10 11 -10 -7z"/>
<path d="M3142 2945 c0 -16 2 -22 5 -12 2 9 2 23 0 30 -3 6 -5 -1 -5 -18z"/>
<path d="M5856 2917 c3 -26 19 -92 40 -166 3 -8 7 -11 10 -8 3 3 -4 36 -16 74
-12 37 -22 81 -22 96 -1 15 -4 30 -8 32 -4 3 -6 -10 -4 -28z"/>
<path d="M5601 2915 c-1 -36 24 -122 31 -109 3 5 -3 38 -13 74 -12 47 -17 57
-18 35z"/>
<path d="M5480 2916 c0 -9 5 -16 10 -16 6 0 10 4 10 9 0 6 -4 13 -10 16 -5 3
-10 -1 -10 -9z"/>
<path d="M5562 2905 c0 -16 2 -22 5 -12 2 9 2 23 0 30 -3 6 -5 -1 -5 -18z"/>
<path d="M4116 2888 c3 -18 9 -67 13 -108 l8 -75 2 70 c1 80 -8 145 -20 145
-4 0 -6 -15 -3 -32z"/>
<path d="M3135 2870 c-4 -17 -5 -34 -2 -36 2 -3 7 10 11 27 8 42 0 50 -9 9z"/>
<path d="M3720 2815 c0 -49 3 -86 6 -82 8 8 8 157 0 165 -3 3 -6 -34 -6 -83z"/>
<path d="M4572 2880 c0 -14 2 -19 5 -12 2 6 2 18 0 25 -3 6 -5 1 -5 -13z"/>
<path d="M5371 2895 c1 -19 18 -51 18 -35 0 8 -4 22 -9 30 -5 8 -9 11 -9 5z"/>
<path d="M3076 2868 c-3 -13 -5 -32 -5 -43 1 -11 5 -2 10 19 10 42 6 62 -5 24z"/>
<path d="M3378 2884 c-5 -7 -7 -23 -7 -35 1 -13 -2 -48 -6 -76 -5 -34 -4 -53
2 -53 6 0 10 8 10 18 0 9 3 38 7 63 9 52 5 100 -6 83z"/>
<path d="M3474 2795 c0 -52 4 -95 7 -95 7 0 8 10 9 95 0 54 -3 82 -11 90 -3 2
-5 -38 -5 -90z"/>
<path d="M3524 2846 c3 -27 6 -64 6 -82 0 -19 4 -34 10 -34 11 0 1 128 -12
150 -6 10 -7 -2 -4 -34z"/>
<path d="M3594 2825 c3 -38 5 -85 5 -104 1 -19 4 -32 7 -28 11 10 4 181 -7
192 -7 7 -9 -12 -5 -60z"/>
<path d="M5490 2856 c0 -31 6 -34 13 -6 3 11 1 23 -4 26 -5 3 -9 -6 -9 -20z"/>
<path d="M3192 2845 c-1 -16 -4 -48 -7 -70 l-5 -40 11 33 c5 19 8 50 6 70 -3
33 -4 34 -5 7z"/>
<path d="M3657 2863 c-11 -10 -8 -123 3 -123 6 0 10 28 10 65 0 65 -1 71 -13
58z"/>
<path d="M4182 2845 c0 -16 2 -22 5 -12 2 9 2 23 0 30 -3 6 -5 -1 -5 -18z"/>
<path d="M3790 2838 c0 -14 -3 -47 -6 -74 -5 -37 -4 -46 5 -38 12 11 18 120 7
131 -3 4 -6 -5 -6 -19z"/>
<path d="M4057 2853 c-4 -3 -6 -38 -5 -77 l1 -71 7 75 c7 82 6 83 -3 73z"/>
<path d="M4922 2840 c0 -14 2 -19 5 -12 2 6 2 18 0 25 -3 6 -5 1 -5 -13z"/>
<path d="M5700 2850 c0 -5 5 -10 11 -10 5 0 7 5 4 10 -3 6 -8 10 -11 10 -2 0
-4 -4 -4 -10z"/>
<path d="M3270 2835 c0 -8 5 -15 10 -15 6 0 10 7 10 15 0 8 -4 15 -10 15 -5 0
-10 -7 -10 -15z"/>
<path d="M3421 2834 c0 -11 3 -14 6 -6 3 7 2 16 -1 19 -3 4 -6 -2 -5 -13z"/>
<path d="M4410 2783 c0 -36 2 -64 5 -61 10 9 14 128 5 128 -6 0 -10 -30 -10
-67z"/>
<path d="M4582 2830 c0 -14 2 -19 5 -12 2 6 2 18 0 25 -3 6 -5 1 -5 -13z"/>
<path d="M3326 2824 c-8 -20 -8 -24 2 -24 4 0 8 9 9 20 2 24 -3 26 -11 4z"/>
<path d="M2900 2809 c-1 -13 -7 -42 -15 -64 -12 -33 -12 -37 0 -22 15 21 30
95 21 104 -3 4 -6 -5 -6 -18z"/>
<path d="M2826 2784 c-4 -20 -5 -38 -2 -41 2 -3 8 11 12 31 3 21 4 39 1 42 -2
3 -8 -11 -11 -32z"/>
<path d="M4242 2800 c0 -14 2 -19 5 -12 2 6 2 18 0 25 -3 6 -5 1 -5 -13z"/>
<path d="M5147 2765 c3 -33 7 -62 9 -64 8 -8 2 74 -7 99 -5 16 -6 4 -2 -35z"/>
<path d="M5470 2813 c0 -4 9 -23 20 -41 11 -18 20 -39 20 -46 0 -7 8 -20 17
-27 15 -12 16 -12 9 6 -5 11 -13 40 -20 65 -7 29 -17 46 -28 48 -10 2 -18 0
-18 -5z"/>
<path d="M3056 2774 c-4 -14 -5 -29 -2 -31 3 -3 8 7 12 21 3 15 4 29 1 32 -2
3 -8 -7 -11 -22z"/>
<path d="M3232 2780 c0 -14 2 -19 5 -12 2 6 2 18 0 25 -3 6 -5 1 -5 -13z"/>
<path d="M3270 2766 c0 -20 2 -36 4 -36 8 0 12 61 4 66 -4 3 -8 -11 -8 -30z"/>
<path d="M4991 2784 c0 -11 3 -14 6 -6 3 7 2 16 -1 19 -3 4 -6 -2 -5 -13z"/>
<path d="M3117 2755 c-5 -22 -10 -49 -12 -60 -3 -11 2 -5 11 14 8 18 14 45 12
60 -3 22 -5 20 -11 -14z"/>
<path d="M3317 2783 c-11 -10 -8 -43 3 -43 6 0 10 11 10 25 0 26 -2 29 -13 18z"/>
<path d="M5393 2777 c4 -10 7 -23 7 -28 0 -5 5 -9 10 -9 16 0 12 26 -7 41 -15
12 -16 12 -10 -4z"/>
<path d="M4917 2760 c3 -11 7 -20 9 -20 2 0 4 9 4 20 0 11 -4 20 -9 20 -5 0
-7 -9 -4 -20z"/>
<path d="M5780 2764 c0 -11 7 -29 15 -40 13 -17 14 -16 5 15 -11 41 -20 51
-20 25z"/>
<path d="M4242 2750 c0 -14 2 -19 5 -12 2 6 2 18 0 25 -3 6 -5 1 -5 -13z"/>
<path d="M5107 2750 c-3 -11 -2 -20 3 -20 12 0 21 28 11 35 -5 2 -11 -4 -14
-15z"/>
<path d="M5581 2744 c0 -11 3 -14 6 -6 3 7 2 16 -1 19 -3 4 -6 -2 -5 -13z"/>
<path d="M2907 2723 c-4 -3 -7 -13 -7 -22 1 -13 3 -13 11 2 11 19 8 33 -4 20z"/>
<path d="M4042 2650 c0 -14 2 -19 5 -12 2 6 2 18 0 25 -3 6 -5 1 -5 -13z"/>
<path d="M4330 2635 c0 -14 4 -25 9 -25 4 0 6 11 3 25 -2 14 -6 25 -8 25 -2 0
-4 -11 -4 -25z"/>
<path d="M4035 2610 c-3 -5 -1 -10 4 -10 6 0 11 5 11 10 0 6 -2 10 -4 10 -3 0
-8 -4 -11 -10z"/>
<path d="M6403 2386 c-18 -6 -33 -14 -33 -18 0 -14 57 -9 69 6 16 19 2 24 -36
12z"/>
<path d="M6390 2310 c-14 -10 -22 -22 -18 -25 11 -11 63 10 63 25 0 21 -18 21
-45 0z"/>
<path d="M6398 2258 c-32 -11 -36 -23 -11 -32 11 -5 26 2 42 19 28 27 18 31
-31 13z"/>
<path d="M6420 1931 c0 -13 37 -24 50 -16 6 4 8 11 5 16 -8 12 -55 12 -55 0z"/>
<path d="M6430 1875 c0 -14 6 -16 32 -11 35 7 44 13 35 22 -4 4 -13 1 -22 -6
-12 -10 -18 -10 -30 0 -12 10 -15 9 -15 -5z"/>
<path d="M5819 2383 c-13 -15 -12 -15 9 -4 23 12 28 21 13 21 -5 0 -15 -7 -22
-17z"/>
<path d="M5779 2353 c-13 -16 -12 -17 4 -4 16 13 21 21 13 21 -2 0 -10 -8 -17
-17z"/>
<path d="M5636 2324 c-23 -23 -20 -30 4 -9 11 10 20 20 20 22 0 7 -9 2 -24
-13z"/>
<path d="M4602 2310 c0 -14 2 -19 5 -12 2 6 2 18 0 25 -3 6 -5 1 -5 -13z"/>
<path d="M4681 2303 c-10 -26 -10 -27 4 -9 8 11 15 23 15 28 0 15 -7 8 -19
-19z"/>
<path d="M4959 2303 l-24 -28 30 25 c17 14 32 26 34 28 2 1 0 2 -6 2 -5 0 -20
-12 -34 -27z"/>
<path d="M5360 2315 c-7 -9 -10 -18 -7 -21 3 -3 10 4 17 15 13 25 8 27 -10 6z"/>
<path d="M4746 2304 c-10 -25 1 -29 14 -5 6 12 7 21 1 21 -5 0 -12 -7 -15 -16z"/>
<path d="M2995 2300 c3 -5 11 -10 16 -10 6 0 7 5 4 10 -3 6 -11 10 -16 10 -6
0 -7 -4 -4 -10z"/>
<path d="M3030 2290 c0 -9 79 -45 85 -38 3 2 -16 14 -40 25 -25 11 -45 17 -45
13z"/>
<path d="M4535 2291 c-3 -6 -7 -30 -9 -53 -2 -24 -11 -58 -20 -75 -9 -18 -16
-51 -16 -74 0 -52 9 -47 14 8 2 23 9 49 16 60 9 14 10 6 7 -42 l-5 -60 14 42
c26 87 26 237 -1 194z"/>
<path d="M3550 2246 c0 -2 8 -10 18 -17 15 -13 16 -12 3 4 -13 16 -21 21 -21
13z"/>
<path d="M4381 2223 c-1 -18 4 -33 10 -33 7 0 9 -11 6 -29 -4 -19 -2 -31 6
-34 9 -3 9 -8 -2 -21 -12 -14 -12 -16 3 -10 11 4 16 17 15 43 -1 37 -15 94
-19 76 -1 -5 -6 1 -10 15 -8 24 -8 23 -9 -7z"/>
<path d="M3186 2217 c3 -10 9 -15 12 -12 3 3 0 11 -7 18 -10 9 -11 8 -5 -6z"/>
<path d="M4703 2215 c-3 -9 -3 -18 -1 -21 3 -3 8 4 11 16 6 23 -1 27 -10 5z"/>
<path d="M3846 2192 c1 -29 57 -146 74 -157 26 -16 18 6 -19 60 -24 34 -41 70
-41 86 0 15 -3 30 -7 32 -5 3 -8 -7 -7 -21z"/>
<path d="M3890 2211 c0 -5 9 -19 20 -32 l20 -24 -16 33 c-15 32 -24 40 -24 23z"/>
<path d="M4491 2184 c0 -11 3 -14 6 -6 3 7 2 16 -1 19 -3 4 -6 -2 -5 -13z"/>
<path d="M3268 2183 c7 -3 16 -2 19 1 4 3 -2 6 -13 5 -11 0 -14 -3 -6 -6z"/>
<path d="M3960 2151 c0 -6 4 -13 10 -16 6 -3 7 1 4 9 -7 18 -14 21 -14 7z"/>
<path d="M3710 2136 c0 -24 92 -115 98 -97 3 8 -19 36 -47 65 -39 39 -51 46
-51 32z"/>
<path d="M3970 2113 c0 -14 49 -101 61 -108 14 -9 11 0 -17 52 -27 53 -44 73
-44 56z"/>
<path d="M4310 2086 c0 -8 4 -17 9 -20 5 -4 7 3 4 14 -6 23 -13 26 -13 6z"/>
<path d="M5054 2068 l-19 -23 23 19 c12 11 22 21 22 23 0 8 -8 2 -26 -19z"/>
<path d="M4400 2055 c0 -8 4 -15 10 -15 5 0 7 7 4 15 -4 8 -8 15 -10 15 -2 0
-4 -7 -4 -15z"/>
<path d="M3886 2025 c4 -8 8 -15 10 -15 2 0 4 7 4 15 0 8 -4 15 -10 15 -5 0
-7 -7 -4 -15z"/>
<path d="M4144 2002 c0 -22 4 -44 9 -48 13 -14 11 65 -3 79 -4 5 -7 -9 -6 -31z"/>
<path d="M3775 2007 c10 -15 20 -25 23 -22 3 3 -5 16 -17 28 l-23 22 17 -28z"/>
<path d="M3975 2010 c3 -5 8 -10 11 -10 2 0 4 5 4 10 0 6 -5 10 -11 10 -5 0
-7 -4 -4 -10z"/>
<path d="M4081 1983 c-1 -17 4 -35 10 -38 19 -13 23 5 6 38 l-16 32 0 -32z"/>
<path d="M4500 1865 c-9 -10 -10 -19 -4 -25 13 -13 49 13 40 28 -10 16 -21 15
-36 -3z"/>
<path d="M4595 1850 c-8 -13 5 -13 25 0 13 8 13 10 -2 10 -9 0 -20 -4 -23 -10z"/>
<path d="M4639 1834 l-24 -27 28 18 c15 9 27 21 27 26 0 14 -5 11 -31 -17z"/>
<path d="M4700 1820 c0 -13 11 -13 30 0 12 8 11 10 -7 10 -13 0 -23 -4 -23
-10z"/>
<path d="M4381 1804 c0 -11 3 -14 6 -6 3 7 2 16 -1 19 -3 4 -6 -2 -5 -13z"/>
</g>
</svg>
